G04 #@! TF.FileFunction,Soldermask,Bot*
%FSLAX46Y46*%
G04 Gerber Fmt 4.6, Leading zero omitted, Abs format (unit mm)*
G04 Created by KiCad (PCBNEW 4.0.2-stable) date 9/20/2016 8:44:40 PM*
%MOMM*%
G01*
G04 APERTURE LIST*
%ADD10C,0.100000*%
%ADD11C,1.550000*%
%ADD12O,1.550000X2.800000*%
%ADD13O,2.800000X1.550000*%
%ADD14C,5.500000*%
%ADD15C,5.700000*%
%ADD16C,1.524000*%
%ADD17R,1.727200X1.727200*%
%ADD18O,1.727200X1.727200*%
%ADD19C,1.727200*%
G04 APERTURE END LIST*
D10*
D11*
X145312500Y-88541266D02*
X144687500Y-87458734D01*
D12*
X142500000Y-91330127D03*
D11*
X146958734Y-91017627D02*
X148041266Y-91642627D01*
D13*
X149330127Y-89500000D03*
D11*
X149458734Y-87312500D02*
X150541266Y-86687500D01*
X149017627Y-85041266D02*
X149642627Y-83958734D01*
D12*
X147500000Y-82669873D03*
D11*
X145312500Y-82541266D02*
X144687500Y-81458734D01*
X143041266Y-82982373D02*
X141958734Y-82357373D01*
D13*
X140669873Y-84500000D03*
D11*
X140541266Y-86687500D02*
X139458734Y-87312500D01*
X140982373Y-88958734D02*
X140357373Y-90041266D01*
X90312500Y-88541266D02*
X89687500Y-87458734D01*
D12*
X87500000Y-91330127D03*
D11*
X91958734Y-91017627D02*
X93041266Y-91642627D01*
D13*
X94330127Y-89500000D03*
D11*
X94458734Y-87312500D02*
X95541266Y-86687500D01*
X94017627Y-85041266D02*
X94642627Y-83958734D01*
D12*
X92500000Y-82669873D03*
D11*
X90312500Y-82541266D02*
X89687500Y-81458734D01*
X88041266Y-82982373D02*
X86958734Y-82357373D01*
D13*
X85669873Y-84500000D03*
D11*
X85541266Y-86687500D02*
X84458734Y-87312500D01*
X85982373Y-88958734D02*
X85357373Y-90041266D01*
X166312500Y-88541266D02*
X165687500Y-87458734D01*
D12*
X163500000Y-91330127D03*
D11*
X167958734Y-91017627D02*
X169041266Y-91642627D01*
D13*
X170330127Y-89500000D03*
D11*
X170458734Y-87312500D02*
X171541266Y-86687500D01*
X170017627Y-85041266D02*
X170642627Y-83958734D01*
D12*
X168500000Y-82669873D03*
D11*
X166312500Y-82541266D02*
X165687500Y-81458734D01*
X164041266Y-82982373D02*
X162958734Y-82357373D01*
D13*
X161669873Y-84500000D03*
D11*
X161541266Y-86687500D02*
X160458734Y-87312500D01*
X161982373Y-88958734D02*
X161357373Y-90041266D01*
D14*
X82000000Y-108000000D03*
X174000000Y-108000000D03*
X174000000Y-66000000D03*
D15*
X82000000Y-66000000D03*
D16*
X128000000Y-88500000D03*
X128000000Y-91500000D03*
X128000000Y-82500000D03*
X128000000Y-85500000D03*
D11*
X111312500Y-88541266D02*
X110687500Y-87458734D01*
D12*
X108500000Y-91330127D03*
D11*
X112958734Y-91017627D02*
X114041266Y-91642627D01*
D13*
X115330127Y-89500000D03*
D11*
X115458734Y-87312500D02*
X116541266Y-86687500D01*
X115017627Y-85041266D02*
X115642627Y-83958734D01*
D12*
X113500000Y-82669873D03*
D11*
X111312500Y-82541266D02*
X110687500Y-81458734D01*
X109041266Y-82982373D02*
X107958734Y-82357373D01*
D13*
X106669873Y-84500000D03*
D11*
X106541266Y-86687500D02*
X105458734Y-87312500D01*
X106982373Y-88958734D02*
X106357373Y-90041266D01*
D17*
X114000000Y-105000000D03*
D18*
X114000000Y-107540000D03*
D19*
X116540000Y-105000000D03*
X116540000Y-107540000D03*
D18*
X119080000Y-105000000D03*
X119080000Y-107540000D03*
X121620000Y-105000000D03*
X121620000Y-107540000D03*
X124160000Y-105000000D03*
X124160000Y-107540000D03*
X126700000Y-105000000D03*
X126700000Y-107540000D03*
X129240000Y-105000000D03*
X129240000Y-107540000D03*
X131780000Y-105000000D03*
X131780000Y-107540000D03*
X134320000Y-105000000D03*
X134320000Y-107540000D03*
X136860000Y-105000000D03*
X136860000Y-107540000D03*
X139400000Y-105000000D03*
X139400000Y-107540000D03*
X141940000Y-105000000D03*
X141940000Y-107540000D03*
M02*
