G04 #@! TF.FileFunction,Legend,Top*
%FSLAX46Y46*%
G04 Gerber Fmt 4.6, Leading zero omitted, Abs format (unit mm)*
G04 Created by KiCad (PCBNEW 4.0.2-stable) date 9/19/2016 8:58:52 PM*
%MOMM*%
G01*
G04 APERTURE LIST*
%ADD10C,0.100000*%
%ADD11C,0.300000*%
%ADD12C,0.150000*%
G04 APERTURE END LIST*
D10*
D11*
X120900000Y-84178571D02*
X120900000Y-84892857D01*
X120471429Y-84035714D02*
X121971429Y-84535714D01*
X120471429Y-85035714D01*
X120614286Y-85535714D02*
X120542857Y-85607142D01*
X120471429Y-85535714D01*
X120542857Y-85464285D01*
X120614286Y-85535714D01*
X120471429Y-85535714D01*
X121257143Y-87892857D02*
X121185714Y-88107143D01*
X121114286Y-88178571D01*
X120971429Y-88250000D01*
X120757143Y-88250000D01*
X120614286Y-88178571D01*
X120542857Y-88107143D01*
X120471429Y-87964285D01*
X120471429Y-87392857D01*
X121971429Y-87392857D01*
X121971429Y-87892857D01*
X121900000Y-88035714D01*
X121828571Y-88107143D01*
X121685714Y-88178571D01*
X121542857Y-88178571D01*
X121400000Y-88107143D01*
X121328571Y-88035714D01*
X121257143Y-87892857D01*
X121257143Y-87392857D01*
X120471429Y-88892857D02*
X121471429Y-88892857D01*
X121185714Y-88892857D02*
X121328571Y-88964285D01*
X121400000Y-89035714D01*
X121471429Y-89178571D01*
X121471429Y-89321428D01*
X120471429Y-89821428D02*
X121471429Y-89821428D01*
X121971429Y-89821428D02*
X121900000Y-89749999D01*
X121828571Y-89821428D01*
X121900000Y-89892856D01*
X121971429Y-89821428D01*
X121828571Y-89821428D01*
X121471429Y-91178571D02*
X120257143Y-91178571D01*
X120114286Y-91107142D01*
X120042857Y-91035714D01*
X119971429Y-90892857D01*
X119971429Y-90678571D01*
X120042857Y-90535714D01*
X120542857Y-91178571D02*
X120471429Y-91035714D01*
X120471429Y-90750000D01*
X120542857Y-90607142D01*
X120614286Y-90535714D01*
X120757143Y-90464285D01*
X121185714Y-90464285D01*
X121328571Y-90535714D01*
X121400000Y-90607142D01*
X121471429Y-90750000D01*
X121471429Y-91035714D01*
X121400000Y-91178571D01*
X121471429Y-92535714D02*
X120257143Y-92535714D01*
X120114286Y-92464285D01*
X120042857Y-92392857D01*
X119971429Y-92250000D01*
X119971429Y-92035714D01*
X120042857Y-91892857D01*
X120542857Y-92535714D02*
X120471429Y-92392857D01*
X120471429Y-92107143D01*
X120542857Y-91964285D01*
X120614286Y-91892857D01*
X120757143Y-91821428D01*
X121185714Y-91821428D01*
X121328571Y-91892857D01*
X121400000Y-91964285D01*
X121471429Y-92107143D01*
X121471429Y-92392857D01*
X121400000Y-92535714D01*
X120542857Y-93178571D02*
X120471429Y-93321428D01*
X120471429Y-93607143D01*
X120542857Y-93750000D01*
X120685714Y-93821428D01*
X120757143Y-93821428D01*
X120900000Y-93750000D01*
X120971429Y-93607143D01*
X120971429Y-93392857D01*
X121042857Y-93250000D01*
X121185714Y-93178571D01*
X121257143Y-93178571D01*
X121400000Y-93250000D01*
X121471429Y-93392857D01*
X121471429Y-93607143D01*
X121400000Y-93750000D01*
X118071429Y-85071429D02*
X118071429Y-85357144D01*
X118142857Y-85500001D01*
X118214286Y-85571429D01*
X118428571Y-85714287D01*
X118714286Y-85785715D01*
X119285714Y-85785715D01*
X119428571Y-85714287D01*
X119500000Y-85642858D01*
X119571429Y-85500001D01*
X119571429Y-85214287D01*
X119500000Y-85071429D01*
X119428571Y-85000001D01*
X119285714Y-84928572D01*
X118928571Y-84928572D01*
X118785714Y-85000001D01*
X118714286Y-85071429D01*
X118642857Y-85214287D01*
X118642857Y-85500001D01*
X118714286Y-85642858D01*
X118785714Y-85714287D01*
X118928571Y-85785715D01*
X119642857Y-87500000D02*
X117714286Y-86214286D01*
X119428571Y-87928572D02*
X119500000Y-88000001D01*
X119571429Y-88142858D01*
X119571429Y-88500001D01*
X119500000Y-88642858D01*
X119428571Y-88714287D01*
X119285714Y-88785715D01*
X119142857Y-88785715D01*
X118928571Y-88714287D01*
X118071429Y-87857144D01*
X118071429Y-88785715D01*
X119571429Y-89714286D02*
X119571429Y-89857143D01*
X119500000Y-90000000D01*
X119428571Y-90071429D01*
X119285714Y-90142858D01*
X119000000Y-90214286D01*
X118642857Y-90214286D01*
X118357143Y-90142858D01*
X118214286Y-90071429D01*
X118142857Y-90000000D01*
X118071429Y-89857143D01*
X118071429Y-89714286D01*
X118142857Y-89571429D01*
X118214286Y-89500000D01*
X118357143Y-89428572D01*
X118642857Y-89357143D01*
X119000000Y-89357143D01*
X119285714Y-89428572D01*
X119428571Y-89500000D01*
X119500000Y-89571429D01*
X119571429Y-89714286D01*
X118071429Y-91642857D02*
X118071429Y-90785714D01*
X118071429Y-91214286D02*
X119571429Y-91214286D01*
X119357143Y-91071429D01*
X119214286Y-90928571D01*
X119142857Y-90785714D01*
X119571429Y-92928571D02*
X119571429Y-92642857D01*
X119500000Y-92500000D01*
X119428571Y-92428571D01*
X119214286Y-92285714D01*
X118928571Y-92214285D01*
X118357143Y-92214285D01*
X118214286Y-92285714D01*
X118142857Y-92357142D01*
X118071429Y-92500000D01*
X118071429Y-92785714D01*
X118142857Y-92928571D01*
X118214286Y-93000000D01*
X118357143Y-93071428D01*
X118714286Y-93071428D01*
X118857143Y-93000000D01*
X118928571Y-92928571D01*
X119000000Y-92785714D01*
X119000000Y-92500000D01*
X118928571Y-92357142D01*
X118857143Y-92285714D01*
X118714286Y-92214285D01*
X117171429Y-86714286D02*
X115671429Y-87214286D01*
X117171429Y-87714286D01*
X115671429Y-89000000D02*
X115671429Y-88142857D01*
X115671429Y-88571429D02*
X117171429Y-88571429D01*
X116957143Y-88428572D01*
X116814286Y-88285714D01*
X116742857Y-88142857D01*
X115814286Y-89642857D02*
X115742857Y-89714285D01*
X115671429Y-89642857D01*
X115742857Y-89571428D01*
X115814286Y-89642857D01*
X115671429Y-89642857D01*
X117171429Y-90642857D02*
X117171429Y-90785714D01*
X117100000Y-90928571D01*
X117028571Y-91000000D01*
X116885714Y-91071429D01*
X116600000Y-91142857D01*
X116242857Y-91142857D01*
X115957143Y-91071429D01*
X115814286Y-91000000D01*
X115742857Y-90928571D01*
X115671429Y-90785714D01*
X115671429Y-90642857D01*
X115742857Y-90500000D01*
X115814286Y-90428571D01*
X115957143Y-90357143D01*
X116242857Y-90285714D01*
X116600000Y-90285714D01*
X116885714Y-90357143D01*
X117028571Y-90428571D01*
X117100000Y-90500000D01*
X117171429Y-90642857D01*
D12*
X204430000Y-101080000D02*
X204430000Y-80760000D01*
X204980000Y-100540000D02*
X204980000Y-81320000D01*
X213530000Y-101080000D02*
X213530000Y-80760000D01*
X212980000Y-100540000D02*
X212980000Y-93170000D01*
X212980000Y-88670000D02*
X212980000Y-81320000D01*
X212980000Y-93170000D02*
X213530000Y-93170000D01*
X212980000Y-88670000D02*
X213530000Y-88670000D01*
X204430000Y-101080000D02*
X213530000Y-101080000D01*
X204980000Y-100540000D02*
X212980000Y-100540000D01*
X204430000Y-80760000D02*
X213530000Y-80760000D01*
X204980000Y-81320000D02*
X212980000Y-81320000D01*
X204430000Y-101080000D02*
X204980000Y-100540000D01*
X204430000Y-80760000D02*
X204980000Y-81320000D01*
X213530000Y-101080000D02*
X212980000Y-100540000D01*
X213530000Y-80760000D02*
X212980000Y-81320000D01*
X123020000Y-98750000D02*
X114892000Y-98750000D01*
X114892000Y-98750000D02*
X114892000Y-102052000D01*
X114892000Y-102052000D02*
X123020000Y-102052000D01*
X123020000Y-98750000D02*
X123020000Y-102052000D01*
X123650000Y-103100000D02*
X123650000Y-102400000D01*
X124850000Y-102400000D02*
X124850000Y-103100000D01*
X124850000Y-97900000D02*
X124850000Y-98600000D01*
X123650000Y-98600000D02*
X123650000Y-97900000D01*
X205875000Y-72900000D02*
X205875000Y-74100000D01*
X204125000Y-74100000D02*
X204125000Y-72900000D01*
X115450000Y-109900000D02*
X115450000Y-111800000D01*
X116550000Y-109900000D02*
X116550000Y-111800000D01*
X116000000Y-110800000D02*
X116000000Y-111250000D01*
X116250000Y-110750000D02*
X115750000Y-110750000D01*
X116000000Y-110750000D02*
X116250000Y-111000000D01*
X116250000Y-111000000D02*
X115750000Y-111000000D01*
X115750000Y-111000000D02*
X116000000Y-110750000D01*
X116550000Y-108600000D02*
X116550000Y-106700000D01*
X115450000Y-108600000D02*
X115450000Y-106700000D01*
X116000000Y-107700000D02*
X116000000Y-107250000D01*
X115750000Y-107750000D02*
X116250000Y-107750000D01*
X116000000Y-107750000D02*
X115750000Y-107500000D01*
X115750000Y-107500000D02*
X116250000Y-107500000D01*
X116250000Y-107500000D02*
X116000000Y-107750000D01*
X201950000Y-71900000D02*
X201950000Y-73800000D01*
X203050000Y-71900000D02*
X203050000Y-73800000D01*
X202500000Y-72800000D02*
X202500000Y-73250000D01*
X202750000Y-72750000D02*
X202250000Y-72750000D01*
X202500000Y-72750000D02*
X202750000Y-73000000D01*
X202750000Y-73000000D02*
X202250000Y-73000000D01*
X202250000Y-73000000D02*
X202500000Y-72750000D01*
X132274000Y-117500000D02*
X132274000Y-120040000D01*
X132274000Y-120040000D02*
X124908000Y-120040000D01*
X124908000Y-120040000D02*
X124908000Y-117500000D01*
X132274000Y-117500000D02*
X132274000Y-113436000D01*
X132274000Y-113436000D02*
X124908000Y-113436000D01*
X124908000Y-113436000D02*
X124908000Y-117500000D01*
X142024000Y-117500000D02*
X142024000Y-120040000D01*
X142024000Y-120040000D02*
X134658000Y-120040000D01*
X134658000Y-120040000D02*
X134658000Y-117500000D01*
X142024000Y-117500000D02*
X142024000Y-113436000D01*
X142024000Y-113436000D02*
X134658000Y-113436000D01*
X134658000Y-113436000D02*
X134658000Y-117500000D01*
X192774000Y-117500000D02*
X192774000Y-120040000D01*
X192774000Y-120040000D02*
X185408000Y-120040000D01*
X185408000Y-120040000D02*
X185408000Y-117500000D01*
X192774000Y-117500000D02*
X192774000Y-113436000D01*
X192774000Y-113436000D02*
X185408000Y-113436000D01*
X185408000Y-113436000D02*
X185408000Y-117500000D01*
X212000000Y-103226000D02*
X214540000Y-103226000D01*
X214540000Y-103226000D02*
X214540000Y-110592000D01*
X214540000Y-110592000D02*
X212000000Y-110592000D01*
X212000000Y-103226000D02*
X207936000Y-103226000D01*
X207936000Y-103226000D02*
X207936000Y-110592000D01*
X207936000Y-110592000D02*
X212000000Y-110592000D01*
X163125000Y-91425000D02*
X163125000Y-91475000D01*
X167275000Y-91425000D02*
X167275000Y-91570000D01*
X167275000Y-96575000D02*
X167275000Y-96430000D01*
X163125000Y-96575000D02*
X163125000Y-96430000D01*
X163125000Y-91425000D02*
X167275000Y-91425000D01*
X163125000Y-96575000D02*
X167275000Y-96575000D01*
X163125000Y-91475000D02*
X161725000Y-91475000D01*
X163925000Y-99925000D02*
X163925000Y-99950000D01*
X168075000Y-99925000D02*
X168075000Y-100030000D01*
X168075000Y-110075000D02*
X168075000Y-109970000D01*
X163925000Y-110075000D02*
X163925000Y-109970000D01*
X163925000Y-99925000D02*
X168075000Y-99925000D01*
X163925000Y-110075000D02*
X168075000Y-110075000D01*
X163925000Y-99950000D02*
X162550000Y-99950000D01*
X149925000Y-99925000D02*
X149925000Y-99950000D01*
X154075000Y-99925000D02*
X154075000Y-100030000D01*
X154075000Y-110075000D02*
X154075000Y-109970000D01*
X149925000Y-110075000D02*
X149925000Y-109970000D01*
X149925000Y-99925000D02*
X154075000Y-99925000D01*
X149925000Y-110075000D02*
X154075000Y-110075000D01*
X149925000Y-99950000D02*
X148550000Y-99950000D01*
X186111000Y-84420000D02*
X183698000Y-84420000D01*
X187889000Y-84420000D02*
X190302000Y-84420000D01*
X186111000Y-84420000D02*
G75*
G03X187000000Y-85309000I889000J0D01*
G01*
X187000000Y-85309000D02*
G75*
G03X187889000Y-84420000I0J889000D01*
G01*
X185095000Y-85309000D02*
G75*
G03X185095000Y-85309000I-254000J0D01*
G01*
X183698000Y-94580000D02*
X183698000Y-94453000D01*
X183698000Y-91913000D02*
X183698000Y-92167000D01*
X183698000Y-89373000D02*
X183698000Y-89627000D01*
X183698000Y-86833000D02*
X183698000Y-87087000D01*
X183698000Y-84420000D02*
X183698000Y-84547000D01*
X190302000Y-84420000D02*
X190302000Y-84547000D01*
X190302000Y-94580000D02*
X190302000Y-94453000D01*
X190302000Y-91913000D02*
X190302000Y-92167000D01*
X190302000Y-89373000D02*
X190302000Y-89627000D01*
X190302000Y-86833000D02*
X190302000Y-87087000D01*
X183698000Y-94580000D02*
X190302000Y-94580000D01*
X129625000Y-95600000D02*
X129625000Y-94400000D01*
X131375000Y-94400000D02*
X131375000Y-95600000D01*
X132125000Y-95600000D02*
X132125000Y-94400000D01*
X133875000Y-94400000D02*
X133875000Y-95600000D01*
X127125000Y-95600000D02*
X127125000Y-94400000D01*
X128875000Y-94400000D02*
X128875000Y-95600000D01*
X126125000Y-87600000D02*
X126125000Y-86400000D01*
X127875000Y-86400000D02*
X127875000Y-87600000D01*
X153100000Y-97875000D02*
X151900000Y-97875000D01*
X151900000Y-96125000D02*
X153100000Y-96125000D01*
X153100000Y-95375000D02*
X151900000Y-95375000D01*
X151900000Y-93625000D02*
X153100000Y-93625000D01*
X119400000Y-108625000D02*
X120600000Y-108625000D01*
X120600000Y-110375000D02*
X119400000Y-110375000D01*
X119400000Y-106125000D02*
X120600000Y-106125000D01*
X120600000Y-107875000D02*
X119400000Y-107875000D01*
X187625000Y-97650000D02*
X187625000Y-98850000D01*
X185875000Y-98850000D02*
X185875000Y-97650000D01*
X183875000Y-99900000D02*
X183875000Y-101100000D01*
X182125000Y-101100000D02*
X182125000Y-99900000D01*
X165962000Y-89070000D02*
X165962000Y-86530000D01*
X165962000Y-86530000D02*
X164438000Y-86530000D01*
X164438000Y-86530000D02*
X164438000Y-89070000D01*
X164438000Y-89070000D02*
X165962000Y-89070000D01*
X134875000Y-89125000D02*
X135100000Y-89125000D01*
X134875000Y-81875000D02*
X135200000Y-81875000D01*
X142125000Y-81875000D02*
X141800000Y-81875000D01*
X142125000Y-89125000D02*
X141800000Y-89125000D01*
X134875000Y-89125000D02*
X134875000Y-88800000D01*
X142125000Y-89125000D02*
X142125000Y-88800000D01*
X142125000Y-81875000D02*
X142125000Y-82200000D01*
X134875000Y-81875000D02*
X134875000Y-82200000D01*
X135100000Y-89125000D02*
X135100000Y-90550000D01*
X159850000Y-96500000D02*
X159850000Y-95500000D01*
X158150000Y-95500000D02*
X158150000Y-96500000D01*
X172325000Y-83101000D02*
X172325000Y-89399000D01*
X172465000Y-83107000D02*
X172465000Y-89393000D01*
X172605000Y-83120000D02*
X172605000Y-85804000D01*
X172605000Y-86696000D02*
X172605000Y-89380000D01*
X172745000Y-83139000D02*
X172745000Y-85594000D01*
X172745000Y-86906000D02*
X172745000Y-89361000D01*
X172885000Y-83165000D02*
X172885000Y-85461000D01*
X172885000Y-87039000D02*
X172885000Y-89335000D01*
X173025000Y-83197000D02*
X173025000Y-85370000D01*
X173025000Y-87130000D02*
X173025000Y-89303000D01*
X173165000Y-83236000D02*
X173165000Y-85308000D01*
X173165000Y-87192000D02*
X173165000Y-89264000D01*
X173305000Y-83282000D02*
X173305000Y-85269000D01*
X173305000Y-87231000D02*
X173305000Y-89218000D01*
X173445000Y-83335000D02*
X173445000Y-85252000D01*
X173445000Y-87248000D02*
X173445000Y-89165000D01*
X173585000Y-83397000D02*
X173585000Y-85254000D01*
X173585000Y-87246000D02*
X173585000Y-89103000D01*
X173725000Y-83467000D02*
X173725000Y-85276000D01*
X173725000Y-87224000D02*
X173725000Y-89033000D01*
X173865000Y-83546000D02*
X173865000Y-85319000D01*
X173865000Y-87181000D02*
X173865000Y-88954000D01*
X174005000Y-83634000D02*
X174005000Y-85387000D01*
X174005000Y-87113000D02*
X174005000Y-88866000D01*
X174145000Y-83734000D02*
X174145000Y-85486000D01*
X174145000Y-87014000D02*
X174145000Y-88766000D01*
X174285000Y-83846000D02*
X174285000Y-85631000D01*
X174285000Y-86869000D02*
X174285000Y-88654000D01*
X174425000Y-83971000D02*
X174425000Y-85870000D01*
X174425000Y-86630000D02*
X174425000Y-88529000D01*
X174565000Y-84114000D02*
X174565000Y-88386000D01*
X174705000Y-84276000D02*
X174705000Y-88224000D01*
X174845000Y-84464000D02*
X174845000Y-88036000D01*
X174985000Y-84687000D02*
X174985000Y-87813000D01*
X175125000Y-84963000D02*
X175125000Y-87537000D01*
X175265000Y-85338000D02*
X175265000Y-87162000D01*
X174500000Y-86250000D02*
G75*
G03X174500000Y-86250000I-1000000J0D01*
G01*
X175437500Y-86250000D02*
G75*
G03X175437500Y-86250000I-3187500J0D01*
G01*
X158075000Y-83101000D02*
X158075000Y-89399000D01*
X158215000Y-83107000D02*
X158215000Y-89393000D01*
X158355000Y-83120000D02*
X158355000Y-85804000D01*
X158355000Y-86696000D02*
X158355000Y-89380000D01*
X158495000Y-83139000D02*
X158495000Y-85594000D01*
X158495000Y-86906000D02*
X158495000Y-89361000D01*
X158635000Y-83165000D02*
X158635000Y-85461000D01*
X158635000Y-87039000D02*
X158635000Y-89335000D01*
X158775000Y-83197000D02*
X158775000Y-85370000D01*
X158775000Y-87130000D02*
X158775000Y-89303000D01*
X158915000Y-83236000D02*
X158915000Y-85308000D01*
X158915000Y-87192000D02*
X158915000Y-89264000D01*
X159055000Y-83282000D02*
X159055000Y-85269000D01*
X159055000Y-87231000D02*
X159055000Y-89218000D01*
X159195000Y-83335000D02*
X159195000Y-85252000D01*
X159195000Y-87248000D02*
X159195000Y-89165000D01*
X159335000Y-83397000D02*
X159335000Y-85254000D01*
X159335000Y-87246000D02*
X159335000Y-89103000D01*
X159475000Y-83467000D02*
X159475000Y-85276000D01*
X159475000Y-87224000D02*
X159475000Y-89033000D01*
X159615000Y-83546000D02*
X159615000Y-85319000D01*
X159615000Y-87181000D02*
X159615000Y-88954000D01*
X159755000Y-83634000D02*
X159755000Y-85387000D01*
X159755000Y-87113000D02*
X159755000Y-88866000D01*
X159895000Y-83734000D02*
X159895000Y-85486000D01*
X159895000Y-87014000D02*
X159895000Y-88766000D01*
X160035000Y-83846000D02*
X160035000Y-85631000D01*
X160035000Y-86869000D02*
X160035000Y-88654000D01*
X160175000Y-83971000D02*
X160175000Y-85870000D01*
X160175000Y-86630000D02*
X160175000Y-88529000D01*
X160315000Y-84114000D02*
X160315000Y-88386000D01*
X160455000Y-84276000D02*
X160455000Y-88224000D01*
X160595000Y-84464000D02*
X160595000Y-88036000D01*
X160735000Y-84687000D02*
X160735000Y-87813000D01*
X160875000Y-84963000D02*
X160875000Y-87537000D01*
X161015000Y-85338000D02*
X161015000Y-87162000D01*
X160250000Y-86250000D02*
G75*
G03X160250000Y-86250000I-1000000J0D01*
G01*
X161187500Y-86250000D02*
G75*
G03X161187500Y-86250000I-3187500J0D01*
G01*
X134150000Y-100500000D02*
X134150000Y-101500000D01*
X135850000Y-101500000D02*
X135850000Y-100500000D01*
X130350000Y-87500000D02*
X130350000Y-86500000D01*
X128650000Y-86500000D02*
X128650000Y-87500000D01*
X194325000Y-71000000D02*
X194325000Y-83500000D01*
X194465000Y-71004000D02*
X194465000Y-83496000D01*
X194605000Y-71010000D02*
X194605000Y-83490000D01*
X194745000Y-71020000D02*
X194745000Y-83480000D01*
X194885000Y-71032000D02*
X194885000Y-83468000D01*
X195025000Y-71048000D02*
X195025000Y-83452000D01*
X195165000Y-71067000D02*
X195165000Y-83433000D01*
X195305000Y-71090000D02*
X195305000Y-83410000D01*
X195445000Y-71115000D02*
X195445000Y-83385000D01*
X195585000Y-71144000D02*
X195585000Y-83356000D01*
X195725000Y-71177000D02*
X195725000Y-76729000D01*
X195725000Y-77771000D02*
X195725000Y-83323000D01*
X195865000Y-71212000D02*
X195865000Y-76516000D01*
X195865000Y-77984000D02*
X195865000Y-83288000D01*
X196005000Y-71251000D02*
X196005000Y-76374000D01*
X196005000Y-78126000D02*
X196005000Y-83249000D01*
X196145000Y-71294000D02*
X196145000Y-76272000D01*
X196145000Y-78228000D02*
X196145000Y-83206000D01*
X196285000Y-71341000D02*
X196285000Y-76198000D01*
X196285000Y-78302000D02*
X196285000Y-83159000D01*
X196425000Y-71391000D02*
X196425000Y-76147000D01*
X196425000Y-78353000D02*
X196425000Y-83109000D01*
X196565000Y-71445000D02*
X196565000Y-76115000D01*
X196565000Y-78385000D02*
X196565000Y-83055000D01*
X196705000Y-71502000D02*
X196705000Y-76101000D01*
X196705000Y-78399000D02*
X196705000Y-82998000D01*
X196845000Y-71564000D02*
X196845000Y-76104000D01*
X196845000Y-78396000D02*
X196845000Y-82936000D01*
X196985000Y-71630000D02*
X196985000Y-76124000D01*
X196985000Y-78376000D02*
X196985000Y-82870000D01*
X197125000Y-71701000D02*
X197125000Y-76163000D01*
X197125000Y-78337000D02*
X197125000Y-82799000D01*
X197265000Y-71775000D02*
X197265000Y-76222000D01*
X197265000Y-78278000D02*
X197265000Y-82725000D01*
X197405000Y-71855000D02*
X197405000Y-76305000D01*
X197405000Y-78195000D02*
X197405000Y-82645000D01*
X197545000Y-71939000D02*
X197545000Y-76419000D01*
X197545000Y-78081000D02*
X197545000Y-82561000D01*
X197685000Y-72029000D02*
X197685000Y-76580000D01*
X197685000Y-77920000D02*
X197685000Y-82471000D01*
X197825000Y-72123000D02*
X197825000Y-76841000D01*
X197825000Y-77659000D02*
X197825000Y-82377000D01*
X197965000Y-72224000D02*
X197965000Y-82276000D01*
X198105000Y-72331000D02*
X198105000Y-82169000D01*
X198245000Y-72443000D02*
X198245000Y-82057000D01*
X198385000Y-72563000D02*
X198385000Y-81937000D01*
X198525000Y-72691000D02*
X198525000Y-81809000D01*
X198665000Y-72826000D02*
X198665000Y-81674000D01*
X198805000Y-72970000D02*
X198805000Y-81530000D01*
X198945000Y-73125000D02*
X198945000Y-81375000D01*
X199085000Y-73290000D02*
X199085000Y-81210000D01*
X199225000Y-73467000D02*
X199225000Y-81033000D01*
X199365000Y-73658000D02*
X199365000Y-80842000D01*
X199505000Y-73867000D02*
X199505000Y-80633000D01*
X199645000Y-74095000D02*
X199645000Y-80405000D01*
X199785000Y-74347000D02*
X199785000Y-80153000D01*
X199925000Y-74631000D02*
X199925000Y-79869000D01*
X200065000Y-74959000D02*
X200065000Y-79541000D01*
X200205000Y-75353000D02*
X200205000Y-79147000D01*
X200345000Y-75867000D02*
X200345000Y-78633000D01*
X200485000Y-76817000D02*
X200485000Y-77683000D01*
X197900000Y-77250000D02*
G75*
G03X197900000Y-77250000I-1150000J0D01*
G01*
X200537500Y-77250000D02*
G75*
G03X200537500Y-77250000I-6287500J0D01*
G01*
X179575000Y-71250000D02*
X179575000Y-83750000D01*
X179715000Y-71254000D02*
X179715000Y-83746000D01*
X179855000Y-71260000D02*
X179855000Y-83740000D01*
X179995000Y-71270000D02*
X179995000Y-83730000D01*
X180135000Y-71282000D02*
X180135000Y-83718000D01*
X180275000Y-71298000D02*
X180275000Y-83702000D01*
X180415000Y-71317000D02*
X180415000Y-83683000D01*
X180555000Y-71340000D02*
X180555000Y-83660000D01*
X180695000Y-71365000D02*
X180695000Y-83635000D01*
X180835000Y-71394000D02*
X180835000Y-83606000D01*
X180975000Y-71427000D02*
X180975000Y-76979000D01*
X180975000Y-78021000D02*
X180975000Y-83573000D01*
X181115000Y-71462000D02*
X181115000Y-76766000D01*
X181115000Y-78234000D02*
X181115000Y-83538000D01*
X181255000Y-71501000D02*
X181255000Y-76624000D01*
X181255000Y-78376000D02*
X181255000Y-83499000D01*
X181395000Y-71544000D02*
X181395000Y-76522000D01*
X181395000Y-78478000D02*
X181395000Y-83456000D01*
X181535000Y-71591000D02*
X181535000Y-76448000D01*
X181535000Y-78552000D02*
X181535000Y-83409000D01*
X181675000Y-71641000D02*
X181675000Y-76397000D01*
X181675000Y-78603000D02*
X181675000Y-83359000D01*
X181815000Y-71695000D02*
X181815000Y-76365000D01*
X181815000Y-78635000D02*
X181815000Y-83305000D01*
X181955000Y-71752000D02*
X181955000Y-76351000D01*
X181955000Y-78649000D02*
X181955000Y-83248000D01*
X182095000Y-71814000D02*
X182095000Y-76354000D01*
X182095000Y-78646000D02*
X182095000Y-83186000D01*
X182235000Y-71880000D02*
X182235000Y-76374000D01*
X182235000Y-78626000D02*
X182235000Y-83120000D01*
X182375000Y-71951000D02*
X182375000Y-76413000D01*
X182375000Y-78587000D02*
X182375000Y-83049000D01*
X182515000Y-72025000D02*
X182515000Y-76472000D01*
X182515000Y-78528000D02*
X182515000Y-82975000D01*
X182655000Y-72105000D02*
X182655000Y-76555000D01*
X182655000Y-78445000D02*
X182655000Y-82895000D01*
X182795000Y-72189000D02*
X182795000Y-76669000D01*
X182795000Y-78331000D02*
X182795000Y-82811000D01*
X182935000Y-72279000D02*
X182935000Y-76830000D01*
X182935000Y-78170000D02*
X182935000Y-82721000D01*
X183075000Y-72373000D02*
X183075000Y-77091000D01*
X183075000Y-77909000D02*
X183075000Y-82627000D01*
X183215000Y-72474000D02*
X183215000Y-82526000D01*
X183355000Y-72581000D02*
X183355000Y-82419000D01*
X183495000Y-72693000D02*
X183495000Y-82307000D01*
X183635000Y-72813000D02*
X183635000Y-82187000D01*
X183775000Y-72941000D02*
X183775000Y-82059000D01*
X183915000Y-73076000D02*
X183915000Y-81924000D01*
X184055000Y-73220000D02*
X184055000Y-81780000D01*
X184195000Y-73375000D02*
X184195000Y-81625000D01*
X184335000Y-73540000D02*
X184335000Y-81460000D01*
X184475000Y-73717000D02*
X184475000Y-81283000D01*
X184615000Y-73908000D02*
X184615000Y-81092000D01*
X184755000Y-74117000D02*
X184755000Y-80883000D01*
X184895000Y-74345000D02*
X184895000Y-80655000D01*
X185035000Y-74597000D02*
X185035000Y-80403000D01*
X185175000Y-74881000D02*
X185175000Y-80119000D01*
X185315000Y-75209000D02*
X185315000Y-79791000D01*
X185455000Y-75603000D02*
X185455000Y-79397000D01*
X185595000Y-76117000D02*
X185595000Y-78883000D01*
X185735000Y-77067000D02*
X185735000Y-77933000D01*
X183150000Y-77500000D02*
G75*
G03X183150000Y-77500000I-1150000J0D01*
G01*
X185787500Y-77500000D02*
G75*
G03X185787500Y-77500000I-6287500J0D01*
G01*
X150825000Y-71250000D02*
X150825000Y-83750000D01*
X150965000Y-71254000D02*
X150965000Y-83746000D01*
X151105000Y-71260000D02*
X151105000Y-83740000D01*
X151245000Y-71270000D02*
X151245000Y-83730000D01*
X151385000Y-71282000D02*
X151385000Y-83718000D01*
X151525000Y-71298000D02*
X151525000Y-83702000D01*
X151665000Y-71317000D02*
X151665000Y-83683000D01*
X151805000Y-71340000D02*
X151805000Y-83660000D01*
X151945000Y-71365000D02*
X151945000Y-83635000D01*
X152085000Y-71394000D02*
X152085000Y-83606000D01*
X152225000Y-71427000D02*
X152225000Y-76979000D01*
X152225000Y-78021000D02*
X152225000Y-83573000D01*
X152365000Y-71462000D02*
X152365000Y-76766000D01*
X152365000Y-78234000D02*
X152365000Y-83538000D01*
X152505000Y-71501000D02*
X152505000Y-76624000D01*
X152505000Y-78376000D02*
X152505000Y-83499000D01*
X152645000Y-71544000D02*
X152645000Y-76522000D01*
X152645000Y-78478000D02*
X152645000Y-83456000D01*
X152785000Y-71591000D02*
X152785000Y-76448000D01*
X152785000Y-78552000D02*
X152785000Y-83409000D01*
X152925000Y-71641000D02*
X152925000Y-76397000D01*
X152925000Y-78603000D02*
X152925000Y-83359000D01*
X153065000Y-71695000D02*
X153065000Y-76365000D01*
X153065000Y-78635000D02*
X153065000Y-83305000D01*
X153205000Y-71752000D02*
X153205000Y-76351000D01*
X153205000Y-78649000D02*
X153205000Y-83248000D01*
X153345000Y-71814000D02*
X153345000Y-76354000D01*
X153345000Y-78646000D02*
X153345000Y-83186000D01*
X153485000Y-71880000D02*
X153485000Y-76374000D01*
X153485000Y-78626000D02*
X153485000Y-83120000D01*
X153625000Y-71951000D02*
X153625000Y-76413000D01*
X153625000Y-78587000D02*
X153625000Y-83049000D01*
X153765000Y-72025000D02*
X153765000Y-76472000D01*
X153765000Y-78528000D02*
X153765000Y-82975000D01*
X153905000Y-72105000D02*
X153905000Y-76555000D01*
X153905000Y-78445000D02*
X153905000Y-82895000D01*
X154045000Y-72189000D02*
X154045000Y-76669000D01*
X154045000Y-78331000D02*
X154045000Y-82811000D01*
X154185000Y-72279000D02*
X154185000Y-76830000D01*
X154185000Y-78170000D02*
X154185000Y-82721000D01*
X154325000Y-72373000D02*
X154325000Y-77091000D01*
X154325000Y-77909000D02*
X154325000Y-82627000D01*
X154465000Y-72474000D02*
X154465000Y-82526000D01*
X154605000Y-72581000D02*
X154605000Y-82419000D01*
X154745000Y-72693000D02*
X154745000Y-82307000D01*
X154885000Y-72813000D02*
X154885000Y-82187000D01*
X155025000Y-72941000D02*
X155025000Y-82059000D01*
X155165000Y-73076000D02*
X155165000Y-81924000D01*
X155305000Y-73220000D02*
X155305000Y-81780000D01*
X155445000Y-73375000D02*
X155445000Y-81625000D01*
X155585000Y-73540000D02*
X155585000Y-81460000D01*
X155725000Y-73717000D02*
X155725000Y-81283000D01*
X155865000Y-73908000D02*
X155865000Y-81092000D01*
X156005000Y-74117000D02*
X156005000Y-80883000D01*
X156145000Y-74345000D02*
X156145000Y-80655000D01*
X156285000Y-74597000D02*
X156285000Y-80403000D01*
X156425000Y-74881000D02*
X156425000Y-80119000D01*
X156565000Y-75209000D02*
X156565000Y-79791000D01*
X156705000Y-75603000D02*
X156705000Y-79397000D01*
X156845000Y-76117000D02*
X156845000Y-78883000D01*
X156985000Y-77067000D02*
X156985000Y-77933000D01*
X154400000Y-77500000D02*
G75*
G03X154400000Y-77500000I-1150000J0D01*
G01*
X157037500Y-77500000D02*
G75*
G03X157037500Y-77500000I-6287500J0D01*
G01*
X165075000Y-71250000D02*
X165075000Y-83750000D01*
X165215000Y-71254000D02*
X165215000Y-83746000D01*
X165355000Y-71260000D02*
X165355000Y-83740000D01*
X165495000Y-71270000D02*
X165495000Y-83730000D01*
X165635000Y-71282000D02*
X165635000Y-83718000D01*
X165775000Y-71298000D02*
X165775000Y-83702000D01*
X165915000Y-71317000D02*
X165915000Y-83683000D01*
X166055000Y-71340000D02*
X166055000Y-83660000D01*
X166195000Y-71365000D02*
X166195000Y-83635000D01*
X166335000Y-71394000D02*
X166335000Y-83606000D01*
X166475000Y-71427000D02*
X166475000Y-76979000D01*
X166475000Y-78021000D02*
X166475000Y-83573000D01*
X166615000Y-71462000D02*
X166615000Y-76766000D01*
X166615000Y-78234000D02*
X166615000Y-83538000D01*
X166755000Y-71501000D02*
X166755000Y-76624000D01*
X166755000Y-78376000D02*
X166755000Y-83499000D01*
X166895000Y-71544000D02*
X166895000Y-76522000D01*
X166895000Y-78478000D02*
X166895000Y-83456000D01*
X167035000Y-71591000D02*
X167035000Y-76448000D01*
X167035000Y-78552000D02*
X167035000Y-83409000D01*
X167175000Y-71641000D02*
X167175000Y-76397000D01*
X167175000Y-78603000D02*
X167175000Y-83359000D01*
X167315000Y-71695000D02*
X167315000Y-76365000D01*
X167315000Y-78635000D02*
X167315000Y-83305000D01*
X167455000Y-71752000D02*
X167455000Y-76351000D01*
X167455000Y-78649000D02*
X167455000Y-83248000D01*
X167595000Y-71814000D02*
X167595000Y-76354000D01*
X167595000Y-78646000D02*
X167595000Y-83186000D01*
X167735000Y-71880000D02*
X167735000Y-76374000D01*
X167735000Y-78626000D02*
X167735000Y-83120000D01*
X167875000Y-71951000D02*
X167875000Y-76413000D01*
X167875000Y-78587000D02*
X167875000Y-83049000D01*
X168015000Y-72025000D02*
X168015000Y-76472000D01*
X168015000Y-78528000D02*
X168015000Y-82975000D01*
X168155000Y-72105000D02*
X168155000Y-76555000D01*
X168155000Y-78445000D02*
X168155000Y-82895000D01*
X168295000Y-72189000D02*
X168295000Y-76669000D01*
X168295000Y-78331000D02*
X168295000Y-82811000D01*
X168435000Y-72279000D02*
X168435000Y-76830000D01*
X168435000Y-78170000D02*
X168435000Y-82721000D01*
X168575000Y-72373000D02*
X168575000Y-77091000D01*
X168575000Y-77909000D02*
X168575000Y-82627000D01*
X168715000Y-72474000D02*
X168715000Y-82526000D01*
X168855000Y-72581000D02*
X168855000Y-82419000D01*
X168995000Y-72693000D02*
X168995000Y-82307000D01*
X169135000Y-72813000D02*
X169135000Y-82187000D01*
X169275000Y-72941000D02*
X169275000Y-82059000D01*
X169415000Y-73076000D02*
X169415000Y-81924000D01*
X169555000Y-73220000D02*
X169555000Y-81780000D01*
X169695000Y-73375000D02*
X169695000Y-81625000D01*
X169835000Y-73540000D02*
X169835000Y-81460000D01*
X169975000Y-73717000D02*
X169975000Y-81283000D01*
X170115000Y-73908000D02*
X170115000Y-81092000D01*
X170255000Y-74117000D02*
X170255000Y-80883000D01*
X170395000Y-74345000D02*
X170395000Y-80655000D01*
X170535000Y-74597000D02*
X170535000Y-80403000D01*
X170675000Y-74881000D02*
X170675000Y-80119000D01*
X170815000Y-75209000D02*
X170815000Y-79791000D01*
X170955000Y-75603000D02*
X170955000Y-79397000D01*
X171095000Y-76117000D02*
X171095000Y-78883000D01*
X171235000Y-77067000D02*
X171235000Y-77933000D01*
X168650000Y-77500000D02*
G75*
G03X168650000Y-77500000I-1150000J0D01*
G01*
X171287500Y-77500000D02*
G75*
G03X171287500Y-77500000I-6287500J0D01*
G01*
X194650000Y-90000000D02*
X194650000Y-91000000D01*
X196350000Y-91000000D02*
X196350000Y-90000000D01*
X127675000Y-99175000D02*
X127675000Y-99225000D01*
X131825000Y-99175000D02*
X131825000Y-99320000D01*
X131825000Y-104325000D02*
X131825000Y-104180000D01*
X127675000Y-104325000D02*
X127675000Y-104180000D01*
X127675000Y-99175000D02*
X131825000Y-99175000D01*
X127675000Y-104325000D02*
X131825000Y-104325000D01*
X127675000Y-99225000D02*
X126275000Y-99225000D01*
X173196920Y-100449000D02*
X171297000Y-98549080D01*
X171297000Y-98549080D02*
X171297000Y-93049980D01*
X171297000Y-93049980D02*
X173196920Y-91051000D01*
X179303080Y-100449000D02*
X181203000Y-98549080D01*
X181203000Y-98549080D02*
X181203000Y-92950920D01*
X181203000Y-92950920D02*
X179303080Y-91051000D01*
X202385000Y-98000000D02*
G75*
G03X202385000Y-98000000I-4175000J0D01*
G01*
X195750000Y-110500000D02*
X195750000Y-120000000D01*
X195750000Y-105500000D02*
X195750000Y-106500000D01*
X195750000Y-105500000D02*
X204750000Y-105500000D01*
X204750000Y-105500000D02*
X204750000Y-120000000D01*
X204640000Y-120000000D02*
X195750000Y-120000000D01*
X203452381Y-101238095D02*
X202452381Y-101238095D01*
X202452381Y-100857142D01*
X202500000Y-100761904D01*
X202547619Y-100714285D01*
X202642857Y-100666666D01*
X202785714Y-100666666D01*
X202880952Y-100714285D01*
X202928571Y-100761904D01*
X202976190Y-100857142D01*
X202976190Y-101238095D01*
X202452381Y-100333333D02*
X202452381Y-99714285D01*
X202833333Y-100047619D01*
X202833333Y-99904761D01*
X202880952Y-99809523D01*
X202928571Y-99761904D01*
X203023810Y-99714285D01*
X203261905Y-99714285D01*
X203357143Y-99761904D01*
X203404762Y-99809523D01*
X203452381Y-99904761D01*
X203452381Y-100190476D01*
X203404762Y-100285714D01*
X203357143Y-100333333D01*
X115523809Y-96476190D02*
X115523809Y-96952381D01*
X115190476Y-95952381D02*
X115523809Y-96476190D01*
X115857143Y-95952381D01*
X116714286Y-96952381D02*
X116142857Y-96952381D01*
X116428571Y-96952381D02*
X116428571Y-95952381D01*
X116333333Y-96095238D01*
X116238095Y-96190476D01*
X116142857Y-96238095D01*
X121107143Y-104607143D02*
X121059524Y-104654762D01*
X120916667Y-104702381D01*
X120821429Y-104702381D01*
X120678571Y-104654762D01*
X120583333Y-104559524D01*
X120535714Y-104464286D01*
X120488095Y-104273810D01*
X120488095Y-104130952D01*
X120535714Y-103940476D01*
X120583333Y-103845238D01*
X120678571Y-103750000D01*
X120821429Y-103702381D01*
X120916667Y-103702381D01*
X121059524Y-103750000D01*
X121107143Y-103797619D01*
X122059524Y-104702381D02*
X121488095Y-104702381D01*
X121773809Y-104702381D02*
X121773809Y-103702381D01*
X121678571Y-103845238D01*
X121583333Y-103940476D01*
X121488095Y-103988095D01*
X122964286Y-103702381D02*
X122488095Y-103702381D01*
X122440476Y-104178571D01*
X122488095Y-104130952D01*
X122583333Y-104083333D01*
X122821429Y-104083333D01*
X122916667Y-104130952D01*
X122964286Y-104178571D01*
X123011905Y-104273810D01*
X123011905Y-104511905D01*
X122964286Y-104607143D01*
X122916667Y-104654762D01*
X122821429Y-104702381D01*
X122583333Y-104702381D01*
X122488095Y-104654762D01*
X122440476Y-104607143D01*
X121107143Y-97607143D02*
X121059524Y-97654762D01*
X120916667Y-97702381D01*
X120821429Y-97702381D01*
X120678571Y-97654762D01*
X120583333Y-97559524D01*
X120535714Y-97464286D01*
X120488095Y-97273810D01*
X120488095Y-97130952D01*
X120535714Y-96940476D01*
X120583333Y-96845238D01*
X120678571Y-96750000D01*
X120821429Y-96702381D01*
X120916667Y-96702381D01*
X121059524Y-96750000D01*
X121107143Y-96797619D01*
X122059524Y-97702381D02*
X121488095Y-97702381D01*
X121773809Y-97702381D02*
X121773809Y-96702381D01*
X121678571Y-96845238D01*
X121583333Y-96940476D01*
X121488095Y-96988095D01*
X122916667Y-97035714D02*
X122916667Y-97702381D01*
X122678571Y-96654762D02*
X122440476Y-97369048D01*
X123059524Y-97369048D01*
X205452381Y-77166666D02*
X204976190Y-77500000D01*
X205452381Y-77738095D02*
X204452381Y-77738095D01*
X204452381Y-77357142D01*
X204500000Y-77261904D01*
X204547619Y-77214285D01*
X204642857Y-77166666D01*
X204785714Y-77166666D01*
X204880952Y-77214285D01*
X204928571Y-77261904D01*
X204976190Y-77357142D01*
X204976190Y-77738095D01*
X204452381Y-76261904D02*
X204452381Y-76738095D01*
X204928571Y-76785714D01*
X204880952Y-76738095D01*
X204833333Y-76642857D01*
X204833333Y-76404761D01*
X204880952Y-76309523D01*
X204928571Y-76261904D01*
X205023810Y-76214285D01*
X205261905Y-76214285D01*
X205357143Y-76261904D01*
X205404762Y-76309523D01*
X205452381Y-76404761D01*
X205452381Y-76642857D01*
X205404762Y-76738095D01*
X205357143Y-76785714D01*
X117952381Y-112238095D02*
X116952381Y-112238095D01*
X116952381Y-112000000D01*
X117000000Y-111857142D01*
X117095238Y-111761904D01*
X117190476Y-111714285D01*
X117380952Y-111666666D01*
X117523810Y-111666666D01*
X117714286Y-111714285D01*
X117809524Y-111761904D01*
X117904762Y-111857142D01*
X117952381Y-112000000D01*
X117952381Y-112238095D01*
X116952381Y-110761904D02*
X116952381Y-111238095D01*
X117428571Y-111285714D01*
X117380952Y-111238095D01*
X117333333Y-111142857D01*
X117333333Y-110904761D01*
X117380952Y-110809523D01*
X117428571Y-110761904D01*
X117523810Y-110714285D01*
X117761905Y-110714285D01*
X117857143Y-110761904D01*
X117904762Y-110809523D01*
X117952381Y-110904761D01*
X117952381Y-111142857D01*
X117904762Y-111238095D01*
X117857143Y-111285714D01*
X116452381Y-105738095D02*
X115452381Y-105738095D01*
X115452381Y-105500000D01*
X115500000Y-105357142D01*
X115595238Y-105261904D01*
X115690476Y-105214285D01*
X115880952Y-105166666D01*
X116023810Y-105166666D01*
X116214286Y-105214285D01*
X116309524Y-105261904D01*
X116404762Y-105357142D01*
X116452381Y-105500000D01*
X116452381Y-105738095D01*
X115452381Y-104833333D02*
X115452381Y-104214285D01*
X115833333Y-104547619D01*
X115833333Y-104404761D01*
X115880952Y-104309523D01*
X115928571Y-104261904D01*
X116023810Y-104214285D01*
X116261905Y-104214285D01*
X116357143Y-104261904D01*
X116404762Y-104309523D01*
X116452381Y-104404761D01*
X116452381Y-104690476D01*
X116404762Y-104785714D01*
X116357143Y-104833333D01*
X202952381Y-76488095D02*
X201952381Y-76488095D01*
X201952381Y-76250000D01*
X202000000Y-76107142D01*
X202095238Y-76011904D01*
X202190476Y-75964285D01*
X202380952Y-75916666D01*
X202523810Y-75916666D01*
X202714286Y-75964285D01*
X202809524Y-76011904D01*
X202904762Y-76107142D01*
X202952381Y-76250000D01*
X202952381Y-76488095D01*
X202047619Y-75535714D02*
X202000000Y-75488095D01*
X201952381Y-75392857D01*
X201952381Y-75154761D01*
X202000000Y-75059523D01*
X202047619Y-75011904D01*
X202142857Y-74964285D01*
X202238095Y-74964285D01*
X202380952Y-75011904D01*
X202952381Y-75583333D01*
X202952381Y-74964285D01*
X126464000Y-112519143D02*
X126678286Y-112590571D01*
X127035429Y-112590571D01*
X127178286Y-112519143D01*
X127249715Y-112447714D01*
X127321143Y-112304857D01*
X127321143Y-112162000D01*
X127249715Y-112019143D01*
X127178286Y-111947714D01*
X127035429Y-111876286D01*
X126749715Y-111804857D01*
X126606857Y-111733429D01*
X126535429Y-111662000D01*
X126464000Y-111519143D01*
X126464000Y-111376286D01*
X126535429Y-111233429D01*
X126606857Y-111162000D01*
X126749715Y-111090571D01*
X127106857Y-111090571D01*
X127321143Y-111162000D01*
X127821143Y-111090571D02*
X128178286Y-112590571D01*
X128464000Y-111519143D01*
X128749714Y-112590571D01*
X129106857Y-111090571D01*
X130321143Y-111590571D02*
X130321143Y-112590571D01*
X129964000Y-111019143D02*
X129606857Y-112090571D01*
X130535429Y-112090571D01*
X136214000Y-112519143D02*
X136428286Y-112590571D01*
X136785429Y-112590571D01*
X136928286Y-112519143D01*
X136999715Y-112447714D01*
X137071143Y-112304857D01*
X137071143Y-112162000D01*
X136999715Y-112019143D01*
X136928286Y-111947714D01*
X136785429Y-111876286D01*
X136499715Y-111804857D01*
X136356857Y-111733429D01*
X136285429Y-111662000D01*
X136214000Y-111519143D01*
X136214000Y-111376286D01*
X136285429Y-111233429D01*
X136356857Y-111162000D01*
X136499715Y-111090571D01*
X136856857Y-111090571D01*
X137071143Y-111162000D01*
X137571143Y-111090571D02*
X137928286Y-112590571D01*
X138214000Y-111519143D01*
X138499714Y-112590571D01*
X138856857Y-111090571D01*
X139285429Y-111090571D02*
X140214000Y-111090571D01*
X139714000Y-111662000D01*
X139928286Y-111662000D01*
X140071143Y-111733429D01*
X140142572Y-111804857D01*
X140214000Y-111947714D01*
X140214000Y-112304857D01*
X140142572Y-112447714D01*
X140071143Y-112519143D01*
X139928286Y-112590571D01*
X139499714Y-112590571D01*
X139356857Y-112519143D01*
X139285429Y-112447714D01*
X186964000Y-112519143D02*
X187178286Y-112590571D01*
X187535429Y-112590571D01*
X187678286Y-112519143D01*
X187749715Y-112447714D01*
X187821143Y-112304857D01*
X187821143Y-112162000D01*
X187749715Y-112019143D01*
X187678286Y-111947714D01*
X187535429Y-111876286D01*
X187249715Y-111804857D01*
X187106857Y-111733429D01*
X187035429Y-111662000D01*
X186964000Y-111519143D01*
X186964000Y-111376286D01*
X187035429Y-111233429D01*
X187106857Y-111162000D01*
X187249715Y-111090571D01*
X187606857Y-111090571D01*
X187821143Y-111162000D01*
X188321143Y-111090571D02*
X188678286Y-112590571D01*
X188964000Y-111519143D01*
X189249714Y-112590571D01*
X189606857Y-111090571D01*
X190106857Y-111233429D02*
X190178286Y-111162000D01*
X190321143Y-111090571D01*
X190678286Y-111090571D01*
X190821143Y-111162000D01*
X190892572Y-111233429D01*
X190964000Y-111376286D01*
X190964000Y-111519143D01*
X190892572Y-111733429D01*
X190035429Y-112590571D01*
X190964000Y-112590571D01*
X207019143Y-109036000D02*
X207090571Y-108821714D01*
X207090571Y-108464571D01*
X207019143Y-108321714D01*
X206947714Y-108250285D01*
X206804857Y-108178857D01*
X206662000Y-108178857D01*
X206519143Y-108250285D01*
X206447714Y-108321714D01*
X206376286Y-108464571D01*
X206304857Y-108750285D01*
X206233429Y-108893143D01*
X206162000Y-108964571D01*
X206019143Y-109036000D01*
X205876286Y-109036000D01*
X205733429Y-108964571D01*
X205662000Y-108893143D01*
X205590571Y-108750285D01*
X205590571Y-108393143D01*
X205662000Y-108178857D01*
X205590571Y-107678857D02*
X207090571Y-107321714D01*
X206019143Y-107036000D01*
X207090571Y-106750286D01*
X205590571Y-106393143D01*
X207090571Y-105036000D02*
X207090571Y-105893143D01*
X207090571Y-105464571D02*
X205590571Y-105464571D01*
X205804857Y-105607428D01*
X205947714Y-105750286D01*
X206019143Y-105893143D01*
X205511905Y-118702381D02*
X205511905Y-117702381D01*
X205892858Y-117702381D01*
X205988096Y-117750000D01*
X206035715Y-117797619D01*
X206083334Y-117892857D01*
X206083334Y-118035714D01*
X206035715Y-118130952D01*
X205988096Y-118178571D01*
X205892858Y-118226190D01*
X205511905Y-118226190D01*
X206416667Y-117702381D02*
X207083334Y-117702381D01*
X206654762Y-118702381D01*
X212011905Y-78202381D02*
X212011905Y-77202381D01*
X212392858Y-77202381D01*
X212488096Y-77250000D01*
X212535715Y-77297619D01*
X212583334Y-77392857D01*
X212583334Y-77535714D01*
X212535715Y-77630952D01*
X212488096Y-77678571D01*
X212392858Y-77726190D01*
X212011905Y-77726190D01*
X213440477Y-77202381D02*
X213250000Y-77202381D01*
X213154762Y-77250000D01*
X213107143Y-77297619D01*
X213011905Y-77440476D01*
X212964286Y-77630952D01*
X212964286Y-78011905D01*
X213011905Y-78107143D01*
X213059524Y-78154762D01*
X213154762Y-78202381D01*
X213345239Y-78202381D01*
X213440477Y-78154762D01*
X213488096Y-78107143D01*
X213535715Y-78011905D01*
X213535715Y-77773810D01*
X213488096Y-77678571D01*
X213440477Y-77630952D01*
X213345239Y-77583333D01*
X213154762Y-77583333D01*
X213059524Y-77630952D01*
X213011905Y-77678571D01*
X212964286Y-77773810D01*
X121511905Y-71702381D02*
X121511905Y-70702381D01*
X121892858Y-70702381D01*
X121988096Y-70750000D01*
X122035715Y-70797619D01*
X122083334Y-70892857D01*
X122083334Y-71035714D01*
X122035715Y-71130952D01*
X121988096Y-71178571D01*
X121892858Y-71226190D01*
X121511905Y-71226190D01*
X122988096Y-70702381D02*
X122511905Y-70702381D01*
X122464286Y-71178571D01*
X122511905Y-71130952D01*
X122607143Y-71083333D01*
X122845239Y-71083333D01*
X122940477Y-71130952D01*
X122988096Y-71178571D01*
X123035715Y-71273810D01*
X123035715Y-71511905D01*
X122988096Y-71607143D01*
X122940477Y-71654762D01*
X122845239Y-71702381D01*
X122607143Y-71702381D01*
X122511905Y-71654762D01*
X122464286Y-71607143D01*
X121511905Y-119202381D02*
X121511905Y-118202381D01*
X121892858Y-118202381D01*
X121988096Y-118250000D01*
X122035715Y-118297619D01*
X122083334Y-118392857D01*
X122083334Y-118535714D01*
X122035715Y-118630952D01*
X121988096Y-118678571D01*
X121892858Y-118726190D01*
X121511905Y-118726190D01*
X122940477Y-118535714D02*
X122940477Y-119202381D01*
X122702381Y-118154762D02*
X122464286Y-118869048D01*
X123083334Y-118869048D01*
X164438095Y-89952381D02*
X164438095Y-90761905D01*
X164485714Y-90857143D01*
X164533333Y-90904762D01*
X164628571Y-90952381D01*
X164819048Y-90952381D01*
X164914286Y-90904762D01*
X164961905Y-90857143D01*
X165009524Y-90761905D01*
X165009524Y-89952381D01*
X165961905Y-89952381D02*
X165485714Y-89952381D01*
X165438095Y-90428571D01*
X165485714Y-90380952D01*
X165580952Y-90333333D01*
X165819048Y-90333333D01*
X165914286Y-90380952D01*
X165961905Y-90428571D01*
X166009524Y-90523810D01*
X166009524Y-90761905D01*
X165961905Y-90857143D01*
X165914286Y-90904762D01*
X165819048Y-90952381D01*
X165580952Y-90952381D01*
X165485714Y-90904762D01*
X165438095Y-90857143D01*
X165238095Y-98702381D02*
X165238095Y-99511905D01*
X165285714Y-99607143D01*
X165333333Y-99654762D01*
X165428571Y-99702381D01*
X165619048Y-99702381D01*
X165714286Y-99654762D01*
X165761905Y-99607143D01*
X165809524Y-99511905D01*
X165809524Y-98702381D01*
X166714286Y-99035714D02*
X166714286Y-99702381D01*
X166476190Y-98654762D02*
X166238095Y-99369048D01*
X166857143Y-99369048D01*
X150988095Y-98702381D02*
X150988095Y-99511905D01*
X151035714Y-99607143D01*
X151083333Y-99654762D01*
X151178571Y-99702381D01*
X151369048Y-99702381D01*
X151464286Y-99654762D01*
X151511905Y-99607143D01*
X151559524Y-99511905D01*
X151559524Y-98702381D01*
X151940476Y-98702381D02*
X152559524Y-98702381D01*
X152226190Y-99083333D01*
X152369048Y-99083333D01*
X152464286Y-99130952D01*
X152511905Y-99178571D01*
X152559524Y-99273810D01*
X152559524Y-99511905D01*
X152511905Y-99607143D01*
X152464286Y-99654762D01*
X152369048Y-99702381D01*
X152083333Y-99702381D01*
X151988095Y-99654762D01*
X151940476Y-99607143D01*
X183738095Y-94952381D02*
X183738095Y-95761905D01*
X183785714Y-95857143D01*
X183833333Y-95904762D01*
X183928571Y-95952381D01*
X184119048Y-95952381D01*
X184214286Y-95904762D01*
X184261905Y-95857143D01*
X184309524Y-95761905D01*
X184309524Y-94952381D01*
X185309524Y-95952381D02*
X184738095Y-95952381D01*
X185023809Y-95952381D02*
X185023809Y-94952381D01*
X184928571Y-95095238D01*
X184833333Y-95190476D01*
X184738095Y-95238095D01*
X136452381Y-94892857D02*
X135976190Y-95226191D01*
X136452381Y-95464286D02*
X135452381Y-95464286D01*
X135452381Y-95083333D01*
X135500000Y-94988095D01*
X135547619Y-94940476D01*
X135642857Y-94892857D01*
X135785714Y-94892857D01*
X135880952Y-94940476D01*
X135928571Y-94988095D01*
X135976190Y-95083333D01*
X135976190Y-95464286D01*
X136452381Y-93940476D02*
X136452381Y-94511905D01*
X136452381Y-94226191D02*
X135452381Y-94226191D01*
X135595238Y-94321429D01*
X135690476Y-94416667D01*
X135738095Y-94511905D01*
X135452381Y-93607143D02*
X135452381Y-92988095D01*
X135833333Y-93321429D01*
X135833333Y-93178571D01*
X135880952Y-93083333D01*
X135928571Y-93035714D01*
X136023810Y-92988095D01*
X136261905Y-92988095D01*
X136357143Y-93035714D01*
X136404762Y-93083333D01*
X136452381Y-93178571D01*
X136452381Y-93464286D01*
X136404762Y-93559524D01*
X136357143Y-93607143D01*
X137702381Y-94892857D02*
X137226190Y-95226191D01*
X137702381Y-95464286D02*
X136702381Y-95464286D01*
X136702381Y-95083333D01*
X136750000Y-94988095D01*
X136797619Y-94940476D01*
X136892857Y-94892857D01*
X137035714Y-94892857D01*
X137130952Y-94940476D01*
X137178571Y-94988095D01*
X137226190Y-95083333D01*
X137226190Y-95464286D01*
X137702381Y-93940476D02*
X137702381Y-94511905D01*
X137702381Y-94226191D02*
X136702381Y-94226191D01*
X136845238Y-94321429D01*
X136940476Y-94416667D01*
X136988095Y-94511905D01*
X136797619Y-93559524D02*
X136750000Y-93511905D01*
X136702381Y-93416667D01*
X136702381Y-93178571D01*
X136750000Y-93083333D01*
X136797619Y-93035714D01*
X136892857Y-92988095D01*
X136988095Y-92988095D01*
X137130952Y-93035714D01*
X137702381Y-93607143D01*
X137702381Y-92988095D01*
X135202381Y-94892857D02*
X134726190Y-95226191D01*
X135202381Y-95464286D02*
X134202381Y-95464286D01*
X134202381Y-95083333D01*
X134250000Y-94988095D01*
X134297619Y-94940476D01*
X134392857Y-94892857D01*
X134535714Y-94892857D01*
X134630952Y-94940476D01*
X134678571Y-94988095D01*
X134726190Y-95083333D01*
X134726190Y-95464286D01*
X135202381Y-93940476D02*
X135202381Y-94511905D01*
X135202381Y-94226191D02*
X134202381Y-94226191D01*
X134345238Y-94321429D01*
X134440476Y-94416667D01*
X134488095Y-94511905D01*
X135202381Y-92988095D02*
X135202381Y-93559524D01*
X135202381Y-93273810D02*
X134202381Y-93273810D01*
X134345238Y-93369048D01*
X134440476Y-93464286D01*
X134488095Y-93559524D01*
X127452381Y-83892857D02*
X126976190Y-84226191D01*
X127452381Y-84464286D02*
X126452381Y-84464286D01*
X126452381Y-84083333D01*
X126500000Y-83988095D01*
X126547619Y-83940476D01*
X126642857Y-83892857D01*
X126785714Y-83892857D01*
X126880952Y-83940476D01*
X126928571Y-83988095D01*
X126976190Y-84083333D01*
X126976190Y-84464286D01*
X127452381Y-82940476D02*
X127452381Y-83511905D01*
X127452381Y-83226191D02*
X126452381Y-83226191D01*
X126595238Y-83321429D01*
X126690476Y-83416667D01*
X126738095Y-83511905D01*
X126452381Y-82321429D02*
X126452381Y-82226190D01*
X126500000Y-82130952D01*
X126547619Y-82083333D01*
X126642857Y-82035714D01*
X126833333Y-81988095D01*
X127071429Y-81988095D01*
X127261905Y-82035714D01*
X127357143Y-82083333D01*
X127404762Y-82130952D01*
X127452381Y-82226190D01*
X127452381Y-82321429D01*
X127404762Y-82416667D01*
X127357143Y-82464286D01*
X127261905Y-82511905D01*
X127071429Y-82559524D01*
X126833333Y-82559524D01*
X126642857Y-82511905D01*
X126547619Y-82464286D01*
X126500000Y-82416667D01*
X126452381Y-82321429D01*
X148583334Y-97452381D02*
X148250000Y-96976190D01*
X148011905Y-97452381D02*
X148011905Y-96452381D01*
X148392858Y-96452381D01*
X148488096Y-96500000D01*
X148535715Y-96547619D01*
X148583334Y-96642857D01*
X148583334Y-96785714D01*
X148535715Y-96880952D01*
X148488096Y-96928571D01*
X148392858Y-96976190D01*
X148011905Y-96976190D01*
X149059524Y-97452381D02*
X149250000Y-97452381D01*
X149345239Y-97404762D01*
X149392858Y-97357143D01*
X149488096Y-97214286D01*
X149535715Y-97023810D01*
X149535715Y-96642857D01*
X149488096Y-96547619D01*
X149440477Y-96500000D01*
X149345239Y-96452381D01*
X149154762Y-96452381D01*
X149059524Y-96500000D01*
X149011905Y-96547619D01*
X148964286Y-96642857D01*
X148964286Y-96880952D01*
X149011905Y-96976190D01*
X149059524Y-97023810D01*
X149154762Y-97071429D01*
X149345239Y-97071429D01*
X149440477Y-97023810D01*
X149488096Y-96976190D01*
X149535715Y-96880952D01*
X148583334Y-94952381D02*
X148250000Y-94476190D01*
X148011905Y-94952381D02*
X148011905Y-93952381D01*
X148392858Y-93952381D01*
X148488096Y-94000000D01*
X148535715Y-94047619D01*
X148583334Y-94142857D01*
X148583334Y-94285714D01*
X148535715Y-94380952D01*
X148488096Y-94428571D01*
X148392858Y-94476190D01*
X148011905Y-94476190D01*
X149154762Y-94380952D02*
X149059524Y-94333333D01*
X149011905Y-94285714D01*
X148964286Y-94190476D01*
X148964286Y-94142857D01*
X149011905Y-94047619D01*
X149059524Y-94000000D01*
X149154762Y-93952381D01*
X149345239Y-93952381D01*
X149440477Y-94000000D01*
X149488096Y-94047619D01*
X149535715Y-94142857D01*
X149535715Y-94190476D01*
X149488096Y-94285714D01*
X149440477Y-94333333D01*
X149345239Y-94380952D01*
X149154762Y-94380952D01*
X149059524Y-94428571D01*
X149011905Y-94476190D01*
X148964286Y-94571429D01*
X148964286Y-94761905D01*
X149011905Y-94857143D01*
X149059524Y-94904762D01*
X149154762Y-94952381D01*
X149345239Y-94952381D01*
X149440477Y-94904762D01*
X149488096Y-94857143D01*
X149535715Y-94761905D01*
X149535715Y-94571429D01*
X149488096Y-94476190D01*
X149440477Y-94428571D01*
X149345239Y-94380952D01*
X123583334Y-109952381D02*
X123250000Y-109476190D01*
X123011905Y-109952381D02*
X123011905Y-108952381D01*
X123392858Y-108952381D01*
X123488096Y-109000000D01*
X123535715Y-109047619D01*
X123583334Y-109142857D01*
X123583334Y-109285714D01*
X123535715Y-109380952D01*
X123488096Y-109428571D01*
X123392858Y-109476190D01*
X123011905Y-109476190D01*
X123916667Y-108952381D02*
X124583334Y-108952381D01*
X124154762Y-109952381D01*
X123583334Y-107452381D02*
X123250000Y-106976190D01*
X123011905Y-107452381D02*
X123011905Y-106452381D01*
X123392858Y-106452381D01*
X123488096Y-106500000D01*
X123535715Y-106547619D01*
X123583334Y-106642857D01*
X123583334Y-106785714D01*
X123535715Y-106880952D01*
X123488096Y-106928571D01*
X123392858Y-106976190D01*
X123011905Y-106976190D01*
X124440477Y-106452381D02*
X124250000Y-106452381D01*
X124154762Y-106500000D01*
X124107143Y-106547619D01*
X124011905Y-106690476D01*
X123964286Y-106880952D01*
X123964286Y-107261905D01*
X124011905Y-107357143D01*
X124059524Y-107404762D01*
X124154762Y-107452381D01*
X124345239Y-107452381D01*
X124440477Y-107404762D01*
X124488096Y-107357143D01*
X124535715Y-107261905D01*
X124535715Y-107023810D01*
X124488096Y-106928571D01*
X124440477Y-106880952D01*
X124345239Y-106833333D01*
X124154762Y-106833333D01*
X124059524Y-106880952D01*
X124011905Y-106928571D01*
X123964286Y-107023810D01*
X187452381Y-102166666D02*
X186976190Y-102500000D01*
X187452381Y-102738095D02*
X186452381Y-102738095D01*
X186452381Y-102357142D01*
X186500000Y-102261904D01*
X186547619Y-102214285D01*
X186642857Y-102166666D01*
X186785714Y-102166666D01*
X186880952Y-102214285D01*
X186928571Y-102261904D01*
X186976190Y-102357142D01*
X186976190Y-102738095D01*
X186452381Y-101833333D02*
X186452381Y-101214285D01*
X186833333Y-101547619D01*
X186833333Y-101404761D01*
X186880952Y-101309523D01*
X186928571Y-101261904D01*
X187023810Y-101214285D01*
X187261905Y-101214285D01*
X187357143Y-101261904D01*
X187404762Y-101309523D01*
X187452381Y-101404761D01*
X187452381Y-101690476D01*
X187404762Y-101785714D01*
X187357143Y-101833333D01*
X183202381Y-104166666D02*
X182726190Y-104500000D01*
X183202381Y-104738095D02*
X182202381Y-104738095D01*
X182202381Y-104357142D01*
X182250000Y-104261904D01*
X182297619Y-104214285D01*
X182392857Y-104166666D01*
X182535714Y-104166666D01*
X182630952Y-104214285D01*
X182678571Y-104261904D01*
X182726190Y-104357142D01*
X182726190Y-104738095D01*
X183202381Y-103214285D02*
X183202381Y-103785714D01*
X183202381Y-103500000D02*
X182202381Y-103500000D01*
X182345238Y-103595238D01*
X182440476Y-103690476D01*
X182488095Y-103785714D01*
X165033334Y-85712381D02*
X164557143Y-85712381D01*
X164557143Y-84712381D01*
X165319048Y-84807619D02*
X165366667Y-84760000D01*
X165461905Y-84712381D01*
X165700001Y-84712381D01*
X165795239Y-84760000D01*
X165842858Y-84807619D01*
X165890477Y-84902857D01*
X165890477Y-84998095D01*
X165842858Y-85140952D01*
X165271429Y-85712381D01*
X165890477Y-85712381D01*
X132773810Y-81452381D02*
X132773810Y-80452381D01*
X133821429Y-81357143D02*
X133773810Y-81404762D01*
X133630953Y-81452381D01*
X133535715Y-81452381D01*
X133392857Y-81404762D01*
X133297619Y-81309524D01*
X133250000Y-81214286D01*
X133202381Y-81023810D01*
X133202381Y-80880952D01*
X133250000Y-80690476D01*
X133297619Y-80595238D01*
X133392857Y-80500000D01*
X133535715Y-80452381D01*
X133630953Y-80452381D01*
X133773810Y-80500000D01*
X133821429Y-80547619D01*
X134773810Y-81452381D02*
X134202381Y-81452381D01*
X134488095Y-81452381D02*
X134488095Y-80452381D01*
X134392857Y-80595238D01*
X134297619Y-80690476D01*
X134202381Y-80738095D01*
X159607143Y-100392857D02*
X159654762Y-100440476D01*
X159702381Y-100583333D01*
X159702381Y-100678571D01*
X159654762Y-100821429D01*
X159559524Y-100916667D01*
X159464286Y-100964286D01*
X159273810Y-101011905D01*
X159130952Y-101011905D01*
X158940476Y-100964286D01*
X158845238Y-100916667D01*
X158750000Y-100821429D01*
X158702381Y-100678571D01*
X158702381Y-100583333D01*
X158750000Y-100440476D01*
X158797619Y-100392857D01*
X158797619Y-100011905D02*
X158750000Y-99964286D01*
X158702381Y-99869048D01*
X158702381Y-99630952D01*
X158750000Y-99535714D01*
X158797619Y-99488095D01*
X158892857Y-99440476D01*
X158988095Y-99440476D01*
X159130952Y-99488095D01*
X159702381Y-100059524D01*
X159702381Y-99440476D01*
X159035714Y-98583333D02*
X159702381Y-98583333D01*
X158654762Y-98821429D02*
X159369048Y-99059524D01*
X159369048Y-98440476D01*
X171607143Y-82207143D02*
X171559524Y-82254762D01*
X171416667Y-82302381D01*
X171321429Y-82302381D01*
X171178571Y-82254762D01*
X171083333Y-82159524D01*
X171035714Y-82064286D01*
X170988095Y-81873810D01*
X170988095Y-81730952D01*
X171035714Y-81540476D01*
X171083333Y-81445238D01*
X171178571Y-81350000D01*
X171321429Y-81302381D01*
X171416667Y-81302381D01*
X171559524Y-81350000D01*
X171607143Y-81397619D01*
X171988095Y-81397619D02*
X172035714Y-81350000D01*
X172130952Y-81302381D01*
X172369048Y-81302381D01*
X172464286Y-81350000D01*
X172511905Y-81397619D01*
X172559524Y-81492857D01*
X172559524Y-81588095D01*
X172511905Y-81730952D01*
X171940476Y-82302381D01*
X172559524Y-82302381D01*
X173511905Y-82302381D02*
X172940476Y-82302381D01*
X173226190Y-82302381D02*
X173226190Y-81302381D01*
X173130952Y-81445238D01*
X173035714Y-81540476D01*
X172940476Y-81588095D01*
X157357143Y-82207143D02*
X157309524Y-82254762D01*
X157166667Y-82302381D01*
X157071429Y-82302381D01*
X156928571Y-82254762D01*
X156833333Y-82159524D01*
X156785714Y-82064286D01*
X156738095Y-81873810D01*
X156738095Y-81730952D01*
X156785714Y-81540476D01*
X156833333Y-81445238D01*
X156928571Y-81350000D01*
X157071429Y-81302381D01*
X157166667Y-81302381D01*
X157309524Y-81350000D01*
X157357143Y-81397619D01*
X157738095Y-81397619D02*
X157785714Y-81350000D01*
X157880952Y-81302381D01*
X158119048Y-81302381D01*
X158214286Y-81350000D01*
X158261905Y-81397619D01*
X158309524Y-81492857D01*
X158309524Y-81588095D01*
X158261905Y-81730952D01*
X157690476Y-82302381D01*
X158309524Y-82302381D01*
X158928571Y-81302381D02*
X159023810Y-81302381D01*
X159119048Y-81350000D01*
X159166667Y-81397619D01*
X159214286Y-81492857D01*
X159261905Y-81683333D01*
X159261905Y-81921429D01*
X159214286Y-82111905D01*
X159166667Y-82207143D01*
X159119048Y-82254762D01*
X159023810Y-82302381D01*
X158928571Y-82302381D01*
X158833333Y-82254762D01*
X158785714Y-82207143D01*
X158738095Y-82111905D01*
X158690476Y-81921429D01*
X158690476Y-81683333D01*
X158738095Y-81492857D01*
X158785714Y-81397619D01*
X158833333Y-81350000D01*
X158928571Y-81302381D01*
X133257143Y-101642857D02*
X133304762Y-101690476D01*
X133352381Y-101833333D01*
X133352381Y-101928571D01*
X133304762Y-102071429D01*
X133209524Y-102166667D01*
X133114286Y-102214286D01*
X132923810Y-102261905D01*
X132780952Y-102261905D01*
X132590476Y-102214286D01*
X132495238Y-102166667D01*
X132400000Y-102071429D01*
X132352381Y-101928571D01*
X132352381Y-101833333D01*
X132400000Y-101690476D01*
X132447619Y-101642857D01*
X133352381Y-100690476D02*
X133352381Y-101261905D01*
X133352381Y-100976191D02*
X132352381Y-100976191D01*
X132495238Y-101071429D01*
X132590476Y-101166667D01*
X132638095Y-101261905D01*
X132352381Y-100357143D02*
X132352381Y-99690476D01*
X133352381Y-100119048D01*
X129857143Y-83892857D02*
X129904762Y-83940476D01*
X129952381Y-84083333D01*
X129952381Y-84178571D01*
X129904762Y-84321429D01*
X129809524Y-84416667D01*
X129714286Y-84464286D01*
X129523810Y-84511905D01*
X129380952Y-84511905D01*
X129190476Y-84464286D01*
X129095238Y-84416667D01*
X129000000Y-84321429D01*
X128952381Y-84178571D01*
X128952381Y-84083333D01*
X129000000Y-83940476D01*
X129047619Y-83892857D01*
X129952381Y-82940476D02*
X129952381Y-83511905D01*
X129952381Y-83226191D02*
X128952381Y-83226191D01*
X129095238Y-83321429D01*
X129190476Y-83416667D01*
X129238095Y-83511905D01*
X128952381Y-82607143D02*
X128952381Y-81988095D01*
X129333333Y-82321429D01*
X129333333Y-82178571D01*
X129380952Y-82083333D01*
X129428571Y-82035714D01*
X129523810Y-81988095D01*
X129761905Y-81988095D01*
X129857143Y-82035714D01*
X129904762Y-82083333D01*
X129952381Y-82178571D01*
X129952381Y-82464286D01*
X129904762Y-82559524D01*
X129857143Y-82607143D01*
X199083334Y-71857143D02*
X199035715Y-71904762D01*
X198892858Y-71952381D01*
X198797620Y-71952381D01*
X198654762Y-71904762D01*
X198559524Y-71809524D01*
X198511905Y-71714286D01*
X198464286Y-71523810D01*
X198464286Y-71380952D01*
X198511905Y-71190476D01*
X198559524Y-71095238D01*
X198654762Y-71000000D01*
X198797620Y-70952381D01*
X198892858Y-70952381D01*
X199035715Y-71000000D01*
X199083334Y-71047619D01*
X199654762Y-71380952D02*
X199559524Y-71333333D01*
X199511905Y-71285714D01*
X199464286Y-71190476D01*
X199464286Y-71142857D01*
X199511905Y-71047619D01*
X199559524Y-71000000D01*
X199654762Y-70952381D01*
X199845239Y-70952381D01*
X199940477Y-71000000D01*
X199988096Y-71047619D01*
X200035715Y-71142857D01*
X200035715Y-71190476D01*
X199988096Y-71285714D01*
X199940477Y-71333333D01*
X199845239Y-71380952D01*
X199654762Y-71380952D01*
X199559524Y-71428571D01*
X199511905Y-71476190D01*
X199464286Y-71571429D01*
X199464286Y-71761905D01*
X199511905Y-71857143D01*
X199559524Y-71904762D01*
X199654762Y-71952381D01*
X199845239Y-71952381D01*
X199940477Y-71904762D01*
X199988096Y-71857143D01*
X200035715Y-71761905D01*
X200035715Y-71571429D01*
X199988096Y-71476190D01*
X199940477Y-71428571D01*
X199845239Y-71380952D01*
X184583334Y-71857143D02*
X184535715Y-71904762D01*
X184392858Y-71952381D01*
X184297620Y-71952381D01*
X184154762Y-71904762D01*
X184059524Y-71809524D01*
X184011905Y-71714286D01*
X183964286Y-71523810D01*
X183964286Y-71380952D01*
X184011905Y-71190476D01*
X184059524Y-71095238D01*
X184154762Y-71000000D01*
X184297620Y-70952381D01*
X184392858Y-70952381D01*
X184535715Y-71000000D01*
X184583334Y-71047619D01*
X184916667Y-70952381D02*
X185583334Y-70952381D01*
X185154762Y-71952381D01*
X155583334Y-71857143D02*
X155535715Y-71904762D01*
X155392858Y-71952381D01*
X155297620Y-71952381D01*
X155154762Y-71904762D01*
X155059524Y-71809524D01*
X155011905Y-71714286D01*
X154964286Y-71523810D01*
X154964286Y-71380952D01*
X155011905Y-71190476D01*
X155059524Y-71095238D01*
X155154762Y-71000000D01*
X155297620Y-70952381D01*
X155392858Y-70952381D01*
X155535715Y-71000000D01*
X155583334Y-71047619D01*
X156440477Y-70952381D02*
X156250000Y-70952381D01*
X156154762Y-71000000D01*
X156107143Y-71047619D01*
X156011905Y-71190476D01*
X155964286Y-71380952D01*
X155964286Y-71761905D01*
X156011905Y-71857143D01*
X156059524Y-71904762D01*
X156154762Y-71952381D01*
X156345239Y-71952381D01*
X156440477Y-71904762D01*
X156488096Y-71857143D01*
X156535715Y-71761905D01*
X156535715Y-71523810D01*
X156488096Y-71428571D01*
X156440477Y-71380952D01*
X156345239Y-71333333D01*
X156154762Y-71333333D01*
X156059524Y-71380952D01*
X156011905Y-71428571D01*
X155964286Y-71523810D01*
X170583334Y-71857143D02*
X170535715Y-71904762D01*
X170392858Y-71952381D01*
X170297620Y-71952381D01*
X170154762Y-71904762D01*
X170059524Y-71809524D01*
X170011905Y-71714286D01*
X169964286Y-71523810D01*
X169964286Y-71380952D01*
X170011905Y-71190476D01*
X170059524Y-71095238D01*
X170154762Y-71000000D01*
X170297620Y-70952381D01*
X170392858Y-70952381D01*
X170535715Y-71000000D01*
X170583334Y-71047619D01*
X171488096Y-70952381D02*
X171011905Y-70952381D01*
X170964286Y-71428571D01*
X171011905Y-71380952D01*
X171107143Y-71333333D01*
X171345239Y-71333333D01*
X171440477Y-71380952D01*
X171488096Y-71428571D01*
X171535715Y-71523810D01*
X171535715Y-71761905D01*
X171488096Y-71857143D01*
X171440477Y-71904762D01*
X171345239Y-71952381D01*
X171107143Y-71952381D01*
X171011905Y-71904762D01*
X170964286Y-71857143D01*
X198107143Y-90666666D02*
X198154762Y-90714285D01*
X198202381Y-90857142D01*
X198202381Y-90952380D01*
X198154762Y-91095238D01*
X198059524Y-91190476D01*
X197964286Y-91238095D01*
X197773810Y-91285714D01*
X197630952Y-91285714D01*
X197440476Y-91238095D01*
X197345238Y-91190476D01*
X197250000Y-91095238D01*
X197202381Y-90952380D01*
X197202381Y-90857142D01*
X197250000Y-90714285D01*
X197297619Y-90666666D01*
X198202381Y-89714285D02*
X198202381Y-90285714D01*
X198202381Y-90000000D02*
X197202381Y-90000000D01*
X197345238Y-90095238D01*
X197440476Y-90190476D01*
X197488095Y-90285714D01*
X128988095Y-97702381D02*
X128988095Y-98511905D01*
X129035714Y-98607143D01*
X129083333Y-98654762D01*
X129178571Y-98702381D01*
X129369048Y-98702381D01*
X129464286Y-98654762D01*
X129511905Y-98607143D01*
X129559524Y-98511905D01*
X129559524Y-97702381D01*
X129988095Y-97797619D02*
X130035714Y-97750000D01*
X130130952Y-97702381D01*
X130369048Y-97702381D01*
X130464286Y-97750000D01*
X130511905Y-97797619D01*
X130559524Y-97892857D01*
X130559524Y-97988095D01*
X130511905Y-98130952D01*
X129940476Y-98702381D01*
X130559524Y-98702381D01*
X170833334Y-91202381D02*
X170357143Y-91202381D01*
X170357143Y-90202381D01*
X171690477Y-91202381D02*
X171119048Y-91202381D01*
X171404762Y-91202381D02*
X171404762Y-90202381D01*
X171309524Y-90345238D01*
X171214286Y-90440476D01*
X171119048Y-90488095D01*
X193666667Y-94178571D02*
X193333333Y-94178571D01*
X193333333Y-94702381D02*
X193333333Y-93702381D01*
X193809524Y-93702381D01*
X194714286Y-94702381D02*
X194142857Y-94702381D01*
X194428571Y-94702381D02*
X194428571Y-93702381D01*
X194333333Y-93845238D01*
X194238095Y-93940476D01*
X194142857Y-93988095D01*
X192928572Y-104535714D02*
X192857143Y-104607143D01*
X192642857Y-104678571D01*
X192500000Y-104678571D01*
X192285715Y-104607143D01*
X192142857Y-104464286D01*
X192071429Y-104321429D01*
X192000000Y-104035714D01*
X192000000Y-103821429D01*
X192071429Y-103535714D01*
X192142857Y-103392857D01*
X192285715Y-103250000D01*
X192500000Y-103178571D01*
X192642857Y-103178571D01*
X192857143Y-103250000D01*
X192928572Y-103321429D01*
X193857143Y-103178571D02*
X194142857Y-103178571D01*
X194285715Y-103250000D01*
X194428572Y-103392857D01*
X194500000Y-103678571D01*
X194500000Y-104178571D01*
X194428572Y-104464286D01*
X194285715Y-104607143D01*
X194142857Y-104678571D01*
X193857143Y-104678571D01*
X193714286Y-104607143D01*
X193571429Y-104464286D01*
X193500000Y-104178571D01*
X193500000Y-103678571D01*
X193571429Y-103392857D01*
X193714286Y-103250000D01*
X193857143Y-103178571D01*
X195142858Y-104678571D02*
X195142858Y-103178571D01*
X196000001Y-104678571D01*
X196000001Y-103178571D01*
X197500001Y-104678571D02*
X196642858Y-104678571D01*
X197071430Y-104678571D02*
X197071430Y-103178571D01*
X196928573Y-103392857D01*
X196785715Y-103535714D01*
X196642858Y-103607143D01*
M02*
