G04 #@! TF.FileFunction,Copper,L1,Top,Signal*
%FSLAX46Y46*%
G04 Gerber Fmt 4.6, Leading zero omitted, Abs format (unit mm)*
G04 Created by KiCad (PCBNEW 4.0.2-stable) date 9/19/2016 8:58:52 PM*
%MOMM*%
G01*
G04 APERTURE LIST*
%ADD10C,0.100000*%
%ADD11R,1.727200X1.727200*%
%ADD12O,1.727200X1.727200*%
%ADD13R,1.300000X1.900000*%
%ADD14R,0.750000X1.200000*%
%ADD15R,1.300000X1.500000*%
%ADD16R,0.797560X0.797560*%
%ADD17C,1.750000*%
%ADD18C,2.000000*%
%ADD19C,5.700000*%
%ADD20R,1.550000X0.600000*%
%ADD21R,1.500000X0.600000*%
%ADD22C,1.905000*%
%ADD23R,1.500000X1.300000*%
%ADD24R,1.000000X2.000000*%
%ADD25R,0.550000X1.600000*%
%ADD26R,1.600000X0.550000*%
%ADD27R,1.250000X1.500000*%
%ADD28C,1.300000*%
%ADD29R,1.300000X1.300000*%
%ADD30C,1.700000*%
%ADD31R,1.700000X1.700000*%
%ADD32R,3.600000X2.000000*%
%ADD33C,1.524000*%
%ADD34C,4.000000*%
%ADD35C,4.500000*%
%ADD36C,3.500000*%
%ADD37C,0.889000*%
%ADD38C,1.500000*%
%ADD39C,1.200000*%
%ADD40C,0.500000*%
%ADD41C,1.000000*%
%ADD42C,0.254000*%
G04 APERTURE END LIST*
D10*
D11*
X210250000Y-96000000D03*
D12*
X207710000Y-96000000D03*
X210250000Y-93460000D03*
X207710000Y-93460000D03*
X210250000Y-90920000D03*
X207710000Y-90920000D03*
X210250000Y-88380000D03*
X207710000Y-88380000D03*
X210250000Y-85840000D03*
X207710000Y-85840000D03*
D13*
X121750000Y-101950000D03*
X116250000Y-101950000D03*
X116250000Y-98750000D03*
X121750000Y-98750000D03*
D14*
X124250000Y-103700000D03*
X124250000Y-101800000D03*
X124250000Y-97300000D03*
X124250000Y-99200000D03*
D15*
X205000000Y-74850000D03*
X205000000Y-72150000D03*
D16*
X116000000Y-111749300D03*
X116000000Y-110250700D03*
X116000000Y-106750700D03*
X116000000Y-108249300D03*
X202500000Y-73749300D03*
X202500000Y-72250700D03*
D17*
X126250000Y-115010000D03*
X130750000Y-115010000D03*
D18*
X124995000Y-117500000D03*
X132005000Y-117500000D03*
D17*
X136000000Y-115010000D03*
X140500000Y-115010000D03*
D18*
X134745000Y-117500000D03*
X141755000Y-117500000D03*
D17*
X186750000Y-115010000D03*
X191250000Y-115010000D03*
D18*
X185495000Y-117500000D03*
X192505000Y-117500000D03*
D17*
X209510000Y-109250000D03*
X209510000Y-104750000D03*
D18*
X212000000Y-110505000D03*
X212000000Y-103495000D03*
D19*
X210500000Y-116000000D03*
X210500000Y-74000000D03*
X118500000Y-74000000D03*
X118500000Y-116000000D03*
D20*
X162500000Y-92095000D03*
X162500000Y-93365000D03*
X162500000Y-94635000D03*
X162500000Y-95905000D03*
X167900000Y-95905000D03*
X167900000Y-94635000D03*
X167900000Y-93365000D03*
X167900000Y-92095000D03*
D21*
X163300000Y-100555000D03*
X163300000Y-101825000D03*
X163300000Y-103095000D03*
X163300000Y-104365000D03*
X163300000Y-105635000D03*
X163300000Y-106905000D03*
X163300000Y-108175000D03*
X163300000Y-109445000D03*
X168700000Y-109445000D03*
X168700000Y-108175000D03*
X168700000Y-106905000D03*
X168700000Y-105635000D03*
X168700000Y-104365000D03*
X168700000Y-103095000D03*
X168700000Y-101825000D03*
X168700000Y-100555000D03*
X149300000Y-100555000D03*
X149300000Y-101825000D03*
X149300000Y-103095000D03*
X149300000Y-104365000D03*
X149300000Y-105635000D03*
X149300000Y-106905000D03*
X149300000Y-108175000D03*
X149300000Y-109445000D03*
X154700000Y-109445000D03*
X154700000Y-108175000D03*
X154700000Y-106905000D03*
X154700000Y-105635000D03*
X154700000Y-104365000D03*
X154700000Y-103095000D03*
X154700000Y-101825000D03*
X154700000Y-100555000D03*
D22*
X183190000Y-85690000D03*
X183190000Y-88230000D03*
X183190000Y-90770000D03*
X183190000Y-93310000D03*
X190810000Y-93310000D03*
X190810000Y-90770000D03*
X190810000Y-88230000D03*
X190810000Y-85690000D03*
D15*
X130500000Y-93650000D03*
X130500000Y-96350000D03*
X133000000Y-93650000D03*
X133000000Y-96350000D03*
X128000000Y-93650000D03*
X128000000Y-96350000D03*
X127000000Y-85650000D03*
X127000000Y-88350000D03*
D23*
X151150000Y-97000000D03*
X153850000Y-97000000D03*
X151150000Y-94500000D03*
X153850000Y-94500000D03*
X121350000Y-109500000D03*
X118650000Y-109500000D03*
X121350000Y-107000000D03*
X118650000Y-107000000D03*
D15*
X186750000Y-99600000D03*
X186750000Y-96900000D03*
X183000000Y-101850000D03*
X183000000Y-99150000D03*
D11*
X139500000Y-75500000D03*
D12*
X139500000Y-72960000D03*
X136960000Y-75500000D03*
X136960000Y-72960000D03*
X134420000Y-75500000D03*
X134420000Y-72960000D03*
X131880000Y-75500000D03*
X131880000Y-72960000D03*
X129340000Y-75500000D03*
X129340000Y-72960000D03*
X126800000Y-75500000D03*
X126800000Y-72960000D03*
D24*
X166250000Y-87800000D03*
X164150000Y-87800000D03*
D25*
X135700000Y-89750000D03*
X136500000Y-89750000D03*
X137300000Y-89750000D03*
X138100000Y-89750000D03*
X138900000Y-89750000D03*
X139700000Y-89750000D03*
X140500000Y-89750000D03*
X141300000Y-89750000D03*
D26*
X142750000Y-88300000D03*
X142750000Y-87500000D03*
X142750000Y-86700000D03*
X142750000Y-85900000D03*
X142750000Y-85100000D03*
X142750000Y-84300000D03*
X142750000Y-83500000D03*
X142750000Y-82700000D03*
D25*
X141300000Y-81250000D03*
X140500000Y-81250000D03*
X139700000Y-81250000D03*
X138900000Y-81250000D03*
X138100000Y-81250000D03*
X137300000Y-81250000D03*
X136500000Y-81250000D03*
X135700000Y-81250000D03*
D26*
X134250000Y-82700000D03*
X134250000Y-83500000D03*
X134250000Y-84300000D03*
X134250000Y-85100000D03*
X134250000Y-85900000D03*
X134250000Y-86700000D03*
X134250000Y-87500000D03*
X134250000Y-88300000D03*
D27*
X159000000Y-94750000D03*
X159000000Y-97250000D03*
D28*
X173500000Y-86250000D03*
D29*
X171000000Y-86250000D03*
D28*
X159250000Y-86250000D03*
D29*
X156750000Y-86250000D03*
D27*
X135000000Y-102250000D03*
X135000000Y-99750000D03*
X129500000Y-85750000D03*
X129500000Y-88250000D03*
D30*
X196750000Y-77250000D03*
D31*
X191750000Y-77250000D03*
D30*
X182000000Y-77500000D03*
D31*
X177000000Y-77500000D03*
D30*
X153250000Y-77500000D03*
D31*
X148250000Y-77500000D03*
D30*
X167500000Y-77500000D03*
D31*
X162500000Y-77500000D03*
D27*
X195500000Y-91750000D03*
X195500000Y-89250000D03*
D20*
X127050000Y-99845000D03*
X127050000Y-101115000D03*
X127050000Y-102385000D03*
X127050000Y-103655000D03*
X132450000Y-103655000D03*
X132450000Y-102385000D03*
X132450000Y-101115000D03*
X132450000Y-99845000D03*
D32*
X176250000Y-91250000D03*
X176250000Y-100250000D03*
D33*
X195670000Y-98000000D03*
X200750000Y-98000000D03*
D34*
X200650000Y-111500000D03*
D35*
X200650000Y-105500000D03*
D36*
X195750000Y-108450000D03*
D11*
X150500000Y-113000000D03*
D12*
X150500000Y-115540000D03*
X155580000Y-113000000D03*
X155580000Y-115540000D03*
X158120000Y-113000000D03*
X158120000Y-115540000D03*
X160660000Y-113000000D03*
X160660000Y-115540000D03*
X163200000Y-113000000D03*
X163200000Y-115540000D03*
X165740000Y-113000000D03*
X165740000Y-115540000D03*
X168280000Y-113000000D03*
X168280000Y-115540000D03*
X170820000Y-113000000D03*
X170820000Y-115540000D03*
X173360000Y-113000000D03*
X173360000Y-115540000D03*
X175900000Y-113000000D03*
X175900000Y-115540000D03*
X178440000Y-113000000D03*
X178440000Y-115540000D03*
D37*
X152000000Y-108250000D03*
D38*
X204750000Y-100000000D03*
D37*
X193000000Y-98250000D03*
X123000000Y-74250000D03*
D38*
X182000000Y-80000000D03*
X195500000Y-85500000D03*
D37*
X118000000Y-104500000D03*
X118000000Y-96750000D03*
X135250000Y-78000000D03*
X131000000Y-82250000D03*
X126250000Y-91000000D03*
X141500000Y-99000000D03*
X160500000Y-97250000D03*
X158750000Y-90000000D03*
X165000000Y-109250000D03*
X119250000Y-82250000D03*
X139250000Y-86750000D03*
X134000000Y-111500000D03*
X173500000Y-91250000D03*
X160500000Y-94750000D03*
X194750000Y-101750000D03*
X171250000Y-95000000D03*
X171250000Y-102000000D03*
X138000000Y-86750000D03*
X127000000Y-92000000D03*
X130500000Y-92000000D03*
X136000000Y-83000000D03*
X140500000Y-93000000D03*
X133750000Y-91750000D03*
X140500000Y-97750000D03*
X117000000Y-109250000D03*
X130750000Y-113000000D03*
X134500000Y-97750000D03*
X161000000Y-99250000D03*
X158000000Y-100500000D03*
X141500000Y-78250000D03*
X138250000Y-78500000D03*
X123500000Y-91500000D03*
X132500000Y-91000000D03*
X209250000Y-102250000D03*
X128750000Y-101750000D03*
X170000000Y-91750000D03*
X160200000Y-93000000D03*
X178500000Y-97750000D03*
X136750000Y-101500000D03*
X137750000Y-102250000D03*
X138250000Y-92500000D03*
X124750000Y-85500000D03*
X124250000Y-88750000D03*
X138250000Y-93750000D03*
X123250000Y-90000000D03*
X123750000Y-84500000D03*
X172750000Y-98000000D03*
X172750000Y-105000000D03*
X155500000Y-99000000D03*
X145750000Y-95750000D03*
X156750000Y-108000000D03*
X166750000Y-108250000D03*
X148750000Y-98000000D03*
X153000000Y-104500000D03*
X166750000Y-104500000D03*
X156750000Y-104250000D03*
X153000000Y-105750000D03*
X149750000Y-98750000D03*
X156750000Y-105500000D03*
X166750000Y-105750000D03*
X146500000Y-71250000D03*
X146250000Y-80250000D03*
X145750000Y-83250000D03*
X144750000Y-82500000D03*
X143000000Y-81250000D03*
X140250000Y-78000000D03*
X142000000Y-75500000D03*
X143500000Y-71500000D03*
X157250000Y-88250000D03*
X136750000Y-84250000D03*
X130750000Y-102000000D03*
X131750000Y-92000000D03*
X136000000Y-96250000D03*
X122750000Y-78750000D03*
X136000000Y-86750000D03*
X121500000Y-78000000D03*
X136000000Y-88000000D03*
X187500000Y-84750000D03*
X191500000Y-99500000D03*
X166750000Y-107000000D03*
X156750000Y-106750000D03*
X165250000Y-90250000D03*
X169750000Y-97000000D03*
X158000000Y-118500000D03*
X159250000Y-118250000D03*
X146750000Y-112750000D03*
X158000000Y-109250000D03*
X166750000Y-103000000D03*
X177750000Y-118250000D03*
X182250000Y-113250000D03*
X165750000Y-118250000D03*
X170500000Y-110000000D03*
X165250000Y-101750000D03*
X179500000Y-111250000D03*
X163250000Y-118500000D03*
X183750000Y-118500000D03*
X174750000Y-117250000D03*
X182250000Y-112000000D03*
X146750000Y-100500000D03*
X147750000Y-101750000D03*
X146250000Y-117750000D03*
X181000000Y-117250000D03*
D39*
X154250000Y-91750000D03*
X178500000Y-83250000D03*
X202250000Y-80500000D03*
D40*
X190150000Y-96900000D02*
X186750000Y-96900000D01*
X151000000Y-109250000D02*
X152000000Y-108250000D01*
X150805000Y-109445000D02*
X151000000Y-109250000D01*
X149300000Y-109445000D02*
X150805000Y-109445000D01*
X175900000Y-113000000D02*
X178440000Y-113000000D01*
X173360000Y-113000000D02*
X175900000Y-113000000D01*
X190150000Y-96900000D02*
X191650000Y-96900000D01*
X191650000Y-96900000D02*
X193000000Y-98250000D01*
X123000000Y-74250000D02*
X122000000Y-75250000D01*
X122000000Y-75250000D02*
X122000000Y-75750000D01*
X122000000Y-75750000D02*
X119250000Y-78500000D01*
X119250000Y-82250000D02*
X119250000Y-78500000D01*
X134500000Y-104250000D02*
X135000000Y-103750000D01*
X129000000Y-104500000D02*
X134250000Y-104500000D01*
X134250000Y-104500000D02*
X134500000Y-104250000D01*
X127000000Y-104500000D02*
X129000000Y-104500000D01*
X127050000Y-104500000D02*
X127000000Y-104500000D01*
X127050000Y-103655000D02*
X127050000Y-104500000D01*
X135000000Y-103750000D02*
X135000000Y-102250000D01*
D41*
X195500000Y-80000000D02*
X196750000Y-78750000D01*
X196750000Y-78750000D02*
X196750000Y-77250000D01*
X195500000Y-85500000D02*
X195500000Y-80000000D01*
X195500000Y-80000000D02*
X182000000Y-80000000D01*
X195500000Y-89250000D02*
X195500000Y-85500000D01*
D40*
X207710000Y-93460000D02*
X204750000Y-93460000D01*
X204750000Y-93460000D02*
X204540000Y-93460000D01*
D41*
X202250000Y-89250000D02*
X195500000Y-89250000D01*
X200650000Y-111500000D02*
X200750000Y-111500000D01*
X200750000Y-111500000D02*
X204750000Y-107500000D01*
X203000000Y-89250000D02*
X202250000Y-89250000D01*
X202250000Y-89250000D02*
X202750000Y-89250000D01*
X204750000Y-91000000D02*
X203000000Y-89250000D01*
X204750000Y-107500000D02*
X204750000Y-100000000D01*
X204750000Y-100000000D02*
X204750000Y-93750000D01*
X204750000Y-93750000D02*
X204750000Y-91000000D01*
D40*
X190810000Y-88230000D02*
X190810000Y-90770000D01*
X195500000Y-89250000D02*
X194250000Y-89250000D01*
X193230000Y-88230000D02*
X190810000Y-88230000D01*
X194250000Y-89250000D02*
X193230000Y-88230000D01*
X124250000Y-103700000D02*
X123050000Y-103700000D01*
X122250000Y-104500000D02*
X118000000Y-104500000D01*
X123050000Y-103700000D02*
X122250000Y-104500000D01*
X124250000Y-97300000D02*
X123300000Y-97300000D01*
X122750000Y-96750000D02*
X118000000Y-96750000D01*
X123300000Y-97300000D02*
X122750000Y-96750000D01*
X136250000Y-78000000D02*
X138100000Y-79850000D01*
X138100000Y-79850000D02*
X138100000Y-81250000D01*
X135250000Y-78000000D02*
X136250000Y-78000000D01*
D42*
X129500000Y-90250000D02*
X129500000Y-90500000D01*
X129500000Y-88250000D02*
X129500000Y-90250000D01*
X129000000Y-91000000D02*
X126250000Y-91000000D01*
X129500000Y-90500000D02*
X129000000Y-91000000D01*
D40*
X137300000Y-89750000D02*
X137300000Y-88200000D01*
X137750000Y-87750000D02*
X138900000Y-87750000D01*
X137300000Y-88200000D02*
X137750000Y-87750000D01*
X134000000Y-111500000D02*
X141500000Y-104000000D01*
X141500000Y-104000000D02*
X141500000Y-99000000D01*
X160500000Y-97250000D02*
X159000000Y-97250000D01*
X169500000Y-82250000D02*
X171750000Y-82250000D01*
X159250000Y-82250000D02*
X169500000Y-82250000D01*
X173500000Y-84000000D02*
X173500000Y-86250000D01*
X171750000Y-82250000D02*
X173500000Y-84000000D01*
X162500000Y-92095000D02*
X160845000Y-92095000D01*
X160845000Y-92095000D02*
X158750000Y-90000000D01*
X163300000Y-109445000D02*
X164805000Y-109445000D01*
X164805000Y-109445000D02*
X165000000Y-109250000D01*
X192505000Y-117500000D02*
X194500000Y-117500000D01*
X194500000Y-117500000D02*
X196000000Y-116000000D01*
X196000000Y-116000000D02*
X196000000Y-113000000D01*
X196000000Y-113000000D02*
X197500000Y-111500000D01*
X197500000Y-111500000D02*
X200650000Y-111500000D01*
X159250000Y-86250000D02*
X159250000Y-84750000D01*
X159250000Y-84750000D02*
X159250000Y-82250000D01*
X159250000Y-82250000D02*
X159250000Y-79000000D01*
X159250000Y-79000000D02*
X157750000Y-77500000D01*
X157750000Y-77500000D02*
X153250000Y-77500000D01*
X138900000Y-87750000D02*
X138900000Y-87100000D01*
X138900000Y-88750000D02*
X138900000Y-87750000D01*
X138900000Y-87100000D02*
X139250000Y-86750000D01*
X138900000Y-89750000D02*
X138900000Y-88750000D01*
X138900000Y-88750000D02*
X138900000Y-88600000D01*
X119250000Y-82250000D02*
X131000000Y-82250000D01*
X132005000Y-117500000D02*
X134745000Y-117500000D01*
X134000000Y-111500000D02*
X133250000Y-112250000D01*
X133250000Y-112250000D02*
X133250000Y-116005000D01*
X133250000Y-116005000D02*
X134745000Y-117500000D01*
X134745000Y-117500000D02*
X141755000Y-117500000D01*
X200650000Y-111500000D02*
X208500000Y-111500000D01*
X208500000Y-111500000D02*
X210500000Y-111500000D01*
X210500000Y-111500000D02*
X211495000Y-110505000D01*
X211495000Y-110505000D02*
X212000000Y-110505000D01*
X185495000Y-117500000D02*
X192505000Y-117500000D01*
X212000000Y-103495000D02*
X212000000Y-110505000D01*
X190830000Y-90750000D02*
X190810000Y-90770000D01*
X196750000Y-77250000D02*
X196750000Y-77750000D01*
X207710000Y-90920000D02*
X207710000Y-88380000D01*
X207710000Y-93460000D02*
X207710000Y-90920000D01*
X207710000Y-85840000D02*
X207710000Y-88380000D01*
X207710000Y-85840000D02*
X207710000Y-88380000D01*
X200650000Y-111500000D02*
X201500000Y-111500000D01*
D42*
X202500000Y-73749300D02*
X198250700Y-73749300D01*
X198250700Y-73749300D02*
X196750000Y-75250000D01*
X196750000Y-75250000D02*
X196750000Y-77250000D01*
D40*
X124995000Y-117500000D02*
X132005000Y-117500000D01*
X190810000Y-93310000D02*
X192440000Y-93310000D01*
X194000000Y-91750000D02*
X195500000Y-91750000D01*
X192440000Y-93310000D02*
X194000000Y-91750000D01*
D42*
X190870000Y-93250000D02*
X190810000Y-93310000D01*
D41*
X176250000Y-91250000D02*
X176250000Y-89500000D01*
X177520000Y-88230000D02*
X183190000Y-88230000D01*
X176250000Y-89500000D02*
X177520000Y-88230000D01*
X195670000Y-98000000D02*
X195670000Y-97920000D01*
X195670000Y-97920000D02*
X193250000Y-95500000D01*
X193250000Y-95500000D02*
X189000000Y-95500000D01*
X189000000Y-95500000D02*
X186250000Y-92750000D01*
X186250000Y-92750000D02*
X186250000Y-89250000D01*
X186250000Y-89250000D02*
X185230000Y-88230000D01*
X185230000Y-88230000D02*
X183190000Y-88230000D01*
D40*
X195670000Y-98000000D02*
X195500000Y-98000000D01*
X176250000Y-91250000D02*
X173500000Y-91250000D01*
X162500000Y-94635000D02*
X160615000Y-94635000D01*
X160615000Y-94635000D02*
X160500000Y-94750000D01*
X159000000Y-94750000D02*
X160500000Y-94750000D01*
X132450000Y-99845000D02*
X134905000Y-99845000D01*
X134905000Y-99845000D02*
X135000000Y-99750000D01*
X171250000Y-95000000D02*
X179500000Y-95000000D01*
X181600000Y-101850000D02*
X183000000Y-101850000D01*
X181250000Y-101500000D02*
X181600000Y-101850000D01*
X181250000Y-96750000D02*
X181250000Y-101500000D01*
X179500000Y-95000000D02*
X181250000Y-96750000D01*
X183100000Y-101750000D02*
X194750000Y-101750000D01*
X183100000Y-101750000D02*
X183000000Y-101850000D01*
X166250000Y-87800000D02*
X171000000Y-87800000D01*
X171000000Y-87800000D02*
X171000000Y-88000000D01*
X171000000Y-86250000D02*
X171000000Y-88000000D01*
X171000000Y-88000000D02*
X171000000Y-89500000D01*
X171000000Y-89500000D02*
X171250000Y-89750000D01*
X171250000Y-89750000D02*
X171250000Y-95000000D01*
X169805000Y-100555000D02*
X168700000Y-100555000D01*
X169805000Y-100555000D02*
X171250000Y-102000000D01*
X138000000Y-86750000D02*
X138000000Y-86250000D01*
X138000000Y-84500000D02*
X138000000Y-84000000D01*
X138000000Y-86250000D02*
X138000000Y-84500000D01*
X138000000Y-83500000D02*
X138000000Y-84000000D01*
X137500000Y-83000000D02*
X138000000Y-83500000D01*
X137000000Y-83000000D02*
X137500000Y-83000000D01*
X125000000Y-92000000D02*
X125000000Y-91250000D01*
D42*
X126500000Y-90000000D02*
X126000000Y-90000000D01*
X127000000Y-89500000D02*
X126500000Y-90000000D01*
X127000000Y-89500000D02*
X127000000Y-88350000D01*
X125000000Y-91000000D02*
X126000000Y-90000000D01*
D40*
X125000000Y-91250000D02*
X125000000Y-91000000D01*
X125000000Y-92000000D02*
X127000000Y-92000000D01*
X130500000Y-92000000D02*
X130500000Y-93650000D01*
X128000000Y-93650000D02*
X125650000Y-93650000D01*
X125000000Y-93000000D02*
X125000000Y-92000000D01*
X125650000Y-93650000D02*
X125000000Y-93000000D01*
X138100000Y-89750000D02*
X138100000Y-91100000D01*
X138100000Y-91100000D02*
X138500000Y-91500000D01*
X138500000Y-91500000D02*
X139700000Y-91500000D01*
X136000000Y-83000000D02*
X137000000Y-83000000D01*
X139700000Y-89750000D02*
X139700000Y-91500000D01*
X139700000Y-91500000D02*
X139700000Y-92200000D01*
X139700000Y-92200000D02*
X140500000Y-93000000D01*
X133750000Y-91750000D02*
X133000000Y-92500000D01*
X133000000Y-93650000D02*
X133000000Y-92500000D01*
D42*
X131250000Y-112500000D02*
X130750000Y-113000000D01*
X140500000Y-97750000D02*
X140500000Y-100250000D01*
X116000000Y-109250000D02*
X117000000Y-109250000D01*
X140500000Y-103250000D02*
X140500000Y-100250000D01*
X131250000Y-112500000D02*
X140500000Y-103250000D01*
D40*
X134500000Y-97750000D02*
X133000000Y-97750000D01*
X133000000Y-97750000D02*
X132450000Y-98300000D01*
X132450000Y-98300000D02*
X132450000Y-99845000D01*
D42*
X183100000Y-101750000D02*
X183000000Y-101850000D01*
X182900000Y-101750000D02*
X183000000Y-101850000D01*
D40*
X158000000Y-100500000D02*
X159250000Y-99250000D01*
X159250000Y-99250000D02*
X161000000Y-99250000D01*
X161000000Y-99250000D02*
X160750000Y-99250000D01*
X154700000Y-100555000D02*
X157945000Y-100555000D01*
X157945000Y-100555000D02*
X158000000Y-100500000D01*
D42*
X158000000Y-100500000D02*
X157945000Y-100555000D01*
D40*
X140500000Y-81250000D02*
X140500000Y-79250000D01*
X140500000Y-79250000D02*
X141500000Y-78250000D01*
X133000000Y-93650000D02*
X131750000Y-93650000D01*
X131750000Y-93650000D02*
X130500000Y-93650000D01*
D42*
X116000000Y-108249300D02*
X116000000Y-109250000D01*
X116000000Y-109250000D02*
X116000000Y-110250700D01*
X138900000Y-81250000D02*
X138900000Y-79400000D01*
X138250000Y-78750000D02*
X138250000Y-78500000D01*
X138900000Y-79400000D02*
X138250000Y-78750000D01*
X124000000Y-91000000D02*
X123500000Y-91500000D01*
X125500000Y-89500000D02*
X124750000Y-90250000D01*
X125500000Y-89500000D02*
X125500000Y-86500000D01*
X127000000Y-85650000D02*
X125850000Y-85650000D01*
X125500000Y-86500000D02*
X125500000Y-86000000D01*
X125500000Y-86000000D02*
X125850000Y-85650000D01*
X124750000Y-90250000D02*
X124000000Y-91000000D01*
X132500000Y-86250000D02*
X132500000Y-91000000D01*
X132850000Y-85900000D02*
X132500000Y-86250000D01*
X134250000Y-85900000D02*
X132850000Y-85900000D01*
X209250000Y-102250000D02*
X213500000Y-98000000D01*
X210250000Y-90920000D02*
X212670000Y-90920000D01*
X212670000Y-90920000D02*
X213500000Y-91750000D01*
X127000000Y-85650000D02*
X128250000Y-85650000D01*
X128250000Y-85650000D02*
X129400000Y-85650000D01*
X129400000Y-85650000D02*
X129500000Y-85750000D01*
X213500000Y-91750000D02*
X213500000Y-98000000D01*
X124250000Y-99200000D02*
X121950000Y-99200000D01*
X121950000Y-99200000D02*
X121750000Y-99000000D01*
X127050000Y-99845000D02*
X125595000Y-99845000D01*
X124950000Y-99200000D02*
X124250000Y-99200000D01*
X125595000Y-99845000D02*
X124950000Y-99200000D01*
X124250000Y-101800000D02*
X122150000Y-101800000D01*
X122150000Y-101800000D02*
X121750000Y-102200000D01*
X127050000Y-101115000D02*
X125635000Y-101115000D01*
X124950000Y-101800000D02*
X124250000Y-101800000D01*
X125635000Y-101115000D02*
X124950000Y-101800000D01*
X122050000Y-102500000D02*
X122000000Y-102450000D01*
X127050000Y-102385000D02*
X128115000Y-102385000D01*
X128115000Y-102385000D02*
X128750000Y-101750000D01*
D40*
X167900000Y-94635000D02*
X169615000Y-94635000D01*
X170000000Y-94250000D02*
X170000000Y-91750000D01*
X169615000Y-94635000D02*
X170000000Y-94250000D01*
X162500000Y-93365000D02*
X160565000Y-93365000D01*
X160565000Y-93365000D02*
X160200000Y-93000000D01*
X162500000Y-93365000D02*
X163885000Y-93365000D01*
X164150000Y-93100000D02*
X164150000Y-87800000D01*
X163885000Y-93365000D02*
X164150000Y-93100000D01*
D42*
X160200000Y-93000000D02*
X160565000Y-93365000D01*
D40*
X176250000Y-100250000D02*
X176250000Y-98250000D01*
X176750000Y-97750000D02*
X178500000Y-97750000D01*
X176250000Y-98250000D02*
X176750000Y-97750000D01*
D42*
X135700000Y-93450000D02*
X137000000Y-94750000D01*
X137000000Y-94750000D02*
X137000000Y-101250000D01*
X137000000Y-101250000D02*
X136750000Y-101500000D01*
X135700000Y-93450000D02*
X135700000Y-89750000D01*
X126250000Y-115010000D02*
X130750000Y-115010000D01*
X136500000Y-89750000D02*
X136500000Y-93250000D01*
X137750000Y-94500000D02*
X137750000Y-102250000D01*
X136500000Y-93250000D02*
X137750000Y-94500000D01*
X136000000Y-115010000D02*
X140500000Y-115010000D01*
X124750000Y-85500000D02*
X124750000Y-88250000D01*
X140500000Y-91750000D02*
X141500000Y-92750000D01*
X141500000Y-92750000D02*
X141500000Y-93750000D01*
X141500000Y-93750000D02*
X141000000Y-94250000D01*
X141000000Y-94250000D02*
X140000000Y-94250000D01*
X140000000Y-94250000D02*
X138250000Y-92500000D01*
X140500000Y-89750000D02*
X140500000Y-91750000D01*
X124750000Y-88250000D02*
X124250000Y-88750000D01*
X123250000Y-90000000D02*
X123250000Y-86000000D01*
X141300000Y-91550000D02*
X142250000Y-92500000D01*
X142250000Y-92500000D02*
X142250000Y-94000000D01*
X142250000Y-94000000D02*
X141250000Y-95000000D01*
X141250000Y-95000000D02*
X139500000Y-95000000D01*
X139500000Y-95000000D02*
X138250000Y-93750000D01*
X141300000Y-89750000D02*
X141300000Y-91550000D01*
X123250000Y-86000000D02*
X123750000Y-85500000D01*
X123750000Y-84500000D02*
X123750000Y-85500000D01*
X185000000Y-113500000D02*
X185000000Y-110000000D01*
X186510000Y-115010000D02*
X185000000Y-113500000D01*
X172750000Y-105000000D02*
X172750000Y-106000000D01*
X172750000Y-106000000D02*
X173500000Y-106750000D01*
X173500000Y-106750000D02*
X181750000Y-106750000D01*
X181750000Y-106750000D02*
X185000000Y-110000000D01*
X145500000Y-89500000D02*
X145750000Y-89750000D01*
X161750000Y-97250000D02*
X160500000Y-98500000D01*
X160500000Y-98500000D02*
X157500000Y-98500000D01*
X157500000Y-98500000D02*
X157000000Y-99000000D01*
X157000000Y-99000000D02*
X155500000Y-99000000D01*
X169000000Y-98000000D02*
X170750000Y-98000000D01*
X168250000Y-97250000D02*
X169000000Y-98000000D01*
X144300000Y-88300000D02*
X144000000Y-88300000D01*
X144300000Y-88300000D02*
X145500000Y-89500000D01*
X168250000Y-97250000D02*
X161750000Y-97250000D01*
X146000000Y-95500000D02*
X145750000Y-95750000D01*
X146000000Y-90000000D02*
X146000000Y-95500000D01*
X145750000Y-89750000D02*
X146000000Y-90000000D01*
X170750000Y-98000000D02*
X172750000Y-98000000D01*
X142750000Y-88300000D02*
X144000000Y-88300000D01*
X144000000Y-88300000D02*
X144050000Y-88300000D01*
X186750000Y-115010000D02*
X186510000Y-115010000D01*
X186750000Y-115010000D02*
X191250000Y-115010000D01*
X145758002Y-97241998D02*
X142991998Y-97241998D01*
X146750000Y-96250000D02*
X145758002Y-97241998D01*
X139500000Y-95750000D02*
X141500000Y-95750000D01*
X138750000Y-102500000D02*
X138750000Y-96500000D01*
X123250000Y-107000000D02*
X134250000Y-107000000D01*
X121350000Y-107000000D02*
X123250000Y-107000000D01*
X134250000Y-107000000D02*
X138750000Y-102500000D01*
X138750000Y-96500000D02*
X139500000Y-95750000D01*
X142991998Y-97241998D02*
X141500000Y-95750000D01*
X146750000Y-89750000D02*
X146250000Y-89250000D01*
X146750000Y-94500000D02*
X146750000Y-89750000D01*
X146750000Y-94500000D02*
X146750000Y-96250000D01*
X146500000Y-89500000D02*
X146250000Y-89250000D01*
X146250000Y-89250000D02*
X144500000Y-87500000D01*
X144500000Y-87500000D02*
X142750000Y-87500000D01*
X147000000Y-97000000D02*
X146250000Y-97750000D01*
X146250000Y-97750000D02*
X142750000Y-97750000D01*
X142750000Y-97750000D02*
X141500000Y-96500000D01*
X132750000Y-109500000D02*
X139500000Y-102750000D01*
X139500000Y-102750000D02*
X139500000Y-97000000D01*
X121350000Y-109500000D02*
X123250000Y-109500000D01*
X123250000Y-109500000D02*
X132750000Y-109500000D01*
X140000000Y-96500000D02*
X139500000Y-97000000D01*
X140750000Y-96500000D02*
X141500000Y-96500000D01*
X140750000Y-96500000D02*
X140000000Y-96500000D01*
X147000000Y-97000000D02*
X147500000Y-96500000D01*
X147500000Y-89500000D02*
X147250000Y-89250000D01*
X147500000Y-96500000D02*
X147500000Y-89500000D01*
X144700000Y-86700000D02*
X147250000Y-89250000D01*
X144700000Y-86700000D02*
X142750000Y-86700000D01*
X148000000Y-89000000D02*
X148250000Y-89250000D01*
X148000000Y-99000000D02*
X147750000Y-98750000D01*
X150750000Y-105750000D02*
X150750000Y-100250000D01*
X150750000Y-100250000D02*
X150250000Y-99750000D01*
X153175000Y-108175000D02*
X150750000Y-105750000D01*
X154700000Y-108175000D02*
X153175000Y-108175000D01*
X148750000Y-99750000D02*
X148000000Y-99000000D01*
X150250000Y-99750000D02*
X148750000Y-99750000D01*
X144900000Y-85900000D02*
X142750000Y-85900000D01*
X148000000Y-89000000D02*
X144900000Y-85900000D01*
X147750000Y-97500000D02*
X147750000Y-98750000D01*
X148250000Y-97000000D02*
X147750000Y-97500000D01*
X148250000Y-89250000D02*
X148250000Y-97000000D01*
X154700000Y-108175000D02*
X156575000Y-108175000D01*
X156575000Y-108175000D02*
X156750000Y-108000000D01*
X166825000Y-108175000D02*
X168700000Y-108175000D01*
X166750000Y-108250000D02*
X166825000Y-108175000D01*
X148750000Y-88500000D02*
X149000000Y-88750000D01*
X145350000Y-85100000D02*
X148750000Y-88500000D01*
X142750000Y-85100000D02*
X145350000Y-85100000D01*
X148750000Y-97750000D02*
X148750000Y-98000000D01*
X149000000Y-97500000D02*
X148750000Y-97750000D01*
X149000000Y-88750000D02*
X149000000Y-97500000D01*
X153135000Y-104365000D02*
X153000000Y-104500000D01*
X154700000Y-104365000D02*
X153135000Y-104365000D01*
X154700000Y-104365000D02*
X156635000Y-104365000D01*
X166750000Y-104500000D02*
X166885000Y-104365000D01*
X166885000Y-104365000D02*
X168700000Y-104365000D01*
X156635000Y-104365000D02*
X156750000Y-104250000D01*
X153115000Y-105635000D02*
X153000000Y-105750000D01*
X154700000Y-105635000D02*
X153115000Y-105635000D01*
X145800000Y-84300000D02*
X149750000Y-88250000D01*
X149750000Y-88250000D02*
X149750000Y-96000000D01*
X145800000Y-84300000D02*
X142750000Y-84300000D01*
X149750000Y-97750000D02*
X149750000Y-96000000D01*
X149750000Y-98750000D02*
X149750000Y-97750000D01*
X154700000Y-105635000D02*
X156615000Y-105635000D01*
X156615000Y-105635000D02*
X156750000Y-105500000D01*
X166865000Y-105635000D02*
X168700000Y-105635000D01*
X166750000Y-105750000D02*
X166865000Y-105635000D01*
X144500000Y-78000000D02*
X144500000Y-78500000D01*
X144500000Y-78500000D02*
X146250000Y-80250000D01*
X144500000Y-77250000D02*
X144500000Y-78000000D01*
X144500000Y-77250000D02*
X144500000Y-72500000D01*
X144500000Y-72500000D02*
X145750000Y-71250000D01*
X145750000Y-71250000D02*
X146500000Y-71250000D01*
X151150000Y-94500000D02*
X151150000Y-93400000D01*
X150500000Y-92750000D02*
X150500000Y-88000000D01*
X151150000Y-93400000D02*
X150500000Y-92750000D01*
X145750000Y-83250000D02*
X150500000Y-88000000D01*
X142750000Y-83500000D02*
X145500000Y-83500000D01*
X145500000Y-83500000D02*
X145750000Y-83250000D01*
X144550000Y-82700000D02*
X144750000Y-82500000D01*
X144550000Y-82700000D02*
X142750000Y-82700000D01*
X151250000Y-86500000D02*
X151250000Y-92000000D01*
X152500000Y-93250000D02*
X152500000Y-95500000D01*
X146000000Y-81250000D02*
X151250000Y-86500000D01*
X143000000Y-81250000D02*
X144750000Y-81250000D01*
X144750000Y-81250000D02*
X146000000Y-81250000D01*
X151250000Y-92000000D02*
X152500000Y-93250000D01*
X151150000Y-96100000D02*
X151150000Y-97000000D01*
X151500000Y-95750000D02*
X151150000Y-96100000D01*
X152250000Y-95750000D02*
X151500000Y-95750000D01*
X152500000Y-95500000D02*
X152250000Y-95750000D01*
X143000000Y-81250000D02*
X141300000Y-81250000D01*
X142000000Y-75500000D02*
X142000000Y-72000000D01*
X136960000Y-72960000D02*
X136960000Y-72040000D01*
X141500000Y-71500000D02*
X142000000Y-72000000D01*
X137500000Y-71500000D02*
X141500000Y-71500000D01*
X136960000Y-72040000D02*
X137500000Y-71500000D01*
X139700000Y-78550000D02*
X140250000Y-78000000D01*
X139700000Y-78550000D02*
X139700000Y-81250000D01*
X133500000Y-77000000D02*
X138000000Y-77000000D01*
X133250000Y-78000000D02*
X133250000Y-77250000D01*
X133250000Y-77250000D02*
X133500000Y-77000000D01*
X137300000Y-81250000D02*
X137300000Y-80050000D01*
X134500000Y-79250000D02*
X133250000Y-78000000D01*
X136500000Y-79250000D02*
X134500000Y-79250000D01*
X137300000Y-80050000D02*
X136500000Y-79250000D01*
X138000000Y-77000000D02*
X142500000Y-77000000D01*
X142500000Y-77000000D02*
X143500000Y-76000000D01*
X143500000Y-76000000D02*
X143500000Y-71500000D01*
X136500000Y-81250000D02*
X136500000Y-80250000D01*
X131880000Y-77630000D02*
X131880000Y-75500000D01*
X134250000Y-80000000D02*
X131880000Y-77630000D01*
X136250000Y-80000000D02*
X134250000Y-80000000D01*
X136500000Y-80250000D02*
X136250000Y-80000000D01*
X135700000Y-81250000D02*
X134750000Y-81250000D01*
X129340000Y-77840000D02*
X129340000Y-75500000D01*
X130500000Y-79000000D02*
X129340000Y-77840000D01*
X132500000Y-79000000D02*
X130500000Y-79000000D01*
X134750000Y-81250000D02*
X132500000Y-79000000D01*
X126800000Y-75500000D02*
X126800000Y-76300000D01*
X126800000Y-76300000D02*
X130500000Y-80000000D01*
X130500000Y-80000000D02*
X132500000Y-80000000D01*
X132500000Y-80000000D02*
X134250000Y-81750000D01*
X134250000Y-81750000D02*
X134250000Y-82700000D01*
X171500000Y-83750000D02*
X172250000Y-84500000D01*
X172250000Y-86500000D02*
X172250000Y-84500000D01*
X161250000Y-88250000D02*
X161500000Y-88250000D01*
X157250000Y-88250000D02*
X161250000Y-88250000D01*
X162750000Y-83750000D02*
X169000000Y-83750000D01*
X162250000Y-84250000D02*
X162750000Y-83750000D01*
X162250000Y-87500000D02*
X162250000Y-84250000D01*
X161500000Y-88250000D02*
X162250000Y-87500000D01*
X169000000Y-83750000D02*
X171500000Y-83750000D01*
X172250000Y-86500000D02*
X172250000Y-92000000D01*
X173560000Y-93310000D02*
X183190000Y-93310000D01*
X172250000Y-92000000D02*
X173560000Y-93310000D01*
X136750000Y-84250000D02*
X136000000Y-84250000D01*
X136000000Y-84250000D02*
X135750000Y-84000000D01*
X135250000Y-83500000D02*
X135750000Y-84000000D01*
X134250000Y-83500000D02*
X135250000Y-83500000D01*
X183000000Y-99150000D02*
X183000000Y-96750000D01*
X183000000Y-96750000D02*
X183000000Y-93500000D01*
X183000000Y-93500000D02*
X183190000Y-93310000D01*
X183190000Y-93310000D02*
X183060000Y-93310000D01*
X172250000Y-86500000D02*
X172250000Y-86500000D01*
X128750000Y-99000000D02*
X129750000Y-100000000D01*
X128750000Y-99000000D02*
X128000000Y-98250000D01*
X128000000Y-98250000D02*
X128000000Y-97500000D01*
X128000000Y-96350000D02*
X128000000Y-97500000D01*
X129750000Y-100000000D02*
X129750000Y-102500000D01*
X132450000Y-103655000D02*
X130905000Y-103655000D01*
X130905000Y-103655000D02*
X129750000Y-102500000D01*
X128000000Y-96350000D02*
X128000000Y-95250000D01*
X128000000Y-95250000D02*
X128250000Y-95000000D01*
X128250000Y-95000000D02*
X128750000Y-95000000D01*
X128750000Y-95000000D02*
X129250000Y-94500000D01*
X129250000Y-94500000D02*
X129250000Y-91500000D01*
X129250000Y-91500000D02*
X131000000Y-89750000D01*
X131000000Y-89750000D02*
X131000000Y-85750000D01*
X132450000Y-84300000D02*
X134250000Y-84300000D01*
X131000000Y-85750000D02*
X132450000Y-84300000D01*
X131250000Y-102385000D02*
X131135000Y-102385000D01*
X131135000Y-102385000D02*
X130750000Y-102000000D01*
X132450000Y-102385000D02*
X131250000Y-102385000D01*
X131250000Y-90250000D02*
X131750000Y-89750000D01*
X131250000Y-91500000D02*
X131250000Y-90250000D01*
X131750000Y-92000000D02*
X131250000Y-91500000D01*
X131750000Y-89750000D02*
X131750000Y-86000000D01*
X134250000Y-85100000D02*
X132650000Y-85100000D01*
X131750000Y-86000000D02*
X132650000Y-85100000D01*
X135000000Y-96350000D02*
X135900000Y-96350000D01*
X135900000Y-96350000D02*
X136000000Y-96250000D01*
X135100000Y-96350000D02*
X135000000Y-96350000D01*
X135000000Y-96350000D02*
X133000000Y-96350000D01*
X122750000Y-78750000D02*
X125000000Y-76500000D01*
X125500000Y-71500000D02*
X125000000Y-72000000D01*
X125000000Y-72000000D02*
X125000000Y-76500000D01*
X129340000Y-72340000D02*
X128500000Y-71500000D01*
X128500000Y-71500000D02*
X125500000Y-71500000D01*
X136000000Y-86750000D02*
X135950000Y-86700000D01*
X135950000Y-86700000D02*
X134250000Y-86700000D01*
X129340000Y-72960000D02*
X129340000Y-72340000D01*
X121500000Y-78000000D02*
X124000000Y-75500000D01*
X124000000Y-71500000D02*
X124000000Y-75500000D01*
X124750000Y-70750000D02*
X124000000Y-71500000D01*
X134250000Y-87500000D02*
X135500000Y-87500000D01*
X135500000Y-87500000D02*
X136000000Y-88000000D01*
X129750000Y-70750000D02*
X131880000Y-72880000D01*
X129750000Y-70750000D02*
X124750000Y-70750000D01*
X131880000Y-72960000D02*
X131880000Y-72880000D01*
X130500000Y-97750000D02*
X130500000Y-100500000D01*
X130500000Y-96350000D02*
X130500000Y-97750000D01*
X131115000Y-101115000D02*
X132450000Y-101115000D01*
X130500000Y-100500000D02*
X131115000Y-101115000D01*
X131750000Y-96000000D02*
X131750000Y-95500000D01*
X131750000Y-96000000D02*
X131400000Y-96350000D01*
X130500000Y-96350000D02*
X131400000Y-96350000D01*
X135000000Y-90250000D02*
X134250000Y-89500000D01*
X135000000Y-94000000D02*
X135000000Y-90250000D01*
X134000000Y-95000000D02*
X135000000Y-94000000D01*
X132250000Y-95000000D02*
X134000000Y-95000000D01*
X131750000Y-95500000D02*
X132250000Y-95000000D01*
X134250000Y-88300000D02*
X134250000Y-89500000D01*
X183190000Y-85690000D02*
X186440000Y-85690000D01*
X186560000Y-85690000D02*
X186440000Y-85690000D01*
X187500000Y-84750000D02*
X186560000Y-85690000D01*
X191400000Y-99600000D02*
X191500000Y-99500000D01*
X186750000Y-99600000D02*
X191400000Y-99600000D01*
X202500000Y-72250700D02*
X204899300Y-72250700D01*
X204899300Y-72250700D02*
X205000000Y-72150000D01*
X116000000Y-106750700D02*
X116750700Y-106750700D01*
X117000000Y-107000000D02*
X118650000Y-107000000D01*
X116750700Y-106750700D02*
X117000000Y-107000000D01*
X116000000Y-111749300D02*
X117500700Y-111749300D01*
X118650000Y-110600000D02*
X118650000Y-109500000D01*
X117500700Y-111749300D02*
X118650000Y-110600000D01*
X153000000Y-102500000D02*
X153000000Y-99250000D01*
X153000000Y-99250000D02*
X154000000Y-98250000D01*
X155250000Y-97500000D02*
X155250000Y-98000000D01*
X155250000Y-97500000D02*
X155250000Y-94750000D01*
X155250000Y-94750000D02*
X155000000Y-94500000D01*
X153850000Y-94500000D02*
X155000000Y-94500000D01*
X155000000Y-98250000D02*
X154000000Y-98250000D01*
X155250000Y-98000000D02*
X155000000Y-98250000D01*
X153595000Y-103095000D02*
X154700000Y-103095000D01*
X153595000Y-103095000D02*
X153000000Y-102500000D01*
X153850000Y-97000000D02*
X152750000Y-97000000D01*
X152000000Y-98500000D02*
X152000000Y-106000000D01*
X152500000Y-98000000D02*
X152000000Y-98500000D01*
X152500000Y-97250000D02*
X152500000Y-98000000D01*
X152750000Y-97000000D02*
X152500000Y-97250000D01*
X154700000Y-106905000D02*
X152905000Y-106905000D01*
X152905000Y-106905000D02*
X152000000Y-106000000D01*
X154700000Y-106905000D02*
X156595000Y-106905000D01*
X166750000Y-107000000D02*
X166845000Y-106905000D01*
X166845000Y-106905000D02*
X168700000Y-106905000D01*
X156595000Y-106905000D02*
X156750000Y-106750000D01*
X164095000Y-95905000D02*
X165250000Y-94750000D01*
X165250000Y-94750000D02*
X165250000Y-90250000D01*
X162500000Y-95905000D02*
X163895000Y-95905000D01*
X163895000Y-95905000D02*
X164095000Y-95905000D01*
X169405000Y-95905000D02*
X169750000Y-96250000D01*
X167900000Y-95905000D02*
X169405000Y-95905000D01*
X169750000Y-96250000D02*
X169750000Y-97000000D01*
X160660000Y-113000000D02*
X160660000Y-111660000D01*
X159250000Y-107250000D02*
X162135000Y-104365000D01*
X159250000Y-110250000D02*
X159250000Y-107250000D01*
X160660000Y-111660000D02*
X159250000Y-110250000D01*
X163300000Y-104365000D02*
X162135000Y-104365000D01*
X144000000Y-113750000D02*
X144000000Y-114250000D01*
X146885000Y-104365000D02*
X144000000Y-107250000D01*
X144000000Y-107250000D02*
X144000000Y-113750000D01*
X149300000Y-104365000D02*
X146885000Y-104365000D01*
X149000000Y-119250000D02*
X157250000Y-119250000D01*
X144000000Y-114250000D02*
X149000000Y-119250000D01*
X157250000Y-119250000D02*
X158000000Y-118500000D01*
X144750000Y-113500000D02*
X144750000Y-114000000D01*
X149300000Y-105635000D02*
X146865000Y-105635000D01*
X144750000Y-107750000D02*
X146865000Y-105635000D01*
X144750000Y-113500000D02*
X144750000Y-107750000D01*
X149250000Y-118500000D02*
X156500000Y-118500000D01*
X144750000Y-114000000D02*
X149250000Y-118500000D01*
X159000000Y-118000000D02*
X159250000Y-118250000D01*
X156500000Y-118500000D02*
X157491998Y-117508002D01*
X157491998Y-117508002D02*
X158508002Y-117508002D01*
X158508002Y-117508002D02*
X159000000Y-118000000D01*
X149300000Y-105635000D02*
X148115000Y-105635000D01*
X154000000Y-117000000D02*
X153250000Y-117750000D01*
X168280000Y-115720000D02*
X167000000Y-117000000D01*
X154000000Y-117000000D02*
X167000000Y-117000000D01*
X145500000Y-108250000D02*
X146845000Y-106905000D01*
X146845000Y-106905000D02*
X149300000Y-106905000D01*
X145500000Y-109500000D02*
X145500000Y-113000000D01*
X145500000Y-109500000D02*
X145500000Y-108250000D01*
X145500000Y-113750000D02*
X145500000Y-113000000D01*
X149500000Y-117750000D02*
X145500000Y-113750000D01*
X153250000Y-117750000D02*
X149500000Y-117750000D01*
X149300000Y-106905000D02*
X148345000Y-106905000D01*
X168280000Y-115540000D02*
X168280000Y-115720000D01*
X146750000Y-112250000D02*
X146750000Y-112750000D01*
X146750000Y-109250000D02*
X146750000Y-111750000D01*
X147825000Y-108175000D02*
X146750000Y-109250000D01*
X146750000Y-112250000D02*
X146750000Y-111750000D01*
X149300000Y-108175000D02*
X147825000Y-108175000D01*
X156445000Y-109445000D02*
X157805000Y-109445000D01*
X154700000Y-109445000D02*
X156445000Y-109445000D01*
X157805000Y-109445000D02*
X158000000Y-109250000D01*
X166750000Y-103000000D02*
X166845000Y-103095000D01*
X168700000Y-103095000D02*
X166845000Y-103095000D01*
X170250000Y-99500000D02*
X171750000Y-99500000D01*
X163300000Y-100555000D02*
X163300000Y-99800000D01*
X163600000Y-99500000D02*
X170250000Y-99500000D01*
X163300000Y-99800000D02*
X163600000Y-99500000D01*
X172750000Y-108250000D02*
X173758002Y-108250000D01*
X171000000Y-106500000D02*
X172750000Y-108250000D01*
X171000000Y-103500000D02*
X171000000Y-106500000D01*
X172250000Y-102250000D02*
X171000000Y-103500000D01*
X172250000Y-101500000D02*
X172250000Y-102250000D01*
X172250000Y-100000000D02*
X172250000Y-101500000D01*
X171750000Y-99500000D02*
X172250000Y-100000000D01*
X183250000Y-110250000D02*
X181250000Y-108250000D01*
X175900000Y-116900000D02*
X176250000Y-117250000D01*
X175900000Y-115540000D02*
X175900000Y-116900000D01*
X183250000Y-113750000D02*
X183250000Y-110250000D01*
X176250000Y-117250000D02*
X179750000Y-117250000D01*
X179750000Y-117250000D02*
X183250000Y-113750000D01*
X181250000Y-108250000D02*
X173758002Y-108250000D01*
X173758002Y-108250000D02*
X173750000Y-108250000D01*
X182250000Y-113250000D02*
X181000000Y-112000000D01*
X181000000Y-112000000D02*
X181000000Y-110500000D01*
X181000000Y-110500000D02*
X180500000Y-110000000D01*
X179500000Y-110000000D02*
X180500000Y-110000000D01*
X165750000Y-118250000D02*
X177750000Y-118250000D01*
X170500000Y-110000000D02*
X179500000Y-110000000D01*
X163300000Y-101825000D02*
X165175000Y-101825000D01*
X165175000Y-101825000D02*
X165250000Y-101750000D01*
X179500000Y-110000000D02*
X180000000Y-110000000D01*
X179500000Y-111250000D02*
X168250000Y-111250000D01*
X165500000Y-104000000D02*
X165500000Y-108500000D01*
X163300000Y-103095000D02*
X164595000Y-103095000D01*
X164595000Y-103095000D02*
X165500000Y-104000000D01*
X168250000Y-111250000D02*
X165500000Y-108500000D01*
X180750000Y-119250000D02*
X183000000Y-119250000D01*
X163250000Y-118500000D02*
X164000000Y-119250000D01*
X164000000Y-119250000D02*
X180750000Y-119250000D01*
X183000000Y-119250000D02*
X183750000Y-118500000D01*
X182250000Y-110250000D02*
X181000000Y-109000000D01*
X170250000Y-102250000D02*
X169825000Y-101825000D01*
X170250000Y-107000000D02*
X170250000Y-102250000D01*
X172250000Y-109000000D02*
X170250000Y-107000000D01*
X181000000Y-109000000D02*
X172250000Y-109000000D01*
X174750000Y-117250000D02*
X173360000Y-115860000D01*
X182250000Y-110250000D02*
X182250000Y-112000000D01*
X173360000Y-115860000D02*
X173360000Y-115540000D01*
X168700000Y-101825000D02*
X169825000Y-101825000D01*
X163200000Y-113000000D02*
X163000000Y-113000000D01*
X163000000Y-113000000D02*
X160000000Y-110000000D01*
X160000000Y-107500000D02*
X161865000Y-105635000D01*
X160000000Y-110000000D02*
X160000000Y-107500000D01*
X163300000Y-105635000D02*
X161865000Y-105635000D01*
X165740000Y-113000000D02*
X165740000Y-112990000D01*
X165740000Y-112990000D02*
X164000000Y-111250000D01*
X164000000Y-111250000D02*
X162250000Y-111250000D01*
X162250000Y-111250000D02*
X160750000Y-109750000D01*
X160750000Y-109750000D02*
X160750000Y-107750000D01*
X160750000Y-107750000D02*
X161595000Y-106905000D01*
X163300000Y-106905000D02*
X161595000Y-106905000D01*
X161595000Y-106905000D02*
X161500000Y-107000000D01*
X163300000Y-108175000D02*
X161825000Y-108175000D01*
X165780000Y-110500000D02*
X168280000Y-113000000D01*
X162500000Y-110500000D02*
X165780000Y-110500000D01*
X161500000Y-109500000D02*
X162500000Y-110500000D01*
X161500000Y-108500000D02*
X161500000Y-109500000D01*
X161825000Y-108175000D02*
X161500000Y-108500000D01*
X149300000Y-100555000D02*
X146805000Y-100555000D01*
X146805000Y-100555000D02*
X146750000Y-100500000D01*
X147825000Y-101825000D02*
X147750000Y-101750000D01*
X149300000Y-101825000D02*
X147825000Y-101825000D01*
X143250000Y-114250000D02*
X143250000Y-114750000D01*
X149300000Y-103095000D02*
X146905000Y-103095000D01*
X143250000Y-106750000D02*
X143250000Y-114250000D01*
X146905000Y-103095000D02*
X143250000Y-106750000D01*
X143250000Y-114750000D02*
X146250000Y-117750000D01*
X170500000Y-98750000D02*
X172000000Y-98750000D01*
X173000000Y-102500000D02*
X171750000Y-103750000D01*
X171750000Y-103750000D02*
X171750000Y-106000000D01*
X170250000Y-98750000D02*
X170500000Y-98750000D01*
X162000000Y-101000000D02*
X162000000Y-98750000D01*
X162750000Y-98000000D02*
X168000000Y-98000000D01*
X168000000Y-98000000D02*
X168750000Y-98750000D01*
X162000000Y-98750000D02*
X162750000Y-98000000D01*
X158425000Y-101825000D02*
X161175000Y-101825000D01*
X158000000Y-101825000D02*
X158425000Y-101825000D01*
X161175000Y-101825000D02*
X162000000Y-101000000D01*
X168750000Y-98750000D02*
X170250000Y-98750000D01*
X173000000Y-101250000D02*
X173000000Y-102500000D01*
X173008002Y-107508002D02*
X181508002Y-107508002D01*
X181508002Y-107508002D02*
X181750000Y-107750000D01*
X171750000Y-106250000D02*
X173008002Y-107508002D01*
X171750000Y-106000000D02*
X171750000Y-106250000D01*
X173000000Y-99750000D02*
X173000000Y-101250000D01*
X172000000Y-98750000D02*
X173000000Y-99750000D01*
X184250000Y-110250000D02*
X181750000Y-107750000D01*
X184250000Y-111750000D02*
X184250000Y-116000000D01*
X184250000Y-110250000D02*
X184250000Y-111750000D01*
X184250000Y-116000000D02*
X183000000Y-117250000D01*
X181000000Y-117250000D02*
X183000000Y-117250000D01*
X181750000Y-107750000D02*
X181625000Y-107625000D01*
X158175000Y-101825000D02*
X158000000Y-101825000D01*
X158000000Y-101825000D02*
X154700000Y-101825000D01*
D40*
X153250000Y-90000000D02*
X153250000Y-90750000D01*
X148250000Y-79250000D02*
X153250000Y-84250000D01*
X148250000Y-79250000D02*
X148250000Y-77500000D01*
X153250000Y-84250000D02*
X153250000Y-90000000D01*
X153250000Y-90750000D02*
X154250000Y-91750000D01*
X177000000Y-80500000D02*
X178500000Y-82000000D01*
X177000000Y-77500000D02*
X177000000Y-80500000D01*
X178500000Y-82000000D02*
X178500000Y-83250000D01*
D41*
X177000000Y-74500000D02*
X190750000Y-74500000D01*
X191750000Y-75500000D02*
X191750000Y-77250000D01*
X191000000Y-74750000D02*
X191750000Y-75500000D01*
X190750000Y-74500000D02*
X191000000Y-74750000D01*
D40*
X205000000Y-77750000D02*
X205000000Y-74850000D01*
X202250000Y-80500000D02*
X205000000Y-77750000D01*
D41*
X148250000Y-77750000D02*
X148250000Y-77500000D01*
X162500000Y-77500000D02*
X162500000Y-74500000D01*
X177000000Y-77500000D02*
X177000000Y-74500000D01*
X177000000Y-74500000D02*
X177250000Y-74500000D01*
X148250000Y-77500000D02*
X148250000Y-75250000D01*
X148250000Y-75250000D02*
X149000000Y-74500000D01*
X149000000Y-74500000D02*
X162500000Y-74500000D01*
X162500000Y-74500000D02*
X177250000Y-74500000D01*
D42*
X209510000Y-104750000D02*
X209510000Y-109250000D01*
D41*
X200750000Y-98000000D02*
X200750000Y-105400000D01*
X200750000Y-105400000D02*
X200650000Y-105500000D01*
D42*
G36*
X126373000Y-98897560D02*
X126275000Y-98897560D01*
X126039683Y-98941838D01*
X125875267Y-99047637D01*
X125488815Y-98661185D01*
X125309851Y-98541605D01*
X125254492Y-98504615D01*
X125228162Y-98364683D01*
X125161671Y-98261354D01*
X125163327Y-98259698D01*
X125260000Y-98026309D01*
X125260000Y-97585750D01*
X125101250Y-97427000D01*
X124377000Y-97427000D01*
X124377000Y-97447000D01*
X124123000Y-97447000D01*
X124123000Y-97427000D01*
X123398750Y-97427000D01*
X123240000Y-97585750D01*
X123240000Y-98026309D01*
X123336673Y-98259698D01*
X123338043Y-98261068D01*
X123278569Y-98348110D01*
X123260366Y-98438000D01*
X123047440Y-98438000D01*
X123047440Y-97800000D01*
X123003162Y-97564683D01*
X122864090Y-97348559D01*
X122651890Y-97203569D01*
X122400000Y-97152560D01*
X121100000Y-97152560D01*
X120864683Y-97196838D01*
X120648559Y-97335910D01*
X120503569Y-97548110D01*
X120452560Y-97800000D01*
X120452560Y-99700000D01*
X120496838Y-99935317D01*
X120635910Y-100151441D01*
X120848110Y-100296431D01*
X121100000Y-100347440D01*
X122400000Y-100347440D01*
X122635317Y-100303162D01*
X122851441Y-100164090D01*
X122989523Y-99962000D01*
X123258042Y-99962000D01*
X123271838Y-100035317D01*
X123410910Y-100251441D01*
X123623110Y-100396431D01*
X123875000Y-100447440D01*
X124625000Y-100447440D01*
X124860317Y-100403162D01*
X124991267Y-100318898D01*
X125056185Y-100383816D01*
X125151406Y-100447440D01*
X125220135Y-100493363D01*
X125096184Y-100576185D01*
X124990900Y-100681469D01*
X124876890Y-100603569D01*
X124625000Y-100552560D01*
X123875000Y-100552560D01*
X123639683Y-100596838D01*
X123423559Y-100735910D01*
X123278569Y-100948110D01*
X123260366Y-101038000D01*
X123047440Y-101038000D01*
X123047440Y-101000000D01*
X123003162Y-100764683D01*
X122864090Y-100548559D01*
X122651890Y-100403569D01*
X122400000Y-100352560D01*
X121100000Y-100352560D01*
X120864683Y-100396838D01*
X120648559Y-100535910D01*
X120503569Y-100748110D01*
X120452560Y-101000000D01*
X120452560Y-102900000D01*
X120496838Y-103135317D01*
X120635910Y-103351441D01*
X120848110Y-103496431D01*
X121100000Y-103547440D01*
X122400000Y-103547440D01*
X122635317Y-103503162D01*
X122851441Y-103364090D01*
X122996431Y-103151890D01*
X123047440Y-102900000D01*
X123047440Y-102562000D01*
X123258042Y-102562000D01*
X123271838Y-102635317D01*
X123338329Y-102738646D01*
X123336673Y-102740302D01*
X123240000Y-102973691D01*
X123240000Y-103414250D01*
X123398750Y-103573000D01*
X124123000Y-103573000D01*
X124123000Y-103553000D01*
X124377000Y-103553000D01*
X124377000Y-103573000D01*
X125101250Y-103573000D01*
X125260000Y-103414250D01*
X125260000Y-102973691D01*
X125163327Y-102740302D01*
X125161957Y-102738932D01*
X125221431Y-102651890D01*
X125252910Y-102496442D01*
X125488815Y-102338815D01*
X125627560Y-102200070D01*
X125627560Y-102685000D01*
X125671838Y-102920317D01*
X125730178Y-103010980D01*
X125640000Y-103228690D01*
X125640000Y-103369250D01*
X125798750Y-103528000D01*
X126923000Y-103528000D01*
X126923000Y-103508000D01*
X127177000Y-103508000D01*
X127177000Y-103528000D01*
X127197000Y-103528000D01*
X127197000Y-103782000D01*
X127177000Y-103782000D01*
X127177000Y-104431250D01*
X127335750Y-104590000D01*
X127951309Y-104590000D01*
X128123000Y-104518883D01*
X128123000Y-105123000D01*
X115185000Y-105123000D01*
X115185000Y-103985750D01*
X123240000Y-103985750D01*
X123240000Y-104426309D01*
X123336673Y-104659698D01*
X123515301Y-104838327D01*
X123748690Y-104935000D01*
X123964250Y-104935000D01*
X124123000Y-104776250D01*
X124123000Y-103827000D01*
X124377000Y-103827000D01*
X124377000Y-104776250D01*
X124535750Y-104935000D01*
X124751310Y-104935000D01*
X124984699Y-104838327D01*
X125163327Y-104659698D01*
X125260000Y-104426309D01*
X125260000Y-103985750D01*
X125215000Y-103940750D01*
X125640000Y-103940750D01*
X125640000Y-104081310D01*
X125736673Y-104314699D01*
X125915302Y-104493327D01*
X126148691Y-104590000D01*
X126764250Y-104590000D01*
X126923000Y-104431250D01*
X126923000Y-103782000D01*
X125798750Y-103782000D01*
X125640000Y-103940750D01*
X125215000Y-103940750D01*
X125101250Y-103827000D01*
X124377000Y-103827000D01*
X124123000Y-103827000D01*
X123398750Y-103827000D01*
X123240000Y-103985750D01*
X115185000Y-103985750D01*
X115185000Y-103384983D01*
X115348110Y-103496431D01*
X115600000Y-103547440D01*
X116900000Y-103547440D01*
X117135317Y-103503162D01*
X117351441Y-103364090D01*
X117496431Y-103151890D01*
X117547440Y-102900000D01*
X117547440Y-101000000D01*
X117503162Y-100764683D01*
X117364090Y-100548559D01*
X117151890Y-100403569D01*
X116900000Y-100352560D01*
X115600000Y-100352560D01*
X115364683Y-100396838D01*
X115185000Y-100512461D01*
X115185000Y-100184983D01*
X115348110Y-100296431D01*
X115600000Y-100347440D01*
X116900000Y-100347440D01*
X117135317Y-100303162D01*
X117351441Y-100164090D01*
X117496431Y-99951890D01*
X117547440Y-99700000D01*
X117547440Y-97800000D01*
X117503162Y-97564683D01*
X117364090Y-97348559D01*
X117151890Y-97203569D01*
X116900000Y-97152560D01*
X115600000Y-97152560D01*
X115364683Y-97196838D01*
X115185000Y-97312461D01*
X115185000Y-96573691D01*
X123240000Y-96573691D01*
X123240000Y-97014250D01*
X123398750Y-97173000D01*
X124123000Y-97173000D01*
X124123000Y-96223750D01*
X124377000Y-96223750D01*
X124377000Y-97173000D01*
X125101250Y-97173000D01*
X125260000Y-97014250D01*
X125260000Y-96573691D01*
X125163327Y-96340302D01*
X124984699Y-96161673D01*
X124751310Y-96065000D01*
X124535750Y-96065000D01*
X124377000Y-96223750D01*
X124123000Y-96223750D01*
X123964250Y-96065000D01*
X123748690Y-96065000D01*
X123515301Y-96161673D01*
X123336673Y-96340302D01*
X123240000Y-96573691D01*
X115185000Y-96573691D01*
X115185000Y-95877000D01*
X126373000Y-95877000D01*
X126373000Y-98897560D01*
X126373000Y-98897560D01*
G37*
X126373000Y-98897560D02*
X126275000Y-98897560D01*
X126039683Y-98941838D01*
X125875267Y-99047637D01*
X125488815Y-98661185D01*
X125309851Y-98541605D01*
X125254492Y-98504615D01*
X125228162Y-98364683D01*
X125161671Y-98261354D01*
X125163327Y-98259698D01*
X125260000Y-98026309D01*
X125260000Y-97585750D01*
X125101250Y-97427000D01*
X124377000Y-97427000D01*
X124377000Y-97447000D01*
X124123000Y-97447000D01*
X124123000Y-97427000D01*
X123398750Y-97427000D01*
X123240000Y-97585750D01*
X123240000Y-98026309D01*
X123336673Y-98259698D01*
X123338043Y-98261068D01*
X123278569Y-98348110D01*
X123260366Y-98438000D01*
X123047440Y-98438000D01*
X123047440Y-97800000D01*
X123003162Y-97564683D01*
X122864090Y-97348559D01*
X122651890Y-97203569D01*
X122400000Y-97152560D01*
X121100000Y-97152560D01*
X120864683Y-97196838D01*
X120648559Y-97335910D01*
X120503569Y-97548110D01*
X120452560Y-97800000D01*
X120452560Y-99700000D01*
X120496838Y-99935317D01*
X120635910Y-100151441D01*
X120848110Y-100296431D01*
X121100000Y-100347440D01*
X122400000Y-100347440D01*
X122635317Y-100303162D01*
X122851441Y-100164090D01*
X122989523Y-99962000D01*
X123258042Y-99962000D01*
X123271838Y-100035317D01*
X123410910Y-100251441D01*
X123623110Y-100396431D01*
X123875000Y-100447440D01*
X124625000Y-100447440D01*
X124860317Y-100403162D01*
X124991267Y-100318898D01*
X125056185Y-100383816D01*
X125151406Y-100447440D01*
X125220135Y-100493363D01*
X125096184Y-100576185D01*
X124990900Y-100681469D01*
X124876890Y-100603569D01*
X124625000Y-100552560D01*
X123875000Y-100552560D01*
X123639683Y-100596838D01*
X123423559Y-100735910D01*
X123278569Y-100948110D01*
X123260366Y-101038000D01*
X123047440Y-101038000D01*
X123047440Y-101000000D01*
X123003162Y-100764683D01*
X122864090Y-100548559D01*
X122651890Y-100403569D01*
X122400000Y-100352560D01*
X121100000Y-100352560D01*
X120864683Y-100396838D01*
X120648559Y-100535910D01*
X120503569Y-100748110D01*
X120452560Y-101000000D01*
X120452560Y-102900000D01*
X120496838Y-103135317D01*
X120635910Y-103351441D01*
X120848110Y-103496431D01*
X121100000Y-103547440D01*
X122400000Y-103547440D01*
X122635317Y-103503162D01*
X122851441Y-103364090D01*
X122996431Y-103151890D01*
X123047440Y-102900000D01*
X123047440Y-102562000D01*
X123258042Y-102562000D01*
X123271838Y-102635317D01*
X123338329Y-102738646D01*
X123336673Y-102740302D01*
X123240000Y-102973691D01*
X123240000Y-103414250D01*
X123398750Y-103573000D01*
X124123000Y-103573000D01*
X124123000Y-103553000D01*
X124377000Y-103553000D01*
X124377000Y-103573000D01*
X125101250Y-103573000D01*
X125260000Y-103414250D01*
X125260000Y-102973691D01*
X125163327Y-102740302D01*
X125161957Y-102738932D01*
X125221431Y-102651890D01*
X125252910Y-102496442D01*
X125488815Y-102338815D01*
X125627560Y-102200070D01*
X125627560Y-102685000D01*
X125671838Y-102920317D01*
X125730178Y-103010980D01*
X125640000Y-103228690D01*
X125640000Y-103369250D01*
X125798750Y-103528000D01*
X126923000Y-103528000D01*
X126923000Y-103508000D01*
X127177000Y-103508000D01*
X127177000Y-103528000D01*
X127197000Y-103528000D01*
X127197000Y-103782000D01*
X127177000Y-103782000D01*
X127177000Y-104431250D01*
X127335750Y-104590000D01*
X127951309Y-104590000D01*
X128123000Y-104518883D01*
X128123000Y-105123000D01*
X115185000Y-105123000D01*
X115185000Y-103985750D01*
X123240000Y-103985750D01*
X123240000Y-104426309D01*
X123336673Y-104659698D01*
X123515301Y-104838327D01*
X123748690Y-104935000D01*
X123964250Y-104935000D01*
X124123000Y-104776250D01*
X124123000Y-103827000D01*
X124377000Y-103827000D01*
X124377000Y-104776250D01*
X124535750Y-104935000D01*
X124751310Y-104935000D01*
X124984699Y-104838327D01*
X125163327Y-104659698D01*
X125260000Y-104426309D01*
X125260000Y-103985750D01*
X125215000Y-103940750D01*
X125640000Y-103940750D01*
X125640000Y-104081310D01*
X125736673Y-104314699D01*
X125915302Y-104493327D01*
X126148691Y-104590000D01*
X126764250Y-104590000D01*
X126923000Y-104431250D01*
X126923000Y-103782000D01*
X125798750Y-103782000D01*
X125640000Y-103940750D01*
X125215000Y-103940750D01*
X125101250Y-103827000D01*
X124377000Y-103827000D01*
X124123000Y-103827000D01*
X123398750Y-103827000D01*
X123240000Y-103985750D01*
X115185000Y-103985750D01*
X115185000Y-103384983D01*
X115348110Y-103496431D01*
X115600000Y-103547440D01*
X116900000Y-103547440D01*
X117135317Y-103503162D01*
X117351441Y-103364090D01*
X117496431Y-103151890D01*
X117547440Y-102900000D01*
X117547440Y-101000000D01*
X117503162Y-100764683D01*
X117364090Y-100548559D01*
X117151890Y-100403569D01*
X116900000Y-100352560D01*
X115600000Y-100352560D01*
X115364683Y-100396838D01*
X115185000Y-100512461D01*
X115185000Y-100184983D01*
X115348110Y-100296431D01*
X115600000Y-100347440D01*
X116900000Y-100347440D01*
X117135317Y-100303162D01*
X117351441Y-100164090D01*
X117496431Y-99951890D01*
X117547440Y-99700000D01*
X117547440Y-97800000D01*
X117503162Y-97564683D01*
X117364090Y-97348559D01*
X117151890Y-97203569D01*
X116900000Y-97152560D01*
X115600000Y-97152560D01*
X115364683Y-97196838D01*
X115185000Y-97312461D01*
X115185000Y-96573691D01*
X123240000Y-96573691D01*
X123240000Y-97014250D01*
X123398750Y-97173000D01*
X124123000Y-97173000D01*
X124123000Y-96223750D01*
X124377000Y-96223750D01*
X124377000Y-97173000D01*
X125101250Y-97173000D01*
X125260000Y-97014250D01*
X125260000Y-96573691D01*
X125163327Y-96340302D01*
X124984699Y-96161673D01*
X124751310Y-96065000D01*
X124535750Y-96065000D01*
X124377000Y-96223750D01*
X124123000Y-96223750D01*
X123964250Y-96065000D01*
X123748690Y-96065000D01*
X123515301Y-96161673D01*
X123336673Y-96340302D01*
X123240000Y-96573691D01*
X115185000Y-96573691D01*
X115185000Y-95877000D01*
X126373000Y-95877000D01*
X126373000Y-98897560D01*
M02*
