G04 #@! TF.FileFunction,Copper,L2,Bot,Signal*
%FSLAX46Y46*%
G04 Gerber Fmt 4.6, Leading zero omitted, Abs format (unit mm)*
G04 Created by KiCad (PCBNEW 4.0.2-stable) date 9/19/2016 8:58:52 PM*
%MOMM*%
G01*
G04 APERTURE LIST*
%ADD10C,0.100000*%
%ADD11R,4.700000X1.300000*%
%ADD12R,9.500000X10.900000*%
%ADD13R,3.500000X2.600000*%
%ADD14R,1.727200X1.727200*%
%ADD15O,1.727200X1.727200*%
%ADD16C,1.750000*%
%ADD17C,2.000000*%
%ADD18C,5.700000*%
%ADD19C,1.905000*%
%ADD20R,1.500000X1.300000*%
%ADD21R,1.300000X1.500000*%
%ADD22R,2.000000X1.700000*%
%ADD23R,2.300000X2.500000*%
%ADD24R,1.500000X1.250000*%
%ADD25R,1.250000X1.500000*%
%ADD26C,1.300000*%
%ADD27R,1.300000X1.300000*%
%ADD28C,1.700000*%
%ADD29R,1.700000X1.700000*%
%ADD30R,2.700020X4.000500*%
%ADD31R,0.599440X1.000760*%
%ADD32C,1.524000*%
%ADD33R,0.600000X0.800000*%
%ADD34C,4.000000*%
%ADD35C,4.500000*%
%ADD36C,3.500000*%
%ADD37C,0.889000*%
%ADD38C,1.500000*%
%ADD39C,1.200000*%
%ADD40C,0.500000*%
%ADD41C,1.000000*%
%ADD42C,0.254000*%
G04 APERTURE END LIST*
D10*
D11*
X188300000Y-101865000D03*
X188300000Y-107135000D03*
D12*
X179150000Y-104500000D03*
D13*
X127500000Y-109700000D03*
X127500000Y-80300000D03*
D14*
X210250000Y-96000000D03*
D15*
X207710000Y-96000000D03*
X210250000Y-93460000D03*
X207710000Y-93460000D03*
X210250000Y-90920000D03*
X207710000Y-90920000D03*
X210250000Y-88380000D03*
X207710000Y-88380000D03*
X210250000Y-85840000D03*
X207710000Y-85840000D03*
D16*
X126250000Y-115010000D03*
X130750000Y-115010000D03*
D17*
X124995000Y-117500000D03*
X132005000Y-117500000D03*
D16*
X136000000Y-115010000D03*
X140500000Y-115010000D03*
D17*
X134745000Y-117500000D03*
X141755000Y-117500000D03*
D16*
X186750000Y-115010000D03*
X191250000Y-115010000D03*
D17*
X185495000Y-117500000D03*
X192505000Y-117500000D03*
D16*
X209510000Y-109250000D03*
X209510000Y-104750000D03*
D17*
X212000000Y-110505000D03*
X212000000Y-103495000D03*
D18*
X210500000Y-116000000D03*
X210500000Y-74000000D03*
X118500000Y-74000000D03*
X118500000Y-116000000D03*
D19*
X183190000Y-85690000D03*
X183190000Y-88230000D03*
X183190000Y-90770000D03*
X183190000Y-93310000D03*
X190810000Y-93310000D03*
X190810000Y-90770000D03*
X190810000Y-88230000D03*
X190810000Y-85690000D03*
D20*
X166750000Y-86400000D03*
X164050000Y-86400000D03*
D21*
X167400000Y-97350000D03*
X167400000Y-94650000D03*
D20*
X166750000Y-88800000D03*
X164050000Y-88800000D03*
X138850000Y-108000000D03*
X136150000Y-108000000D03*
D22*
X191500000Y-82250000D03*
X195500000Y-82250000D03*
D21*
X185500000Y-82350000D03*
X185500000Y-79650000D03*
D14*
X139500000Y-75500000D03*
D15*
X139500000Y-72960000D03*
X136960000Y-75500000D03*
X136960000Y-72960000D03*
X134420000Y-75500000D03*
X134420000Y-72960000D03*
X131880000Y-75500000D03*
X131880000Y-72960000D03*
X129340000Y-75500000D03*
X129340000Y-72960000D03*
X126800000Y-75500000D03*
X126800000Y-72960000D03*
D23*
X178500000Y-92800000D03*
X178500000Y-88500000D03*
D24*
X166650000Y-91800000D03*
X164150000Y-91800000D03*
D25*
X164800000Y-94750000D03*
X164800000Y-97250000D03*
X162000000Y-94750000D03*
X162000000Y-97250000D03*
D26*
X173500000Y-86250000D03*
D27*
X171000000Y-86250000D03*
D26*
X159250000Y-86250000D03*
D27*
X156750000Y-86250000D03*
D24*
X155750000Y-100500000D03*
X153250000Y-100500000D03*
X169750000Y-100500000D03*
X167250000Y-100500000D03*
X136250000Y-111000000D03*
X138750000Y-111000000D03*
D25*
X138250000Y-81000000D03*
X138250000Y-83500000D03*
X140500000Y-90750000D03*
X140500000Y-88250000D03*
X143000000Y-90750000D03*
X143000000Y-88250000D03*
X140500000Y-81000000D03*
X140500000Y-83500000D03*
D28*
X196750000Y-77250000D03*
D29*
X191750000Y-77250000D03*
D28*
X182000000Y-77500000D03*
D29*
X177000000Y-77500000D03*
D28*
X153250000Y-77500000D03*
D29*
X148250000Y-77500000D03*
D28*
X167500000Y-77500000D03*
D29*
X162500000Y-77500000D03*
D25*
X188500000Y-82250000D03*
X188500000Y-79750000D03*
X202750000Y-88000000D03*
X202750000Y-85500000D03*
D30*
X199250000Y-85611260D03*
X199250000Y-93388740D03*
D31*
X131849760Y-108699960D03*
X133150240Y-108699960D03*
X132500000Y-106800040D03*
D21*
X206500000Y-109100000D03*
X206500000Y-106400000D03*
D32*
X195670000Y-98000000D03*
X200750000Y-98000000D03*
D33*
X208350000Y-99000000D03*
X206650000Y-99000000D03*
D34*
X200650000Y-111500000D03*
D35*
X200650000Y-105500000D03*
D36*
X195750000Y-108450000D03*
D14*
X150500000Y-113000000D03*
D15*
X150500000Y-115540000D03*
X155580000Y-113000000D03*
X155580000Y-115540000D03*
X158120000Y-113000000D03*
X158120000Y-115540000D03*
X160660000Y-113000000D03*
X160660000Y-115540000D03*
X163200000Y-113000000D03*
X163200000Y-115540000D03*
X165740000Y-113000000D03*
X165740000Y-115540000D03*
X168280000Y-113000000D03*
X168280000Y-115540000D03*
X170820000Y-113000000D03*
X170820000Y-115540000D03*
X173360000Y-113000000D03*
X173360000Y-115540000D03*
X175900000Y-113000000D03*
X175900000Y-115540000D03*
X178440000Y-113000000D03*
X178440000Y-115540000D03*
D37*
X152000000Y-108250000D03*
D38*
X204750000Y-100000000D03*
D37*
X193000000Y-98250000D03*
X123000000Y-74250000D03*
D38*
X182000000Y-80000000D03*
X195500000Y-85500000D03*
D37*
X118000000Y-104500000D03*
X118000000Y-96750000D03*
X135250000Y-78000000D03*
X131000000Y-82250000D03*
X126250000Y-91000000D03*
X141500000Y-99000000D03*
X160500000Y-97250000D03*
X158750000Y-90000000D03*
X165000000Y-109250000D03*
X119250000Y-82250000D03*
X139250000Y-86750000D03*
X134000000Y-111500000D03*
X173500000Y-91250000D03*
X160500000Y-94750000D03*
X194750000Y-101750000D03*
X171250000Y-95000000D03*
X171250000Y-102000000D03*
X138000000Y-86750000D03*
X127000000Y-92000000D03*
X130500000Y-92000000D03*
X136000000Y-83000000D03*
X140500000Y-93000000D03*
X133750000Y-91750000D03*
X140500000Y-97750000D03*
X117000000Y-109250000D03*
X130750000Y-113000000D03*
X134500000Y-97750000D03*
X161000000Y-99250000D03*
X158000000Y-100500000D03*
X141500000Y-78250000D03*
X138250000Y-78500000D03*
X123500000Y-91500000D03*
X132500000Y-91000000D03*
X209250000Y-102250000D03*
X128750000Y-101750000D03*
X170000000Y-91750000D03*
X160200000Y-93000000D03*
X178500000Y-97750000D03*
X136750000Y-101500000D03*
X137750000Y-102250000D03*
X138250000Y-92500000D03*
X124750000Y-85500000D03*
X124250000Y-88750000D03*
X138250000Y-93750000D03*
X123250000Y-90000000D03*
X123750000Y-84500000D03*
X172750000Y-98000000D03*
X172750000Y-105000000D03*
X155500000Y-99000000D03*
X145750000Y-95750000D03*
X156750000Y-108000000D03*
X166750000Y-108250000D03*
X148750000Y-98000000D03*
X153000000Y-104500000D03*
X166750000Y-104500000D03*
X156750000Y-104250000D03*
X153000000Y-105750000D03*
X149750000Y-98750000D03*
X156750000Y-105500000D03*
X166750000Y-105750000D03*
X146500000Y-71250000D03*
X146250000Y-80250000D03*
X145750000Y-83250000D03*
X144750000Y-82500000D03*
X143000000Y-81250000D03*
X140250000Y-78000000D03*
X142000000Y-75500000D03*
X143500000Y-71500000D03*
X157250000Y-88250000D03*
X136750000Y-84250000D03*
X130750000Y-102000000D03*
X131750000Y-92000000D03*
X136000000Y-96250000D03*
X122750000Y-78750000D03*
X136000000Y-86750000D03*
X121500000Y-78000000D03*
X136000000Y-88000000D03*
X187500000Y-84750000D03*
X191500000Y-99500000D03*
X166750000Y-107000000D03*
X156750000Y-106750000D03*
X165250000Y-90250000D03*
X169750000Y-97000000D03*
X158000000Y-118500000D03*
X159250000Y-118250000D03*
X146750000Y-112750000D03*
X158000000Y-109250000D03*
X166750000Y-103000000D03*
X177750000Y-118250000D03*
X182250000Y-113250000D03*
X165750000Y-118250000D03*
X170500000Y-110000000D03*
X165250000Y-101750000D03*
X179500000Y-111250000D03*
X163250000Y-118500000D03*
X183750000Y-118500000D03*
X174750000Y-117250000D03*
X182250000Y-112000000D03*
X146750000Y-100500000D03*
X147750000Y-101750000D03*
X146250000Y-117750000D03*
X181000000Y-117250000D03*
D39*
X154250000Y-91750000D03*
X178500000Y-83250000D03*
X202250000Y-80500000D03*
D40*
X132500000Y-106800040D02*
X128449960Y-106800040D01*
X127500000Y-107750000D02*
X127500000Y-109700000D01*
X128449960Y-106800040D02*
X127500000Y-107750000D01*
X152000000Y-108250000D02*
X153250000Y-107000000D01*
X157000000Y-110500000D02*
X156750000Y-110500000D01*
X156750000Y-110500000D02*
X153250000Y-107000000D01*
X204750000Y-100000000D02*
X194750000Y-100000000D01*
X193000000Y-98250000D02*
X194750000Y-100000000D01*
X124290000Y-72960000D02*
X123000000Y-74250000D01*
X124290000Y-72960000D02*
X126800000Y-72960000D01*
D41*
X167500000Y-77500000D02*
X167500000Y-80000000D01*
X167500000Y-80000000D02*
X167500000Y-79750000D01*
X167500000Y-79750000D02*
X167500000Y-80000000D01*
X182000000Y-80000000D02*
X167500000Y-80000000D01*
X167500000Y-80000000D02*
X155750000Y-80000000D01*
X155750000Y-80000000D02*
X153250000Y-77500000D01*
X182000000Y-80000000D02*
X182000000Y-77500000D01*
X195611260Y-85611260D02*
X199250000Y-85611260D01*
X195500000Y-85500000D02*
X195611260Y-85611260D01*
D40*
X202750000Y-85500000D02*
X199361260Y-85500000D01*
X199361260Y-85500000D02*
X199250000Y-85611260D01*
D41*
X199361260Y-85500000D02*
X199250000Y-85611260D01*
D40*
X118000000Y-96750000D02*
X118000000Y-96500000D01*
X125250000Y-112000000D02*
X130250000Y-112000000D01*
X130250000Y-112000000D02*
X130750000Y-111500000D01*
X130750000Y-111500000D02*
X134000000Y-111500000D01*
X120500000Y-107250000D02*
X125250000Y-112000000D01*
X125250000Y-112000000D02*
X125000000Y-111750000D01*
X118000000Y-104500000D02*
X118000000Y-104750000D01*
X118000000Y-104750000D02*
X120500000Y-107250000D01*
X118000000Y-104500000D02*
X118000000Y-97000000D01*
X118000000Y-96500000D02*
X118000000Y-97000000D01*
X118000000Y-95000000D02*
X118000000Y-96500000D01*
X118000000Y-92500000D02*
X118000000Y-95000000D01*
X132000000Y-81250000D02*
X130750000Y-80000000D01*
X130750000Y-80000000D02*
X127800000Y-80000000D01*
X127800000Y-80000000D02*
X127500000Y-80300000D01*
X131000000Y-82250000D02*
X132000000Y-81250000D01*
X132000000Y-81250000D02*
X135250000Y-78000000D01*
D42*
X124750000Y-92500000D02*
X124500000Y-92500000D01*
X126250000Y-91000000D02*
X124750000Y-92500000D01*
D40*
X140500000Y-85500000D02*
X128500000Y-85500000D01*
X128500000Y-85500000D02*
X127500000Y-84500000D01*
X127500000Y-84500000D02*
X127500000Y-80300000D01*
X140500000Y-86750000D02*
X140500000Y-85500000D01*
X140500000Y-85500000D02*
X140500000Y-83500000D01*
X138250000Y-83500000D02*
X140500000Y-83500000D01*
X160000000Y-100250000D02*
X160000000Y-99250000D01*
X160000000Y-100500000D02*
X160000000Y-100250000D01*
X158750000Y-98000000D02*
X158750000Y-97250000D01*
X160000000Y-99250000D02*
X158750000Y-98000000D01*
X160500000Y-97250000D02*
X162000000Y-97250000D01*
X157000000Y-97250000D02*
X158750000Y-97250000D01*
X156250000Y-91500000D02*
X156250000Y-96500000D01*
X157000000Y-97250000D02*
X156250000Y-96500000D01*
X158750000Y-97250000D02*
X160500000Y-97250000D01*
X162000000Y-97250000D02*
X164800000Y-97250000D01*
X159250000Y-110500000D02*
X160500000Y-109250000D01*
X165000000Y-109250000D02*
X160500000Y-109250000D01*
X157000000Y-110500000D02*
X159250000Y-110500000D01*
X156250000Y-91500000D02*
X156250000Y-89750000D01*
X154750000Y-88250000D02*
X156250000Y-89750000D01*
X159250000Y-86250000D02*
X159250000Y-89500000D01*
X159250000Y-89500000D02*
X158750000Y-90000000D01*
X157250000Y-91500000D02*
X156250000Y-91500000D01*
X158750000Y-90000000D02*
X157250000Y-91500000D01*
X153375000Y-106875000D02*
X153250000Y-107000000D01*
X153250000Y-107000000D02*
X154750000Y-105500000D01*
X154750000Y-105500000D02*
X154750000Y-102250000D01*
X178440000Y-113000000D02*
X178440000Y-111440000D01*
X165000000Y-110500000D02*
X165000000Y-109250000D01*
X165750000Y-111250000D02*
X165000000Y-110500000D01*
X178250000Y-111250000D02*
X165750000Y-111250000D01*
X178440000Y-111440000D02*
X178250000Y-111250000D01*
X160000000Y-100500000D02*
X167250000Y-100500000D01*
X160000000Y-100500000D02*
X160000000Y-101000000D01*
X154750000Y-102250000D02*
X155250000Y-102250000D01*
X160000000Y-101000000D02*
X159250000Y-101750000D01*
X159250000Y-101750000D02*
X158500000Y-101750000D01*
X157250000Y-101750000D02*
X158500000Y-101750000D01*
X156750000Y-102250000D02*
X157250000Y-101750000D01*
X155250000Y-102250000D02*
X156750000Y-102250000D01*
X153375000Y-106875000D02*
X153500000Y-106750000D01*
X153250000Y-100500000D02*
X153250000Y-101750000D01*
X153250000Y-101750000D02*
X153750000Y-102250000D01*
X153750000Y-102250000D02*
X154750000Y-102250000D01*
X173500000Y-86250000D02*
X173500000Y-80000000D01*
X166750000Y-88800000D02*
X170950000Y-88800000D01*
X170950000Y-88800000D02*
X173500000Y-86250000D01*
D42*
X118500000Y-92500000D02*
X118000000Y-92500000D01*
X118000000Y-92500000D02*
X118250000Y-92500000D01*
X118250000Y-92500000D02*
X118000000Y-92500000D01*
D40*
X118000000Y-92500000D02*
X118000000Y-83500000D01*
X118450000Y-83050000D02*
X119250000Y-82250000D01*
X118000000Y-83500000D02*
X118450000Y-83050000D01*
X139250000Y-86750000D02*
X140500000Y-86750000D01*
X140500000Y-86750000D02*
X140500000Y-88250000D01*
X140500000Y-88250000D02*
X143000000Y-88250000D01*
D42*
X124500000Y-92500000D02*
X124250000Y-92500000D01*
X124500000Y-92500000D02*
X124250000Y-92500000D01*
X124250000Y-92500000D02*
X118500000Y-92500000D01*
X118500000Y-92500000D02*
X118450000Y-92500000D01*
D40*
X136250000Y-111000000D02*
X134500000Y-111000000D01*
X134500000Y-111000000D02*
X134000000Y-111500000D01*
X153250000Y-77500000D02*
X153500000Y-77500000D01*
X182000000Y-77500000D02*
X184500000Y-77500000D01*
X184500000Y-77500000D02*
X185500000Y-78500000D01*
X185500000Y-78500000D02*
X185500000Y-79650000D01*
X141500000Y-99000000D02*
X141500000Y-97250000D01*
X154750000Y-88250000D02*
X144250000Y-88250000D01*
X143750000Y-92250000D02*
X141500000Y-94500000D01*
X141500000Y-94500000D02*
X141500000Y-97250000D01*
X144250000Y-91750000D02*
X144250000Y-88250000D01*
X143750000Y-92250000D02*
X144250000Y-91750000D01*
X144250000Y-88250000D02*
X144500000Y-88250000D01*
X143000000Y-88250000D02*
X144500000Y-88250000D01*
X143000000Y-88250000D02*
X144000000Y-88250000D01*
X199250000Y-93388740D02*
X202111260Y-93388740D01*
X202750000Y-92750000D02*
X202750000Y-88000000D01*
X202111260Y-93388740D02*
X202750000Y-92750000D01*
X195670000Y-98000000D02*
X197750000Y-98000000D01*
X199250000Y-96500000D02*
X199250000Y-93388740D01*
X197750000Y-98000000D02*
X199250000Y-96500000D01*
X169100000Y-94650000D02*
X172500000Y-91250000D01*
X169100000Y-94650000D02*
X167400000Y-94650000D01*
X173500000Y-91250000D02*
X172500000Y-91250000D01*
X160500000Y-94750000D02*
X162000000Y-94750000D01*
X162000000Y-94750000D02*
X164800000Y-94750000D01*
X164800000Y-94750000D02*
X167300000Y-94750000D01*
X167300000Y-94750000D02*
X167400000Y-94650000D01*
D42*
X167300000Y-94750000D02*
X167400000Y-94650000D01*
X183190000Y-90770000D02*
X184980000Y-90770000D01*
X185500000Y-90250000D02*
X185500000Y-82350000D01*
X184980000Y-90770000D02*
X185500000Y-90250000D01*
D40*
X183190000Y-90770000D02*
X183230000Y-90770000D01*
X185500000Y-82350000D02*
X188400000Y-82350000D01*
X188400000Y-82350000D02*
X188500000Y-82250000D01*
X188500000Y-82250000D02*
X191500000Y-82250000D01*
D41*
X188400000Y-82350000D02*
X188500000Y-82250000D01*
D42*
X188400000Y-82350000D02*
X188500000Y-82250000D01*
D40*
X156750000Y-86250000D02*
X156750000Y-84750000D01*
X144750000Y-84750000D02*
X156750000Y-84750000D01*
X156750000Y-84750000D02*
X157250000Y-84750000D01*
X166500000Y-84750000D02*
X166750000Y-85000000D01*
X166750000Y-85000000D02*
X166750000Y-86400000D01*
X165750000Y-84750000D02*
X157250000Y-84750000D01*
X165750000Y-84750000D02*
X166500000Y-84750000D01*
X205500000Y-101750000D02*
X206300000Y-100950000D01*
X206650000Y-100600000D02*
X206650000Y-99000000D01*
X206650000Y-100600000D02*
X206300000Y-100950000D01*
X194750000Y-101750000D02*
X205500000Y-101750000D01*
X169750000Y-100500000D02*
X171250000Y-100500000D01*
X171250000Y-95000000D02*
X171250000Y-100500000D01*
X171250000Y-100500000D02*
X171250000Y-102000000D01*
X139500000Y-90750000D02*
X138000000Y-89250000D01*
X138000000Y-86750000D02*
X138000000Y-89250000D01*
X130500000Y-92000000D02*
X127000000Y-92000000D01*
X139750000Y-79250000D02*
X140500000Y-79250000D01*
X139750000Y-79250000D02*
X139250000Y-78750000D01*
X139250000Y-78750000D02*
X139250000Y-77750000D01*
X139250000Y-77750000D02*
X139000000Y-77500000D01*
X139000000Y-77500000D02*
X138500000Y-77500000D01*
X138500000Y-77500000D02*
X137892372Y-77500000D01*
X137892372Y-77500000D02*
X136000000Y-79392372D01*
X136000000Y-79392372D02*
X136000000Y-83000000D01*
X140500000Y-90750000D02*
X139500000Y-90750000D01*
X136750000Y-94750000D02*
X137750000Y-95750000D01*
X136750000Y-94750000D02*
X133750000Y-91750000D01*
X137750000Y-97000000D02*
X137750000Y-97750000D01*
X137750000Y-95750000D02*
X137750000Y-97000000D01*
X140500000Y-97750000D02*
X140500000Y-94250000D01*
X140500000Y-94250000D02*
X140500000Y-93000000D01*
X140500000Y-93000000D02*
X140500000Y-90750000D01*
D42*
X117000000Y-109250000D02*
X120250000Y-112500000D01*
D40*
X140500000Y-97750000D02*
X137750000Y-97750000D01*
D42*
X120750000Y-113000000D02*
X120250000Y-112500000D01*
X130750000Y-113000000D02*
X120750000Y-113000000D01*
D40*
X141500000Y-78250000D02*
X142000000Y-78750000D01*
X142000000Y-78750000D02*
X142000000Y-82000000D01*
X140500000Y-81000000D02*
X140500000Y-79250000D01*
X134500000Y-97750000D02*
X137000000Y-97750000D01*
X137000000Y-97750000D02*
X137750000Y-97750000D01*
X141500000Y-78250000D02*
X140500000Y-79250000D01*
X139500000Y-75500000D02*
X140750000Y-74250000D01*
X141500000Y-78250000D02*
X143500000Y-76250000D01*
X143500000Y-75500000D02*
X143500000Y-76250000D01*
X140750000Y-74250000D02*
X142500000Y-74250000D01*
X142500000Y-74250000D02*
X143500000Y-75250000D01*
X143500000Y-75250000D02*
X143500000Y-75500000D01*
X169750000Y-100500000D02*
X169750000Y-99500000D01*
X169500000Y-99250000D02*
X169750000Y-99500000D01*
X169500000Y-99250000D02*
X161000000Y-99250000D01*
X155750000Y-100500000D02*
X158000000Y-100500000D01*
X166750000Y-86400000D02*
X166750000Y-85750000D01*
X166750000Y-86400000D02*
X170850000Y-86400000D01*
X170850000Y-86400000D02*
X171000000Y-86250000D01*
X142000000Y-82000000D02*
X144750000Y-84750000D01*
X140500000Y-90750000D02*
X143000000Y-90750000D01*
D42*
X170850000Y-86400000D02*
X171000000Y-86250000D01*
X138250000Y-81000000D02*
X138250000Y-79500000D01*
X138250000Y-79500000D02*
X138250000Y-78500000D01*
X138250000Y-78500000D02*
X138000000Y-78750000D01*
X201500000Y-73500000D02*
X145500000Y-73500000D01*
X145000000Y-73000000D02*
X145000000Y-71000000D01*
X145500000Y-73500000D02*
X145000000Y-73000000D01*
X122000000Y-76000000D02*
X120500000Y-77500000D01*
X122000000Y-73000000D02*
X122000000Y-76000000D01*
X120500000Y-77500000D02*
X120500000Y-86500000D01*
X144500000Y-70500000D02*
X124500000Y-70500000D01*
X124500000Y-70500000D02*
X122000000Y-73000000D01*
X120500000Y-88000000D02*
X120500000Y-86500000D01*
X120500000Y-90250000D02*
X120500000Y-88000000D01*
X121750000Y-91500000D02*
X120500000Y-90250000D01*
X123500000Y-91500000D02*
X121750000Y-91500000D01*
X126750000Y-90000000D02*
X131500000Y-90000000D01*
X126750000Y-90000000D02*
X126000000Y-90000000D01*
X123500000Y-91500000D02*
X124500000Y-91500000D01*
X124500000Y-91500000D02*
X126000000Y-90000000D01*
X131500000Y-90000000D02*
X132500000Y-91000000D01*
X212250000Y-84250000D02*
X201500000Y-73500000D01*
X145000000Y-71000000D02*
X144500000Y-70500000D01*
X212250000Y-89000000D02*
X212250000Y-84250000D01*
X212250000Y-89000000D02*
X210330000Y-90920000D01*
X206500000Y-106400000D02*
X206500000Y-102750000D01*
X207000000Y-102250000D02*
X209250000Y-102250000D01*
X206500000Y-102750000D02*
X207000000Y-102250000D01*
X210250000Y-90920000D02*
X210330000Y-90920000D01*
D40*
X135500000Y-103750000D02*
X135000000Y-103250000D01*
X138000000Y-106250000D02*
X138850000Y-107100000D01*
X138850000Y-108000000D02*
X138850000Y-107100000D01*
X135500000Y-103750000D02*
X138000000Y-106250000D01*
X130000000Y-103000000D02*
X129750000Y-102750000D01*
X134750000Y-103000000D02*
X130000000Y-103000000D01*
X135000000Y-103250000D02*
X134750000Y-103000000D01*
X128750000Y-101750000D02*
X129750000Y-102750000D01*
X138850000Y-108000000D02*
X138850000Y-110900000D01*
X138850000Y-110900000D02*
X138750000Y-111000000D01*
X166650000Y-91800000D02*
X169950000Y-91800000D01*
X169950000Y-91800000D02*
X170000000Y-91750000D01*
D42*
X169950000Y-91800000D02*
X168800000Y-91800000D01*
X170000000Y-91750000D02*
X169950000Y-91800000D01*
X168750000Y-91800000D02*
X169000000Y-91800000D01*
D40*
X160200000Y-93000000D02*
X160250000Y-93000000D01*
X161450000Y-91800000D02*
X164150000Y-91800000D01*
X160250000Y-93000000D02*
X161450000Y-91800000D01*
X178500000Y-92800000D02*
X178500000Y-96250000D01*
X178500000Y-96250000D02*
X178500000Y-97750000D01*
X178500000Y-97750000D02*
X178500000Y-103850000D01*
X178500000Y-103850000D02*
X179150000Y-104500000D01*
X178500000Y-103850000D02*
X179150000Y-104500000D01*
X178500000Y-103850000D02*
X179150000Y-104500000D01*
X207710000Y-96000000D02*
X207710000Y-97210000D01*
X208350000Y-97850000D02*
X208350000Y-99000000D01*
X207710000Y-97210000D02*
X208350000Y-97850000D01*
D42*
X207700000Y-96010000D02*
X207710000Y-96000000D01*
D40*
X133150240Y-108699960D02*
X134050040Y-108699960D01*
X134750000Y-108000000D02*
X136150000Y-108000000D01*
X134500000Y-108250000D02*
X134750000Y-108000000D01*
X134050040Y-108699960D02*
X134500000Y-108250000D01*
X136134000Y-108016000D02*
X136150000Y-108000000D01*
X136134000Y-108016000D02*
X136150000Y-108000000D01*
D42*
X140500000Y-113250000D02*
X141500000Y-112250000D01*
X136750000Y-101500000D02*
X136750000Y-103000000D01*
X136750000Y-103000000D02*
X141500000Y-107750000D01*
X141500000Y-107750000D02*
X141500000Y-112250000D01*
X140500000Y-113250000D02*
X132750000Y-113250000D01*
X130990000Y-115010000D02*
X132750000Y-113250000D01*
X130990000Y-115010000D02*
X130750000Y-115010000D01*
X142500000Y-113010000D02*
X140500000Y-115010000D01*
X142500000Y-107000000D02*
X142500000Y-113010000D01*
X137750000Y-102250000D02*
X142500000Y-107000000D01*
X134500000Y-88750000D02*
X133750000Y-88750000D01*
X138250000Y-92500000D02*
X134500000Y-88750000D01*
X135250000Y-77000000D02*
X136750000Y-75500000D01*
X135250000Y-77000000D02*
X134000000Y-77000000D01*
X134000000Y-77000000D02*
X133000000Y-78000000D01*
X133000000Y-78000000D02*
X125500000Y-78000000D01*
X125500000Y-78000000D02*
X124750000Y-78750000D01*
X124750000Y-85500000D02*
X124750000Y-78750000D01*
X124250000Y-88750000D02*
X133750000Y-88750000D01*
X136960000Y-75500000D02*
X136750000Y-75500000D01*
X138250000Y-93750000D02*
X137000000Y-93750000D01*
X137000000Y-93750000D02*
X132625000Y-89375000D01*
X125375000Y-89375000D02*
X124750000Y-90000000D01*
X124750000Y-90000000D02*
X123250000Y-90000000D01*
X132625000Y-89375000D02*
X125375000Y-89375000D01*
X134420000Y-75500000D02*
X134250000Y-75500000D01*
X134250000Y-75500000D02*
X132750000Y-77000000D01*
X132750000Y-77000000D02*
X125750000Y-77000000D01*
X125750000Y-77000000D02*
X125000000Y-77750000D01*
X123750000Y-79000000D02*
X125000000Y-77750000D01*
X123750000Y-79750000D02*
X123750000Y-84500000D01*
X123750000Y-79750000D02*
X123750000Y-79000000D01*
X172750000Y-98000000D02*
X172750000Y-105000000D01*
X155500000Y-99000000D02*
X154250000Y-99000000D01*
X145750000Y-95750000D02*
X146500000Y-96500000D01*
X146500000Y-96500000D02*
X151750000Y-96500000D01*
X151750000Y-96500000D02*
X154250000Y-99000000D01*
X157000000Y-108250000D02*
X157500000Y-108250000D01*
X156750000Y-108000000D02*
X157000000Y-108250000D01*
X157250000Y-108250000D02*
X157500000Y-108250000D01*
X157500000Y-108250000D02*
X166750000Y-108250000D01*
X149000000Y-97750000D02*
X150750000Y-97750000D01*
X148750000Y-98000000D02*
X149000000Y-97750000D01*
X151500000Y-98500000D02*
X150750000Y-97750000D01*
X153000000Y-104500000D02*
X152250000Y-104500000D01*
X152250000Y-104500000D02*
X151500000Y-103750000D01*
X151500000Y-103750000D02*
X151500000Y-99500000D01*
X151500000Y-99500000D02*
X151500000Y-98500000D01*
X157000000Y-104500000D02*
X166750000Y-104500000D01*
X156750000Y-104250000D02*
X157000000Y-104500000D01*
X150750000Y-104250000D02*
X150750000Y-99750000D01*
X152250000Y-105750000D02*
X153000000Y-105750000D01*
X150750000Y-104250000D02*
X152250000Y-105750000D01*
X150750000Y-99750000D02*
X149750000Y-98750000D01*
X157000000Y-105750000D02*
X157750000Y-105750000D01*
X156750000Y-105500000D02*
X157000000Y-105750000D01*
X157500000Y-105750000D02*
X157750000Y-105750000D01*
X157750000Y-105750000D02*
X166750000Y-105750000D01*
X148000000Y-72750000D02*
X146500000Y-71250000D01*
X201750000Y-72750000D02*
X148000000Y-72750000D01*
X146250000Y-80250000D02*
X146250000Y-82750000D01*
X145750000Y-83250000D02*
X146250000Y-82750000D01*
X212250000Y-96000000D02*
X213000000Y-95250000D01*
X213000000Y-95250000D02*
X213000000Y-84000000D01*
X213000000Y-84000000D02*
X201750000Y-72750000D01*
X212250000Y-96000000D02*
X210250000Y-96000000D01*
X146625000Y-74875000D02*
X145250000Y-76250000D01*
X144750000Y-82500000D02*
X145250000Y-82000000D01*
X145250000Y-76250000D02*
X145250000Y-82000000D01*
X200875000Y-74875000D02*
X146750000Y-74875000D01*
X146750000Y-74875000D02*
X146625000Y-74875000D01*
X210250000Y-84250000D02*
X200875000Y-74875000D01*
X210250000Y-85840000D02*
X210250000Y-84250000D01*
X201250000Y-74250000D02*
X146000000Y-74250000D01*
X143000000Y-79500000D02*
X143000000Y-78000000D01*
X144500000Y-75750000D02*
X144500000Y-76500000D01*
X146000000Y-74250000D02*
X144500000Y-75750000D01*
X143000000Y-78000000D02*
X144500000Y-76500000D01*
X143000000Y-81250000D02*
X143000000Y-79500000D01*
X211500000Y-87250000D02*
X211500000Y-84500000D01*
X210370000Y-88380000D02*
X211500000Y-87250000D01*
X211500000Y-84500000D02*
X201250000Y-74250000D01*
X210250000Y-88380000D02*
X210370000Y-88380000D01*
X140250000Y-78000000D02*
X142000000Y-76250000D01*
X142000000Y-76250000D02*
X142000000Y-75500000D01*
X135500000Y-71500000D02*
X143500000Y-71500000D01*
X135500000Y-71500000D02*
X134420000Y-72580000D01*
X134420000Y-72580000D02*
X134420000Y-72960000D01*
X156250000Y-87500000D02*
X156000000Y-87500000D01*
X156500000Y-87500000D02*
X157250000Y-88250000D01*
X156250000Y-87500000D02*
X156500000Y-87500000D01*
X154000000Y-85500000D02*
X144500000Y-85500000D01*
X156000000Y-87500000D02*
X154000000Y-85500000D01*
X144250000Y-85250000D02*
X144500000Y-85500000D01*
X141250000Y-82250000D02*
X144250000Y-85250000D01*
X137250000Y-82250000D02*
X141250000Y-82250000D01*
X137000000Y-82500000D02*
X137250000Y-82250000D01*
X137000000Y-84000000D02*
X137000000Y-82500000D01*
X136750000Y-84250000D02*
X137000000Y-84000000D01*
X130750000Y-102000000D02*
X130750000Y-98250000D01*
X134500000Y-96250000D02*
X134750000Y-96250000D01*
X134750000Y-96250000D02*
X136000000Y-96250000D01*
X132750000Y-96250000D02*
X134500000Y-96250000D01*
X130750000Y-98250000D02*
X132750000Y-96250000D01*
X136000000Y-96250000D02*
X131750000Y-92000000D01*
X124500000Y-86750000D02*
X122750000Y-85000000D01*
X122750000Y-85000000D02*
X122750000Y-78750000D01*
X136000000Y-86750000D02*
X124500000Y-86750000D01*
X136000000Y-88000000D02*
X135500000Y-87500000D01*
X135500000Y-87500000D02*
X123500000Y-87500000D01*
X121500000Y-85500000D02*
X121500000Y-78000000D01*
X123500000Y-87500000D02*
X121500000Y-85500000D01*
X210250000Y-93460000D02*
X210290000Y-93460000D01*
X186750000Y-85500000D02*
X187500000Y-84750000D01*
X186750000Y-86000000D02*
X186750000Y-85500000D01*
X186750000Y-91000000D02*
X186750000Y-86000000D01*
X185750000Y-92000000D02*
X186750000Y-91000000D01*
X185750000Y-97250000D02*
X185750000Y-92000000D01*
X188300000Y-99800000D02*
X185750000Y-97250000D01*
X188300000Y-99800000D02*
X188300000Y-101865000D01*
D40*
X188300000Y-107135000D02*
X191865000Y-107135000D01*
X192750000Y-106250000D02*
X192750000Y-100750000D01*
X191865000Y-107135000D02*
X192750000Y-106250000D01*
X191500000Y-99500000D02*
X188250000Y-96250000D01*
X192750000Y-100750000D02*
X191500000Y-99500000D01*
X188810000Y-85690000D02*
X190810000Y-85690000D01*
X188250000Y-86250000D02*
X188810000Y-85690000D01*
X188250000Y-96250000D02*
X188250000Y-86250000D01*
D42*
X157250000Y-107000000D02*
X166750000Y-107000000D01*
X157000000Y-107000000D02*
X157250000Y-107000000D01*
X156750000Y-106750000D02*
X157000000Y-107000000D01*
X165250000Y-90250000D02*
X164250000Y-90250000D01*
X164050000Y-90050000D02*
X164050000Y-88800000D01*
X164250000Y-90250000D02*
X164050000Y-90050000D01*
X164050000Y-86400000D02*
X164050000Y-88800000D01*
X169000000Y-97750000D02*
X167800000Y-97750000D01*
X169750000Y-97000000D02*
X169000000Y-97750000D01*
X167800000Y-97750000D02*
X167400000Y-97350000D01*
X158120000Y-118380000D02*
X158120000Y-115540000D01*
X158000000Y-118500000D02*
X158120000Y-118380000D01*
X158120000Y-115540000D02*
X158120000Y-115630000D01*
X159250000Y-118250000D02*
X160660000Y-116840000D01*
X160660000Y-116840000D02*
X160660000Y-115540000D01*
X145250000Y-118250000D02*
X144750000Y-117750000D01*
X145250000Y-118250000D02*
X146500000Y-119500000D01*
X170820000Y-115540000D02*
X170820000Y-118180000D01*
X169500000Y-119500000D02*
X170820000Y-118180000D01*
X146500000Y-119500000D02*
X169500000Y-119500000D01*
X144750000Y-114750000D02*
X145250000Y-114250000D01*
X144750000Y-117750000D02*
X144750000Y-114750000D01*
X146750000Y-112750000D02*
X145250000Y-114250000D01*
X156500000Y-109250000D02*
X155750000Y-108500000D01*
X158000000Y-109250000D02*
X156500000Y-109250000D01*
X155750000Y-103750000D02*
X155750000Y-108500000D01*
X157750000Y-103000000D02*
X166750000Y-103000000D01*
X156500000Y-103000000D02*
X157750000Y-103000000D01*
X155750000Y-103750000D02*
X156500000Y-103000000D01*
X182250000Y-118500000D02*
X183000000Y-117750000D01*
X177750000Y-118250000D02*
X179000000Y-119500000D01*
X179000000Y-119500000D02*
X181250000Y-119500000D01*
X181250000Y-119500000D02*
X182250000Y-118500000D01*
X165740000Y-118240000D02*
X165740000Y-117000000D01*
X165740000Y-118240000D02*
X165750000Y-118250000D01*
X183000000Y-114000000D02*
X182250000Y-113250000D01*
X183000000Y-117750000D02*
X183000000Y-114000000D01*
X170250000Y-104500000D02*
X170250000Y-109750000D01*
X170250000Y-109750000D02*
X170500000Y-110000000D01*
X167750000Y-102000000D02*
X170250000Y-104500000D01*
X165500000Y-102000000D02*
X167750000Y-102000000D01*
X165250000Y-101750000D02*
X165500000Y-102000000D01*
X165740000Y-115540000D02*
X165740000Y-117000000D01*
X165740000Y-117000000D02*
X165740000Y-117010000D01*
X181750000Y-111000000D02*
X181500000Y-111250000D01*
X181500000Y-111250000D02*
X179500000Y-111250000D01*
X183750000Y-111500000D02*
X183750000Y-113750000D01*
X183250000Y-111000000D02*
X183750000Y-111500000D01*
X183250000Y-111000000D02*
X181750000Y-111000000D01*
X163200000Y-118450000D02*
X163250000Y-118500000D01*
X163200000Y-115540000D02*
X163200000Y-118450000D01*
X183750000Y-118500000D02*
X183750000Y-113750000D01*
X183750000Y-113750000D02*
X183750000Y-113500000D01*
X178250000Y-117250000D02*
X174750000Y-117250000D01*
X179750000Y-118750000D02*
X178250000Y-117250000D01*
X181000000Y-118750000D02*
X179750000Y-118750000D01*
X182000000Y-117750000D02*
X181000000Y-118750000D01*
X182000000Y-116000000D02*
X182000000Y-117750000D01*
X181000000Y-115000000D02*
X182000000Y-116000000D01*
X181000000Y-113250000D02*
X181000000Y-115000000D01*
X182250000Y-112000000D02*
X181000000Y-113250000D01*
X155580000Y-113000000D02*
X155500000Y-113000000D01*
X155500000Y-113000000D02*
X153000000Y-110500000D01*
X153000000Y-110500000D02*
X151750000Y-110500000D01*
X151750000Y-110500000D02*
X148750000Y-107500000D01*
X148750000Y-107500000D02*
X148750000Y-104250000D01*
X148750000Y-104250000D02*
X146750000Y-102250000D01*
X146750000Y-100500000D02*
X146750000Y-102250000D01*
X154750000Y-109750000D02*
X154870000Y-109750000D01*
X147750000Y-101750000D02*
X149750000Y-103750000D01*
X149750000Y-103750000D02*
X149750000Y-107500000D01*
X149750000Y-107500000D02*
X152000000Y-109750000D01*
X154750000Y-109750000D02*
X152000000Y-109750000D01*
X154870000Y-109750000D02*
X158120000Y-113000000D01*
X158120000Y-113000000D02*
X158000000Y-113000000D01*
X146250000Y-117750000D02*
X153370000Y-117750000D01*
X153370000Y-117750000D02*
X155580000Y-115540000D01*
X178440000Y-115540000D02*
X179540000Y-115540000D01*
X181000000Y-117000000D02*
X181000000Y-117250000D01*
X179540000Y-115540000D02*
X181000000Y-117000000D01*
D40*
X146250000Y-108750000D02*
X144750000Y-107250000D01*
X150500000Y-113000000D02*
X146250000Y-108750000D01*
X144750000Y-107250000D02*
X144750000Y-99500000D01*
X144750000Y-99500000D02*
X144750000Y-99750000D01*
X144750000Y-99750000D02*
X144750000Y-99500000D01*
X150500000Y-113000000D02*
X150500000Y-115540000D01*
X146750000Y-91750000D02*
X143500000Y-95000000D01*
X154250000Y-91750000D02*
X146750000Y-91750000D01*
X143500000Y-98250000D02*
X144750000Y-99500000D01*
X143500000Y-95000000D02*
X143500000Y-98250000D01*
X178500000Y-83250000D02*
X178500000Y-83750000D01*
X178500000Y-83750000D02*
X178500000Y-88500000D01*
X178500000Y-84000000D02*
X178500000Y-83750000D01*
X188500000Y-79750000D02*
X191000000Y-79750000D01*
X191750000Y-79000000D02*
X191750000Y-77250000D01*
X191000000Y-79750000D02*
X191750000Y-79000000D01*
X195500000Y-82250000D02*
X200500000Y-82250000D01*
X200500000Y-82250000D02*
X202250000Y-80500000D01*
X191750000Y-77250000D02*
X193250000Y-77250000D01*
X195500000Y-79500000D02*
X195500000Y-82250000D01*
X193250000Y-77250000D02*
X195500000Y-79500000D01*
D42*
X209510000Y-109250000D02*
X206650000Y-109250000D01*
X206650000Y-109250000D02*
X206500000Y-109100000D01*
G36*
X208528485Y-71043838D02*
X207547284Y-72023329D01*
X207015606Y-73303749D01*
X207014397Y-74690168D01*
X207543838Y-75971515D01*
X208523329Y-76952716D01*
X209803749Y-77484394D01*
X211190168Y-77485603D01*
X212471515Y-76956162D01*
X213452716Y-75976671D01*
X213815000Y-75104196D01*
X213815000Y-114896941D01*
X213456162Y-114028485D01*
X212476671Y-113047284D01*
X211196251Y-112515606D01*
X209809832Y-112514397D01*
X208528485Y-113043838D01*
X207547284Y-114023329D01*
X207015606Y-115303749D01*
X207014397Y-116690168D01*
X207543838Y-117971515D01*
X208523329Y-118952716D01*
X209395804Y-119315000D01*
X184461554Y-119315000D01*
X184664622Y-119112286D01*
X184728151Y-118959293D01*
X185230461Y-119145908D01*
X185880460Y-119121856D01*
X186369264Y-118919387D01*
X186467927Y-118652532D01*
X191532073Y-118652532D01*
X191630736Y-118919387D01*
X192240461Y-119145908D01*
X192890460Y-119121856D01*
X193379264Y-118919387D01*
X193477927Y-118652532D01*
X192505000Y-117679605D01*
X191532073Y-118652532D01*
X186467927Y-118652532D01*
X185495000Y-117679605D01*
X185480858Y-117693748D01*
X185301253Y-117514143D01*
X185315395Y-117500000D01*
X185301253Y-117485858D01*
X185480858Y-117306253D01*
X185495000Y-117320395D01*
X185509143Y-117306253D01*
X185688748Y-117485858D01*
X185674605Y-117500000D01*
X186647532Y-118472927D01*
X186914387Y-118374264D01*
X187140908Y-117764539D01*
X187116856Y-117114540D01*
X186914387Y-116625736D01*
X186647534Y-116527074D01*
X186654690Y-116519918D01*
X187049040Y-116520262D01*
X187604229Y-116290862D01*
X188029370Y-115866463D01*
X188259738Y-115311675D01*
X188259740Y-115309040D01*
X189739738Y-115309040D01*
X189969138Y-115864229D01*
X190393537Y-116289370D01*
X190948325Y-116519738D01*
X191345476Y-116520084D01*
X191352466Y-116527074D01*
X191085613Y-116625736D01*
X190859092Y-117235461D01*
X190883144Y-117885460D01*
X191085613Y-118374264D01*
X191352468Y-118472927D01*
X192325395Y-117500000D01*
X192684605Y-117500000D01*
X193657532Y-118472927D01*
X193924387Y-118374264D01*
X194150908Y-117764539D01*
X194126856Y-117114540D01*
X193924387Y-116625736D01*
X193657532Y-116527073D01*
X192684605Y-117500000D01*
X192325395Y-117500000D01*
X192311253Y-117485858D01*
X192490858Y-117306253D01*
X192505000Y-117320395D01*
X193402580Y-116422815D01*
X198514630Y-116422815D01*
X198838980Y-117207800D01*
X199439041Y-117808909D01*
X200223459Y-118134628D01*
X201072815Y-118135370D01*
X201857800Y-117811020D01*
X202458909Y-117210959D01*
X202784628Y-116426541D01*
X202785370Y-115577185D01*
X202461020Y-114792200D01*
X201860959Y-114191091D01*
X201455721Y-114022821D01*
X202124647Y-113745743D01*
X202345416Y-113375022D01*
X200650000Y-111679605D01*
X198954584Y-113375022D01*
X199175353Y-113745743D01*
X199851964Y-114019669D01*
X199442200Y-114188980D01*
X198841091Y-114789041D01*
X198515372Y-115573459D01*
X198514630Y-116422815D01*
X193402580Y-116422815D01*
X193477927Y-116347468D01*
X193379264Y-116080613D01*
X192769539Y-115854092D01*
X192530839Y-115862925D01*
X192759738Y-115311675D01*
X192760262Y-114710960D01*
X192530862Y-114155771D01*
X192106463Y-113730630D01*
X191551675Y-113500262D01*
X190950960Y-113499738D01*
X190395771Y-113729138D01*
X189970630Y-114153537D01*
X189740262Y-114708325D01*
X189739738Y-115309040D01*
X188259740Y-115309040D01*
X188260262Y-114710960D01*
X188030862Y-114155771D01*
X187606463Y-113730630D01*
X187051675Y-113500262D01*
X186450960Y-113499738D01*
X185895771Y-113729138D01*
X185470630Y-114153537D01*
X185240262Y-114708325D01*
X185239738Y-115309040D01*
X185469138Y-115864229D01*
X185469724Y-115864816D01*
X185109540Y-115878144D01*
X184620736Y-116080613D01*
X184522074Y-116347466D01*
X184512000Y-116337392D01*
X184512000Y-111500000D01*
X184453996Y-111208395D01*
X184387834Y-111109377D01*
X184312755Y-110997012D01*
X198010881Y-110997012D01*
X198019287Y-112045247D01*
X198404257Y-112974647D01*
X198774978Y-113195416D01*
X200470395Y-111500000D01*
X200829605Y-111500000D01*
X202525022Y-113195416D01*
X202895743Y-112974647D01*
X203289119Y-112002988D01*
X203286349Y-111657532D01*
X211027073Y-111657532D01*
X211125736Y-111924387D01*
X211735461Y-112150908D01*
X212385460Y-112126856D01*
X212874264Y-111924387D01*
X212972927Y-111657532D01*
X212000000Y-110684605D01*
X211027073Y-111657532D01*
X203286349Y-111657532D01*
X203280713Y-110954753D01*
X202895743Y-110025353D01*
X202525022Y-109804584D01*
X200829605Y-111500000D01*
X200470395Y-111500000D01*
X198774978Y-109804584D01*
X198404257Y-110025353D01*
X198010881Y-110997012D01*
X184312755Y-110997012D01*
X184288816Y-110961185D01*
X184171673Y-110844042D01*
X184243526Y-110830522D01*
X184559033Y-110627499D01*
X184770696Y-110317721D01*
X184845161Y-109950000D01*
X184845161Y-108922325D01*
X193364587Y-108922325D01*
X193726916Y-109799229D01*
X194397242Y-110470726D01*
X195273513Y-110834585D01*
X196222325Y-110835413D01*
X197099229Y-110473084D01*
X197770726Y-109802758D01*
X197844546Y-109624978D01*
X198954584Y-109624978D01*
X200650000Y-111320395D01*
X202345416Y-109624978D01*
X202124647Y-109254257D01*
X201152988Y-108860881D01*
X200104753Y-108869287D01*
X199175353Y-109254257D01*
X198954584Y-109624978D01*
X197844546Y-109624978D01*
X198134585Y-108926487D01*
X198135413Y-107977675D01*
X197773084Y-107100771D01*
X197102758Y-106429274D01*
X196226487Y-106065415D01*
X195277675Y-106064587D01*
X194400771Y-106426916D01*
X193729274Y-107097242D01*
X193365415Y-107973513D01*
X193364587Y-108922325D01*
X184845161Y-108922325D01*
X184845161Y-99050000D01*
X184780522Y-98706474D01*
X184577499Y-98390967D01*
X184267721Y-98179304D01*
X183900000Y-98104839D01*
X179837696Y-98104839D01*
X179871261Y-98024005D01*
X179871737Y-97478389D01*
X179677000Y-97007088D01*
X179677000Y-94990081D01*
X179993526Y-94930522D01*
X180309033Y-94727499D01*
X180520696Y-94417721D01*
X180595161Y-94050000D01*
X180595161Y-91550000D01*
X180530522Y-91206474D01*
X180327499Y-90890967D01*
X180148350Y-90768559D01*
X180451219Y-90573669D01*
X180708548Y-90197056D01*
X180799079Y-89750000D01*
X180799079Y-87250000D01*
X180720494Y-86832359D01*
X180473669Y-86448781D01*
X180097056Y-86191452D01*
X179877000Y-86146890D01*
X179877000Y-84315620D01*
X179963226Y-84229544D01*
X180226700Y-83595029D01*
X180227299Y-82907986D01*
X179964933Y-82273011D01*
X179479544Y-81786774D01*
X178845029Y-81523300D01*
X178157986Y-81522701D01*
X177523011Y-81785067D01*
X177036774Y-82270456D01*
X176773300Y-82904971D01*
X176772701Y-83592014D01*
X177035067Y-84226989D01*
X177123000Y-84315076D01*
X177123000Y-86143634D01*
X176932359Y-86179506D01*
X176548781Y-86426331D01*
X176291452Y-86802944D01*
X176200921Y-87250000D01*
X176200921Y-89750000D01*
X176279506Y-90167641D01*
X176526331Y-90551219D01*
X176848337Y-90771236D01*
X176690967Y-90872501D01*
X176479304Y-91182279D01*
X176404839Y-91550000D01*
X176404839Y-94050000D01*
X176469478Y-94393526D01*
X176672501Y-94709033D01*
X176982279Y-94920696D01*
X177323000Y-94989693D01*
X177323000Y-97008162D01*
X177128739Y-97475995D01*
X177128263Y-98021611D01*
X177162652Y-98104839D01*
X174400000Y-98104839D01*
X174056474Y-98169478D01*
X173772658Y-98352109D01*
X173829313Y-98215668D01*
X173829687Y-97786216D01*
X173665689Y-97389311D01*
X173362286Y-97085378D01*
X172965668Y-96920687D01*
X172536216Y-96920313D01*
X172139311Y-97084311D01*
X172135000Y-97088614D01*
X172135000Y-95641856D01*
X172164622Y-95612286D01*
X172329313Y-95215668D01*
X172329687Y-94786216D01*
X172165689Y-94389311D01*
X171862286Y-94085378D01*
X171465668Y-93920687D01*
X171081227Y-93920352D01*
X172862358Y-92139221D01*
X172887714Y-92164622D01*
X173284332Y-92329313D01*
X173713784Y-92329687D01*
X174110689Y-92165689D01*
X174414622Y-91862286D01*
X174579313Y-91465668D01*
X174579687Y-91036216D01*
X174415689Y-90639311D01*
X174112286Y-90335378D01*
X173715668Y-90170687D01*
X173286216Y-90170313D01*
X172889311Y-90334311D01*
X172858568Y-90365000D01*
X172500005Y-90365000D01*
X172500000Y-90364999D01*
X172161325Y-90432367D01*
X171874210Y-90624210D01*
X171874208Y-90624213D01*
X171045337Y-91453083D01*
X170915689Y-91139311D01*
X170612286Y-90835378D01*
X170215668Y-90670687D01*
X169786216Y-90670313D01*
X169389311Y-90834311D01*
X169308481Y-90915000D01*
X167987279Y-90915000D01*
X167864090Y-90723559D01*
X167651890Y-90578569D01*
X167400000Y-90527560D01*
X166303613Y-90527560D01*
X166329313Y-90465668D01*
X166329645Y-90085000D01*
X166464250Y-90085000D01*
X166623000Y-89926250D01*
X166623000Y-88927000D01*
X166877000Y-88927000D01*
X166877000Y-89926250D01*
X167035750Y-90085000D01*
X167626309Y-90085000D01*
X167859698Y-89988327D01*
X168038327Y-89809699D01*
X168135000Y-89576310D01*
X168135000Y-89085750D01*
X167976250Y-88927000D01*
X166877000Y-88927000D01*
X166623000Y-88927000D01*
X166603000Y-88927000D01*
X166603000Y-88673000D01*
X166623000Y-88673000D01*
X166623000Y-88653000D01*
X166877000Y-88653000D01*
X166877000Y-88673000D01*
X167976250Y-88673000D01*
X168135000Y-88514250D01*
X168135000Y-88023690D01*
X168038327Y-87790301D01*
X167859698Y-87611673D01*
X167823253Y-87596577D01*
X167951441Y-87514090D01*
X168096431Y-87301890D01*
X168099851Y-87285000D01*
X169843156Y-87285000D01*
X169885910Y-87351441D01*
X170098110Y-87496431D01*
X170350000Y-87547440D01*
X171650000Y-87547440D01*
X171885317Y-87503162D01*
X172101441Y-87364090D01*
X172246431Y-87151890D01*
X172247012Y-87149016D01*
X172780590Y-87149016D01*
X172836271Y-87379611D01*
X173319078Y-87547622D01*
X173829428Y-87518083D01*
X174163729Y-87379611D01*
X174219410Y-87149016D01*
X173500000Y-86429605D01*
X172780590Y-87149016D01*
X172247012Y-87149016D01*
X172297440Y-86900000D01*
X172297440Y-86737615D01*
X172370389Y-86913729D01*
X172600984Y-86969410D01*
X173320395Y-86250000D01*
X173679605Y-86250000D01*
X174399016Y-86969410D01*
X174629611Y-86913729D01*
X174797622Y-86430922D01*
X174768083Y-85920572D01*
X174629611Y-85586271D01*
X174399016Y-85530590D01*
X173679605Y-86250000D01*
X173320395Y-86250000D01*
X172600984Y-85530590D01*
X172370389Y-85586271D01*
X172297440Y-85795902D01*
X172297440Y-85600000D01*
X172253162Y-85364683D01*
X172244347Y-85350984D01*
X172780590Y-85350984D01*
X173500000Y-86070395D01*
X174219410Y-85350984D01*
X174163729Y-85120389D01*
X173680922Y-84952378D01*
X173170572Y-84981917D01*
X172836271Y-85120389D01*
X172780590Y-85350984D01*
X172244347Y-85350984D01*
X172114090Y-85148559D01*
X171901890Y-85003569D01*
X171650000Y-84952560D01*
X170350000Y-84952560D01*
X170114683Y-84996838D01*
X169898559Y-85135910D01*
X169753569Y-85348110D01*
X169719773Y-85515000D01*
X168103222Y-85515000D01*
X168103162Y-85514683D01*
X167964090Y-85298559D01*
X167751890Y-85153569D01*
X167635000Y-85129898D01*
X167635000Y-85000000D01*
X167567633Y-84661325D01*
X167375790Y-84374210D01*
X167375787Y-84374208D01*
X167125790Y-84124210D01*
X167112006Y-84115000D01*
X166838675Y-83932367D01*
X166782484Y-83921190D01*
X166500000Y-83864999D01*
X166499995Y-83865000D01*
X146661903Y-83865000D01*
X146664622Y-83862286D01*
X146829313Y-83465668D01*
X146829520Y-83227897D01*
X146907835Y-83110689D01*
X146953996Y-83041605D01*
X147012000Y-82750000D01*
X147012000Y-81014642D01*
X147164622Y-80862286D01*
X147329313Y-80465668D01*
X147329687Y-80036216D01*
X147165689Y-79639311D01*
X146897535Y-79370689D01*
X146952944Y-79408548D01*
X147400000Y-79499079D01*
X149100000Y-79499079D01*
X149517641Y-79420494D01*
X149901219Y-79173669D01*
X150158548Y-78797056D01*
X150209801Y-78543958D01*
X152385647Y-78543958D01*
X152465920Y-78795259D01*
X153021279Y-78996718D01*
X153611458Y-78970315D01*
X154034080Y-78795259D01*
X154114353Y-78543958D01*
X153250000Y-77679605D01*
X152385647Y-78543958D01*
X150209801Y-78543958D01*
X150249079Y-78350000D01*
X150249079Y-77271279D01*
X151753282Y-77271279D01*
X151779685Y-77861458D01*
X151954741Y-78284080D01*
X152206042Y-78364353D01*
X153070395Y-77500000D01*
X153429605Y-77500000D01*
X154293958Y-78364353D01*
X154545259Y-78284080D01*
X154746718Y-77728721D01*
X154720315Y-77138542D01*
X154545259Y-76715920D01*
X154293958Y-76635647D01*
X153429605Y-77500000D01*
X153070395Y-77500000D01*
X152206042Y-76635647D01*
X151954741Y-76715920D01*
X151753282Y-77271279D01*
X150249079Y-77271279D01*
X150249079Y-76650000D01*
X150212584Y-76456042D01*
X152385647Y-76456042D01*
X153250000Y-77320395D01*
X154114353Y-76456042D01*
X154034080Y-76204741D01*
X153478721Y-76003282D01*
X152888542Y-76029685D01*
X152465920Y-76204741D01*
X152385647Y-76456042D01*
X150212584Y-76456042D01*
X150170494Y-76232359D01*
X149923669Y-75848781D01*
X149613718Y-75637000D01*
X161143011Y-75637000D01*
X160848781Y-75826331D01*
X160591452Y-76202944D01*
X160500921Y-76650000D01*
X160500921Y-78350000D01*
X160579506Y-78767641D01*
X160826331Y-79151219D01*
X161202944Y-79408548D01*
X161650000Y-79499079D01*
X163350000Y-79499079D01*
X163767641Y-79420494D01*
X164151219Y-79173669D01*
X164408548Y-78797056D01*
X164459801Y-78543958D01*
X166635647Y-78543958D01*
X166715920Y-78795259D01*
X167271279Y-78996718D01*
X167861458Y-78970315D01*
X168284080Y-78795259D01*
X168364353Y-78543958D01*
X167500000Y-77679605D01*
X166635647Y-78543958D01*
X164459801Y-78543958D01*
X164499079Y-78350000D01*
X164499079Y-77271279D01*
X166003282Y-77271279D01*
X166029685Y-77861458D01*
X166204741Y-78284080D01*
X166456042Y-78364353D01*
X167320395Y-77500000D01*
X167679605Y-77500000D01*
X168543958Y-78364353D01*
X168795259Y-78284080D01*
X168996718Y-77728721D01*
X168970315Y-77138542D01*
X168795259Y-76715920D01*
X168543958Y-76635647D01*
X167679605Y-77500000D01*
X167320395Y-77500000D01*
X166456042Y-76635647D01*
X166204741Y-76715920D01*
X166003282Y-77271279D01*
X164499079Y-77271279D01*
X164499079Y-76650000D01*
X164462584Y-76456042D01*
X166635647Y-76456042D01*
X167500000Y-77320395D01*
X168364353Y-76456042D01*
X168284080Y-76204741D01*
X167728721Y-76003282D01*
X167138542Y-76029685D01*
X166715920Y-76204741D01*
X166635647Y-76456042D01*
X164462584Y-76456042D01*
X164420494Y-76232359D01*
X164173669Y-75848781D01*
X163863718Y-75637000D01*
X175643011Y-75637000D01*
X175348781Y-75826331D01*
X175091452Y-76202944D01*
X175000921Y-76650000D01*
X175000921Y-78350000D01*
X175079506Y-78767641D01*
X175326331Y-79151219D01*
X175702944Y-79408548D01*
X176150000Y-79499079D01*
X177850000Y-79499079D01*
X178267641Y-79420494D01*
X178651219Y-79173669D01*
X178908548Y-78797056D01*
X178959801Y-78543958D01*
X181135647Y-78543958D01*
X181215920Y-78795259D01*
X181771279Y-78996718D01*
X182361458Y-78970315D01*
X182784080Y-78795259D01*
X182790969Y-78773691D01*
X184215000Y-78773691D01*
X184215000Y-79364250D01*
X184373750Y-79523000D01*
X185373000Y-79523000D01*
X185373000Y-78423750D01*
X185214250Y-78265000D01*
X184723690Y-78265000D01*
X184490301Y-78361673D01*
X184311673Y-78540302D01*
X184215000Y-78773691D01*
X182790969Y-78773691D01*
X182864353Y-78543958D01*
X182000000Y-77679605D01*
X181135647Y-78543958D01*
X178959801Y-78543958D01*
X178999079Y-78350000D01*
X178999079Y-77271279D01*
X180503282Y-77271279D01*
X180529685Y-77861458D01*
X180704741Y-78284080D01*
X180956042Y-78364353D01*
X181820395Y-77500000D01*
X182179605Y-77500000D01*
X183043958Y-78364353D01*
X183295259Y-78284080D01*
X183496718Y-77728721D01*
X183470315Y-77138542D01*
X183295259Y-76715920D01*
X183043958Y-76635647D01*
X182179605Y-77500000D01*
X181820395Y-77500000D01*
X180956042Y-76635647D01*
X180704741Y-76715920D01*
X180503282Y-77271279D01*
X178999079Y-77271279D01*
X178999079Y-76650000D01*
X178962584Y-76456042D01*
X181135647Y-76456042D01*
X182000000Y-77320395D01*
X182864353Y-76456042D01*
X182784080Y-76204741D01*
X182228721Y-76003282D01*
X181638542Y-76029685D01*
X181215920Y-76204741D01*
X181135647Y-76456042D01*
X178962584Y-76456042D01*
X178920494Y-76232359D01*
X178673669Y-75848781D01*
X178363718Y-75637000D01*
X190057328Y-75637000D01*
X189841452Y-75952944D01*
X189750921Y-76400000D01*
X189750921Y-78063665D01*
X189572056Y-77941452D01*
X189125000Y-77850921D01*
X187875000Y-77850921D01*
X187457359Y-77929506D01*
X187073781Y-78176331D01*
X186816452Y-78552944D01*
X186776101Y-78752206D01*
X186688327Y-78540302D01*
X186509699Y-78361673D01*
X186276310Y-78265000D01*
X185785750Y-78265000D01*
X185627000Y-78423750D01*
X185627000Y-79523000D01*
X185647000Y-79523000D01*
X185647000Y-79777000D01*
X185627000Y-79777000D01*
X185627000Y-79797000D01*
X185373000Y-79797000D01*
X185373000Y-79777000D01*
X184373750Y-79777000D01*
X184215000Y-79935750D01*
X184215000Y-80526309D01*
X184311673Y-80759698D01*
X184363472Y-80811497D01*
X184190967Y-80922501D01*
X183979304Y-81232279D01*
X183904839Y-81600000D01*
X183904839Y-83100000D01*
X183969478Y-83443526D01*
X184172501Y-83759033D01*
X184446000Y-83945908D01*
X184446000Y-84701168D01*
X184090421Y-84344968D01*
X183507159Y-84102776D01*
X182875612Y-84102225D01*
X182291928Y-84343398D01*
X181844968Y-84789579D01*
X181602776Y-85372841D01*
X181602225Y-86004388D01*
X181843398Y-86588072D01*
X182214935Y-86960257D01*
X181844968Y-87329579D01*
X181602776Y-87912841D01*
X181602225Y-88544388D01*
X181843398Y-89128072D01*
X182008639Y-89293602D01*
X181597566Y-89703958D01*
X181310827Y-90394504D01*
X181310174Y-91142216D01*
X181595708Y-91833261D01*
X182008279Y-92246553D01*
X181844968Y-92409579D01*
X181602776Y-92992841D01*
X181602225Y-93624388D01*
X181843398Y-94208072D01*
X182289579Y-94655032D01*
X182872841Y-94897224D01*
X183504388Y-94897775D01*
X184088072Y-94656602D01*
X184535032Y-94210421D01*
X184777224Y-93627159D01*
X184777775Y-92995612D01*
X184536602Y-92411928D01*
X184371361Y-92246398D01*
X184782434Y-91836042D01*
X184787434Y-91824000D01*
X184979995Y-91824000D01*
X184980000Y-91824001D01*
X185024780Y-91815094D01*
X184988000Y-92000000D01*
X184988000Y-97250000D01*
X185046004Y-97541605D01*
X185185250Y-97750000D01*
X185211185Y-97788815D01*
X187538000Y-100115631D01*
X187538000Y-100567560D01*
X185950000Y-100567560D01*
X185714683Y-100611838D01*
X185498559Y-100750910D01*
X185353569Y-100963110D01*
X185302560Y-101215000D01*
X185302560Y-102515000D01*
X185346838Y-102750317D01*
X185485910Y-102966441D01*
X185698110Y-103111431D01*
X185950000Y-103162440D01*
X190650000Y-103162440D01*
X190885317Y-103118162D01*
X191101441Y-102979090D01*
X191246431Y-102766890D01*
X191297440Y-102515000D01*
X191297440Y-101215000D01*
X191253162Y-100979683D01*
X191167861Y-100847122D01*
X191193052Y-100857582D01*
X191573000Y-101237530D01*
X191573000Y-105762470D01*
X191398760Y-105936710D01*
X191327499Y-105825967D01*
X191017721Y-105614304D01*
X190650000Y-105539839D01*
X185950000Y-105539839D01*
X185606474Y-105604478D01*
X185290967Y-105807501D01*
X185079304Y-106117279D01*
X185004839Y-106485000D01*
X185004839Y-107785000D01*
X185069478Y-108128526D01*
X185272501Y-108444033D01*
X185582279Y-108655696D01*
X185950000Y-108730161D01*
X190650000Y-108730161D01*
X190993526Y-108665522D01*
X191309033Y-108462499D01*
X191411865Y-108312000D01*
X191865000Y-108312000D01*
X192315419Y-108222406D01*
X192697265Y-107967265D01*
X193582265Y-107082265D01*
X193837406Y-106700419D01*
X193927000Y-106250000D01*
X193927000Y-102453540D01*
X194137714Y-102664622D01*
X194534332Y-102829313D01*
X194963784Y-102829687D01*
X195360689Y-102665689D01*
X195391432Y-102635000D01*
X200029045Y-102635000D01*
X199017914Y-103052790D01*
X198205643Y-103863645D01*
X197765502Y-104923620D01*
X197764501Y-106071344D01*
X198202790Y-107132086D01*
X199013645Y-107944357D01*
X200073620Y-108384498D01*
X201221344Y-108385499D01*
X202282086Y-107947210D01*
X203094357Y-107136355D01*
X203534498Y-106076380D01*
X203535499Y-104928656D01*
X203097210Y-103867914D01*
X202286355Y-103055643D01*
X201273336Y-102635000D01*
X205499995Y-102635000D01*
X205500000Y-102635001D01*
X205771622Y-102580971D01*
X205738000Y-102750000D01*
X205738000Y-105023634D01*
X205614683Y-105046838D01*
X205398559Y-105185910D01*
X205253569Y-105398110D01*
X205202560Y-105650000D01*
X205202560Y-107150000D01*
X205246838Y-107385317D01*
X205385910Y-107601441D01*
X205598110Y-107746431D01*
X205611197Y-107749081D01*
X205398559Y-107885910D01*
X205253569Y-108098110D01*
X205202560Y-108350000D01*
X205202560Y-109850000D01*
X205246838Y-110085317D01*
X205385910Y-110301441D01*
X205598110Y-110446431D01*
X205850000Y-110497440D01*
X207150000Y-110497440D01*
X207385317Y-110453162D01*
X207601441Y-110314090D01*
X207746431Y-110101890D01*
X207764634Y-110012000D01*
X208191030Y-110012000D01*
X208229138Y-110104229D01*
X208653537Y-110529370D01*
X209208325Y-110759738D01*
X209809040Y-110760262D01*
X210364229Y-110530862D01*
X210364816Y-110530276D01*
X210378144Y-110890460D01*
X210580613Y-111379264D01*
X210847468Y-111477927D01*
X211820395Y-110505000D01*
X212179605Y-110505000D01*
X213152532Y-111477927D01*
X213419387Y-111379264D01*
X213645908Y-110769539D01*
X213621856Y-110119540D01*
X213419387Y-109630736D01*
X213152532Y-109532073D01*
X212179605Y-110505000D01*
X211820395Y-110505000D01*
X211806253Y-110490858D01*
X211985858Y-110311253D01*
X212000000Y-110325395D01*
X212972927Y-109352468D01*
X212874264Y-109085613D01*
X212264539Y-108859092D01*
X211614540Y-108883144D01*
X211125736Y-109085613D01*
X211027074Y-109352466D01*
X211019918Y-109345310D01*
X211020262Y-108950960D01*
X210790862Y-108395771D01*
X210366463Y-107970630D01*
X209811675Y-107740262D01*
X209210960Y-107739738D01*
X208655771Y-107969138D01*
X208230630Y-108393537D01*
X208191406Y-108488000D01*
X207797440Y-108488000D01*
X207797440Y-108350000D01*
X207753162Y-108114683D01*
X207614090Y-107898559D01*
X207401890Y-107753569D01*
X207388803Y-107750919D01*
X207601441Y-107614090D01*
X207746431Y-107401890D01*
X207797440Y-107150000D01*
X207797440Y-105650000D01*
X207753162Y-105414683D01*
X207614090Y-105198559D01*
X207401890Y-105053569D01*
X207262000Y-105025241D01*
X207262000Y-103065630D01*
X207315631Y-103012000D01*
X208485358Y-103012000D01*
X208637714Y-103164622D01*
X209014302Y-103320996D01*
X208655771Y-103469138D01*
X208230630Y-103893537D01*
X208000262Y-104448325D01*
X207999738Y-105049040D01*
X208229138Y-105604229D01*
X208653537Y-106029370D01*
X209208325Y-106259738D01*
X209809040Y-106260262D01*
X210364229Y-106030862D01*
X210789370Y-105606463D01*
X211019738Y-105051675D01*
X211020084Y-104654524D01*
X211027074Y-104647534D01*
X211125736Y-104914387D01*
X211735461Y-105140908D01*
X212385460Y-105116856D01*
X212874264Y-104914387D01*
X212972927Y-104647532D01*
X212000000Y-103674605D01*
X211985858Y-103688748D01*
X211806253Y-103509143D01*
X211820395Y-103495000D01*
X212179605Y-103495000D01*
X213152532Y-104467927D01*
X213419387Y-104369264D01*
X213645908Y-103759539D01*
X213621856Y-103109540D01*
X213419387Y-102620736D01*
X213152532Y-102522073D01*
X212179605Y-103495000D01*
X211820395Y-103495000D01*
X210847468Y-102522073D01*
X210580613Y-102620736D01*
X210354092Y-103230461D01*
X210362925Y-103469161D01*
X209811675Y-103240262D01*
X209680486Y-103240148D01*
X209860689Y-103165689D01*
X210164622Y-102862286D01*
X210329313Y-102465668D01*
X210329420Y-102342468D01*
X211027073Y-102342468D01*
X212000000Y-103315395D01*
X212972927Y-102342468D01*
X212874264Y-102075613D01*
X212264539Y-101849092D01*
X211614540Y-101873144D01*
X211125736Y-102075613D01*
X211027073Y-102342468D01*
X210329420Y-102342468D01*
X210329687Y-102036216D01*
X210165689Y-101639311D01*
X209862286Y-101335378D01*
X209465668Y-101170687D01*
X209036216Y-101170313D01*
X208639311Y-101334311D01*
X208485354Y-101488000D01*
X207013580Y-101488000D01*
X207275787Y-101225792D01*
X207275790Y-101225790D01*
X207467633Y-100938675D01*
X207488180Y-100835378D01*
X207535001Y-100600000D01*
X207535000Y-100599995D01*
X207535000Y-99772325D01*
X207585910Y-99851441D01*
X207798110Y-99996431D01*
X208050000Y-100047440D01*
X208650000Y-100047440D01*
X208885317Y-100003162D01*
X209101441Y-99864090D01*
X209246431Y-99651890D01*
X209297440Y-99400000D01*
X209297440Y-98600000D01*
X209253162Y-98364683D01*
X209235000Y-98336458D01*
X209235000Y-97850005D01*
X209235001Y-97850000D01*
X209167633Y-97511326D01*
X209167633Y-97511325D01*
X209132393Y-97458585D01*
X209134510Y-97460031D01*
X209386400Y-97511040D01*
X211113600Y-97511040D01*
X211348917Y-97466762D01*
X211565041Y-97327690D01*
X211710031Y-97115490D01*
X211761040Y-96863600D01*
X211761040Y-96762000D01*
X212250000Y-96762000D01*
X212541605Y-96703996D01*
X212788815Y-96538815D01*
X213538815Y-95788815D01*
X213703996Y-95541605D01*
X213712272Y-95500000D01*
X213762000Y-95250000D01*
X213762000Y-84000000D01*
X213754279Y-83961185D01*
X213703997Y-83708396D01*
X213538816Y-83461185D01*
X202288815Y-72211185D01*
X202278056Y-72203996D01*
X202041605Y-72046004D01*
X201750000Y-71988000D01*
X148315631Y-71988000D01*
X147579499Y-71251869D01*
X147579687Y-71036216D01*
X147434567Y-70685000D01*
X209396941Y-70685000D01*
X208528485Y-71043838D01*
X208528485Y-71043838D01*
G37*
X208528485Y-71043838D02*
X207547284Y-72023329D01*
X207015606Y-73303749D01*
X207014397Y-74690168D01*
X207543838Y-75971515D01*
X208523329Y-76952716D01*
X209803749Y-77484394D01*
X211190168Y-77485603D01*
X212471515Y-76956162D01*
X213452716Y-75976671D01*
X213815000Y-75104196D01*
X213815000Y-114896941D01*
X213456162Y-114028485D01*
X212476671Y-113047284D01*
X211196251Y-112515606D01*
X209809832Y-112514397D01*
X208528485Y-113043838D01*
X207547284Y-114023329D01*
X207015606Y-115303749D01*
X207014397Y-116690168D01*
X207543838Y-117971515D01*
X208523329Y-118952716D01*
X209395804Y-119315000D01*
X184461554Y-119315000D01*
X184664622Y-119112286D01*
X184728151Y-118959293D01*
X185230461Y-119145908D01*
X185880460Y-119121856D01*
X186369264Y-118919387D01*
X186467927Y-118652532D01*
X191532073Y-118652532D01*
X191630736Y-118919387D01*
X192240461Y-119145908D01*
X192890460Y-119121856D01*
X193379264Y-118919387D01*
X193477927Y-118652532D01*
X192505000Y-117679605D01*
X191532073Y-118652532D01*
X186467927Y-118652532D01*
X185495000Y-117679605D01*
X185480858Y-117693748D01*
X185301253Y-117514143D01*
X185315395Y-117500000D01*
X185301253Y-117485858D01*
X185480858Y-117306253D01*
X185495000Y-117320395D01*
X185509143Y-117306253D01*
X185688748Y-117485858D01*
X185674605Y-117500000D01*
X186647532Y-118472927D01*
X186914387Y-118374264D01*
X187140908Y-117764539D01*
X187116856Y-117114540D01*
X186914387Y-116625736D01*
X186647534Y-116527074D01*
X186654690Y-116519918D01*
X187049040Y-116520262D01*
X187604229Y-116290862D01*
X188029370Y-115866463D01*
X188259738Y-115311675D01*
X188259740Y-115309040D01*
X189739738Y-115309040D01*
X189969138Y-115864229D01*
X190393537Y-116289370D01*
X190948325Y-116519738D01*
X191345476Y-116520084D01*
X191352466Y-116527074D01*
X191085613Y-116625736D01*
X190859092Y-117235461D01*
X190883144Y-117885460D01*
X191085613Y-118374264D01*
X191352468Y-118472927D01*
X192325395Y-117500000D01*
X192684605Y-117500000D01*
X193657532Y-118472927D01*
X193924387Y-118374264D01*
X194150908Y-117764539D01*
X194126856Y-117114540D01*
X193924387Y-116625736D01*
X193657532Y-116527073D01*
X192684605Y-117500000D01*
X192325395Y-117500000D01*
X192311253Y-117485858D01*
X192490858Y-117306253D01*
X192505000Y-117320395D01*
X193402580Y-116422815D01*
X198514630Y-116422815D01*
X198838980Y-117207800D01*
X199439041Y-117808909D01*
X200223459Y-118134628D01*
X201072815Y-118135370D01*
X201857800Y-117811020D01*
X202458909Y-117210959D01*
X202784628Y-116426541D01*
X202785370Y-115577185D01*
X202461020Y-114792200D01*
X201860959Y-114191091D01*
X201455721Y-114022821D01*
X202124647Y-113745743D01*
X202345416Y-113375022D01*
X200650000Y-111679605D01*
X198954584Y-113375022D01*
X199175353Y-113745743D01*
X199851964Y-114019669D01*
X199442200Y-114188980D01*
X198841091Y-114789041D01*
X198515372Y-115573459D01*
X198514630Y-116422815D01*
X193402580Y-116422815D01*
X193477927Y-116347468D01*
X193379264Y-116080613D01*
X192769539Y-115854092D01*
X192530839Y-115862925D01*
X192759738Y-115311675D01*
X192760262Y-114710960D01*
X192530862Y-114155771D01*
X192106463Y-113730630D01*
X191551675Y-113500262D01*
X190950960Y-113499738D01*
X190395771Y-113729138D01*
X189970630Y-114153537D01*
X189740262Y-114708325D01*
X189739738Y-115309040D01*
X188259740Y-115309040D01*
X188260262Y-114710960D01*
X188030862Y-114155771D01*
X187606463Y-113730630D01*
X187051675Y-113500262D01*
X186450960Y-113499738D01*
X185895771Y-113729138D01*
X185470630Y-114153537D01*
X185240262Y-114708325D01*
X185239738Y-115309040D01*
X185469138Y-115864229D01*
X185469724Y-115864816D01*
X185109540Y-115878144D01*
X184620736Y-116080613D01*
X184522074Y-116347466D01*
X184512000Y-116337392D01*
X184512000Y-111500000D01*
X184453996Y-111208395D01*
X184387834Y-111109377D01*
X184312755Y-110997012D01*
X198010881Y-110997012D01*
X198019287Y-112045247D01*
X198404257Y-112974647D01*
X198774978Y-113195416D01*
X200470395Y-111500000D01*
X200829605Y-111500000D01*
X202525022Y-113195416D01*
X202895743Y-112974647D01*
X203289119Y-112002988D01*
X203286349Y-111657532D01*
X211027073Y-111657532D01*
X211125736Y-111924387D01*
X211735461Y-112150908D01*
X212385460Y-112126856D01*
X212874264Y-111924387D01*
X212972927Y-111657532D01*
X212000000Y-110684605D01*
X211027073Y-111657532D01*
X203286349Y-111657532D01*
X203280713Y-110954753D01*
X202895743Y-110025353D01*
X202525022Y-109804584D01*
X200829605Y-111500000D01*
X200470395Y-111500000D01*
X198774978Y-109804584D01*
X198404257Y-110025353D01*
X198010881Y-110997012D01*
X184312755Y-110997012D01*
X184288816Y-110961185D01*
X184171673Y-110844042D01*
X184243526Y-110830522D01*
X184559033Y-110627499D01*
X184770696Y-110317721D01*
X184845161Y-109950000D01*
X184845161Y-108922325D01*
X193364587Y-108922325D01*
X193726916Y-109799229D01*
X194397242Y-110470726D01*
X195273513Y-110834585D01*
X196222325Y-110835413D01*
X197099229Y-110473084D01*
X197770726Y-109802758D01*
X197844546Y-109624978D01*
X198954584Y-109624978D01*
X200650000Y-111320395D01*
X202345416Y-109624978D01*
X202124647Y-109254257D01*
X201152988Y-108860881D01*
X200104753Y-108869287D01*
X199175353Y-109254257D01*
X198954584Y-109624978D01*
X197844546Y-109624978D01*
X198134585Y-108926487D01*
X198135413Y-107977675D01*
X197773084Y-107100771D01*
X197102758Y-106429274D01*
X196226487Y-106065415D01*
X195277675Y-106064587D01*
X194400771Y-106426916D01*
X193729274Y-107097242D01*
X193365415Y-107973513D01*
X193364587Y-108922325D01*
X184845161Y-108922325D01*
X184845161Y-99050000D01*
X184780522Y-98706474D01*
X184577499Y-98390967D01*
X184267721Y-98179304D01*
X183900000Y-98104839D01*
X179837696Y-98104839D01*
X179871261Y-98024005D01*
X179871737Y-97478389D01*
X179677000Y-97007088D01*
X179677000Y-94990081D01*
X179993526Y-94930522D01*
X180309033Y-94727499D01*
X180520696Y-94417721D01*
X180595161Y-94050000D01*
X180595161Y-91550000D01*
X180530522Y-91206474D01*
X180327499Y-90890967D01*
X180148350Y-90768559D01*
X180451219Y-90573669D01*
X180708548Y-90197056D01*
X180799079Y-89750000D01*
X180799079Y-87250000D01*
X180720494Y-86832359D01*
X180473669Y-86448781D01*
X180097056Y-86191452D01*
X179877000Y-86146890D01*
X179877000Y-84315620D01*
X179963226Y-84229544D01*
X180226700Y-83595029D01*
X180227299Y-82907986D01*
X179964933Y-82273011D01*
X179479544Y-81786774D01*
X178845029Y-81523300D01*
X178157986Y-81522701D01*
X177523011Y-81785067D01*
X177036774Y-82270456D01*
X176773300Y-82904971D01*
X176772701Y-83592014D01*
X177035067Y-84226989D01*
X177123000Y-84315076D01*
X177123000Y-86143634D01*
X176932359Y-86179506D01*
X176548781Y-86426331D01*
X176291452Y-86802944D01*
X176200921Y-87250000D01*
X176200921Y-89750000D01*
X176279506Y-90167641D01*
X176526331Y-90551219D01*
X176848337Y-90771236D01*
X176690967Y-90872501D01*
X176479304Y-91182279D01*
X176404839Y-91550000D01*
X176404839Y-94050000D01*
X176469478Y-94393526D01*
X176672501Y-94709033D01*
X176982279Y-94920696D01*
X177323000Y-94989693D01*
X177323000Y-97008162D01*
X177128739Y-97475995D01*
X177128263Y-98021611D01*
X177162652Y-98104839D01*
X174400000Y-98104839D01*
X174056474Y-98169478D01*
X173772658Y-98352109D01*
X173829313Y-98215668D01*
X173829687Y-97786216D01*
X173665689Y-97389311D01*
X173362286Y-97085378D01*
X172965668Y-96920687D01*
X172536216Y-96920313D01*
X172139311Y-97084311D01*
X172135000Y-97088614D01*
X172135000Y-95641856D01*
X172164622Y-95612286D01*
X172329313Y-95215668D01*
X172329687Y-94786216D01*
X172165689Y-94389311D01*
X171862286Y-94085378D01*
X171465668Y-93920687D01*
X171081227Y-93920352D01*
X172862358Y-92139221D01*
X172887714Y-92164622D01*
X173284332Y-92329313D01*
X173713784Y-92329687D01*
X174110689Y-92165689D01*
X174414622Y-91862286D01*
X174579313Y-91465668D01*
X174579687Y-91036216D01*
X174415689Y-90639311D01*
X174112286Y-90335378D01*
X173715668Y-90170687D01*
X173286216Y-90170313D01*
X172889311Y-90334311D01*
X172858568Y-90365000D01*
X172500005Y-90365000D01*
X172500000Y-90364999D01*
X172161325Y-90432367D01*
X171874210Y-90624210D01*
X171874208Y-90624213D01*
X171045337Y-91453083D01*
X170915689Y-91139311D01*
X170612286Y-90835378D01*
X170215668Y-90670687D01*
X169786216Y-90670313D01*
X169389311Y-90834311D01*
X169308481Y-90915000D01*
X167987279Y-90915000D01*
X167864090Y-90723559D01*
X167651890Y-90578569D01*
X167400000Y-90527560D01*
X166303613Y-90527560D01*
X166329313Y-90465668D01*
X166329645Y-90085000D01*
X166464250Y-90085000D01*
X166623000Y-89926250D01*
X166623000Y-88927000D01*
X166877000Y-88927000D01*
X166877000Y-89926250D01*
X167035750Y-90085000D01*
X167626309Y-90085000D01*
X167859698Y-89988327D01*
X168038327Y-89809699D01*
X168135000Y-89576310D01*
X168135000Y-89085750D01*
X167976250Y-88927000D01*
X166877000Y-88927000D01*
X166623000Y-88927000D01*
X166603000Y-88927000D01*
X166603000Y-88673000D01*
X166623000Y-88673000D01*
X166623000Y-88653000D01*
X166877000Y-88653000D01*
X166877000Y-88673000D01*
X167976250Y-88673000D01*
X168135000Y-88514250D01*
X168135000Y-88023690D01*
X168038327Y-87790301D01*
X167859698Y-87611673D01*
X167823253Y-87596577D01*
X167951441Y-87514090D01*
X168096431Y-87301890D01*
X168099851Y-87285000D01*
X169843156Y-87285000D01*
X169885910Y-87351441D01*
X170098110Y-87496431D01*
X170350000Y-87547440D01*
X171650000Y-87547440D01*
X171885317Y-87503162D01*
X172101441Y-87364090D01*
X172246431Y-87151890D01*
X172247012Y-87149016D01*
X172780590Y-87149016D01*
X172836271Y-87379611D01*
X173319078Y-87547622D01*
X173829428Y-87518083D01*
X174163729Y-87379611D01*
X174219410Y-87149016D01*
X173500000Y-86429605D01*
X172780590Y-87149016D01*
X172247012Y-87149016D01*
X172297440Y-86900000D01*
X172297440Y-86737615D01*
X172370389Y-86913729D01*
X172600984Y-86969410D01*
X173320395Y-86250000D01*
X173679605Y-86250000D01*
X174399016Y-86969410D01*
X174629611Y-86913729D01*
X174797622Y-86430922D01*
X174768083Y-85920572D01*
X174629611Y-85586271D01*
X174399016Y-85530590D01*
X173679605Y-86250000D01*
X173320395Y-86250000D01*
X172600984Y-85530590D01*
X172370389Y-85586271D01*
X172297440Y-85795902D01*
X172297440Y-85600000D01*
X172253162Y-85364683D01*
X172244347Y-85350984D01*
X172780590Y-85350984D01*
X173500000Y-86070395D01*
X174219410Y-85350984D01*
X174163729Y-85120389D01*
X173680922Y-84952378D01*
X173170572Y-84981917D01*
X172836271Y-85120389D01*
X172780590Y-85350984D01*
X172244347Y-85350984D01*
X172114090Y-85148559D01*
X171901890Y-85003569D01*
X171650000Y-84952560D01*
X170350000Y-84952560D01*
X170114683Y-84996838D01*
X169898559Y-85135910D01*
X169753569Y-85348110D01*
X169719773Y-85515000D01*
X168103222Y-85515000D01*
X168103162Y-85514683D01*
X167964090Y-85298559D01*
X167751890Y-85153569D01*
X167635000Y-85129898D01*
X167635000Y-85000000D01*
X167567633Y-84661325D01*
X167375790Y-84374210D01*
X167375787Y-84374208D01*
X167125790Y-84124210D01*
X167112006Y-84115000D01*
X166838675Y-83932367D01*
X166782484Y-83921190D01*
X166500000Y-83864999D01*
X166499995Y-83865000D01*
X146661903Y-83865000D01*
X146664622Y-83862286D01*
X146829313Y-83465668D01*
X146829520Y-83227897D01*
X146907835Y-83110689D01*
X146953996Y-83041605D01*
X147012000Y-82750000D01*
X147012000Y-81014642D01*
X147164622Y-80862286D01*
X147329313Y-80465668D01*
X147329687Y-80036216D01*
X147165689Y-79639311D01*
X146897535Y-79370689D01*
X146952944Y-79408548D01*
X147400000Y-79499079D01*
X149100000Y-79499079D01*
X149517641Y-79420494D01*
X149901219Y-79173669D01*
X150158548Y-78797056D01*
X150209801Y-78543958D01*
X152385647Y-78543958D01*
X152465920Y-78795259D01*
X153021279Y-78996718D01*
X153611458Y-78970315D01*
X154034080Y-78795259D01*
X154114353Y-78543958D01*
X153250000Y-77679605D01*
X152385647Y-78543958D01*
X150209801Y-78543958D01*
X150249079Y-78350000D01*
X150249079Y-77271279D01*
X151753282Y-77271279D01*
X151779685Y-77861458D01*
X151954741Y-78284080D01*
X152206042Y-78364353D01*
X153070395Y-77500000D01*
X153429605Y-77500000D01*
X154293958Y-78364353D01*
X154545259Y-78284080D01*
X154746718Y-77728721D01*
X154720315Y-77138542D01*
X154545259Y-76715920D01*
X154293958Y-76635647D01*
X153429605Y-77500000D01*
X153070395Y-77500000D01*
X152206042Y-76635647D01*
X151954741Y-76715920D01*
X151753282Y-77271279D01*
X150249079Y-77271279D01*
X150249079Y-76650000D01*
X150212584Y-76456042D01*
X152385647Y-76456042D01*
X153250000Y-77320395D01*
X154114353Y-76456042D01*
X154034080Y-76204741D01*
X153478721Y-76003282D01*
X152888542Y-76029685D01*
X152465920Y-76204741D01*
X152385647Y-76456042D01*
X150212584Y-76456042D01*
X150170494Y-76232359D01*
X149923669Y-75848781D01*
X149613718Y-75637000D01*
X161143011Y-75637000D01*
X160848781Y-75826331D01*
X160591452Y-76202944D01*
X160500921Y-76650000D01*
X160500921Y-78350000D01*
X160579506Y-78767641D01*
X160826331Y-79151219D01*
X161202944Y-79408548D01*
X161650000Y-79499079D01*
X163350000Y-79499079D01*
X163767641Y-79420494D01*
X164151219Y-79173669D01*
X164408548Y-78797056D01*
X164459801Y-78543958D01*
X166635647Y-78543958D01*
X166715920Y-78795259D01*
X167271279Y-78996718D01*
X167861458Y-78970315D01*
X168284080Y-78795259D01*
X168364353Y-78543958D01*
X167500000Y-77679605D01*
X166635647Y-78543958D01*
X164459801Y-78543958D01*
X164499079Y-78350000D01*
X164499079Y-77271279D01*
X166003282Y-77271279D01*
X166029685Y-77861458D01*
X166204741Y-78284080D01*
X166456042Y-78364353D01*
X167320395Y-77500000D01*
X167679605Y-77500000D01*
X168543958Y-78364353D01*
X168795259Y-78284080D01*
X168996718Y-77728721D01*
X168970315Y-77138542D01*
X168795259Y-76715920D01*
X168543958Y-76635647D01*
X167679605Y-77500000D01*
X167320395Y-77500000D01*
X166456042Y-76635647D01*
X166204741Y-76715920D01*
X166003282Y-77271279D01*
X164499079Y-77271279D01*
X164499079Y-76650000D01*
X164462584Y-76456042D01*
X166635647Y-76456042D01*
X167500000Y-77320395D01*
X168364353Y-76456042D01*
X168284080Y-76204741D01*
X167728721Y-76003282D01*
X167138542Y-76029685D01*
X166715920Y-76204741D01*
X166635647Y-76456042D01*
X164462584Y-76456042D01*
X164420494Y-76232359D01*
X164173669Y-75848781D01*
X163863718Y-75637000D01*
X175643011Y-75637000D01*
X175348781Y-75826331D01*
X175091452Y-76202944D01*
X175000921Y-76650000D01*
X175000921Y-78350000D01*
X175079506Y-78767641D01*
X175326331Y-79151219D01*
X175702944Y-79408548D01*
X176150000Y-79499079D01*
X177850000Y-79499079D01*
X178267641Y-79420494D01*
X178651219Y-79173669D01*
X178908548Y-78797056D01*
X178959801Y-78543958D01*
X181135647Y-78543958D01*
X181215920Y-78795259D01*
X181771279Y-78996718D01*
X182361458Y-78970315D01*
X182784080Y-78795259D01*
X182790969Y-78773691D01*
X184215000Y-78773691D01*
X184215000Y-79364250D01*
X184373750Y-79523000D01*
X185373000Y-79523000D01*
X185373000Y-78423750D01*
X185214250Y-78265000D01*
X184723690Y-78265000D01*
X184490301Y-78361673D01*
X184311673Y-78540302D01*
X184215000Y-78773691D01*
X182790969Y-78773691D01*
X182864353Y-78543958D01*
X182000000Y-77679605D01*
X181135647Y-78543958D01*
X178959801Y-78543958D01*
X178999079Y-78350000D01*
X178999079Y-77271279D01*
X180503282Y-77271279D01*
X180529685Y-77861458D01*
X180704741Y-78284080D01*
X180956042Y-78364353D01*
X181820395Y-77500000D01*
X182179605Y-77500000D01*
X183043958Y-78364353D01*
X183295259Y-78284080D01*
X183496718Y-77728721D01*
X183470315Y-77138542D01*
X183295259Y-76715920D01*
X183043958Y-76635647D01*
X182179605Y-77500000D01*
X181820395Y-77500000D01*
X180956042Y-76635647D01*
X180704741Y-76715920D01*
X180503282Y-77271279D01*
X178999079Y-77271279D01*
X178999079Y-76650000D01*
X178962584Y-76456042D01*
X181135647Y-76456042D01*
X182000000Y-77320395D01*
X182864353Y-76456042D01*
X182784080Y-76204741D01*
X182228721Y-76003282D01*
X181638542Y-76029685D01*
X181215920Y-76204741D01*
X181135647Y-76456042D01*
X178962584Y-76456042D01*
X178920494Y-76232359D01*
X178673669Y-75848781D01*
X178363718Y-75637000D01*
X190057328Y-75637000D01*
X189841452Y-75952944D01*
X189750921Y-76400000D01*
X189750921Y-78063665D01*
X189572056Y-77941452D01*
X189125000Y-77850921D01*
X187875000Y-77850921D01*
X187457359Y-77929506D01*
X187073781Y-78176331D01*
X186816452Y-78552944D01*
X186776101Y-78752206D01*
X186688327Y-78540302D01*
X186509699Y-78361673D01*
X186276310Y-78265000D01*
X185785750Y-78265000D01*
X185627000Y-78423750D01*
X185627000Y-79523000D01*
X185647000Y-79523000D01*
X185647000Y-79777000D01*
X185627000Y-79777000D01*
X185627000Y-79797000D01*
X185373000Y-79797000D01*
X185373000Y-79777000D01*
X184373750Y-79777000D01*
X184215000Y-79935750D01*
X184215000Y-80526309D01*
X184311673Y-80759698D01*
X184363472Y-80811497D01*
X184190967Y-80922501D01*
X183979304Y-81232279D01*
X183904839Y-81600000D01*
X183904839Y-83100000D01*
X183969478Y-83443526D01*
X184172501Y-83759033D01*
X184446000Y-83945908D01*
X184446000Y-84701168D01*
X184090421Y-84344968D01*
X183507159Y-84102776D01*
X182875612Y-84102225D01*
X182291928Y-84343398D01*
X181844968Y-84789579D01*
X181602776Y-85372841D01*
X181602225Y-86004388D01*
X181843398Y-86588072D01*
X182214935Y-86960257D01*
X181844968Y-87329579D01*
X181602776Y-87912841D01*
X181602225Y-88544388D01*
X181843398Y-89128072D01*
X182008639Y-89293602D01*
X181597566Y-89703958D01*
X181310827Y-90394504D01*
X181310174Y-91142216D01*
X181595708Y-91833261D01*
X182008279Y-92246553D01*
X181844968Y-92409579D01*
X181602776Y-92992841D01*
X181602225Y-93624388D01*
X181843398Y-94208072D01*
X182289579Y-94655032D01*
X182872841Y-94897224D01*
X183504388Y-94897775D01*
X184088072Y-94656602D01*
X184535032Y-94210421D01*
X184777224Y-93627159D01*
X184777775Y-92995612D01*
X184536602Y-92411928D01*
X184371361Y-92246398D01*
X184782434Y-91836042D01*
X184787434Y-91824000D01*
X184979995Y-91824000D01*
X184980000Y-91824001D01*
X185024780Y-91815094D01*
X184988000Y-92000000D01*
X184988000Y-97250000D01*
X185046004Y-97541605D01*
X185185250Y-97750000D01*
X185211185Y-97788815D01*
X187538000Y-100115631D01*
X187538000Y-100567560D01*
X185950000Y-100567560D01*
X185714683Y-100611838D01*
X185498559Y-100750910D01*
X185353569Y-100963110D01*
X185302560Y-101215000D01*
X185302560Y-102515000D01*
X185346838Y-102750317D01*
X185485910Y-102966441D01*
X185698110Y-103111431D01*
X185950000Y-103162440D01*
X190650000Y-103162440D01*
X190885317Y-103118162D01*
X191101441Y-102979090D01*
X191246431Y-102766890D01*
X191297440Y-102515000D01*
X191297440Y-101215000D01*
X191253162Y-100979683D01*
X191167861Y-100847122D01*
X191193052Y-100857582D01*
X191573000Y-101237530D01*
X191573000Y-105762470D01*
X191398760Y-105936710D01*
X191327499Y-105825967D01*
X191017721Y-105614304D01*
X190650000Y-105539839D01*
X185950000Y-105539839D01*
X185606474Y-105604478D01*
X185290967Y-105807501D01*
X185079304Y-106117279D01*
X185004839Y-106485000D01*
X185004839Y-107785000D01*
X185069478Y-108128526D01*
X185272501Y-108444033D01*
X185582279Y-108655696D01*
X185950000Y-108730161D01*
X190650000Y-108730161D01*
X190993526Y-108665522D01*
X191309033Y-108462499D01*
X191411865Y-108312000D01*
X191865000Y-108312000D01*
X192315419Y-108222406D01*
X192697265Y-107967265D01*
X193582265Y-107082265D01*
X193837406Y-106700419D01*
X193927000Y-106250000D01*
X193927000Y-102453540D01*
X194137714Y-102664622D01*
X194534332Y-102829313D01*
X194963784Y-102829687D01*
X195360689Y-102665689D01*
X195391432Y-102635000D01*
X200029045Y-102635000D01*
X199017914Y-103052790D01*
X198205643Y-103863645D01*
X197765502Y-104923620D01*
X197764501Y-106071344D01*
X198202790Y-107132086D01*
X199013645Y-107944357D01*
X200073620Y-108384498D01*
X201221344Y-108385499D01*
X202282086Y-107947210D01*
X203094357Y-107136355D01*
X203534498Y-106076380D01*
X203535499Y-104928656D01*
X203097210Y-103867914D01*
X202286355Y-103055643D01*
X201273336Y-102635000D01*
X205499995Y-102635000D01*
X205500000Y-102635001D01*
X205771622Y-102580971D01*
X205738000Y-102750000D01*
X205738000Y-105023634D01*
X205614683Y-105046838D01*
X205398559Y-105185910D01*
X205253569Y-105398110D01*
X205202560Y-105650000D01*
X205202560Y-107150000D01*
X205246838Y-107385317D01*
X205385910Y-107601441D01*
X205598110Y-107746431D01*
X205611197Y-107749081D01*
X205398559Y-107885910D01*
X205253569Y-108098110D01*
X205202560Y-108350000D01*
X205202560Y-109850000D01*
X205246838Y-110085317D01*
X205385910Y-110301441D01*
X205598110Y-110446431D01*
X205850000Y-110497440D01*
X207150000Y-110497440D01*
X207385317Y-110453162D01*
X207601441Y-110314090D01*
X207746431Y-110101890D01*
X207764634Y-110012000D01*
X208191030Y-110012000D01*
X208229138Y-110104229D01*
X208653537Y-110529370D01*
X209208325Y-110759738D01*
X209809040Y-110760262D01*
X210364229Y-110530862D01*
X210364816Y-110530276D01*
X210378144Y-110890460D01*
X210580613Y-111379264D01*
X210847468Y-111477927D01*
X211820395Y-110505000D01*
X212179605Y-110505000D01*
X213152532Y-111477927D01*
X213419387Y-111379264D01*
X213645908Y-110769539D01*
X213621856Y-110119540D01*
X213419387Y-109630736D01*
X213152532Y-109532073D01*
X212179605Y-110505000D01*
X211820395Y-110505000D01*
X211806253Y-110490858D01*
X211985858Y-110311253D01*
X212000000Y-110325395D01*
X212972927Y-109352468D01*
X212874264Y-109085613D01*
X212264539Y-108859092D01*
X211614540Y-108883144D01*
X211125736Y-109085613D01*
X211027074Y-109352466D01*
X211019918Y-109345310D01*
X211020262Y-108950960D01*
X210790862Y-108395771D01*
X210366463Y-107970630D01*
X209811675Y-107740262D01*
X209210960Y-107739738D01*
X208655771Y-107969138D01*
X208230630Y-108393537D01*
X208191406Y-108488000D01*
X207797440Y-108488000D01*
X207797440Y-108350000D01*
X207753162Y-108114683D01*
X207614090Y-107898559D01*
X207401890Y-107753569D01*
X207388803Y-107750919D01*
X207601441Y-107614090D01*
X207746431Y-107401890D01*
X207797440Y-107150000D01*
X207797440Y-105650000D01*
X207753162Y-105414683D01*
X207614090Y-105198559D01*
X207401890Y-105053569D01*
X207262000Y-105025241D01*
X207262000Y-103065630D01*
X207315631Y-103012000D01*
X208485358Y-103012000D01*
X208637714Y-103164622D01*
X209014302Y-103320996D01*
X208655771Y-103469138D01*
X208230630Y-103893537D01*
X208000262Y-104448325D01*
X207999738Y-105049040D01*
X208229138Y-105604229D01*
X208653537Y-106029370D01*
X209208325Y-106259738D01*
X209809040Y-106260262D01*
X210364229Y-106030862D01*
X210789370Y-105606463D01*
X211019738Y-105051675D01*
X211020084Y-104654524D01*
X211027074Y-104647534D01*
X211125736Y-104914387D01*
X211735461Y-105140908D01*
X212385460Y-105116856D01*
X212874264Y-104914387D01*
X212972927Y-104647532D01*
X212000000Y-103674605D01*
X211985858Y-103688748D01*
X211806253Y-103509143D01*
X211820395Y-103495000D01*
X212179605Y-103495000D01*
X213152532Y-104467927D01*
X213419387Y-104369264D01*
X213645908Y-103759539D01*
X213621856Y-103109540D01*
X213419387Y-102620736D01*
X213152532Y-102522073D01*
X212179605Y-103495000D01*
X211820395Y-103495000D01*
X210847468Y-102522073D01*
X210580613Y-102620736D01*
X210354092Y-103230461D01*
X210362925Y-103469161D01*
X209811675Y-103240262D01*
X209680486Y-103240148D01*
X209860689Y-103165689D01*
X210164622Y-102862286D01*
X210329313Y-102465668D01*
X210329420Y-102342468D01*
X211027073Y-102342468D01*
X212000000Y-103315395D01*
X212972927Y-102342468D01*
X212874264Y-102075613D01*
X212264539Y-101849092D01*
X211614540Y-101873144D01*
X211125736Y-102075613D01*
X211027073Y-102342468D01*
X210329420Y-102342468D01*
X210329687Y-102036216D01*
X210165689Y-101639311D01*
X209862286Y-101335378D01*
X209465668Y-101170687D01*
X209036216Y-101170313D01*
X208639311Y-101334311D01*
X208485354Y-101488000D01*
X207013580Y-101488000D01*
X207275787Y-101225792D01*
X207275790Y-101225790D01*
X207467633Y-100938675D01*
X207488180Y-100835378D01*
X207535001Y-100600000D01*
X207535000Y-100599995D01*
X207535000Y-99772325D01*
X207585910Y-99851441D01*
X207798110Y-99996431D01*
X208050000Y-100047440D01*
X208650000Y-100047440D01*
X208885317Y-100003162D01*
X209101441Y-99864090D01*
X209246431Y-99651890D01*
X209297440Y-99400000D01*
X209297440Y-98600000D01*
X209253162Y-98364683D01*
X209235000Y-98336458D01*
X209235000Y-97850005D01*
X209235001Y-97850000D01*
X209167633Y-97511326D01*
X209167633Y-97511325D01*
X209132393Y-97458585D01*
X209134510Y-97460031D01*
X209386400Y-97511040D01*
X211113600Y-97511040D01*
X211348917Y-97466762D01*
X211565041Y-97327690D01*
X211710031Y-97115490D01*
X211761040Y-96863600D01*
X211761040Y-96762000D01*
X212250000Y-96762000D01*
X212541605Y-96703996D01*
X212788815Y-96538815D01*
X213538815Y-95788815D01*
X213703996Y-95541605D01*
X213712272Y-95500000D01*
X213762000Y-95250000D01*
X213762000Y-84000000D01*
X213754279Y-83961185D01*
X213703997Y-83708396D01*
X213538816Y-83461185D01*
X202288815Y-72211185D01*
X202278056Y-72203996D01*
X202041605Y-72046004D01*
X201750000Y-71988000D01*
X148315631Y-71988000D01*
X147579499Y-71251869D01*
X147579687Y-71036216D01*
X147434567Y-70685000D01*
X209396941Y-70685000D01*
X208528485Y-71043838D01*
G36*
X136960000Y-77027959D02*
X137150783Y-76990010D01*
X135374210Y-78766582D01*
X135182367Y-79053697D01*
X135182367Y-79053698D01*
X135114999Y-79392372D01*
X135115000Y-79392377D01*
X135115000Y-82358144D01*
X135085378Y-82387714D01*
X134920687Y-82784332D01*
X134920313Y-83213784D01*
X135084311Y-83610689D01*
X135387714Y-83914622D01*
X135671469Y-84032448D01*
X135670687Y-84034332D01*
X135670313Y-84463784D01*
X135834311Y-84860689D01*
X136137714Y-85164622D01*
X136534332Y-85329313D01*
X136963784Y-85329687D01*
X137360689Y-85165689D01*
X137641868Y-84885000D01*
X137964250Y-84885000D01*
X138123000Y-84726250D01*
X138123000Y-83627000D01*
X138377000Y-83627000D01*
X138377000Y-84726250D01*
X138535750Y-84885000D01*
X139001310Y-84885000D01*
X139234699Y-84788327D01*
X139375000Y-84648025D01*
X139515301Y-84788327D01*
X139748690Y-84885000D01*
X140214250Y-84885000D01*
X140373000Y-84726250D01*
X140373000Y-83627000D01*
X139398750Y-83627000D01*
X139375000Y-83650750D01*
X139351250Y-83627000D01*
X138377000Y-83627000D01*
X138123000Y-83627000D01*
X138103000Y-83627000D01*
X138103000Y-83373000D01*
X138123000Y-83373000D01*
X138123000Y-83353000D01*
X138377000Y-83353000D01*
X138377000Y-83373000D01*
X139351250Y-83373000D01*
X139375000Y-83349250D01*
X139398750Y-83373000D01*
X140373000Y-83373000D01*
X140373000Y-83353000D01*
X140627000Y-83353000D01*
X140627000Y-83373000D01*
X140647000Y-83373000D01*
X140647000Y-83627000D01*
X140627000Y-83627000D01*
X140627000Y-84726250D01*
X140785750Y-84885000D01*
X141251310Y-84885000D01*
X141484699Y-84788327D01*
X141663327Y-84609698D01*
X141760000Y-84376309D01*
X141760000Y-83837630D01*
X143711185Y-85788816D01*
X143711188Y-85788818D01*
X143961184Y-86038815D01*
X144109197Y-86137714D01*
X144208395Y-86203996D01*
X144500000Y-86262000D01*
X153684370Y-86262000D01*
X155461185Y-88038815D01*
X155708395Y-88203996D01*
X156000000Y-88262000D01*
X156170489Y-88262000D01*
X156170313Y-88463784D01*
X156334311Y-88860689D01*
X156637714Y-89164622D01*
X157034332Y-89329313D01*
X157463784Y-89329687D01*
X157860689Y-89165689D01*
X158164622Y-88862286D01*
X158329313Y-88465668D01*
X158329687Y-88036216D01*
X158165689Y-87639311D01*
X157867494Y-87340595D01*
X157996431Y-87151890D01*
X157997012Y-87149016D01*
X158530590Y-87149016D01*
X158586271Y-87379611D01*
X159069078Y-87547622D01*
X159579428Y-87518083D01*
X159913729Y-87379611D01*
X159969410Y-87149016D01*
X159250000Y-86429605D01*
X158530590Y-87149016D01*
X157997012Y-87149016D01*
X158047440Y-86900000D01*
X158047440Y-86737615D01*
X158120389Y-86913729D01*
X158350984Y-86969410D01*
X159070395Y-86250000D01*
X159056252Y-86235858D01*
X159235858Y-86056252D01*
X159250000Y-86070395D01*
X159264142Y-86056252D01*
X159443748Y-86235858D01*
X159429605Y-86250000D01*
X160149016Y-86969410D01*
X160379611Y-86913729D01*
X160547622Y-86430922D01*
X160518083Y-85920572D01*
X160399795Y-85635000D01*
X162675848Y-85635000D01*
X162652560Y-85750000D01*
X162652560Y-87050000D01*
X162696838Y-87285317D01*
X162835910Y-87501441D01*
X162981083Y-87600633D01*
X162848559Y-87685910D01*
X162703569Y-87898110D01*
X162652560Y-88150000D01*
X162652560Y-89450000D01*
X162696838Y-89685317D01*
X162835910Y-89901441D01*
X163048110Y-90046431D01*
X163297329Y-90096899D01*
X163346004Y-90341605D01*
X163425905Y-90461185D01*
X163470256Y-90527560D01*
X163400000Y-90527560D01*
X163164683Y-90571838D01*
X162948559Y-90710910D01*
X162809110Y-90915000D01*
X161450005Y-90915000D01*
X161450000Y-90914999D01*
X161111325Y-90982367D01*
X160824210Y-91174210D01*
X160824208Y-91174213D01*
X160078027Y-91920393D01*
X159986216Y-91920313D01*
X159589311Y-92084311D01*
X159285378Y-92387714D01*
X159120687Y-92784332D01*
X159120313Y-93213784D01*
X159284311Y-93610689D01*
X159587714Y-93914622D01*
X159743894Y-93979474D01*
X159585378Y-94137714D01*
X159420687Y-94534332D01*
X159420313Y-94963784D01*
X159584311Y-95360689D01*
X159887714Y-95664622D01*
X160284332Y-95829313D01*
X160713784Y-95829687D01*
X160807615Y-95790917D01*
X160910910Y-95951441D01*
X160979006Y-95997969D01*
X160836673Y-96140302D01*
X160740000Y-96373691D01*
X160740000Y-96964250D01*
X160898750Y-97123000D01*
X161873000Y-97123000D01*
X161873000Y-97103000D01*
X162127000Y-97103000D01*
X162127000Y-97123000D01*
X163101250Y-97123000D01*
X163260000Y-96964250D01*
X163260000Y-96373691D01*
X163163327Y-96140302D01*
X163022090Y-95999064D01*
X163076441Y-95964090D01*
X163221431Y-95751890D01*
X163245102Y-95635000D01*
X163552962Y-95635000D01*
X163571838Y-95735317D01*
X163710910Y-95951441D01*
X163779006Y-95997969D01*
X163636673Y-96140302D01*
X163540000Y-96373691D01*
X163540000Y-96964250D01*
X163698750Y-97123000D01*
X164673000Y-97123000D01*
X164673000Y-97103000D01*
X164927000Y-97103000D01*
X164927000Y-97123000D01*
X165901250Y-97123000D01*
X166060000Y-96964250D01*
X166060000Y-96373691D01*
X165963327Y-96140302D01*
X165822090Y-95999064D01*
X165876441Y-95964090D01*
X166021431Y-95751890D01*
X166045102Y-95635000D01*
X166146778Y-95635000D01*
X166146838Y-95635317D01*
X166285910Y-95851441D01*
X166498110Y-95996431D01*
X166511197Y-95999081D01*
X166298559Y-96135910D01*
X166153569Y-96348110D01*
X166102560Y-96600000D01*
X166102560Y-98100000D01*
X166146838Y-98335317D01*
X166165938Y-98365000D01*
X165958025Y-98365000D01*
X165963327Y-98359698D01*
X166060000Y-98126309D01*
X166060000Y-97535750D01*
X165901250Y-97377000D01*
X164927000Y-97377000D01*
X164927000Y-97397000D01*
X164673000Y-97397000D01*
X164673000Y-97377000D01*
X163698750Y-97377000D01*
X163540000Y-97535750D01*
X163540000Y-98126309D01*
X163636673Y-98359698D01*
X163641975Y-98365000D01*
X163158025Y-98365000D01*
X163163327Y-98359698D01*
X163260000Y-98126309D01*
X163260000Y-97535750D01*
X163101250Y-97377000D01*
X162127000Y-97377000D01*
X162127000Y-97397000D01*
X161873000Y-97397000D01*
X161873000Y-97377000D01*
X160898750Y-97377000D01*
X160740000Y-97535750D01*
X160740000Y-98126309D01*
X160762317Y-98180188D01*
X160389311Y-98334311D01*
X160085378Y-98637714D01*
X159920687Y-99034332D01*
X159920313Y-99463784D01*
X160084311Y-99860689D01*
X160387714Y-100164622D01*
X160784332Y-100329313D01*
X161213784Y-100329687D01*
X161610689Y-100165689D01*
X161641432Y-100135000D01*
X165865000Y-100135000D01*
X165865000Y-100214250D01*
X166023750Y-100373000D01*
X167123000Y-100373000D01*
X167123000Y-100353000D01*
X167377000Y-100353000D01*
X167377000Y-100373000D01*
X167397000Y-100373000D01*
X167397000Y-100627000D01*
X167377000Y-100627000D01*
X167377000Y-100647000D01*
X167123000Y-100647000D01*
X167123000Y-100627000D01*
X166023750Y-100627000D01*
X165865000Y-100785750D01*
X165865000Y-100838097D01*
X165862286Y-100835378D01*
X165465668Y-100670687D01*
X165036216Y-100670313D01*
X164639311Y-100834311D01*
X164335378Y-101137714D01*
X164170687Y-101534332D01*
X164170313Y-101963784D01*
X164283617Y-102238000D01*
X156500000Y-102238000D01*
X156208395Y-102296004D01*
X155961185Y-102461185D01*
X155211185Y-103211185D01*
X155046004Y-103458395D01*
X154988000Y-103750000D01*
X154988000Y-108500000D01*
X155046004Y-108791605D01*
X155177232Y-108988001D01*
X155211185Y-109038815D01*
X155332689Y-109160319D01*
X155161605Y-109046004D01*
X154870000Y-108988000D01*
X152315631Y-108988000D01*
X150512000Y-107184370D01*
X150512000Y-105089630D01*
X151711184Y-106288815D01*
X151917867Y-106426916D01*
X151958395Y-106453996D01*
X152231730Y-106508366D01*
X152387714Y-106664622D01*
X152784332Y-106829313D01*
X153213784Y-106829687D01*
X153610689Y-106665689D01*
X153914622Y-106362286D01*
X154079313Y-105965668D01*
X154079687Y-105536216D01*
X153915689Y-105139311D01*
X153901644Y-105125241D01*
X153914622Y-105112286D01*
X154079313Y-104715668D01*
X154079687Y-104286216D01*
X153915689Y-103889311D01*
X153612286Y-103585378D01*
X153215668Y-103420687D01*
X152786216Y-103420313D01*
X152405324Y-103577694D01*
X152262000Y-103434370D01*
X152262000Y-101713736D01*
X152373691Y-101760000D01*
X152964250Y-101760000D01*
X153123000Y-101601250D01*
X153123000Y-100627000D01*
X153103000Y-100627000D01*
X153103000Y-100373000D01*
X153123000Y-100373000D01*
X153123000Y-99398750D01*
X152964250Y-99240000D01*
X152373691Y-99240000D01*
X152262000Y-99286264D01*
X152262000Y-98500000D01*
X152203996Y-98208395D01*
X152038815Y-97961185D01*
X151339630Y-97262000D01*
X151434370Y-97262000D01*
X153474060Y-99301690D01*
X153377000Y-99398750D01*
X153377000Y-100373000D01*
X153397000Y-100373000D01*
X153397000Y-100627000D01*
X153377000Y-100627000D01*
X153377000Y-101601250D01*
X153535750Y-101760000D01*
X154126309Y-101760000D01*
X154359698Y-101663327D01*
X154500936Y-101522090D01*
X154535910Y-101576441D01*
X154748110Y-101721431D01*
X155000000Y-101772440D01*
X156500000Y-101772440D01*
X156735317Y-101728162D01*
X156951441Y-101589090D01*
X157090890Y-101385000D01*
X157358144Y-101385000D01*
X157387714Y-101414622D01*
X157784332Y-101579313D01*
X158213784Y-101579687D01*
X158610689Y-101415689D01*
X158914622Y-101112286D01*
X159079313Y-100715668D01*
X159079687Y-100286216D01*
X158915689Y-99889311D01*
X158612286Y-99585378D01*
X158215668Y-99420687D01*
X157786216Y-99420313D01*
X157389311Y-99584311D01*
X157358568Y-99615000D01*
X157087279Y-99615000D01*
X156964090Y-99423559D01*
X156751890Y-99278569D01*
X156568606Y-99241453D01*
X156579313Y-99215668D01*
X156579687Y-98786216D01*
X156415689Y-98389311D01*
X156112286Y-98085378D01*
X155715668Y-97920687D01*
X155286216Y-97920313D01*
X154889311Y-98084311D01*
X154735354Y-98238000D01*
X154565630Y-98238000D01*
X152288815Y-95961185D01*
X152274232Y-95951441D01*
X152041605Y-95796004D01*
X151750000Y-95738000D01*
X146829511Y-95738000D01*
X146829687Y-95536216D01*
X146665689Y-95139311D01*
X146362286Y-94835378D01*
X145965668Y-94670687D01*
X145776849Y-94670523D01*
X147320372Y-93127000D01*
X153184380Y-93127000D01*
X153270456Y-93213226D01*
X153904971Y-93476700D01*
X154592014Y-93477299D01*
X155226989Y-93214933D01*
X155713226Y-92729544D01*
X155976700Y-92095029D01*
X155977299Y-91407986D01*
X155714933Y-90773011D01*
X155229544Y-90286774D01*
X154595029Y-90023300D01*
X153907986Y-90022701D01*
X153273011Y-90285067D01*
X153184924Y-90373000D01*
X146750000Y-90373000D01*
X146223045Y-90477818D01*
X145776314Y-90776314D01*
X142526314Y-94026314D01*
X142227818Y-94473045D01*
X142123000Y-95000000D01*
X142123000Y-98250000D01*
X142227818Y-98776955D01*
X142526314Y-99223686D01*
X143373000Y-100070372D01*
X143373000Y-107250000D01*
X143477818Y-107776955D01*
X143776314Y-108223686D01*
X148487321Y-112934693D01*
X148487321Y-113863600D01*
X148565906Y-114281241D01*
X148762650Y-114586990D01*
X148660925Y-114739232D01*
X148509400Y-115501002D01*
X148509400Y-115578998D01*
X148660925Y-116340768D01*
X149092433Y-116986565D01*
X149094581Y-116988000D01*
X147014642Y-116988000D01*
X146862286Y-116835378D01*
X146465668Y-116670687D01*
X146036216Y-116670313D01*
X145639311Y-116834311D01*
X145512000Y-116961400D01*
X145512000Y-115065630D01*
X145788816Y-114788815D01*
X145788818Y-114788812D01*
X146748131Y-113829499D01*
X146963784Y-113829687D01*
X147360689Y-113665689D01*
X147664622Y-113362286D01*
X147829313Y-112965668D01*
X147829687Y-112536216D01*
X147665689Y-112139311D01*
X147362286Y-111835378D01*
X146965668Y-111670687D01*
X146536216Y-111670313D01*
X146139311Y-111834311D01*
X145835378Y-112137714D01*
X145670687Y-112534332D01*
X145670498Y-112751872D01*
X144711188Y-113711182D01*
X144711185Y-113711184D01*
X144211185Y-114211185D01*
X144046004Y-114458395D01*
X143988000Y-114750000D01*
X143988000Y-117750000D01*
X144046004Y-118041605D01*
X144159314Y-118211185D01*
X144211185Y-118288815D01*
X144711185Y-118788816D01*
X144711188Y-118788818D01*
X145237370Y-119315000D01*
X119603059Y-119315000D01*
X120471515Y-118956162D01*
X120775675Y-118652532D01*
X124022073Y-118652532D01*
X124120736Y-118919387D01*
X124730461Y-119145908D01*
X125380460Y-119121856D01*
X125869264Y-118919387D01*
X125967927Y-118652532D01*
X131032073Y-118652532D01*
X131130736Y-118919387D01*
X131740461Y-119145908D01*
X132390460Y-119121856D01*
X132879264Y-118919387D01*
X132977927Y-118652532D01*
X133772073Y-118652532D01*
X133870736Y-118919387D01*
X134480461Y-119145908D01*
X135130460Y-119121856D01*
X135619264Y-118919387D01*
X135717927Y-118652532D01*
X140782073Y-118652532D01*
X140880736Y-118919387D01*
X141490461Y-119145908D01*
X142140460Y-119121856D01*
X142629264Y-118919387D01*
X142727927Y-118652532D01*
X141755000Y-117679605D01*
X140782073Y-118652532D01*
X135717927Y-118652532D01*
X134745000Y-117679605D01*
X133772073Y-118652532D01*
X132977927Y-118652532D01*
X132005000Y-117679605D01*
X131032073Y-118652532D01*
X125967927Y-118652532D01*
X124995000Y-117679605D01*
X124022073Y-118652532D01*
X120775675Y-118652532D01*
X121452716Y-117976671D01*
X121760493Y-117235461D01*
X123349092Y-117235461D01*
X123373144Y-117885460D01*
X123575613Y-118374264D01*
X123842468Y-118472927D01*
X124815395Y-117500000D01*
X123842468Y-116527073D01*
X123575613Y-116625736D01*
X123349092Y-117235461D01*
X121760493Y-117235461D01*
X121984394Y-116696251D01*
X121985603Y-115309832D01*
X121456162Y-114028485D01*
X121190141Y-113762000D01*
X125362852Y-113762000D01*
X124970630Y-114153537D01*
X124740262Y-114708325D01*
X124739738Y-115309040D01*
X124969138Y-115864229D01*
X124969724Y-115864816D01*
X124609540Y-115878144D01*
X124120736Y-116080613D01*
X124022073Y-116347468D01*
X124995000Y-117320395D01*
X125009143Y-117306253D01*
X125188748Y-117485858D01*
X125174605Y-117500000D01*
X126147532Y-118472927D01*
X126414387Y-118374264D01*
X126640908Y-117764539D01*
X126616856Y-117114540D01*
X126414387Y-116625736D01*
X126147534Y-116527074D01*
X126154690Y-116519918D01*
X126549040Y-116520262D01*
X127104229Y-116290862D01*
X127529370Y-115866463D01*
X127759738Y-115311675D01*
X127760262Y-114710960D01*
X127530862Y-114155771D01*
X127137778Y-113762000D01*
X129862852Y-113762000D01*
X129470630Y-114153537D01*
X129240262Y-114708325D01*
X129239738Y-115309040D01*
X129469138Y-115864229D01*
X129893537Y-116289370D01*
X130448325Y-116519738D01*
X130845476Y-116520084D01*
X130852466Y-116527074D01*
X130585613Y-116625736D01*
X130359092Y-117235461D01*
X130383144Y-117885460D01*
X130585613Y-118374264D01*
X130852468Y-118472927D01*
X131825395Y-117500000D01*
X132184605Y-117500000D01*
X133157532Y-118472927D01*
X133375000Y-118392524D01*
X133592468Y-118472927D01*
X134565395Y-117500000D01*
X133592468Y-116527073D01*
X133375000Y-116607476D01*
X133157532Y-116527073D01*
X132184605Y-117500000D01*
X131825395Y-117500000D01*
X131811253Y-117485858D01*
X131990858Y-117306253D01*
X132005000Y-117320395D01*
X132977927Y-116347468D01*
X132879264Y-116080613D01*
X132269539Y-115854092D01*
X132030839Y-115862925D01*
X132259738Y-115311675D01*
X132260169Y-114817461D01*
X133065630Y-114012000D01*
X134862414Y-114012000D01*
X134720630Y-114153537D01*
X134490262Y-114708325D01*
X134489738Y-115309040D01*
X134719138Y-115864229D01*
X134719724Y-115864816D01*
X134359540Y-115878144D01*
X133870736Y-116080613D01*
X133772073Y-116347468D01*
X134745000Y-117320395D01*
X134759143Y-117306253D01*
X134938748Y-117485858D01*
X134924605Y-117500000D01*
X135897532Y-118472927D01*
X136164387Y-118374264D01*
X136390908Y-117764539D01*
X136366856Y-117114540D01*
X136164387Y-116625736D01*
X135897534Y-116527074D01*
X135904690Y-116519918D01*
X136299040Y-116520262D01*
X136854229Y-116290862D01*
X137279370Y-115866463D01*
X137509738Y-115311675D01*
X137510262Y-114710960D01*
X137280862Y-114155771D01*
X137137342Y-114012000D01*
X139362414Y-114012000D01*
X139220630Y-114153537D01*
X138990262Y-114708325D01*
X138989738Y-115309040D01*
X139219138Y-115864229D01*
X139643537Y-116289370D01*
X140198325Y-116519738D01*
X140595476Y-116520084D01*
X140602466Y-116527074D01*
X140335613Y-116625736D01*
X140109092Y-117235461D01*
X140133144Y-117885460D01*
X140335613Y-118374264D01*
X140602468Y-118472927D01*
X141575395Y-117500000D01*
X141934605Y-117500000D01*
X142907532Y-118472927D01*
X143174387Y-118374264D01*
X143400908Y-117764539D01*
X143376856Y-117114540D01*
X143174387Y-116625736D01*
X142907532Y-116527073D01*
X141934605Y-117500000D01*
X141575395Y-117500000D01*
X141561253Y-117485858D01*
X141740858Y-117306253D01*
X141755000Y-117320395D01*
X142727927Y-116347468D01*
X142629264Y-116080613D01*
X142019539Y-115854092D01*
X141780839Y-115862925D01*
X142009738Y-115311675D01*
X142010262Y-114710960D01*
X141971202Y-114616428D01*
X143038815Y-113548815D01*
X143203996Y-113301605D01*
X143221090Y-113215668D01*
X143262000Y-113010000D01*
X143262000Y-107000000D01*
X143203996Y-106708395D01*
X143174748Y-106664622D01*
X143038815Y-106461184D01*
X138829499Y-102251869D01*
X138829687Y-102036216D01*
X138665689Y-101639311D01*
X138362286Y-101335378D01*
X137965668Y-101170687D01*
X137781885Y-101170527D01*
X137665689Y-100889311D01*
X137362286Y-100585378D01*
X136965668Y-100420687D01*
X136536216Y-100420313D01*
X136139311Y-100584311D01*
X135835378Y-100887714D01*
X135670687Y-101284332D01*
X135670313Y-101713784D01*
X135834311Y-102110689D01*
X135988000Y-102264646D01*
X135988000Y-102986421D01*
X135625790Y-102624210D01*
X135625787Y-102624208D01*
X135375790Y-102374210D01*
X135322608Y-102338675D01*
X135088675Y-102182367D01*
X135032484Y-102171190D01*
X134750000Y-102114999D01*
X134749995Y-102115000D01*
X131829401Y-102115000D01*
X131829687Y-101786216D01*
X131665689Y-101389311D01*
X131512000Y-101235354D01*
X131512000Y-98565630D01*
X133065630Y-97012000D01*
X133711312Y-97012000D01*
X133585378Y-97137714D01*
X133420687Y-97534332D01*
X133420313Y-97963784D01*
X133584311Y-98360689D01*
X133887714Y-98664622D01*
X134284332Y-98829313D01*
X134713784Y-98829687D01*
X135110689Y-98665689D01*
X135141432Y-98635000D01*
X139858144Y-98635000D01*
X139887714Y-98664622D01*
X140284332Y-98829313D01*
X140713784Y-98829687D01*
X141110689Y-98665689D01*
X141414622Y-98362286D01*
X141579313Y-97965668D01*
X141579687Y-97536216D01*
X141415689Y-97139311D01*
X141385000Y-97108568D01*
X141385000Y-93641856D01*
X141414622Y-93612286D01*
X141579313Y-93215668D01*
X141579687Y-92786216D01*
X141415689Y-92389311D01*
X141385000Y-92358568D01*
X141385000Y-92087279D01*
X141576441Y-91964090D01*
X141721431Y-91751890D01*
X141745102Y-91635000D01*
X141752962Y-91635000D01*
X141771838Y-91735317D01*
X141910910Y-91951441D01*
X142123110Y-92096431D01*
X142375000Y-92147440D01*
X143625000Y-92147440D01*
X143860317Y-92103162D01*
X144076441Y-91964090D01*
X144221431Y-91751890D01*
X144272440Y-91500000D01*
X144272440Y-90000000D01*
X144228162Y-89764683D01*
X144089090Y-89548559D01*
X144020994Y-89502031D01*
X144163327Y-89359698D01*
X144260000Y-89126309D01*
X144260000Y-88535750D01*
X144101250Y-88377000D01*
X143127000Y-88377000D01*
X143127000Y-88397000D01*
X142873000Y-88397000D01*
X142873000Y-88377000D01*
X141898750Y-88377000D01*
X141750000Y-88525750D01*
X141601250Y-88377000D01*
X140627000Y-88377000D01*
X140627000Y-88397000D01*
X140373000Y-88397000D01*
X140373000Y-88377000D01*
X139398750Y-88377000D01*
X139240000Y-88535750D01*
X139240000Y-89126309D01*
X139319275Y-89317695D01*
X138885000Y-88883420D01*
X138885000Y-87391856D01*
X138903196Y-87373691D01*
X139240000Y-87373691D01*
X139240000Y-87964250D01*
X139398750Y-88123000D01*
X140373000Y-88123000D01*
X140373000Y-87023750D01*
X140627000Y-87023750D01*
X140627000Y-88123000D01*
X141601250Y-88123000D01*
X141750000Y-87974250D01*
X141898750Y-88123000D01*
X142873000Y-88123000D01*
X142873000Y-87023750D01*
X143127000Y-87023750D01*
X143127000Y-88123000D01*
X144101250Y-88123000D01*
X144260000Y-87964250D01*
X144260000Y-87373691D01*
X144163327Y-87140302D01*
X143984699Y-86961673D01*
X143751310Y-86865000D01*
X143285750Y-86865000D01*
X143127000Y-87023750D01*
X142873000Y-87023750D01*
X142714250Y-86865000D01*
X142248690Y-86865000D01*
X142015301Y-86961673D01*
X141836673Y-87140302D01*
X141750000Y-87349549D01*
X141663327Y-87140302D01*
X141484699Y-86961673D01*
X141251310Y-86865000D01*
X140785750Y-86865000D01*
X140627000Y-87023750D01*
X140373000Y-87023750D01*
X140214250Y-86865000D01*
X139748690Y-86865000D01*
X139515301Y-86961673D01*
X139336673Y-87140302D01*
X139240000Y-87373691D01*
X138903196Y-87373691D01*
X138914622Y-87362286D01*
X139079313Y-86965668D01*
X139079687Y-86536216D01*
X138915689Y-86139311D01*
X138612286Y-85835378D01*
X138215668Y-85670687D01*
X137786216Y-85670313D01*
X137389311Y-85834311D01*
X137085378Y-86137714D01*
X136999993Y-86343342D01*
X136915689Y-86139311D01*
X136612286Y-85835378D01*
X136215668Y-85670687D01*
X135786216Y-85670313D01*
X135389311Y-85834311D01*
X135235354Y-85988000D01*
X125716230Y-85988000D01*
X125829313Y-85715668D01*
X125829687Y-85286216D01*
X125665689Y-84889311D01*
X125512000Y-84735354D01*
X125512000Y-82188736D01*
X125623690Y-82235000D01*
X127214250Y-82235000D01*
X127373000Y-82076250D01*
X127373000Y-80427000D01*
X127627000Y-80427000D01*
X127627000Y-82076250D01*
X127785750Y-82235000D01*
X129376310Y-82235000D01*
X129609699Y-82138327D01*
X129788327Y-81959698D01*
X129885000Y-81726309D01*
X129885000Y-80585750D01*
X129726250Y-80427000D01*
X127627000Y-80427000D01*
X127373000Y-80427000D01*
X127353000Y-80427000D01*
X127353000Y-80173000D01*
X127373000Y-80173000D01*
X127373000Y-80153000D01*
X127627000Y-80153000D01*
X127627000Y-80173000D01*
X129726250Y-80173000D01*
X129885000Y-80014250D01*
X129885000Y-78873691D01*
X129838736Y-78762000D01*
X133000000Y-78762000D01*
X133291605Y-78703996D01*
X133538815Y-78538815D01*
X134315631Y-77762000D01*
X135250000Y-77762000D01*
X135541605Y-77703996D01*
X135788815Y-77538815D01*
X136409227Y-76918403D01*
X136960000Y-77027959D01*
X136960000Y-77027959D01*
G37*
X136960000Y-77027959D02*
X137150783Y-76990010D01*
X135374210Y-78766582D01*
X135182367Y-79053697D01*
X135182367Y-79053698D01*
X135114999Y-79392372D01*
X135115000Y-79392377D01*
X135115000Y-82358144D01*
X135085378Y-82387714D01*
X134920687Y-82784332D01*
X134920313Y-83213784D01*
X135084311Y-83610689D01*
X135387714Y-83914622D01*
X135671469Y-84032448D01*
X135670687Y-84034332D01*
X135670313Y-84463784D01*
X135834311Y-84860689D01*
X136137714Y-85164622D01*
X136534332Y-85329313D01*
X136963784Y-85329687D01*
X137360689Y-85165689D01*
X137641868Y-84885000D01*
X137964250Y-84885000D01*
X138123000Y-84726250D01*
X138123000Y-83627000D01*
X138377000Y-83627000D01*
X138377000Y-84726250D01*
X138535750Y-84885000D01*
X139001310Y-84885000D01*
X139234699Y-84788327D01*
X139375000Y-84648025D01*
X139515301Y-84788327D01*
X139748690Y-84885000D01*
X140214250Y-84885000D01*
X140373000Y-84726250D01*
X140373000Y-83627000D01*
X139398750Y-83627000D01*
X139375000Y-83650750D01*
X139351250Y-83627000D01*
X138377000Y-83627000D01*
X138123000Y-83627000D01*
X138103000Y-83627000D01*
X138103000Y-83373000D01*
X138123000Y-83373000D01*
X138123000Y-83353000D01*
X138377000Y-83353000D01*
X138377000Y-83373000D01*
X139351250Y-83373000D01*
X139375000Y-83349250D01*
X139398750Y-83373000D01*
X140373000Y-83373000D01*
X140373000Y-83353000D01*
X140627000Y-83353000D01*
X140627000Y-83373000D01*
X140647000Y-83373000D01*
X140647000Y-83627000D01*
X140627000Y-83627000D01*
X140627000Y-84726250D01*
X140785750Y-84885000D01*
X141251310Y-84885000D01*
X141484699Y-84788327D01*
X141663327Y-84609698D01*
X141760000Y-84376309D01*
X141760000Y-83837630D01*
X143711185Y-85788816D01*
X143711188Y-85788818D01*
X143961184Y-86038815D01*
X144109197Y-86137714D01*
X144208395Y-86203996D01*
X144500000Y-86262000D01*
X153684370Y-86262000D01*
X155461185Y-88038815D01*
X155708395Y-88203996D01*
X156000000Y-88262000D01*
X156170489Y-88262000D01*
X156170313Y-88463784D01*
X156334311Y-88860689D01*
X156637714Y-89164622D01*
X157034332Y-89329313D01*
X157463784Y-89329687D01*
X157860689Y-89165689D01*
X158164622Y-88862286D01*
X158329313Y-88465668D01*
X158329687Y-88036216D01*
X158165689Y-87639311D01*
X157867494Y-87340595D01*
X157996431Y-87151890D01*
X157997012Y-87149016D01*
X158530590Y-87149016D01*
X158586271Y-87379611D01*
X159069078Y-87547622D01*
X159579428Y-87518083D01*
X159913729Y-87379611D01*
X159969410Y-87149016D01*
X159250000Y-86429605D01*
X158530590Y-87149016D01*
X157997012Y-87149016D01*
X158047440Y-86900000D01*
X158047440Y-86737615D01*
X158120389Y-86913729D01*
X158350984Y-86969410D01*
X159070395Y-86250000D01*
X159056252Y-86235858D01*
X159235858Y-86056252D01*
X159250000Y-86070395D01*
X159264142Y-86056252D01*
X159443748Y-86235858D01*
X159429605Y-86250000D01*
X160149016Y-86969410D01*
X160379611Y-86913729D01*
X160547622Y-86430922D01*
X160518083Y-85920572D01*
X160399795Y-85635000D01*
X162675848Y-85635000D01*
X162652560Y-85750000D01*
X162652560Y-87050000D01*
X162696838Y-87285317D01*
X162835910Y-87501441D01*
X162981083Y-87600633D01*
X162848559Y-87685910D01*
X162703569Y-87898110D01*
X162652560Y-88150000D01*
X162652560Y-89450000D01*
X162696838Y-89685317D01*
X162835910Y-89901441D01*
X163048110Y-90046431D01*
X163297329Y-90096899D01*
X163346004Y-90341605D01*
X163425905Y-90461185D01*
X163470256Y-90527560D01*
X163400000Y-90527560D01*
X163164683Y-90571838D01*
X162948559Y-90710910D01*
X162809110Y-90915000D01*
X161450005Y-90915000D01*
X161450000Y-90914999D01*
X161111325Y-90982367D01*
X160824210Y-91174210D01*
X160824208Y-91174213D01*
X160078027Y-91920393D01*
X159986216Y-91920313D01*
X159589311Y-92084311D01*
X159285378Y-92387714D01*
X159120687Y-92784332D01*
X159120313Y-93213784D01*
X159284311Y-93610689D01*
X159587714Y-93914622D01*
X159743894Y-93979474D01*
X159585378Y-94137714D01*
X159420687Y-94534332D01*
X159420313Y-94963784D01*
X159584311Y-95360689D01*
X159887714Y-95664622D01*
X160284332Y-95829313D01*
X160713784Y-95829687D01*
X160807615Y-95790917D01*
X160910910Y-95951441D01*
X160979006Y-95997969D01*
X160836673Y-96140302D01*
X160740000Y-96373691D01*
X160740000Y-96964250D01*
X160898750Y-97123000D01*
X161873000Y-97123000D01*
X161873000Y-97103000D01*
X162127000Y-97103000D01*
X162127000Y-97123000D01*
X163101250Y-97123000D01*
X163260000Y-96964250D01*
X163260000Y-96373691D01*
X163163327Y-96140302D01*
X163022090Y-95999064D01*
X163076441Y-95964090D01*
X163221431Y-95751890D01*
X163245102Y-95635000D01*
X163552962Y-95635000D01*
X163571838Y-95735317D01*
X163710910Y-95951441D01*
X163779006Y-95997969D01*
X163636673Y-96140302D01*
X163540000Y-96373691D01*
X163540000Y-96964250D01*
X163698750Y-97123000D01*
X164673000Y-97123000D01*
X164673000Y-97103000D01*
X164927000Y-97103000D01*
X164927000Y-97123000D01*
X165901250Y-97123000D01*
X166060000Y-96964250D01*
X166060000Y-96373691D01*
X165963327Y-96140302D01*
X165822090Y-95999064D01*
X165876441Y-95964090D01*
X166021431Y-95751890D01*
X166045102Y-95635000D01*
X166146778Y-95635000D01*
X166146838Y-95635317D01*
X166285910Y-95851441D01*
X166498110Y-95996431D01*
X166511197Y-95999081D01*
X166298559Y-96135910D01*
X166153569Y-96348110D01*
X166102560Y-96600000D01*
X166102560Y-98100000D01*
X166146838Y-98335317D01*
X166165938Y-98365000D01*
X165958025Y-98365000D01*
X165963327Y-98359698D01*
X166060000Y-98126309D01*
X166060000Y-97535750D01*
X165901250Y-97377000D01*
X164927000Y-97377000D01*
X164927000Y-97397000D01*
X164673000Y-97397000D01*
X164673000Y-97377000D01*
X163698750Y-97377000D01*
X163540000Y-97535750D01*
X163540000Y-98126309D01*
X163636673Y-98359698D01*
X163641975Y-98365000D01*
X163158025Y-98365000D01*
X163163327Y-98359698D01*
X163260000Y-98126309D01*
X163260000Y-97535750D01*
X163101250Y-97377000D01*
X162127000Y-97377000D01*
X162127000Y-97397000D01*
X161873000Y-97397000D01*
X161873000Y-97377000D01*
X160898750Y-97377000D01*
X160740000Y-97535750D01*
X160740000Y-98126309D01*
X160762317Y-98180188D01*
X160389311Y-98334311D01*
X160085378Y-98637714D01*
X159920687Y-99034332D01*
X159920313Y-99463784D01*
X160084311Y-99860689D01*
X160387714Y-100164622D01*
X160784332Y-100329313D01*
X161213784Y-100329687D01*
X161610689Y-100165689D01*
X161641432Y-100135000D01*
X165865000Y-100135000D01*
X165865000Y-100214250D01*
X166023750Y-100373000D01*
X167123000Y-100373000D01*
X167123000Y-100353000D01*
X167377000Y-100353000D01*
X167377000Y-100373000D01*
X167397000Y-100373000D01*
X167397000Y-100627000D01*
X167377000Y-100627000D01*
X167377000Y-100647000D01*
X167123000Y-100647000D01*
X167123000Y-100627000D01*
X166023750Y-100627000D01*
X165865000Y-100785750D01*
X165865000Y-100838097D01*
X165862286Y-100835378D01*
X165465668Y-100670687D01*
X165036216Y-100670313D01*
X164639311Y-100834311D01*
X164335378Y-101137714D01*
X164170687Y-101534332D01*
X164170313Y-101963784D01*
X164283617Y-102238000D01*
X156500000Y-102238000D01*
X156208395Y-102296004D01*
X155961185Y-102461185D01*
X155211185Y-103211185D01*
X155046004Y-103458395D01*
X154988000Y-103750000D01*
X154988000Y-108500000D01*
X155046004Y-108791605D01*
X155177232Y-108988001D01*
X155211185Y-109038815D01*
X155332689Y-109160319D01*
X155161605Y-109046004D01*
X154870000Y-108988000D01*
X152315631Y-108988000D01*
X150512000Y-107184370D01*
X150512000Y-105089630D01*
X151711184Y-106288815D01*
X151917867Y-106426916D01*
X151958395Y-106453996D01*
X152231730Y-106508366D01*
X152387714Y-106664622D01*
X152784332Y-106829313D01*
X153213784Y-106829687D01*
X153610689Y-106665689D01*
X153914622Y-106362286D01*
X154079313Y-105965668D01*
X154079687Y-105536216D01*
X153915689Y-105139311D01*
X153901644Y-105125241D01*
X153914622Y-105112286D01*
X154079313Y-104715668D01*
X154079687Y-104286216D01*
X153915689Y-103889311D01*
X153612286Y-103585378D01*
X153215668Y-103420687D01*
X152786216Y-103420313D01*
X152405324Y-103577694D01*
X152262000Y-103434370D01*
X152262000Y-101713736D01*
X152373691Y-101760000D01*
X152964250Y-101760000D01*
X153123000Y-101601250D01*
X153123000Y-100627000D01*
X153103000Y-100627000D01*
X153103000Y-100373000D01*
X153123000Y-100373000D01*
X153123000Y-99398750D01*
X152964250Y-99240000D01*
X152373691Y-99240000D01*
X152262000Y-99286264D01*
X152262000Y-98500000D01*
X152203996Y-98208395D01*
X152038815Y-97961185D01*
X151339630Y-97262000D01*
X151434370Y-97262000D01*
X153474060Y-99301690D01*
X153377000Y-99398750D01*
X153377000Y-100373000D01*
X153397000Y-100373000D01*
X153397000Y-100627000D01*
X153377000Y-100627000D01*
X153377000Y-101601250D01*
X153535750Y-101760000D01*
X154126309Y-101760000D01*
X154359698Y-101663327D01*
X154500936Y-101522090D01*
X154535910Y-101576441D01*
X154748110Y-101721431D01*
X155000000Y-101772440D01*
X156500000Y-101772440D01*
X156735317Y-101728162D01*
X156951441Y-101589090D01*
X157090890Y-101385000D01*
X157358144Y-101385000D01*
X157387714Y-101414622D01*
X157784332Y-101579313D01*
X158213784Y-101579687D01*
X158610689Y-101415689D01*
X158914622Y-101112286D01*
X159079313Y-100715668D01*
X159079687Y-100286216D01*
X158915689Y-99889311D01*
X158612286Y-99585378D01*
X158215668Y-99420687D01*
X157786216Y-99420313D01*
X157389311Y-99584311D01*
X157358568Y-99615000D01*
X157087279Y-99615000D01*
X156964090Y-99423559D01*
X156751890Y-99278569D01*
X156568606Y-99241453D01*
X156579313Y-99215668D01*
X156579687Y-98786216D01*
X156415689Y-98389311D01*
X156112286Y-98085378D01*
X155715668Y-97920687D01*
X155286216Y-97920313D01*
X154889311Y-98084311D01*
X154735354Y-98238000D01*
X154565630Y-98238000D01*
X152288815Y-95961185D01*
X152274232Y-95951441D01*
X152041605Y-95796004D01*
X151750000Y-95738000D01*
X146829511Y-95738000D01*
X146829687Y-95536216D01*
X146665689Y-95139311D01*
X146362286Y-94835378D01*
X145965668Y-94670687D01*
X145776849Y-94670523D01*
X147320372Y-93127000D01*
X153184380Y-93127000D01*
X153270456Y-93213226D01*
X153904971Y-93476700D01*
X154592014Y-93477299D01*
X155226989Y-93214933D01*
X155713226Y-92729544D01*
X155976700Y-92095029D01*
X155977299Y-91407986D01*
X155714933Y-90773011D01*
X155229544Y-90286774D01*
X154595029Y-90023300D01*
X153907986Y-90022701D01*
X153273011Y-90285067D01*
X153184924Y-90373000D01*
X146750000Y-90373000D01*
X146223045Y-90477818D01*
X145776314Y-90776314D01*
X142526314Y-94026314D01*
X142227818Y-94473045D01*
X142123000Y-95000000D01*
X142123000Y-98250000D01*
X142227818Y-98776955D01*
X142526314Y-99223686D01*
X143373000Y-100070372D01*
X143373000Y-107250000D01*
X143477818Y-107776955D01*
X143776314Y-108223686D01*
X148487321Y-112934693D01*
X148487321Y-113863600D01*
X148565906Y-114281241D01*
X148762650Y-114586990D01*
X148660925Y-114739232D01*
X148509400Y-115501002D01*
X148509400Y-115578998D01*
X148660925Y-116340768D01*
X149092433Y-116986565D01*
X149094581Y-116988000D01*
X147014642Y-116988000D01*
X146862286Y-116835378D01*
X146465668Y-116670687D01*
X146036216Y-116670313D01*
X145639311Y-116834311D01*
X145512000Y-116961400D01*
X145512000Y-115065630D01*
X145788816Y-114788815D01*
X145788818Y-114788812D01*
X146748131Y-113829499D01*
X146963784Y-113829687D01*
X147360689Y-113665689D01*
X147664622Y-113362286D01*
X147829313Y-112965668D01*
X147829687Y-112536216D01*
X147665689Y-112139311D01*
X147362286Y-111835378D01*
X146965668Y-111670687D01*
X146536216Y-111670313D01*
X146139311Y-111834311D01*
X145835378Y-112137714D01*
X145670687Y-112534332D01*
X145670498Y-112751872D01*
X144711188Y-113711182D01*
X144711185Y-113711184D01*
X144211185Y-114211185D01*
X144046004Y-114458395D01*
X143988000Y-114750000D01*
X143988000Y-117750000D01*
X144046004Y-118041605D01*
X144159314Y-118211185D01*
X144211185Y-118288815D01*
X144711185Y-118788816D01*
X144711188Y-118788818D01*
X145237370Y-119315000D01*
X119603059Y-119315000D01*
X120471515Y-118956162D01*
X120775675Y-118652532D01*
X124022073Y-118652532D01*
X124120736Y-118919387D01*
X124730461Y-119145908D01*
X125380460Y-119121856D01*
X125869264Y-118919387D01*
X125967927Y-118652532D01*
X131032073Y-118652532D01*
X131130736Y-118919387D01*
X131740461Y-119145908D01*
X132390460Y-119121856D01*
X132879264Y-118919387D01*
X132977927Y-118652532D01*
X133772073Y-118652532D01*
X133870736Y-118919387D01*
X134480461Y-119145908D01*
X135130460Y-119121856D01*
X135619264Y-118919387D01*
X135717927Y-118652532D01*
X140782073Y-118652532D01*
X140880736Y-118919387D01*
X141490461Y-119145908D01*
X142140460Y-119121856D01*
X142629264Y-118919387D01*
X142727927Y-118652532D01*
X141755000Y-117679605D01*
X140782073Y-118652532D01*
X135717927Y-118652532D01*
X134745000Y-117679605D01*
X133772073Y-118652532D01*
X132977927Y-118652532D01*
X132005000Y-117679605D01*
X131032073Y-118652532D01*
X125967927Y-118652532D01*
X124995000Y-117679605D01*
X124022073Y-118652532D01*
X120775675Y-118652532D01*
X121452716Y-117976671D01*
X121760493Y-117235461D01*
X123349092Y-117235461D01*
X123373144Y-117885460D01*
X123575613Y-118374264D01*
X123842468Y-118472927D01*
X124815395Y-117500000D01*
X123842468Y-116527073D01*
X123575613Y-116625736D01*
X123349092Y-117235461D01*
X121760493Y-117235461D01*
X121984394Y-116696251D01*
X121985603Y-115309832D01*
X121456162Y-114028485D01*
X121190141Y-113762000D01*
X125362852Y-113762000D01*
X124970630Y-114153537D01*
X124740262Y-114708325D01*
X124739738Y-115309040D01*
X124969138Y-115864229D01*
X124969724Y-115864816D01*
X124609540Y-115878144D01*
X124120736Y-116080613D01*
X124022073Y-116347468D01*
X124995000Y-117320395D01*
X125009143Y-117306253D01*
X125188748Y-117485858D01*
X125174605Y-117500000D01*
X126147532Y-118472927D01*
X126414387Y-118374264D01*
X126640908Y-117764539D01*
X126616856Y-117114540D01*
X126414387Y-116625736D01*
X126147534Y-116527074D01*
X126154690Y-116519918D01*
X126549040Y-116520262D01*
X127104229Y-116290862D01*
X127529370Y-115866463D01*
X127759738Y-115311675D01*
X127760262Y-114710960D01*
X127530862Y-114155771D01*
X127137778Y-113762000D01*
X129862852Y-113762000D01*
X129470630Y-114153537D01*
X129240262Y-114708325D01*
X129239738Y-115309040D01*
X129469138Y-115864229D01*
X129893537Y-116289370D01*
X130448325Y-116519738D01*
X130845476Y-116520084D01*
X130852466Y-116527074D01*
X130585613Y-116625736D01*
X130359092Y-117235461D01*
X130383144Y-117885460D01*
X130585613Y-118374264D01*
X130852468Y-118472927D01*
X131825395Y-117500000D01*
X132184605Y-117500000D01*
X133157532Y-118472927D01*
X133375000Y-118392524D01*
X133592468Y-118472927D01*
X134565395Y-117500000D01*
X133592468Y-116527073D01*
X133375000Y-116607476D01*
X133157532Y-116527073D01*
X132184605Y-117500000D01*
X131825395Y-117500000D01*
X131811253Y-117485858D01*
X131990858Y-117306253D01*
X132005000Y-117320395D01*
X132977927Y-116347468D01*
X132879264Y-116080613D01*
X132269539Y-115854092D01*
X132030839Y-115862925D01*
X132259738Y-115311675D01*
X132260169Y-114817461D01*
X133065630Y-114012000D01*
X134862414Y-114012000D01*
X134720630Y-114153537D01*
X134490262Y-114708325D01*
X134489738Y-115309040D01*
X134719138Y-115864229D01*
X134719724Y-115864816D01*
X134359540Y-115878144D01*
X133870736Y-116080613D01*
X133772073Y-116347468D01*
X134745000Y-117320395D01*
X134759143Y-117306253D01*
X134938748Y-117485858D01*
X134924605Y-117500000D01*
X135897532Y-118472927D01*
X136164387Y-118374264D01*
X136390908Y-117764539D01*
X136366856Y-117114540D01*
X136164387Y-116625736D01*
X135897534Y-116527074D01*
X135904690Y-116519918D01*
X136299040Y-116520262D01*
X136854229Y-116290862D01*
X137279370Y-115866463D01*
X137509738Y-115311675D01*
X137510262Y-114710960D01*
X137280862Y-114155771D01*
X137137342Y-114012000D01*
X139362414Y-114012000D01*
X139220630Y-114153537D01*
X138990262Y-114708325D01*
X138989738Y-115309040D01*
X139219138Y-115864229D01*
X139643537Y-116289370D01*
X140198325Y-116519738D01*
X140595476Y-116520084D01*
X140602466Y-116527074D01*
X140335613Y-116625736D01*
X140109092Y-117235461D01*
X140133144Y-117885460D01*
X140335613Y-118374264D01*
X140602468Y-118472927D01*
X141575395Y-117500000D01*
X141934605Y-117500000D01*
X142907532Y-118472927D01*
X143174387Y-118374264D01*
X143400908Y-117764539D01*
X143376856Y-117114540D01*
X143174387Y-116625736D01*
X142907532Y-116527073D01*
X141934605Y-117500000D01*
X141575395Y-117500000D01*
X141561253Y-117485858D01*
X141740858Y-117306253D01*
X141755000Y-117320395D01*
X142727927Y-116347468D01*
X142629264Y-116080613D01*
X142019539Y-115854092D01*
X141780839Y-115862925D01*
X142009738Y-115311675D01*
X142010262Y-114710960D01*
X141971202Y-114616428D01*
X143038815Y-113548815D01*
X143203996Y-113301605D01*
X143221090Y-113215668D01*
X143262000Y-113010000D01*
X143262000Y-107000000D01*
X143203996Y-106708395D01*
X143174748Y-106664622D01*
X143038815Y-106461184D01*
X138829499Y-102251869D01*
X138829687Y-102036216D01*
X138665689Y-101639311D01*
X138362286Y-101335378D01*
X137965668Y-101170687D01*
X137781885Y-101170527D01*
X137665689Y-100889311D01*
X137362286Y-100585378D01*
X136965668Y-100420687D01*
X136536216Y-100420313D01*
X136139311Y-100584311D01*
X135835378Y-100887714D01*
X135670687Y-101284332D01*
X135670313Y-101713784D01*
X135834311Y-102110689D01*
X135988000Y-102264646D01*
X135988000Y-102986421D01*
X135625790Y-102624210D01*
X135625787Y-102624208D01*
X135375790Y-102374210D01*
X135322608Y-102338675D01*
X135088675Y-102182367D01*
X135032484Y-102171190D01*
X134750000Y-102114999D01*
X134749995Y-102115000D01*
X131829401Y-102115000D01*
X131829687Y-101786216D01*
X131665689Y-101389311D01*
X131512000Y-101235354D01*
X131512000Y-98565630D01*
X133065630Y-97012000D01*
X133711312Y-97012000D01*
X133585378Y-97137714D01*
X133420687Y-97534332D01*
X133420313Y-97963784D01*
X133584311Y-98360689D01*
X133887714Y-98664622D01*
X134284332Y-98829313D01*
X134713784Y-98829687D01*
X135110689Y-98665689D01*
X135141432Y-98635000D01*
X139858144Y-98635000D01*
X139887714Y-98664622D01*
X140284332Y-98829313D01*
X140713784Y-98829687D01*
X141110689Y-98665689D01*
X141414622Y-98362286D01*
X141579313Y-97965668D01*
X141579687Y-97536216D01*
X141415689Y-97139311D01*
X141385000Y-97108568D01*
X141385000Y-93641856D01*
X141414622Y-93612286D01*
X141579313Y-93215668D01*
X141579687Y-92786216D01*
X141415689Y-92389311D01*
X141385000Y-92358568D01*
X141385000Y-92087279D01*
X141576441Y-91964090D01*
X141721431Y-91751890D01*
X141745102Y-91635000D01*
X141752962Y-91635000D01*
X141771838Y-91735317D01*
X141910910Y-91951441D01*
X142123110Y-92096431D01*
X142375000Y-92147440D01*
X143625000Y-92147440D01*
X143860317Y-92103162D01*
X144076441Y-91964090D01*
X144221431Y-91751890D01*
X144272440Y-91500000D01*
X144272440Y-90000000D01*
X144228162Y-89764683D01*
X144089090Y-89548559D01*
X144020994Y-89502031D01*
X144163327Y-89359698D01*
X144260000Y-89126309D01*
X144260000Y-88535750D01*
X144101250Y-88377000D01*
X143127000Y-88377000D01*
X143127000Y-88397000D01*
X142873000Y-88397000D01*
X142873000Y-88377000D01*
X141898750Y-88377000D01*
X141750000Y-88525750D01*
X141601250Y-88377000D01*
X140627000Y-88377000D01*
X140627000Y-88397000D01*
X140373000Y-88397000D01*
X140373000Y-88377000D01*
X139398750Y-88377000D01*
X139240000Y-88535750D01*
X139240000Y-89126309D01*
X139319275Y-89317695D01*
X138885000Y-88883420D01*
X138885000Y-87391856D01*
X138903196Y-87373691D01*
X139240000Y-87373691D01*
X139240000Y-87964250D01*
X139398750Y-88123000D01*
X140373000Y-88123000D01*
X140373000Y-87023750D01*
X140627000Y-87023750D01*
X140627000Y-88123000D01*
X141601250Y-88123000D01*
X141750000Y-87974250D01*
X141898750Y-88123000D01*
X142873000Y-88123000D01*
X142873000Y-87023750D01*
X143127000Y-87023750D01*
X143127000Y-88123000D01*
X144101250Y-88123000D01*
X144260000Y-87964250D01*
X144260000Y-87373691D01*
X144163327Y-87140302D01*
X143984699Y-86961673D01*
X143751310Y-86865000D01*
X143285750Y-86865000D01*
X143127000Y-87023750D01*
X142873000Y-87023750D01*
X142714250Y-86865000D01*
X142248690Y-86865000D01*
X142015301Y-86961673D01*
X141836673Y-87140302D01*
X141750000Y-87349549D01*
X141663327Y-87140302D01*
X141484699Y-86961673D01*
X141251310Y-86865000D01*
X140785750Y-86865000D01*
X140627000Y-87023750D01*
X140373000Y-87023750D01*
X140214250Y-86865000D01*
X139748690Y-86865000D01*
X139515301Y-86961673D01*
X139336673Y-87140302D01*
X139240000Y-87373691D01*
X138903196Y-87373691D01*
X138914622Y-87362286D01*
X139079313Y-86965668D01*
X139079687Y-86536216D01*
X138915689Y-86139311D01*
X138612286Y-85835378D01*
X138215668Y-85670687D01*
X137786216Y-85670313D01*
X137389311Y-85834311D01*
X137085378Y-86137714D01*
X136999993Y-86343342D01*
X136915689Y-86139311D01*
X136612286Y-85835378D01*
X136215668Y-85670687D01*
X135786216Y-85670313D01*
X135389311Y-85834311D01*
X135235354Y-85988000D01*
X125716230Y-85988000D01*
X125829313Y-85715668D01*
X125829687Y-85286216D01*
X125665689Y-84889311D01*
X125512000Y-84735354D01*
X125512000Y-82188736D01*
X125623690Y-82235000D01*
X127214250Y-82235000D01*
X127373000Y-82076250D01*
X127373000Y-80427000D01*
X127627000Y-80427000D01*
X127627000Y-82076250D01*
X127785750Y-82235000D01*
X129376310Y-82235000D01*
X129609699Y-82138327D01*
X129788327Y-81959698D01*
X129885000Y-81726309D01*
X129885000Y-80585750D01*
X129726250Y-80427000D01*
X127627000Y-80427000D01*
X127373000Y-80427000D01*
X127353000Y-80427000D01*
X127353000Y-80173000D01*
X127373000Y-80173000D01*
X127373000Y-80153000D01*
X127627000Y-80153000D01*
X127627000Y-80173000D01*
X129726250Y-80173000D01*
X129885000Y-80014250D01*
X129885000Y-78873691D01*
X129838736Y-78762000D01*
X133000000Y-78762000D01*
X133291605Y-78703996D01*
X133538815Y-78538815D01*
X134315631Y-77762000D01*
X135250000Y-77762000D01*
X135541605Y-77703996D01*
X135788815Y-77538815D01*
X136409227Y-76918403D01*
X136960000Y-77027959D01*
G36*
X168535910Y-101576441D02*
X168748110Y-101721431D01*
X169000000Y-101772440D01*
X170175625Y-101772440D01*
X170170687Y-101784332D01*
X170170313Y-102213784D01*
X170334311Y-102610689D01*
X170637714Y-102914622D01*
X171034332Y-103079313D01*
X171463784Y-103079687D01*
X171860689Y-102915689D01*
X171988000Y-102788600D01*
X171988000Y-104235358D01*
X171835378Y-104387714D01*
X171670687Y-104784332D01*
X171670313Y-105213784D01*
X171834311Y-105610689D01*
X172137714Y-105914622D01*
X172534332Y-106079313D01*
X172963784Y-106079687D01*
X173360689Y-105915689D01*
X173454839Y-105821703D01*
X173454839Y-109950000D01*
X173519478Y-110293526D01*
X173722501Y-110609033D01*
X174032279Y-110820696D01*
X174400000Y-110895161D01*
X178478476Y-110895161D01*
X178420687Y-111034332D01*
X178420313Y-111463784D01*
X178435856Y-111501400D01*
X178312998Y-111501400D01*
X178312998Y-111666182D01*
X178080974Y-111545042D01*
X177665053Y-111717312D01*
X177233179Y-112111510D01*
X177170000Y-112246313D01*
X177106821Y-112111510D01*
X176674947Y-111717312D01*
X176259026Y-111545042D01*
X176027000Y-111666183D01*
X176027000Y-112873000D01*
X178313000Y-112873000D01*
X178313000Y-112853000D01*
X178567000Y-112853000D01*
X178567000Y-112873000D01*
X179774469Y-112873000D01*
X179894968Y-112640973D01*
X179743350Y-112317471D01*
X180110689Y-112165689D01*
X180264646Y-112012000D01*
X181160370Y-112012000D01*
X180461185Y-112711185D01*
X180296004Y-112958395D01*
X180238000Y-113250000D01*
X180238000Y-115000000D01*
X180277820Y-115200190D01*
X180078815Y-115001185D01*
X179982983Y-114937152D01*
X179831605Y-114836004D01*
X179745496Y-114818876D01*
X179499670Y-114450971D01*
X179228839Y-114270008D01*
X179646821Y-113888490D01*
X179894968Y-113359027D01*
X179774469Y-113127000D01*
X178567000Y-113127000D01*
X178567000Y-113147000D01*
X178313000Y-113147000D01*
X178313000Y-113127000D01*
X176027000Y-113127000D01*
X176027000Y-113147000D01*
X175773000Y-113147000D01*
X175773000Y-113127000D01*
X173487000Y-113127000D01*
X173487000Y-113147000D01*
X173233000Y-113147000D01*
X173233000Y-113127000D01*
X173213000Y-113127000D01*
X173213000Y-112873000D01*
X173233000Y-112873000D01*
X173233000Y-111666183D01*
X173487000Y-111666183D01*
X173487000Y-112873000D01*
X175773000Y-112873000D01*
X175773000Y-111666183D01*
X175540974Y-111545042D01*
X175125053Y-111717312D01*
X174693179Y-112111510D01*
X174630000Y-112246313D01*
X174566821Y-112111510D01*
X174134947Y-111717312D01*
X173719026Y-111545042D01*
X173487000Y-111666183D01*
X173233000Y-111666183D01*
X173000974Y-111545042D01*
X172585053Y-111717312D01*
X172153179Y-112111510D01*
X172095664Y-112234228D01*
X171879670Y-111910971D01*
X171393489Y-111586115D01*
X170820000Y-111472041D01*
X170246511Y-111586115D01*
X169760330Y-111910971D01*
X169550000Y-112225752D01*
X169339670Y-111910971D01*
X168853489Y-111586115D01*
X168280000Y-111472041D01*
X167706511Y-111586115D01*
X167220330Y-111910971D01*
X167010000Y-112225752D01*
X166799670Y-111910971D01*
X166313489Y-111586115D01*
X165740000Y-111472041D01*
X165166511Y-111586115D01*
X164680330Y-111910971D01*
X164470000Y-112225752D01*
X164259670Y-111910971D01*
X163773489Y-111586115D01*
X163200000Y-111472041D01*
X162626511Y-111586115D01*
X162140330Y-111910971D01*
X161930000Y-112225752D01*
X161719670Y-111910971D01*
X161233489Y-111586115D01*
X160660000Y-111472041D01*
X160086511Y-111586115D01*
X159600330Y-111910971D01*
X159390000Y-112225752D01*
X159179670Y-111910971D01*
X158693489Y-111586115D01*
X158120000Y-111472041D01*
X157744385Y-111546755D01*
X156037311Y-109839681D01*
X156208395Y-109953996D01*
X156500000Y-110012000D01*
X157235358Y-110012000D01*
X157387714Y-110164622D01*
X157784332Y-110329313D01*
X158213784Y-110329687D01*
X158610689Y-110165689D01*
X158914622Y-109862286D01*
X159079313Y-109465668D01*
X159079687Y-109036216D01*
X159069681Y-109012000D01*
X165985358Y-109012000D01*
X166137714Y-109164622D01*
X166534332Y-109329313D01*
X166963784Y-109329687D01*
X167360689Y-109165689D01*
X167664622Y-108862286D01*
X167829313Y-108465668D01*
X167829687Y-108036216D01*
X167665689Y-107639311D01*
X167651644Y-107625241D01*
X167664622Y-107612286D01*
X167829313Y-107215668D01*
X167829687Y-106786216D01*
X167665689Y-106389311D01*
X167651644Y-106375241D01*
X167664622Y-106362286D01*
X167829313Y-105965668D01*
X167829687Y-105536216D01*
X167665689Y-105139311D01*
X167651644Y-105125241D01*
X167664622Y-105112286D01*
X167829313Y-104715668D01*
X167829687Y-104286216D01*
X167665689Y-103889311D01*
X167526644Y-103750023D01*
X167664622Y-103612286D01*
X167829313Y-103215668D01*
X167829364Y-103156994D01*
X169488000Y-104815630D01*
X169488000Y-109622225D01*
X169420687Y-109784332D01*
X169420313Y-110213784D01*
X169584311Y-110610689D01*
X169887714Y-110914622D01*
X170284332Y-111079313D01*
X170713784Y-111079687D01*
X171110689Y-110915689D01*
X171414622Y-110612286D01*
X171579313Y-110215668D01*
X171579687Y-109786216D01*
X171415689Y-109389311D01*
X171112286Y-109085378D01*
X171012000Y-109043735D01*
X171012000Y-104500000D01*
X170953996Y-104208395D01*
X170788815Y-103961185D01*
X168425328Y-101597698D01*
X168500936Y-101522090D01*
X168535910Y-101576441D01*
X168535910Y-101576441D01*
G37*
X168535910Y-101576441D02*
X168748110Y-101721431D01*
X169000000Y-101772440D01*
X170175625Y-101772440D01*
X170170687Y-101784332D01*
X170170313Y-102213784D01*
X170334311Y-102610689D01*
X170637714Y-102914622D01*
X171034332Y-103079313D01*
X171463784Y-103079687D01*
X171860689Y-102915689D01*
X171988000Y-102788600D01*
X171988000Y-104235358D01*
X171835378Y-104387714D01*
X171670687Y-104784332D01*
X171670313Y-105213784D01*
X171834311Y-105610689D01*
X172137714Y-105914622D01*
X172534332Y-106079313D01*
X172963784Y-106079687D01*
X173360689Y-105915689D01*
X173454839Y-105821703D01*
X173454839Y-109950000D01*
X173519478Y-110293526D01*
X173722501Y-110609033D01*
X174032279Y-110820696D01*
X174400000Y-110895161D01*
X178478476Y-110895161D01*
X178420687Y-111034332D01*
X178420313Y-111463784D01*
X178435856Y-111501400D01*
X178312998Y-111501400D01*
X178312998Y-111666182D01*
X178080974Y-111545042D01*
X177665053Y-111717312D01*
X177233179Y-112111510D01*
X177170000Y-112246313D01*
X177106821Y-112111510D01*
X176674947Y-111717312D01*
X176259026Y-111545042D01*
X176027000Y-111666183D01*
X176027000Y-112873000D01*
X178313000Y-112873000D01*
X178313000Y-112853000D01*
X178567000Y-112853000D01*
X178567000Y-112873000D01*
X179774469Y-112873000D01*
X179894968Y-112640973D01*
X179743350Y-112317471D01*
X180110689Y-112165689D01*
X180264646Y-112012000D01*
X181160370Y-112012000D01*
X180461185Y-112711185D01*
X180296004Y-112958395D01*
X180238000Y-113250000D01*
X180238000Y-115000000D01*
X180277820Y-115200190D01*
X180078815Y-115001185D01*
X179982983Y-114937152D01*
X179831605Y-114836004D01*
X179745496Y-114818876D01*
X179499670Y-114450971D01*
X179228839Y-114270008D01*
X179646821Y-113888490D01*
X179894968Y-113359027D01*
X179774469Y-113127000D01*
X178567000Y-113127000D01*
X178567000Y-113147000D01*
X178313000Y-113147000D01*
X178313000Y-113127000D01*
X176027000Y-113127000D01*
X176027000Y-113147000D01*
X175773000Y-113147000D01*
X175773000Y-113127000D01*
X173487000Y-113127000D01*
X173487000Y-113147000D01*
X173233000Y-113147000D01*
X173233000Y-113127000D01*
X173213000Y-113127000D01*
X173213000Y-112873000D01*
X173233000Y-112873000D01*
X173233000Y-111666183D01*
X173487000Y-111666183D01*
X173487000Y-112873000D01*
X175773000Y-112873000D01*
X175773000Y-111666183D01*
X175540974Y-111545042D01*
X175125053Y-111717312D01*
X174693179Y-112111510D01*
X174630000Y-112246313D01*
X174566821Y-112111510D01*
X174134947Y-111717312D01*
X173719026Y-111545042D01*
X173487000Y-111666183D01*
X173233000Y-111666183D01*
X173000974Y-111545042D01*
X172585053Y-111717312D01*
X172153179Y-112111510D01*
X172095664Y-112234228D01*
X171879670Y-111910971D01*
X171393489Y-111586115D01*
X170820000Y-111472041D01*
X170246511Y-111586115D01*
X169760330Y-111910971D01*
X169550000Y-112225752D01*
X169339670Y-111910971D01*
X168853489Y-111586115D01*
X168280000Y-111472041D01*
X167706511Y-111586115D01*
X167220330Y-111910971D01*
X167010000Y-112225752D01*
X166799670Y-111910971D01*
X166313489Y-111586115D01*
X165740000Y-111472041D01*
X165166511Y-111586115D01*
X164680330Y-111910971D01*
X164470000Y-112225752D01*
X164259670Y-111910971D01*
X163773489Y-111586115D01*
X163200000Y-111472041D01*
X162626511Y-111586115D01*
X162140330Y-111910971D01*
X161930000Y-112225752D01*
X161719670Y-111910971D01*
X161233489Y-111586115D01*
X160660000Y-111472041D01*
X160086511Y-111586115D01*
X159600330Y-111910971D01*
X159390000Y-112225752D01*
X159179670Y-111910971D01*
X158693489Y-111586115D01*
X158120000Y-111472041D01*
X157744385Y-111546755D01*
X156037311Y-109839681D01*
X156208395Y-109953996D01*
X156500000Y-110012000D01*
X157235358Y-110012000D01*
X157387714Y-110164622D01*
X157784332Y-110329313D01*
X158213784Y-110329687D01*
X158610689Y-110165689D01*
X158914622Y-109862286D01*
X159079313Y-109465668D01*
X159079687Y-109036216D01*
X159069681Y-109012000D01*
X165985358Y-109012000D01*
X166137714Y-109164622D01*
X166534332Y-109329313D01*
X166963784Y-109329687D01*
X167360689Y-109165689D01*
X167664622Y-108862286D01*
X167829313Y-108465668D01*
X167829687Y-108036216D01*
X167665689Y-107639311D01*
X167651644Y-107625241D01*
X167664622Y-107612286D01*
X167829313Y-107215668D01*
X167829687Y-106786216D01*
X167665689Y-106389311D01*
X167651644Y-106375241D01*
X167664622Y-106362286D01*
X167829313Y-105965668D01*
X167829687Y-105536216D01*
X167665689Y-105139311D01*
X167651644Y-105125241D01*
X167664622Y-105112286D01*
X167829313Y-104715668D01*
X167829687Y-104286216D01*
X167665689Y-103889311D01*
X167526644Y-103750023D01*
X167664622Y-103612286D01*
X167829313Y-103215668D01*
X167829364Y-103156994D01*
X169488000Y-104815630D01*
X169488000Y-109622225D01*
X169420687Y-109784332D01*
X169420313Y-110213784D01*
X169584311Y-110610689D01*
X169887714Y-110914622D01*
X170284332Y-111079313D01*
X170713784Y-111079687D01*
X171110689Y-110915689D01*
X171414622Y-110612286D01*
X171579313Y-110215668D01*
X171579687Y-109786216D01*
X171415689Y-109389311D01*
X171112286Y-109085378D01*
X171012000Y-109043735D01*
X171012000Y-104500000D01*
X170953996Y-104208395D01*
X170788815Y-103961185D01*
X168425328Y-101597698D01*
X168500936Y-101522090D01*
X168535910Y-101576441D01*
G36*
X115543838Y-75971515D02*
X116523329Y-76952716D01*
X117803749Y-77484394D01*
X119190168Y-77485603D01*
X119790178Y-77237684D01*
X119738000Y-77500000D01*
X119738000Y-90250000D01*
X119796004Y-90541605D01*
X119929269Y-90741050D01*
X119961185Y-90788815D01*
X121211185Y-92038815D01*
X121458395Y-92203996D01*
X121750000Y-92262000D01*
X122735358Y-92262000D01*
X122887714Y-92414622D01*
X123284332Y-92579313D01*
X123713784Y-92579687D01*
X124110689Y-92415689D01*
X124264646Y-92262000D01*
X124500000Y-92262000D01*
X124791605Y-92203996D01*
X125038815Y-92038815D01*
X126315631Y-90762000D01*
X131184370Y-90762000D01*
X131399268Y-90976899D01*
X131139311Y-91084311D01*
X131125241Y-91098356D01*
X131112286Y-91085378D01*
X130715668Y-90920687D01*
X130286216Y-90920313D01*
X129889311Y-91084311D01*
X129858568Y-91115000D01*
X127641856Y-91115000D01*
X127612286Y-91085378D01*
X127215668Y-90920687D01*
X126786216Y-90920313D01*
X126389311Y-91084311D01*
X126085378Y-91387714D01*
X125920687Y-91784332D01*
X125920313Y-92213784D01*
X126084311Y-92610689D01*
X126387714Y-92914622D01*
X126784332Y-93079313D01*
X127213784Y-93079687D01*
X127610689Y-92915689D01*
X127641432Y-92885000D01*
X129858144Y-92885000D01*
X129887714Y-92914622D01*
X130284332Y-93079313D01*
X130713784Y-93079687D01*
X131110689Y-92915689D01*
X131124759Y-92901644D01*
X131137714Y-92914622D01*
X131534332Y-93079313D01*
X131751872Y-93079502D01*
X134160369Y-95488000D01*
X132750000Y-95488000D01*
X132458395Y-95546004D01*
X132211185Y-95711185D01*
X130211185Y-97711185D01*
X130046004Y-97958395D01*
X129988000Y-98250000D01*
X129988000Y-101235358D01*
X129835378Y-101387714D01*
X129801770Y-101468651D01*
X129665689Y-101139311D01*
X129362286Y-100835378D01*
X128965668Y-100670687D01*
X128536216Y-100670313D01*
X128139311Y-100834311D01*
X127835378Y-101137714D01*
X127670687Y-101534332D01*
X127670313Y-101963784D01*
X127834311Y-102360689D01*
X128137714Y-102664622D01*
X128534332Y-102829313D01*
X128577771Y-102829351D01*
X129124208Y-103375787D01*
X129124210Y-103375790D01*
X129374208Y-103625787D01*
X129374210Y-103625790D01*
X129661325Y-103817633D01*
X130000000Y-103885000D01*
X134383420Y-103885000D01*
X134874208Y-104375787D01*
X134874210Y-104375790D01*
X137374208Y-106875787D01*
X137374210Y-106875790D01*
X137541304Y-107042883D01*
X137503569Y-107098110D01*
X137500919Y-107111197D01*
X137364090Y-106898559D01*
X137151890Y-106753569D01*
X136900000Y-106702560D01*
X135400000Y-106702560D01*
X135164683Y-106746838D01*
X134948559Y-106885910D01*
X134803569Y-107098110D01*
X134800149Y-107115000D01*
X134750000Y-107115000D01*
X134411325Y-107182367D01*
X134124210Y-107374210D01*
X134124208Y-107374213D01*
X133874210Y-107624210D01*
X133874208Y-107624213D01*
X133816758Y-107681663D01*
X133701850Y-107603149D01*
X133449960Y-107552140D01*
X133396185Y-107552140D01*
X133447160Y-107300420D01*
X133447160Y-106299660D01*
X133402882Y-106064343D01*
X133263810Y-105848219D01*
X133051610Y-105703229D01*
X132799720Y-105652220D01*
X132200280Y-105652220D01*
X131964963Y-105696498D01*
X131748839Y-105835570D01*
X131694539Y-105915040D01*
X128449960Y-105915040D01*
X128111285Y-105982407D01*
X127824170Y-106174250D01*
X127824168Y-106174253D01*
X126874210Y-107124210D01*
X126682367Y-107411325D01*
X126682367Y-107411326D01*
X126614999Y-107750000D01*
X126615000Y-107750005D01*
X126615000Y-107752560D01*
X125750000Y-107752560D01*
X125514683Y-107796838D01*
X125298559Y-107935910D01*
X125153569Y-108148110D01*
X125102560Y-108400000D01*
X125102560Y-111000000D01*
X125146838Y-111235317D01*
X125285910Y-111451441D01*
X125498110Y-111596431D01*
X125750000Y-111647440D01*
X129250000Y-111647440D01*
X129485317Y-111603162D01*
X129701441Y-111464090D01*
X129823295Y-111285750D01*
X134865000Y-111285750D01*
X134865000Y-111751310D01*
X134961673Y-111984699D01*
X135140302Y-112163327D01*
X135373691Y-112260000D01*
X135964250Y-112260000D01*
X136123000Y-112101250D01*
X136123000Y-111127000D01*
X135023750Y-111127000D01*
X134865000Y-111285750D01*
X129823295Y-111285750D01*
X129846431Y-111251890D01*
X129897440Y-111000000D01*
X129897440Y-110248690D01*
X134865000Y-110248690D01*
X134865000Y-110714250D01*
X135023750Y-110873000D01*
X136123000Y-110873000D01*
X136123000Y-109898750D01*
X135964250Y-109740000D01*
X135373691Y-109740000D01*
X135140302Y-109836673D01*
X134961673Y-110015301D01*
X134865000Y-110248690D01*
X129897440Y-110248690D01*
X129897440Y-108400000D01*
X129853162Y-108164683D01*
X129714090Y-107948559D01*
X129501890Y-107803569D01*
X129250000Y-107752560D01*
X128749019Y-107752560D01*
X128816539Y-107685040D01*
X131177001Y-107685040D01*
X131098599Y-107735490D01*
X130953609Y-107947690D01*
X130902600Y-108199580D01*
X130902600Y-109200340D01*
X130946878Y-109435657D01*
X131085950Y-109651781D01*
X131298150Y-109796771D01*
X131550040Y-109847780D01*
X132149480Y-109847780D01*
X132384797Y-109803502D01*
X132499993Y-109729375D01*
X132598630Y-109796771D01*
X132850520Y-109847780D01*
X133449960Y-109847780D01*
X133685277Y-109803502D01*
X133901401Y-109664430D01*
X133955701Y-109584960D01*
X134050035Y-109584960D01*
X134050040Y-109584961D01*
X134332524Y-109528770D01*
X134388715Y-109517593D01*
X134675830Y-109325750D01*
X134921904Y-109079675D01*
X134935910Y-109101441D01*
X135148110Y-109246431D01*
X135400000Y-109297440D01*
X136900000Y-109297440D01*
X137135317Y-109253162D01*
X137351441Y-109114090D01*
X137496431Y-108901890D01*
X137499081Y-108888803D01*
X137635910Y-109101441D01*
X137848110Y-109246431D01*
X137965000Y-109270102D01*
X137965000Y-109734146D01*
X137764683Y-109771838D01*
X137548559Y-109910910D01*
X137502031Y-109979006D01*
X137359698Y-109836673D01*
X137126309Y-109740000D01*
X136535750Y-109740000D01*
X136377000Y-109898750D01*
X136377000Y-110873000D01*
X136397000Y-110873000D01*
X136397000Y-111127000D01*
X136377000Y-111127000D01*
X136377000Y-112101250D01*
X136535750Y-112260000D01*
X137126309Y-112260000D01*
X137359698Y-112163327D01*
X137500936Y-112022090D01*
X137535910Y-112076441D01*
X137748110Y-112221431D01*
X138000000Y-112272440D01*
X139500000Y-112272440D01*
X139735317Y-112228162D01*
X139951441Y-112089090D01*
X140096431Y-111876890D01*
X140147440Y-111625000D01*
X140147440Y-110375000D01*
X140103162Y-110139683D01*
X139964090Y-109923559D01*
X139751890Y-109778569D01*
X139735000Y-109775149D01*
X139735000Y-109272038D01*
X139835317Y-109253162D01*
X140051441Y-109114090D01*
X140196431Y-108901890D01*
X140247440Y-108650000D01*
X140247440Y-107575071D01*
X140738000Y-108065631D01*
X140738000Y-111934369D01*
X140184370Y-112488000D01*
X132750000Y-112488000D01*
X132458395Y-112546004D01*
X132227024Y-112700602D01*
X132211185Y-112711185D01*
X131829420Y-113092950D01*
X131829687Y-112786216D01*
X131665689Y-112389311D01*
X131362286Y-112085378D01*
X130965668Y-111920687D01*
X130536216Y-111920313D01*
X130139311Y-112084311D01*
X129985354Y-112238000D01*
X121065631Y-112238000D01*
X120788815Y-111961185D01*
X118079499Y-109251869D01*
X118079687Y-109036216D01*
X117915689Y-108639311D01*
X117612286Y-108335378D01*
X117215668Y-108170687D01*
X116786216Y-108170313D01*
X116389311Y-108334311D01*
X116085378Y-108637714D01*
X115920687Y-109034332D01*
X115920313Y-109463784D01*
X116084311Y-109860689D01*
X116387714Y-110164622D01*
X116784332Y-110329313D01*
X117001872Y-110329502D01*
X119187969Y-112515599D01*
X117809832Y-112514397D01*
X116528485Y-113043838D01*
X115547284Y-114023329D01*
X115185000Y-114895804D01*
X115185000Y-75103059D01*
X115543838Y-75971515D01*
X115543838Y-75971515D01*
G37*
X115543838Y-75971515D02*
X116523329Y-76952716D01*
X117803749Y-77484394D01*
X119190168Y-77485603D01*
X119790178Y-77237684D01*
X119738000Y-77500000D01*
X119738000Y-90250000D01*
X119796004Y-90541605D01*
X119929269Y-90741050D01*
X119961185Y-90788815D01*
X121211185Y-92038815D01*
X121458395Y-92203996D01*
X121750000Y-92262000D01*
X122735358Y-92262000D01*
X122887714Y-92414622D01*
X123284332Y-92579313D01*
X123713784Y-92579687D01*
X124110689Y-92415689D01*
X124264646Y-92262000D01*
X124500000Y-92262000D01*
X124791605Y-92203996D01*
X125038815Y-92038815D01*
X126315631Y-90762000D01*
X131184370Y-90762000D01*
X131399268Y-90976899D01*
X131139311Y-91084311D01*
X131125241Y-91098356D01*
X131112286Y-91085378D01*
X130715668Y-90920687D01*
X130286216Y-90920313D01*
X129889311Y-91084311D01*
X129858568Y-91115000D01*
X127641856Y-91115000D01*
X127612286Y-91085378D01*
X127215668Y-90920687D01*
X126786216Y-90920313D01*
X126389311Y-91084311D01*
X126085378Y-91387714D01*
X125920687Y-91784332D01*
X125920313Y-92213784D01*
X126084311Y-92610689D01*
X126387714Y-92914622D01*
X126784332Y-93079313D01*
X127213784Y-93079687D01*
X127610689Y-92915689D01*
X127641432Y-92885000D01*
X129858144Y-92885000D01*
X129887714Y-92914622D01*
X130284332Y-93079313D01*
X130713784Y-93079687D01*
X131110689Y-92915689D01*
X131124759Y-92901644D01*
X131137714Y-92914622D01*
X131534332Y-93079313D01*
X131751872Y-93079502D01*
X134160369Y-95488000D01*
X132750000Y-95488000D01*
X132458395Y-95546004D01*
X132211185Y-95711185D01*
X130211185Y-97711185D01*
X130046004Y-97958395D01*
X129988000Y-98250000D01*
X129988000Y-101235358D01*
X129835378Y-101387714D01*
X129801770Y-101468651D01*
X129665689Y-101139311D01*
X129362286Y-100835378D01*
X128965668Y-100670687D01*
X128536216Y-100670313D01*
X128139311Y-100834311D01*
X127835378Y-101137714D01*
X127670687Y-101534332D01*
X127670313Y-101963784D01*
X127834311Y-102360689D01*
X128137714Y-102664622D01*
X128534332Y-102829313D01*
X128577771Y-102829351D01*
X129124208Y-103375787D01*
X129124210Y-103375790D01*
X129374208Y-103625787D01*
X129374210Y-103625790D01*
X129661325Y-103817633D01*
X130000000Y-103885000D01*
X134383420Y-103885000D01*
X134874208Y-104375787D01*
X134874210Y-104375790D01*
X137374208Y-106875787D01*
X137374210Y-106875790D01*
X137541304Y-107042883D01*
X137503569Y-107098110D01*
X137500919Y-107111197D01*
X137364090Y-106898559D01*
X137151890Y-106753569D01*
X136900000Y-106702560D01*
X135400000Y-106702560D01*
X135164683Y-106746838D01*
X134948559Y-106885910D01*
X134803569Y-107098110D01*
X134800149Y-107115000D01*
X134750000Y-107115000D01*
X134411325Y-107182367D01*
X134124210Y-107374210D01*
X134124208Y-107374213D01*
X133874210Y-107624210D01*
X133874208Y-107624213D01*
X133816758Y-107681663D01*
X133701850Y-107603149D01*
X133449960Y-107552140D01*
X133396185Y-107552140D01*
X133447160Y-107300420D01*
X133447160Y-106299660D01*
X133402882Y-106064343D01*
X133263810Y-105848219D01*
X133051610Y-105703229D01*
X132799720Y-105652220D01*
X132200280Y-105652220D01*
X131964963Y-105696498D01*
X131748839Y-105835570D01*
X131694539Y-105915040D01*
X128449960Y-105915040D01*
X128111285Y-105982407D01*
X127824170Y-106174250D01*
X127824168Y-106174253D01*
X126874210Y-107124210D01*
X126682367Y-107411325D01*
X126682367Y-107411326D01*
X126614999Y-107750000D01*
X126615000Y-107750005D01*
X126615000Y-107752560D01*
X125750000Y-107752560D01*
X125514683Y-107796838D01*
X125298559Y-107935910D01*
X125153569Y-108148110D01*
X125102560Y-108400000D01*
X125102560Y-111000000D01*
X125146838Y-111235317D01*
X125285910Y-111451441D01*
X125498110Y-111596431D01*
X125750000Y-111647440D01*
X129250000Y-111647440D01*
X129485317Y-111603162D01*
X129701441Y-111464090D01*
X129823295Y-111285750D01*
X134865000Y-111285750D01*
X134865000Y-111751310D01*
X134961673Y-111984699D01*
X135140302Y-112163327D01*
X135373691Y-112260000D01*
X135964250Y-112260000D01*
X136123000Y-112101250D01*
X136123000Y-111127000D01*
X135023750Y-111127000D01*
X134865000Y-111285750D01*
X129823295Y-111285750D01*
X129846431Y-111251890D01*
X129897440Y-111000000D01*
X129897440Y-110248690D01*
X134865000Y-110248690D01*
X134865000Y-110714250D01*
X135023750Y-110873000D01*
X136123000Y-110873000D01*
X136123000Y-109898750D01*
X135964250Y-109740000D01*
X135373691Y-109740000D01*
X135140302Y-109836673D01*
X134961673Y-110015301D01*
X134865000Y-110248690D01*
X129897440Y-110248690D01*
X129897440Y-108400000D01*
X129853162Y-108164683D01*
X129714090Y-107948559D01*
X129501890Y-107803569D01*
X129250000Y-107752560D01*
X128749019Y-107752560D01*
X128816539Y-107685040D01*
X131177001Y-107685040D01*
X131098599Y-107735490D01*
X130953609Y-107947690D01*
X130902600Y-108199580D01*
X130902600Y-109200340D01*
X130946878Y-109435657D01*
X131085950Y-109651781D01*
X131298150Y-109796771D01*
X131550040Y-109847780D01*
X132149480Y-109847780D01*
X132384797Y-109803502D01*
X132499993Y-109729375D01*
X132598630Y-109796771D01*
X132850520Y-109847780D01*
X133449960Y-109847780D01*
X133685277Y-109803502D01*
X133901401Y-109664430D01*
X133955701Y-109584960D01*
X134050035Y-109584960D01*
X134050040Y-109584961D01*
X134332524Y-109528770D01*
X134388715Y-109517593D01*
X134675830Y-109325750D01*
X134921904Y-109079675D01*
X134935910Y-109101441D01*
X135148110Y-109246431D01*
X135400000Y-109297440D01*
X136900000Y-109297440D01*
X137135317Y-109253162D01*
X137351441Y-109114090D01*
X137496431Y-108901890D01*
X137499081Y-108888803D01*
X137635910Y-109101441D01*
X137848110Y-109246431D01*
X137965000Y-109270102D01*
X137965000Y-109734146D01*
X137764683Y-109771838D01*
X137548559Y-109910910D01*
X137502031Y-109979006D01*
X137359698Y-109836673D01*
X137126309Y-109740000D01*
X136535750Y-109740000D01*
X136377000Y-109898750D01*
X136377000Y-110873000D01*
X136397000Y-110873000D01*
X136397000Y-111127000D01*
X136377000Y-111127000D01*
X136377000Y-112101250D01*
X136535750Y-112260000D01*
X137126309Y-112260000D01*
X137359698Y-112163327D01*
X137500936Y-112022090D01*
X137535910Y-112076441D01*
X137748110Y-112221431D01*
X138000000Y-112272440D01*
X139500000Y-112272440D01*
X139735317Y-112228162D01*
X139951441Y-112089090D01*
X140096431Y-111876890D01*
X140147440Y-111625000D01*
X140147440Y-110375000D01*
X140103162Y-110139683D01*
X139964090Y-109923559D01*
X139751890Y-109778569D01*
X139735000Y-109775149D01*
X139735000Y-109272038D01*
X139835317Y-109253162D01*
X140051441Y-109114090D01*
X140196431Y-108901890D01*
X140247440Y-108650000D01*
X140247440Y-107575071D01*
X140738000Y-108065631D01*
X140738000Y-111934369D01*
X140184370Y-112488000D01*
X132750000Y-112488000D01*
X132458395Y-112546004D01*
X132227024Y-112700602D01*
X132211185Y-112711185D01*
X131829420Y-113092950D01*
X131829687Y-112786216D01*
X131665689Y-112389311D01*
X131362286Y-112085378D01*
X130965668Y-111920687D01*
X130536216Y-111920313D01*
X130139311Y-112084311D01*
X129985354Y-112238000D01*
X121065631Y-112238000D01*
X120788815Y-111961185D01*
X118079499Y-109251869D01*
X118079687Y-109036216D01*
X117915689Y-108639311D01*
X117612286Y-108335378D01*
X117215668Y-108170687D01*
X116786216Y-108170313D01*
X116389311Y-108334311D01*
X116085378Y-108637714D01*
X115920687Y-109034332D01*
X115920313Y-109463784D01*
X116084311Y-109860689D01*
X116387714Y-110164622D01*
X116784332Y-110329313D01*
X117001872Y-110329502D01*
X119187969Y-112515599D01*
X117809832Y-112514397D01*
X116528485Y-113043838D01*
X115547284Y-114023329D01*
X115185000Y-114895804D01*
X115185000Y-75103059D01*
X115543838Y-75971515D01*
G36*
X209479874Y-84557504D02*
X209190330Y-84750971D01*
X208974336Y-85074228D01*
X208916821Y-84951510D01*
X208484947Y-84557312D01*
X208069026Y-84385042D01*
X207837000Y-84506183D01*
X207837000Y-85713000D01*
X207857000Y-85713000D01*
X207857000Y-85967000D01*
X207837000Y-85967000D01*
X207837000Y-88253000D01*
X207857000Y-88253000D01*
X207857000Y-88507000D01*
X207837000Y-88507000D01*
X207837000Y-90793000D01*
X207857000Y-90793000D01*
X207857000Y-91047000D01*
X207837000Y-91047000D01*
X207837000Y-93333000D01*
X207857000Y-93333000D01*
X207857000Y-93587000D01*
X207837000Y-93587000D01*
X207837000Y-93607000D01*
X207583000Y-93607000D01*
X207583000Y-93587000D01*
X206375531Y-93587000D01*
X206255032Y-93819027D01*
X206503179Y-94348490D01*
X206921161Y-94730008D01*
X206650330Y-94910971D01*
X206325474Y-95397152D01*
X206211400Y-95970641D01*
X206211400Y-96029359D01*
X206325474Y-96602848D01*
X206650330Y-97089029D01*
X206825000Y-97205740D01*
X206825000Y-97209995D01*
X206824999Y-97210000D01*
X206874964Y-97461185D01*
X206892367Y-97548675D01*
X207057626Y-97796004D01*
X207084210Y-97835790D01*
X207360067Y-98111647D01*
X207201890Y-98003569D01*
X206950000Y-97952560D01*
X206350000Y-97952560D01*
X206114683Y-97996838D01*
X205898559Y-98135910D01*
X205753569Y-98348110D01*
X205702560Y-98600000D01*
X205702560Y-99400000D01*
X205746838Y-99635317D01*
X205765000Y-99663542D01*
X205765000Y-100233420D01*
X205674210Y-100324210D01*
X205674208Y-100324213D01*
X205133420Y-100865000D01*
X195391856Y-100865000D01*
X195362286Y-100835378D01*
X194965668Y-100670687D01*
X194536216Y-100670313D01*
X194139311Y-100834311D01*
X193927000Y-101046252D01*
X193927000Y-100750000D01*
X193868121Y-100453997D01*
X193837406Y-100299581D01*
X193582265Y-99917735D01*
X192856822Y-99192292D01*
X192663379Y-98724123D01*
X192277907Y-98337977D01*
X192130242Y-98276661D01*
X194272758Y-98276661D01*
X194484990Y-98790303D01*
X194877630Y-99183629D01*
X195390900Y-99396757D01*
X195946661Y-99397242D01*
X196460303Y-99185010D01*
X196760837Y-98885000D01*
X197749995Y-98885000D01*
X197750000Y-98885001D01*
X198032484Y-98828810D01*
X198088675Y-98817633D01*
X198375790Y-98625790D01*
X199404770Y-97596810D01*
X199353243Y-97720900D01*
X199352758Y-98276661D01*
X199564990Y-98790303D01*
X199957630Y-99183629D01*
X200470900Y-99396757D01*
X201026661Y-99397242D01*
X201540303Y-99185010D01*
X201933629Y-98792370D01*
X202146757Y-98279100D01*
X202147242Y-97723339D01*
X201935010Y-97209697D01*
X201542370Y-96816371D01*
X201029100Y-96603243D01*
X200473339Y-96602758D01*
X200082432Y-96764277D01*
X200135000Y-96500000D01*
X200135000Y-96036430D01*
X200600010Y-96036430D01*
X200835327Y-95992152D01*
X201051451Y-95853080D01*
X201196441Y-95640880D01*
X201247450Y-95388990D01*
X201247450Y-94273740D01*
X202111255Y-94273740D01*
X202111260Y-94273741D01*
X202393744Y-94217550D01*
X202449935Y-94206373D01*
X202737050Y-94014530D01*
X203375787Y-93375792D01*
X203375790Y-93375790D01*
X203567633Y-93088675D01*
X203585272Y-93000000D01*
X203635001Y-92750000D01*
X203635000Y-92749995D01*
X203635000Y-91279027D01*
X206255032Y-91279027D01*
X206503179Y-91808490D01*
X206921152Y-92190000D01*
X206503179Y-92571510D01*
X206255032Y-93100973D01*
X206375531Y-93333000D01*
X207583000Y-93333000D01*
X207583000Y-91047000D01*
X206375531Y-91047000D01*
X206255032Y-91279027D01*
X203635000Y-91279027D01*
X203635000Y-89337279D01*
X203826441Y-89214090D01*
X203971431Y-89001890D01*
X204022440Y-88750000D01*
X204022440Y-88739027D01*
X206255032Y-88739027D01*
X206503179Y-89268490D01*
X206921152Y-89650000D01*
X206503179Y-90031510D01*
X206255032Y-90560973D01*
X206375531Y-90793000D01*
X207583000Y-90793000D01*
X207583000Y-88507000D01*
X206375531Y-88507000D01*
X206255032Y-88739027D01*
X204022440Y-88739027D01*
X204022440Y-87250000D01*
X203978162Y-87014683D01*
X203839090Y-86798559D01*
X203770994Y-86752031D01*
X203913327Y-86609698D01*
X204010000Y-86376309D01*
X204010000Y-86199027D01*
X206255032Y-86199027D01*
X206503179Y-86728490D01*
X206921152Y-87110000D01*
X206503179Y-87491510D01*
X206255032Y-88020973D01*
X206375531Y-88253000D01*
X207583000Y-88253000D01*
X207583000Y-85967000D01*
X206375531Y-85967000D01*
X206255032Y-86199027D01*
X204010000Y-86199027D01*
X204010000Y-85785750D01*
X203851250Y-85627000D01*
X202877000Y-85627000D01*
X202877000Y-85647000D01*
X202623000Y-85647000D01*
X202623000Y-85627000D01*
X201648750Y-85627000D01*
X201490000Y-85785750D01*
X201490000Y-86376309D01*
X201586673Y-86609698D01*
X201727910Y-86750936D01*
X201673559Y-86785910D01*
X201528569Y-86998110D01*
X201477560Y-87250000D01*
X201477560Y-88750000D01*
X201521838Y-88985317D01*
X201660910Y-89201441D01*
X201865000Y-89340890D01*
X201865000Y-92383421D01*
X201744680Y-92503740D01*
X201247450Y-92503740D01*
X201247450Y-91388490D01*
X201203172Y-91153173D01*
X201064100Y-90937049D01*
X200851900Y-90792059D01*
X200600010Y-90741050D01*
X197899990Y-90741050D01*
X197664673Y-90785328D01*
X197448549Y-90924400D01*
X197303559Y-91136600D01*
X197252550Y-91388490D01*
X197252550Y-95388990D01*
X197296828Y-95624307D01*
X197435900Y-95840431D01*
X197648100Y-95985421D01*
X197899990Y-96036430D01*
X198365000Y-96036430D01*
X198365000Y-96133421D01*
X197383420Y-97115000D01*
X196760478Y-97115000D01*
X196462370Y-96816371D01*
X195949100Y-96603243D01*
X195393339Y-96602758D01*
X194879697Y-96814990D01*
X194486371Y-97207630D01*
X194273243Y-97720900D01*
X194272758Y-98276661D01*
X192130242Y-98276661D01*
X191806948Y-98142418D01*
X189427000Y-95762470D01*
X189427000Y-94119982D01*
X189463398Y-94208072D01*
X189909579Y-94655032D01*
X190492841Y-94897224D01*
X191124388Y-94897775D01*
X191708072Y-94656602D01*
X192155032Y-94210421D01*
X192397224Y-93627159D01*
X192397775Y-92995612D01*
X192156602Y-92411928D01*
X191718471Y-91973032D01*
X191748554Y-91888159D01*
X190810000Y-90949605D01*
X189871446Y-91888159D01*
X189901725Y-91973583D01*
X189464968Y-92409579D01*
X189427000Y-92501016D01*
X189427000Y-91608682D01*
X189429912Y-91615712D01*
X189691841Y-91708554D01*
X190630395Y-90770000D01*
X190989605Y-90770000D01*
X191928159Y-91708554D01*
X192190088Y-91615712D01*
X192408675Y-91023199D01*
X192383878Y-90392139D01*
X192190088Y-89924288D01*
X191928159Y-89831446D01*
X190989605Y-90770000D01*
X190630395Y-90770000D01*
X189691841Y-89831446D01*
X189429912Y-89924288D01*
X189427000Y-89932181D01*
X189427000Y-89348159D01*
X189871446Y-89348159D01*
X189925267Y-89500000D01*
X189871446Y-89651841D01*
X190810000Y-90590395D01*
X191748554Y-89651841D01*
X191694733Y-89500000D01*
X191748554Y-89348159D01*
X190810000Y-88409605D01*
X189871446Y-89348159D01*
X189427000Y-89348159D01*
X189427000Y-89068682D01*
X189429912Y-89075712D01*
X189691841Y-89168554D01*
X190630395Y-88230000D01*
X190616253Y-88215858D01*
X190795858Y-88036253D01*
X190810000Y-88050395D01*
X190824143Y-88036253D01*
X191003748Y-88215858D01*
X190989605Y-88230000D01*
X191928159Y-89168554D01*
X192190088Y-89075712D01*
X192408675Y-88483199D01*
X192383878Y-87852139D01*
X192190088Y-87384288D01*
X191928161Y-87291447D01*
X192042568Y-87177040D01*
X192011661Y-87146133D01*
X192402434Y-86756042D01*
X192689173Y-86065496D01*
X192689320Y-85897010D01*
X197264990Y-85897010D01*
X197264990Y-87737819D01*
X197361663Y-87971208D01*
X197540291Y-88149837D01*
X197773680Y-88246510D01*
X198964250Y-88246510D01*
X199123000Y-88087760D01*
X199123000Y-85738260D01*
X199377000Y-85738260D01*
X199377000Y-88087760D01*
X199535750Y-88246510D01*
X200726320Y-88246510D01*
X200959709Y-88149837D01*
X201138337Y-87971208D01*
X201235010Y-87737819D01*
X201235010Y-85897010D01*
X201076260Y-85738260D01*
X199377000Y-85738260D01*
X199123000Y-85738260D01*
X197423740Y-85738260D01*
X197264990Y-85897010D01*
X192689320Y-85897010D01*
X192689826Y-85317784D01*
X192404292Y-84626739D01*
X191876042Y-84097566D01*
X191749836Y-84045161D01*
X192500000Y-84045161D01*
X192843526Y-83980522D01*
X193159033Y-83777499D01*
X193370696Y-83467721D01*
X193396311Y-83341228D01*
X193429506Y-83517641D01*
X193676331Y-83901219D01*
X194052944Y-84158548D01*
X194500000Y-84249079D01*
X196500000Y-84249079D01*
X196917641Y-84170494D01*
X197264990Y-83946982D01*
X197264990Y-85325510D01*
X197423740Y-85484260D01*
X199123000Y-85484260D01*
X199123000Y-85464260D01*
X199377000Y-85464260D01*
X199377000Y-85484260D01*
X201076260Y-85484260D01*
X201079547Y-85480973D01*
X206255032Y-85480973D01*
X206375531Y-85713000D01*
X207583000Y-85713000D01*
X207583000Y-84506183D01*
X207350974Y-84385042D01*
X206935053Y-84557312D01*
X206503179Y-84951510D01*
X206255032Y-85480973D01*
X201079547Y-85480973D01*
X201235010Y-85325510D01*
X201235010Y-84623691D01*
X201490000Y-84623691D01*
X201490000Y-85214250D01*
X201648750Y-85373000D01*
X202623000Y-85373000D01*
X202623000Y-84273750D01*
X202877000Y-84273750D01*
X202877000Y-85373000D01*
X203851250Y-85373000D01*
X204010000Y-85214250D01*
X204010000Y-84623691D01*
X203913327Y-84390302D01*
X203734699Y-84211673D01*
X203501310Y-84115000D01*
X203035750Y-84115000D01*
X202877000Y-84273750D01*
X202623000Y-84273750D01*
X202464250Y-84115000D01*
X201998690Y-84115000D01*
X201765301Y-84211673D01*
X201586673Y-84390302D01*
X201490000Y-84623691D01*
X201235010Y-84623691D01*
X201235010Y-83484701D01*
X201202069Y-83405175D01*
X201473686Y-83223686D01*
X202470179Y-82227193D01*
X202592014Y-82227299D01*
X203226989Y-81964933D01*
X203713226Y-81479544D01*
X203976700Y-80845029D01*
X203977299Y-80157986D01*
X203714933Y-79523011D01*
X203229544Y-79036774D01*
X202595029Y-78773300D01*
X201907986Y-78772701D01*
X201273011Y-79035067D01*
X200786774Y-79520456D01*
X200523300Y-80154971D01*
X200523191Y-80279437D01*
X199929628Y-80873000D01*
X197500124Y-80873000D01*
X197323669Y-80598781D01*
X196947056Y-80341452D01*
X196877000Y-80327265D01*
X196877000Y-79500000D01*
X196772182Y-78973045D01*
X196618062Y-78742388D01*
X197111458Y-78720315D01*
X197534080Y-78545259D01*
X197614353Y-78293958D01*
X196750000Y-77429605D01*
X196735858Y-77443748D01*
X196556253Y-77264143D01*
X196570395Y-77250000D01*
X196929605Y-77250000D01*
X197793958Y-78114353D01*
X198045259Y-78034080D01*
X198246718Y-77478721D01*
X198220315Y-76888542D01*
X198045259Y-76465920D01*
X197793958Y-76385647D01*
X196929605Y-77250000D01*
X196570395Y-77250000D01*
X195706042Y-76385647D01*
X195454741Y-76465920D01*
X195253282Y-77021279D01*
X195266612Y-77319240D01*
X194223686Y-76276314D01*
X194118517Y-76206042D01*
X195885647Y-76206042D01*
X196750000Y-77070395D01*
X197614353Y-76206042D01*
X197534080Y-75954741D01*
X196978721Y-75753282D01*
X196388542Y-75779685D01*
X195965920Y-75954741D01*
X195885647Y-76206042D01*
X194118517Y-76206042D01*
X193776955Y-75977818D01*
X193651516Y-75952867D01*
X193448262Y-75637000D01*
X200559370Y-75637000D01*
X209479874Y-84557504D01*
X209479874Y-84557504D01*
G37*
X209479874Y-84557504D02*
X209190330Y-84750971D01*
X208974336Y-85074228D01*
X208916821Y-84951510D01*
X208484947Y-84557312D01*
X208069026Y-84385042D01*
X207837000Y-84506183D01*
X207837000Y-85713000D01*
X207857000Y-85713000D01*
X207857000Y-85967000D01*
X207837000Y-85967000D01*
X207837000Y-88253000D01*
X207857000Y-88253000D01*
X207857000Y-88507000D01*
X207837000Y-88507000D01*
X207837000Y-90793000D01*
X207857000Y-90793000D01*
X207857000Y-91047000D01*
X207837000Y-91047000D01*
X207837000Y-93333000D01*
X207857000Y-93333000D01*
X207857000Y-93587000D01*
X207837000Y-93587000D01*
X207837000Y-93607000D01*
X207583000Y-93607000D01*
X207583000Y-93587000D01*
X206375531Y-93587000D01*
X206255032Y-93819027D01*
X206503179Y-94348490D01*
X206921161Y-94730008D01*
X206650330Y-94910971D01*
X206325474Y-95397152D01*
X206211400Y-95970641D01*
X206211400Y-96029359D01*
X206325474Y-96602848D01*
X206650330Y-97089029D01*
X206825000Y-97205740D01*
X206825000Y-97209995D01*
X206824999Y-97210000D01*
X206874964Y-97461185D01*
X206892367Y-97548675D01*
X207057626Y-97796004D01*
X207084210Y-97835790D01*
X207360067Y-98111647D01*
X207201890Y-98003569D01*
X206950000Y-97952560D01*
X206350000Y-97952560D01*
X206114683Y-97996838D01*
X205898559Y-98135910D01*
X205753569Y-98348110D01*
X205702560Y-98600000D01*
X205702560Y-99400000D01*
X205746838Y-99635317D01*
X205765000Y-99663542D01*
X205765000Y-100233420D01*
X205674210Y-100324210D01*
X205674208Y-100324213D01*
X205133420Y-100865000D01*
X195391856Y-100865000D01*
X195362286Y-100835378D01*
X194965668Y-100670687D01*
X194536216Y-100670313D01*
X194139311Y-100834311D01*
X193927000Y-101046252D01*
X193927000Y-100750000D01*
X193868121Y-100453997D01*
X193837406Y-100299581D01*
X193582265Y-99917735D01*
X192856822Y-99192292D01*
X192663379Y-98724123D01*
X192277907Y-98337977D01*
X192130242Y-98276661D01*
X194272758Y-98276661D01*
X194484990Y-98790303D01*
X194877630Y-99183629D01*
X195390900Y-99396757D01*
X195946661Y-99397242D01*
X196460303Y-99185010D01*
X196760837Y-98885000D01*
X197749995Y-98885000D01*
X197750000Y-98885001D01*
X198032484Y-98828810D01*
X198088675Y-98817633D01*
X198375790Y-98625790D01*
X199404770Y-97596810D01*
X199353243Y-97720900D01*
X199352758Y-98276661D01*
X199564990Y-98790303D01*
X199957630Y-99183629D01*
X200470900Y-99396757D01*
X201026661Y-99397242D01*
X201540303Y-99185010D01*
X201933629Y-98792370D01*
X202146757Y-98279100D01*
X202147242Y-97723339D01*
X201935010Y-97209697D01*
X201542370Y-96816371D01*
X201029100Y-96603243D01*
X200473339Y-96602758D01*
X200082432Y-96764277D01*
X200135000Y-96500000D01*
X200135000Y-96036430D01*
X200600010Y-96036430D01*
X200835327Y-95992152D01*
X201051451Y-95853080D01*
X201196441Y-95640880D01*
X201247450Y-95388990D01*
X201247450Y-94273740D01*
X202111255Y-94273740D01*
X202111260Y-94273741D01*
X202393744Y-94217550D01*
X202449935Y-94206373D01*
X202737050Y-94014530D01*
X203375787Y-93375792D01*
X203375790Y-93375790D01*
X203567633Y-93088675D01*
X203585272Y-93000000D01*
X203635001Y-92750000D01*
X203635000Y-92749995D01*
X203635000Y-91279027D01*
X206255032Y-91279027D01*
X206503179Y-91808490D01*
X206921152Y-92190000D01*
X206503179Y-92571510D01*
X206255032Y-93100973D01*
X206375531Y-93333000D01*
X207583000Y-93333000D01*
X207583000Y-91047000D01*
X206375531Y-91047000D01*
X206255032Y-91279027D01*
X203635000Y-91279027D01*
X203635000Y-89337279D01*
X203826441Y-89214090D01*
X203971431Y-89001890D01*
X204022440Y-88750000D01*
X204022440Y-88739027D01*
X206255032Y-88739027D01*
X206503179Y-89268490D01*
X206921152Y-89650000D01*
X206503179Y-90031510D01*
X206255032Y-90560973D01*
X206375531Y-90793000D01*
X207583000Y-90793000D01*
X207583000Y-88507000D01*
X206375531Y-88507000D01*
X206255032Y-88739027D01*
X204022440Y-88739027D01*
X204022440Y-87250000D01*
X203978162Y-87014683D01*
X203839090Y-86798559D01*
X203770994Y-86752031D01*
X203913327Y-86609698D01*
X204010000Y-86376309D01*
X204010000Y-86199027D01*
X206255032Y-86199027D01*
X206503179Y-86728490D01*
X206921152Y-87110000D01*
X206503179Y-87491510D01*
X206255032Y-88020973D01*
X206375531Y-88253000D01*
X207583000Y-88253000D01*
X207583000Y-85967000D01*
X206375531Y-85967000D01*
X206255032Y-86199027D01*
X204010000Y-86199027D01*
X204010000Y-85785750D01*
X203851250Y-85627000D01*
X202877000Y-85627000D01*
X202877000Y-85647000D01*
X202623000Y-85647000D01*
X202623000Y-85627000D01*
X201648750Y-85627000D01*
X201490000Y-85785750D01*
X201490000Y-86376309D01*
X201586673Y-86609698D01*
X201727910Y-86750936D01*
X201673559Y-86785910D01*
X201528569Y-86998110D01*
X201477560Y-87250000D01*
X201477560Y-88750000D01*
X201521838Y-88985317D01*
X201660910Y-89201441D01*
X201865000Y-89340890D01*
X201865000Y-92383421D01*
X201744680Y-92503740D01*
X201247450Y-92503740D01*
X201247450Y-91388490D01*
X201203172Y-91153173D01*
X201064100Y-90937049D01*
X200851900Y-90792059D01*
X200600010Y-90741050D01*
X197899990Y-90741050D01*
X197664673Y-90785328D01*
X197448549Y-90924400D01*
X197303559Y-91136600D01*
X197252550Y-91388490D01*
X197252550Y-95388990D01*
X197296828Y-95624307D01*
X197435900Y-95840431D01*
X197648100Y-95985421D01*
X197899990Y-96036430D01*
X198365000Y-96036430D01*
X198365000Y-96133421D01*
X197383420Y-97115000D01*
X196760478Y-97115000D01*
X196462370Y-96816371D01*
X195949100Y-96603243D01*
X195393339Y-96602758D01*
X194879697Y-96814990D01*
X194486371Y-97207630D01*
X194273243Y-97720900D01*
X194272758Y-98276661D01*
X192130242Y-98276661D01*
X191806948Y-98142418D01*
X189427000Y-95762470D01*
X189427000Y-94119982D01*
X189463398Y-94208072D01*
X189909579Y-94655032D01*
X190492841Y-94897224D01*
X191124388Y-94897775D01*
X191708072Y-94656602D01*
X192155032Y-94210421D01*
X192397224Y-93627159D01*
X192397775Y-92995612D01*
X192156602Y-92411928D01*
X191718471Y-91973032D01*
X191748554Y-91888159D01*
X190810000Y-90949605D01*
X189871446Y-91888159D01*
X189901725Y-91973583D01*
X189464968Y-92409579D01*
X189427000Y-92501016D01*
X189427000Y-91608682D01*
X189429912Y-91615712D01*
X189691841Y-91708554D01*
X190630395Y-90770000D01*
X190989605Y-90770000D01*
X191928159Y-91708554D01*
X192190088Y-91615712D01*
X192408675Y-91023199D01*
X192383878Y-90392139D01*
X192190088Y-89924288D01*
X191928159Y-89831446D01*
X190989605Y-90770000D01*
X190630395Y-90770000D01*
X189691841Y-89831446D01*
X189429912Y-89924288D01*
X189427000Y-89932181D01*
X189427000Y-89348159D01*
X189871446Y-89348159D01*
X189925267Y-89500000D01*
X189871446Y-89651841D01*
X190810000Y-90590395D01*
X191748554Y-89651841D01*
X191694733Y-89500000D01*
X191748554Y-89348159D01*
X190810000Y-88409605D01*
X189871446Y-89348159D01*
X189427000Y-89348159D01*
X189427000Y-89068682D01*
X189429912Y-89075712D01*
X189691841Y-89168554D01*
X190630395Y-88230000D01*
X190616253Y-88215858D01*
X190795858Y-88036253D01*
X190810000Y-88050395D01*
X190824143Y-88036253D01*
X191003748Y-88215858D01*
X190989605Y-88230000D01*
X191928159Y-89168554D01*
X192190088Y-89075712D01*
X192408675Y-88483199D01*
X192383878Y-87852139D01*
X192190088Y-87384288D01*
X191928161Y-87291447D01*
X192042568Y-87177040D01*
X192011661Y-87146133D01*
X192402434Y-86756042D01*
X192689173Y-86065496D01*
X192689320Y-85897010D01*
X197264990Y-85897010D01*
X197264990Y-87737819D01*
X197361663Y-87971208D01*
X197540291Y-88149837D01*
X197773680Y-88246510D01*
X198964250Y-88246510D01*
X199123000Y-88087760D01*
X199123000Y-85738260D01*
X199377000Y-85738260D01*
X199377000Y-88087760D01*
X199535750Y-88246510D01*
X200726320Y-88246510D01*
X200959709Y-88149837D01*
X201138337Y-87971208D01*
X201235010Y-87737819D01*
X201235010Y-85897010D01*
X201076260Y-85738260D01*
X199377000Y-85738260D01*
X199123000Y-85738260D01*
X197423740Y-85738260D01*
X197264990Y-85897010D01*
X192689320Y-85897010D01*
X192689826Y-85317784D01*
X192404292Y-84626739D01*
X191876042Y-84097566D01*
X191749836Y-84045161D01*
X192500000Y-84045161D01*
X192843526Y-83980522D01*
X193159033Y-83777499D01*
X193370696Y-83467721D01*
X193396311Y-83341228D01*
X193429506Y-83517641D01*
X193676331Y-83901219D01*
X194052944Y-84158548D01*
X194500000Y-84249079D01*
X196500000Y-84249079D01*
X196917641Y-84170494D01*
X197264990Y-83946982D01*
X197264990Y-85325510D01*
X197423740Y-85484260D01*
X199123000Y-85484260D01*
X199123000Y-85464260D01*
X199377000Y-85464260D01*
X199377000Y-85484260D01*
X201076260Y-85484260D01*
X201079547Y-85480973D01*
X206255032Y-85480973D01*
X206375531Y-85713000D01*
X207583000Y-85713000D01*
X207583000Y-84506183D01*
X207350974Y-84385042D01*
X206935053Y-84557312D01*
X206503179Y-84951510D01*
X206255032Y-85480973D01*
X201079547Y-85480973D01*
X201235010Y-85325510D01*
X201235010Y-84623691D01*
X201490000Y-84623691D01*
X201490000Y-85214250D01*
X201648750Y-85373000D01*
X202623000Y-85373000D01*
X202623000Y-84273750D01*
X202877000Y-84273750D01*
X202877000Y-85373000D01*
X203851250Y-85373000D01*
X204010000Y-85214250D01*
X204010000Y-84623691D01*
X203913327Y-84390302D01*
X203734699Y-84211673D01*
X203501310Y-84115000D01*
X203035750Y-84115000D01*
X202877000Y-84273750D01*
X202623000Y-84273750D01*
X202464250Y-84115000D01*
X201998690Y-84115000D01*
X201765301Y-84211673D01*
X201586673Y-84390302D01*
X201490000Y-84623691D01*
X201235010Y-84623691D01*
X201235010Y-83484701D01*
X201202069Y-83405175D01*
X201473686Y-83223686D01*
X202470179Y-82227193D01*
X202592014Y-82227299D01*
X203226989Y-81964933D01*
X203713226Y-81479544D01*
X203976700Y-80845029D01*
X203977299Y-80157986D01*
X203714933Y-79523011D01*
X203229544Y-79036774D01*
X202595029Y-78773300D01*
X201907986Y-78772701D01*
X201273011Y-79035067D01*
X200786774Y-79520456D01*
X200523300Y-80154971D01*
X200523191Y-80279437D01*
X199929628Y-80873000D01*
X197500124Y-80873000D01*
X197323669Y-80598781D01*
X196947056Y-80341452D01*
X196877000Y-80327265D01*
X196877000Y-79500000D01*
X196772182Y-78973045D01*
X196618062Y-78742388D01*
X197111458Y-78720315D01*
X197534080Y-78545259D01*
X197614353Y-78293958D01*
X196750000Y-77429605D01*
X196735858Y-77443748D01*
X196556253Y-77264143D01*
X196570395Y-77250000D01*
X196929605Y-77250000D01*
X197793958Y-78114353D01*
X198045259Y-78034080D01*
X198246718Y-77478721D01*
X198220315Y-76888542D01*
X198045259Y-76465920D01*
X197793958Y-76385647D01*
X196929605Y-77250000D01*
X196570395Y-77250000D01*
X195706042Y-76385647D01*
X195454741Y-76465920D01*
X195253282Y-77021279D01*
X195266612Y-77319240D01*
X194223686Y-76276314D01*
X194118517Y-76206042D01*
X195885647Y-76206042D01*
X196750000Y-77070395D01*
X197614353Y-76206042D01*
X197534080Y-75954741D01*
X196978721Y-75753282D01*
X196388542Y-75779685D01*
X195965920Y-75954741D01*
X195885647Y-76206042D01*
X194118517Y-76206042D01*
X193776955Y-75977818D01*
X193651516Y-75952867D01*
X193448262Y-75637000D01*
X200559370Y-75637000D01*
X209479874Y-84557504D01*
G36*
X134478660Y-71443709D02*
X134420000Y-71432041D01*
X133846511Y-71546115D01*
X133360330Y-71870971D01*
X133150000Y-72185752D01*
X132939670Y-71870971D01*
X132453489Y-71546115D01*
X131880000Y-71432041D01*
X131306511Y-71546115D01*
X130820330Y-71870971D01*
X130610000Y-72185752D01*
X130399670Y-71870971D01*
X129913489Y-71546115D01*
X129340000Y-71432041D01*
X128766511Y-71546115D01*
X128280330Y-71870971D01*
X128064336Y-72194228D01*
X128006821Y-72071510D01*
X127574947Y-71677312D01*
X127159026Y-71505042D01*
X126927000Y-71626183D01*
X126927000Y-72833000D01*
X126947000Y-72833000D01*
X126947000Y-73087000D01*
X126927000Y-73087000D01*
X126927000Y-73107000D01*
X126673000Y-73107000D01*
X126673000Y-73087000D01*
X125465531Y-73087000D01*
X125345032Y-73319027D01*
X125593179Y-73848490D01*
X126011161Y-74230008D01*
X125740330Y-74410971D01*
X125415474Y-74897152D01*
X125301400Y-75470641D01*
X125301400Y-75529359D01*
X125415474Y-76102848D01*
X125534431Y-76280879D01*
X125458400Y-76296003D01*
X125458395Y-76296004D01*
X125211185Y-76461185D01*
X123599432Y-78072938D01*
X123362286Y-77835378D01*
X122965668Y-77670687D01*
X122536216Y-77670313D01*
X122532441Y-77671873D01*
X122415689Y-77389311D01*
X122112286Y-77085378D01*
X122027471Y-77050160D01*
X122538815Y-76538816D01*
X122703996Y-76291605D01*
X122712272Y-76250000D01*
X122762000Y-76000000D01*
X122762000Y-73315630D01*
X123476657Y-72600973D01*
X125345032Y-72600973D01*
X125465531Y-72833000D01*
X126673000Y-72833000D01*
X126673000Y-71626183D01*
X126440974Y-71505042D01*
X126025053Y-71677312D01*
X125593179Y-72071510D01*
X125345032Y-72600973D01*
X123476657Y-72600973D01*
X124815630Y-71262000D01*
X134660369Y-71262000D01*
X134478660Y-71443709D01*
X134478660Y-71443709D01*
G37*
X134478660Y-71443709D02*
X134420000Y-71432041D01*
X133846511Y-71546115D01*
X133360330Y-71870971D01*
X133150000Y-72185752D01*
X132939670Y-71870971D01*
X132453489Y-71546115D01*
X131880000Y-71432041D01*
X131306511Y-71546115D01*
X130820330Y-71870971D01*
X130610000Y-72185752D01*
X130399670Y-71870971D01*
X129913489Y-71546115D01*
X129340000Y-71432041D01*
X128766511Y-71546115D01*
X128280330Y-71870971D01*
X128064336Y-72194228D01*
X128006821Y-72071510D01*
X127574947Y-71677312D01*
X127159026Y-71505042D01*
X126927000Y-71626183D01*
X126927000Y-72833000D01*
X126947000Y-72833000D01*
X126947000Y-73087000D01*
X126927000Y-73087000D01*
X126927000Y-73107000D01*
X126673000Y-73107000D01*
X126673000Y-73087000D01*
X125465531Y-73087000D01*
X125345032Y-73319027D01*
X125593179Y-73848490D01*
X126011161Y-74230008D01*
X125740330Y-74410971D01*
X125415474Y-74897152D01*
X125301400Y-75470641D01*
X125301400Y-75529359D01*
X125415474Y-76102848D01*
X125534431Y-76280879D01*
X125458400Y-76296003D01*
X125458395Y-76296004D01*
X125211185Y-76461185D01*
X123599432Y-78072938D01*
X123362286Y-77835378D01*
X122965668Y-77670687D01*
X122536216Y-77670313D01*
X122532441Y-77671873D01*
X122415689Y-77389311D01*
X122112286Y-77085378D01*
X122027471Y-77050160D01*
X122538815Y-76538816D01*
X122703996Y-76291605D01*
X122712272Y-76250000D01*
X122762000Y-76000000D01*
X122762000Y-73315630D01*
X123476657Y-72600973D01*
X125345032Y-72600973D01*
X125465531Y-72833000D01*
X126673000Y-72833000D01*
X126673000Y-71626183D01*
X126440974Y-71505042D01*
X126025053Y-71677312D01*
X125593179Y-72071510D01*
X125345032Y-72600973D01*
X123476657Y-72600973D01*
X124815630Y-71262000D01*
X134660369Y-71262000D01*
X134478660Y-71443709D01*
M02*
