G04 #@! TF.FileFunction,Copper,L2,Bot,Signal*
%FSLAX46Y46*%
G04 Gerber Fmt 4.6, Leading zero omitted, Abs format (unit mm)*
G04 Created by KiCad (PCBNEW 4.0.4-stable) date 11/21/16 22:50:33*
%MOMM*%
%LPD*%
G01*
G04 APERTURE LIST*
%ADD10C,0.100000*%
%ADD11O,2.300000X1.600000*%
%ADD12O,1.600000X2.300000*%
%ADD13R,1.727200X1.727200*%
%ADD14O,1.727200X1.727200*%
%ADD15C,1.524000*%
%ADD16R,1.300000X1.500000*%
%ADD17C,5.700000*%
%ADD18C,5.500000*%
%ADD19R,0.800100X1.800860*%
%ADD20R,1.700000X2.000000*%
%ADD21C,1.700000*%
%ADD22O,3.500000X1.700000*%
%ADD23O,1.700000X3.500000*%
%ADD24C,1.000000*%
%ADD25C,0.850000*%
%ADD26C,0.600000*%
%ADD27C,0.400000*%
%ADD28C,0.800000*%
%ADD29C,0.750000*%
%ADD30C,0.250000*%
G04 APERTURE END LIST*
D10*
D11*
X164000000Y-81750000D03*
X164000000Y-84290000D03*
X164000000Y-86830000D03*
X164000000Y-89370000D03*
X164000000Y-91910000D03*
X164000000Y-94450000D03*
X164000000Y-96990000D03*
X164000000Y-99530000D03*
X171620000Y-99530000D03*
X171620000Y-96990000D03*
X171620000Y-94450000D03*
X171620000Y-91910000D03*
X171620000Y-89370000D03*
X171620000Y-86830000D03*
X171620000Y-84290000D03*
X171620000Y-81750000D03*
D12*
X135750000Y-92000000D03*
X138290000Y-92000000D03*
X140830000Y-92000000D03*
X143370000Y-92000000D03*
X145910000Y-92000000D03*
X148450000Y-92000000D03*
X150990000Y-92000000D03*
X153530000Y-92000000D03*
X153530000Y-84380000D03*
X150990000Y-84380000D03*
X148450000Y-84380000D03*
X145910000Y-84380000D03*
X143370000Y-84380000D03*
X140830000Y-84380000D03*
X138290000Y-84380000D03*
X135750000Y-84380000D03*
X101500000Y-92000000D03*
X104040000Y-92000000D03*
X106580000Y-92000000D03*
X109120000Y-92000000D03*
X111660000Y-92000000D03*
X114200000Y-92000000D03*
X116740000Y-92000000D03*
X119280000Y-92000000D03*
X119280000Y-84380000D03*
X116740000Y-84380000D03*
X114200000Y-84380000D03*
X111660000Y-84380000D03*
X109120000Y-84380000D03*
X106580000Y-84380000D03*
X104040000Y-84380000D03*
X101500000Y-84380000D03*
D11*
X91250000Y-99500000D03*
X91250000Y-96960000D03*
X91250000Y-94420000D03*
X91250000Y-91880000D03*
X91250000Y-89340000D03*
X91250000Y-86800000D03*
X91250000Y-84260000D03*
X91250000Y-81720000D03*
X83630000Y-81720000D03*
X83630000Y-84260000D03*
X83630000Y-86800000D03*
X83630000Y-89340000D03*
X83630000Y-91880000D03*
X83630000Y-94420000D03*
X83630000Y-96960000D03*
X83630000Y-99500000D03*
D13*
X142000000Y-105000000D03*
D14*
X142000000Y-107540000D03*
X136920000Y-105000000D03*
X136920000Y-107540000D03*
X134380000Y-105000000D03*
X134380000Y-107540000D03*
X131840000Y-105000000D03*
X131840000Y-107540000D03*
X129300000Y-105000000D03*
X129300000Y-107540000D03*
X126760000Y-105000000D03*
X126760000Y-107540000D03*
X124220000Y-105000000D03*
X124220000Y-107540000D03*
X121680000Y-105000000D03*
X121680000Y-107540000D03*
X119140000Y-105000000D03*
X119140000Y-107540000D03*
X116600000Y-105000000D03*
X116600000Y-107540000D03*
X114060000Y-105000000D03*
X114060000Y-107540000D03*
D15*
X128000000Y-66750000D03*
X128000000Y-63750000D03*
X128000000Y-72750000D03*
X128000000Y-69750000D03*
D16*
X126250000Y-86650000D03*
X126250000Y-89350000D03*
X131500000Y-86650000D03*
X131500000Y-89350000D03*
D17*
X82000000Y-51000000D03*
D18*
X174000000Y-51000000D03*
X174000000Y-108000000D03*
X82000000Y-108000000D03*
D19*
X127200000Y-83001140D03*
X125300000Y-83001140D03*
X126250000Y-79998860D03*
X132200000Y-83001140D03*
X130300000Y-83001140D03*
X131250000Y-79998860D03*
D20*
X136500000Y-49750000D03*
X136500000Y-53750000D03*
X102250000Y-49750000D03*
X102250000Y-53750000D03*
X157000000Y-49750000D03*
X157000000Y-53750000D03*
X97250000Y-49750000D03*
X97250000Y-53750000D03*
X126500000Y-53750000D03*
X126500000Y-49750000D03*
X121250000Y-53750000D03*
X121250000Y-49750000D03*
D21*
X145450000Y-67970577D02*
X144550000Y-69529423D01*
X149720577Y-67300000D02*
X151279423Y-68200000D01*
D22*
X149763140Y-65000000D03*
D21*
X146970577Y-63436860D02*
X148529423Y-62536860D01*
X144550000Y-63029423D02*
X145450000Y-61470577D01*
D23*
X142250000Y-62986860D03*
D21*
X140686860Y-65779423D02*
X139786860Y-64220577D01*
X140279423Y-68200000D02*
X138720577Y-67300000D01*
D22*
X140236860Y-70500000D03*
D21*
X143029423Y-72063140D02*
X141470577Y-72963140D01*
D23*
X147750000Y-72513140D03*
D21*
X149313140Y-69720577D02*
X150213140Y-71279423D01*
X166450000Y-67970577D02*
X165550000Y-69529423D01*
X170720577Y-67300000D02*
X172279423Y-68200000D01*
D22*
X170763140Y-65000000D03*
D21*
X167970577Y-63436860D02*
X169529423Y-62536860D01*
X165550000Y-63029423D02*
X166450000Y-61470577D01*
D23*
X163250000Y-62986860D03*
D21*
X161686860Y-65779423D02*
X160786860Y-64220577D01*
X161279423Y-68200000D02*
X159720577Y-67300000D01*
D22*
X161236860Y-70500000D03*
D21*
X164029423Y-72063140D02*
X162470577Y-72963140D01*
D23*
X168750000Y-72513140D03*
D21*
X170313140Y-69720577D02*
X171213140Y-71279423D01*
X111450000Y-68220577D02*
X110550000Y-69779423D01*
X115720577Y-67550000D02*
X117279423Y-68450000D01*
D22*
X115763140Y-65250000D03*
D21*
X112970577Y-63686860D02*
X114529423Y-62786860D01*
X110550000Y-63279423D02*
X111450000Y-61720577D01*
D23*
X108250000Y-63236860D03*
D21*
X106686860Y-66029423D02*
X105786860Y-64470577D01*
X106279423Y-68450000D02*
X104720577Y-67550000D01*
D22*
X106236860Y-70750000D03*
D21*
X109029423Y-72313140D02*
X107470577Y-73213140D01*
D23*
X113750000Y-72763140D03*
D21*
X115313140Y-69970577D02*
X116213140Y-71529423D01*
X90450000Y-68220577D02*
X89550000Y-69779423D01*
X94720577Y-67550000D02*
X96279423Y-68450000D01*
D22*
X94763140Y-65250000D03*
D21*
X91970577Y-63686860D02*
X93529423Y-62786860D01*
X89550000Y-63279423D02*
X90450000Y-61720577D01*
D23*
X87250000Y-63236860D03*
D21*
X85686860Y-66029423D02*
X84786860Y-64470577D01*
X85279423Y-68450000D02*
X83720577Y-67550000D01*
D22*
X85236860Y-70750000D03*
D21*
X88029423Y-72313140D02*
X86470577Y-73213140D01*
D23*
X92750000Y-72763140D03*
D21*
X94313140Y-69970577D02*
X95213140Y-71529423D01*
D24*
X149750000Y-100500000D03*
X139250000Y-100500000D03*
X118000000Y-100500000D03*
X146000000Y-88750000D03*
X104250000Y-100500000D03*
X121750000Y-87000000D03*
D25*
X91500000Y-54000000D03*
D26*
X79750000Y-62750000D03*
X79250000Y-58250000D03*
X158250000Y-81000000D03*
X153750000Y-79000000D03*
X152500000Y-76750000D03*
X123500000Y-76500000D03*
X120750000Y-74000000D03*
X119250000Y-75250000D03*
D24*
X132250000Y-49750000D03*
D25*
X152500000Y-109000000D03*
D24*
X160500000Y-101000000D03*
D26*
X144750000Y-98000000D03*
X148500000Y-96750000D03*
X146250000Y-109000000D03*
X126750000Y-96750000D03*
X116000000Y-96750000D03*
X124250000Y-95250000D03*
X124000000Y-110000000D03*
X126250000Y-91500000D03*
D27*
X126500000Y-53750000D02*
X126500000Y-56500000D01*
X126500000Y-56500000D02*
X125250000Y-57750000D01*
X126500000Y-53750000D02*
X126500000Y-54000000D01*
X126000000Y-66750000D02*
X128000000Y-66750000D01*
X125250000Y-66000000D02*
X126000000Y-66750000D01*
X125250000Y-57750000D02*
X125250000Y-66000000D01*
X131250000Y-79998860D02*
X131250000Y-78000000D01*
X132750000Y-68500000D02*
X128000000Y-63750000D01*
X132750000Y-76500000D02*
X132750000Y-68500000D01*
X131250000Y-78000000D02*
X132750000Y-76500000D01*
X121250000Y-53750000D02*
X121250000Y-55750000D01*
X121250000Y-55750000D02*
X123500000Y-58000000D01*
X128000000Y-72750000D02*
X125250000Y-72750000D01*
X123500000Y-71000000D02*
X123500000Y-58000000D01*
X125250000Y-72750000D02*
X123500000Y-71000000D01*
X130250000Y-72000000D02*
X130250000Y-74000000D01*
X128000000Y-69750000D02*
X130250000Y-72000000D01*
X130250000Y-74000000D02*
X126250000Y-78000000D01*
X126250000Y-78000000D02*
X126250000Y-79998860D01*
X130300000Y-83001140D02*
X129498860Y-83001140D01*
X129498860Y-83001140D02*
X128750000Y-83750000D01*
X128750000Y-83750000D02*
X128750000Y-87250000D01*
X128750000Y-87250000D02*
X128000000Y-88000000D01*
X128000000Y-88000000D02*
X121750000Y-88000000D01*
X125300000Y-83001140D02*
X124248860Y-83001140D01*
X123000000Y-87000000D02*
X121750000Y-87000000D01*
X123500000Y-86500000D02*
X123000000Y-87000000D01*
X123500000Y-83750000D02*
X123500000Y-86500000D01*
X124248860Y-83001140D02*
X123500000Y-83750000D01*
D28*
X149750000Y-100500000D02*
X139250000Y-100500000D01*
X118000000Y-100500000D02*
X114000000Y-100500000D01*
X104250000Y-100500000D02*
X114000000Y-100500000D01*
X114060000Y-105000000D02*
X114060000Y-100500000D01*
X114060000Y-100500000D02*
X114000000Y-100500000D01*
X114060000Y-105000000D02*
X114060000Y-107540000D01*
D29*
X145910000Y-84380000D02*
X145910000Y-88660000D01*
X145910000Y-88660000D02*
X146000000Y-88750000D01*
X135250000Y-88750000D02*
X146000000Y-88750000D01*
X131000000Y-93000000D02*
X135250000Y-88750000D01*
X124750000Y-93000000D02*
X131000000Y-93000000D01*
X121750000Y-90000000D02*
X124750000Y-93000000D01*
X121750000Y-87000000D02*
X121750000Y-88000000D01*
X121750000Y-88000000D02*
X121750000Y-90000000D01*
D27*
X91500000Y-54000000D02*
X97250000Y-54000000D01*
X142250000Y-72513140D02*
X141486860Y-72513140D01*
X141486860Y-72513140D02*
X141000000Y-73000000D01*
X141000000Y-73000000D02*
X137750000Y-73000000D01*
X137750000Y-73000000D02*
X136500000Y-71750000D01*
X136500000Y-71750000D02*
X136500000Y-53750000D01*
X108250000Y-72763140D02*
X107486860Y-72763140D01*
X107486860Y-72763140D02*
X105750000Y-74500000D01*
X105750000Y-74500000D02*
X103750000Y-74500000D01*
X103750000Y-74500000D02*
X102250000Y-73000000D01*
X102250000Y-73000000D02*
X102250000Y-53750000D01*
X157000000Y-53500000D02*
X157000000Y-70750000D01*
X158763140Y-72513140D02*
X157000000Y-70750000D01*
X158763140Y-72513140D02*
X163250000Y-72513140D01*
D30*
X85236860Y-70750000D02*
X85236860Y-71263140D01*
X85236860Y-71263140D02*
X81000000Y-75500000D01*
X81750000Y-99500000D02*
X83630000Y-99500000D01*
X81000000Y-98750000D02*
X81750000Y-99500000D01*
X81000000Y-75500000D02*
X81000000Y-98750000D01*
X80000000Y-100000000D02*
X80000000Y-72500000D01*
X91250000Y-96960000D02*
X88290000Y-96960000D01*
X82000000Y-102000000D02*
X80000000Y-100000000D01*
X84750000Y-102000000D02*
X82000000Y-102000000D01*
X86500000Y-100250000D02*
X84750000Y-102000000D01*
X86500000Y-98750000D02*
X86500000Y-100250000D01*
X88290000Y-96960000D02*
X86500000Y-98750000D01*
X80000000Y-72500000D02*
X84500000Y-68000000D01*
X78750000Y-101000000D02*
X78750000Y-68750000D01*
X91250000Y-99500000D02*
X89000000Y-99500000D01*
X82250000Y-65250000D02*
X85236860Y-65250000D01*
X78750000Y-68750000D02*
X82250000Y-65250000D01*
X80750000Y-103000000D02*
X78750000Y-101000000D01*
X85500000Y-103000000D02*
X80750000Y-103000000D01*
X89000000Y-99500000D02*
X85500000Y-103000000D01*
X81500000Y-61000000D02*
X79750000Y-62750000D01*
X85013140Y-61000000D02*
X87250000Y-63236860D01*
X81500000Y-61000000D02*
X85013140Y-61000000D01*
X87750000Y-58250000D02*
X79250000Y-58250000D01*
X90000000Y-62500000D02*
X90000000Y-60500000D01*
X90000000Y-60500000D02*
X87750000Y-58250000D01*
X83630000Y-94420000D02*
X85330000Y-94420000D01*
X98250000Y-62250000D02*
X93736860Y-62250000D01*
X100500000Y-64500000D02*
X98250000Y-62250000D01*
X100500000Y-73750000D02*
X100500000Y-64500000D01*
X95000000Y-79250000D02*
X100500000Y-73750000D01*
X90750000Y-79250000D02*
X95000000Y-79250000D01*
X88750000Y-81250000D02*
X90750000Y-79250000D01*
X88750000Y-91000000D02*
X88750000Y-81250000D01*
X85330000Y-94420000D02*
X88750000Y-91000000D01*
X93736860Y-62250000D02*
X92750000Y-63236860D01*
X94000000Y-78000000D02*
X90250000Y-78000000D01*
X97500000Y-65250000D02*
X99000000Y-66750000D01*
X99000000Y-66750000D02*
X99000000Y-73000000D01*
X99000000Y-73000000D02*
X94000000Y-78000000D01*
X90250000Y-78000000D02*
X87000000Y-81250000D01*
X87000000Y-81250000D02*
X87000000Y-90500000D01*
X87000000Y-90500000D02*
X85620000Y-91880000D01*
X83630000Y-91880000D02*
X85620000Y-91880000D01*
X97500000Y-65250000D02*
X94763140Y-65250000D01*
X83630000Y-81720000D02*
X83630000Y-80120000D01*
X97500000Y-70000000D02*
X95500000Y-68000000D01*
X97500000Y-72250000D02*
X97500000Y-70000000D01*
X93250000Y-76500000D02*
X97500000Y-72250000D01*
X87250000Y-76500000D02*
X93250000Y-76500000D01*
X83630000Y-80120000D02*
X87250000Y-76500000D01*
X135750000Y-92000000D02*
X135500000Y-92000000D01*
X153486860Y-62986860D02*
X155000000Y-64500000D01*
X155000000Y-64500000D02*
X155000000Y-77750000D01*
X155000000Y-77750000D02*
X158250000Y-81000000D01*
X153486860Y-62986860D02*
X147750000Y-62986860D01*
X149763140Y-65000000D02*
X152500000Y-65000000D01*
X152500000Y-65000000D02*
X153750000Y-66250000D01*
X153750000Y-66250000D02*
X153750000Y-79000000D01*
X143500000Y-84510000D02*
X143370000Y-84380000D01*
X150500000Y-67750000D02*
X152500000Y-69750000D01*
X152500000Y-69750000D02*
X152500000Y-76750000D01*
X153530000Y-92000000D02*
X153530000Y-89970000D01*
X150750000Y-79500000D02*
X150750000Y-71486860D01*
X152000000Y-80750000D02*
X150750000Y-79500000D01*
X154000000Y-80750000D02*
X152000000Y-80750000D01*
X156250000Y-83000000D02*
X154000000Y-80750000D01*
X156250000Y-87250000D02*
X156250000Y-83000000D01*
X153530000Y-89970000D02*
X156250000Y-87250000D01*
X150750000Y-71486860D02*
X149763140Y-70500000D01*
X122000000Y-65500000D02*
X122000000Y-75000000D01*
X113750000Y-63236860D02*
X119736860Y-63236860D01*
X119736860Y-63236860D02*
X122000000Y-65500000D01*
X123500000Y-76500000D02*
X122000000Y-75000000D01*
X119250000Y-65250000D02*
X115763140Y-65250000D01*
X120750000Y-66750000D02*
X119250000Y-65250000D01*
X120750000Y-74000000D02*
X120750000Y-66750000D01*
X116500000Y-68000000D02*
X116750000Y-68000000D01*
X116750000Y-68000000D02*
X119250000Y-70500000D01*
X119250000Y-70500000D02*
X119250000Y-75250000D01*
X119280000Y-92000000D02*
X119280000Y-87220000D01*
X119280000Y-87220000D02*
X121750000Y-84750000D01*
X115763140Y-70750000D02*
X115763140Y-74513140D01*
X115763140Y-74513140D02*
X121750000Y-80500000D01*
X121750000Y-80500000D02*
X121750000Y-84750000D01*
X171620000Y-96990000D02*
X174260000Y-96990000D01*
X163250000Y-60000000D02*
X163250000Y-62986860D01*
X164750000Y-58500000D02*
X163250000Y-60000000D01*
X170250000Y-58500000D02*
X164750000Y-58500000D01*
X176500000Y-64750000D02*
X170250000Y-58500000D01*
X176500000Y-94750000D02*
X176500000Y-64750000D01*
X174260000Y-96990000D02*
X176500000Y-94750000D01*
X171620000Y-99530000D02*
X170030000Y-99530000D01*
X175000000Y-71250000D02*
X171500000Y-67750000D01*
X175000000Y-74000000D02*
X175000000Y-71250000D01*
X168500000Y-80500000D02*
X175000000Y-74000000D01*
X168500000Y-98000000D02*
X168500000Y-80500000D01*
X170030000Y-99530000D02*
X168500000Y-98000000D01*
X164000000Y-99530000D02*
X165970000Y-99530000D01*
X172500000Y-72236860D02*
X170763140Y-70500000D01*
X172500000Y-74250000D02*
X172500000Y-72236860D01*
X166750000Y-80000000D02*
X172500000Y-74250000D01*
X166750000Y-98750000D02*
X166750000Y-80000000D01*
X165970000Y-99530000D02*
X166750000Y-98750000D01*
D28*
X136500000Y-49750000D02*
X157000000Y-49750000D01*
X132250000Y-49750000D02*
X136500000Y-49750000D01*
X132250000Y-49750000D02*
X126500000Y-49750000D01*
X102250000Y-49750000D02*
X97250000Y-49750000D01*
X121250000Y-49750000D02*
X102250000Y-49750000D01*
X126500000Y-49750000D02*
X121250000Y-49750000D01*
D27*
X102250000Y-49900000D02*
X97250000Y-49900000D01*
D28*
X160500000Y-101000000D02*
X152500000Y-109000000D01*
D30*
X126250000Y-86650000D02*
X126250000Y-85750000D01*
X127200000Y-84800000D02*
X127200000Y-83001140D01*
X126250000Y-85750000D02*
X127200000Y-84800000D01*
X132200000Y-83001140D02*
X132200000Y-84300000D01*
X131500000Y-85000000D02*
X131500000Y-86900000D01*
X132200000Y-84300000D02*
X131500000Y-85000000D01*
X137000000Y-98500000D02*
X137000000Y-104920000D01*
X137000000Y-104920000D02*
X136920000Y-105000000D01*
X144750000Y-98000000D02*
X137500000Y-98000000D01*
X137500000Y-98000000D02*
X137000000Y-98500000D01*
X143750000Y-109750000D02*
X158500000Y-95000000D01*
X164000000Y-86830000D02*
X161920000Y-86830000D01*
X161920000Y-86830000D02*
X158500000Y-90250000D01*
X143750000Y-109750000D02*
X139130000Y-109750000D01*
X139130000Y-109750000D02*
X136920000Y-107540000D01*
X158500000Y-90250000D02*
X158500000Y-95000000D01*
X163920000Y-86750000D02*
X164000000Y-86830000D01*
X134380000Y-105000000D02*
X134380000Y-98120000D01*
X134380000Y-98120000D02*
X135750000Y-96750000D01*
X135750000Y-96750000D02*
X148500000Y-96750000D01*
X137340000Y-110500000D02*
X146250000Y-110500000D01*
X134380000Y-107540000D02*
X137340000Y-110500000D01*
X146250000Y-110500000D02*
X162300000Y-94450000D01*
X164000000Y-94450000D02*
X162300000Y-94450000D01*
X131840000Y-105000000D02*
X131840000Y-98410000D01*
X131840000Y-98410000D02*
X134750000Y-95500000D01*
X134750000Y-95500000D02*
X150000000Y-95500000D01*
X150000000Y-95500000D02*
X150990000Y-94510000D01*
X150990000Y-94510000D02*
X150990000Y-92000000D01*
X147250000Y-111250000D02*
X161500000Y-97000000D01*
X135500000Y-111250000D02*
X147250000Y-111250000D01*
X131840000Y-107590000D02*
X135500000Y-111250000D01*
X161500000Y-97000000D02*
X161500000Y-96990000D01*
X164000000Y-96990000D02*
X161500000Y-96990000D01*
X131840000Y-107540000D02*
X131840000Y-107590000D01*
X129300000Y-105000000D02*
X129300000Y-98700000D01*
X129300000Y-98700000D02*
X133250000Y-94750000D01*
X133250000Y-94750000D02*
X142750000Y-94750000D01*
X142750000Y-94750000D02*
X143370000Y-94130000D01*
X143370000Y-94130000D02*
X143370000Y-92000000D01*
X161875000Y-89375000D02*
X163995000Y-89375000D01*
X163995000Y-89375000D02*
X164000000Y-89370000D01*
X146250000Y-109000000D02*
X160000000Y-95250000D01*
X160000000Y-95250000D02*
X160000000Y-91250000D01*
X160000000Y-91250000D02*
X161875000Y-89375000D01*
X126760000Y-105000000D02*
X126760000Y-96760000D01*
X126750000Y-96750000D02*
X126760000Y-96760000D01*
X116000000Y-96750000D02*
X108000000Y-96750000D01*
X108000000Y-96750000D02*
X106500000Y-95250000D01*
X106500000Y-95250000D02*
X106500000Y-92080000D01*
X106500000Y-92080000D02*
X106580000Y-92000000D01*
X126760000Y-107540000D02*
X126760000Y-110240000D01*
X93670000Y-94420000D02*
X94500000Y-95250000D01*
X93670000Y-94420000D02*
X91250000Y-94420000D01*
X94500000Y-95250000D02*
X94500000Y-98000000D01*
X108000000Y-111500000D02*
X94500000Y-98000000D01*
X125500000Y-111500000D02*
X108000000Y-111500000D01*
X126760000Y-110240000D02*
X125500000Y-111500000D01*
X124220000Y-105000000D02*
X124220000Y-95470000D01*
X124250000Y-95250000D02*
X124220000Y-95470000D01*
X122260000Y-109500000D02*
X122250000Y-109500000D01*
X124220000Y-107540000D02*
X122260000Y-109500000D01*
X94800000Y-86800000D02*
X91250000Y-86800000D01*
X94800000Y-86800000D02*
X97000000Y-89000000D01*
X97000000Y-89000000D02*
X97000000Y-97250000D01*
X110250000Y-110500000D02*
X97000000Y-97250000D01*
X121250000Y-110500000D02*
X110250000Y-110500000D01*
X122250000Y-109500000D02*
X121250000Y-110500000D01*
X121680000Y-105000000D02*
X121680000Y-95430000D01*
X120750000Y-94500000D02*
X121680000Y-95430000D01*
X117500000Y-94500000D02*
X120750000Y-94500000D01*
X116740000Y-93740000D02*
X117500000Y-94500000D01*
X116740000Y-93740000D02*
X116740000Y-92000000D01*
X121680000Y-107540000D02*
X121680000Y-107820000D01*
X121680000Y-107820000D02*
X119500000Y-110000000D01*
X119500000Y-110000000D02*
X111250000Y-110000000D01*
X111250000Y-110000000D02*
X98000000Y-96750000D01*
X98000000Y-96750000D02*
X98000000Y-88250000D01*
X98000000Y-88250000D02*
X94010000Y-84260000D01*
X91250000Y-84260000D02*
X94010000Y-84260000D01*
X119140000Y-105000000D02*
X119140000Y-98140000D01*
X119140000Y-98140000D02*
X116750000Y-95750000D01*
X116750000Y-95750000D02*
X110000000Y-95750000D01*
X110000000Y-95750000D02*
X109120000Y-94870000D01*
X109120000Y-94870000D02*
X109120000Y-92000000D01*
X109250000Y-111000000D02*
X123000000Y-111000000D01*
X123000000Y-111000000D02*
X124000000Y-110000000D01*
X95500000Y-97250000D02*
X95500000Y-93000000D01*
X95500000Y-93000000D02*
X94380000Y-91880000D01*
X94380000Y-91880000D02*
X91250000Y-91880000D01*
X109250000Y-111000000D02*
X95500000Y-97250000D01*
X126250000Y-91500000D02*
X126250000Y-89350000D01*
X126250000Y-89350000D02*
X131500000Y-89350000D01*
M02*
