G04 #@! TF.FileFunction,Legend,Top*
%FSLAX46Y46*%
G04 Gerber Fmt 4.6, Leading zero omitted, Abs format (unit mm)*
G04 Created by KiCad (PCBNEW 4.0.4-stable) date 11/21/16 23:00:24*
%MOMM*%
%LPD*%
G01*
G04 APERTURE LIST*
%ADD10C,0.100000*%
%ADD11C,0.300000*%
%ADD12C,0.150000*%
G04 APERTURE END LIST*
D10*
D11*
X94928571Y-105450000D02*
X95642857Y-105450000D01*
X94785714Y-105878571D02*
X95285714Y-104378571D01*
X95785714Y-105878571D01*
X96285714Y-105735714D02*
X96357142Y-105807143D01*
X96285714Y-105878571D01*
X96214285Y-105807143D01*
X96285714Y-105735714D01*
X96285714Y-105878571D01*
X98642857Y-105092857D02*
X98857143Y-105164286D01*
X98928571Y-105235714D01*
X99000000Y-105378571D01*
X99000000Y-105592857D01*
X98928571Y-105735714D01*
X98857143Y-105807143D01*
X98714285Y-105878571D01*
X98142857Y-105878571D01*
X98142857Y-104378571D01*
X98642857Y-104378571D01*
X98785714Y-104450000D01*
X98857143Y-104521429D01*
X98928571Y-104664286D01*
X98928571Y-104807143D01*
X98857143Y-104950000D01*
X98785714Y-105021429D01*
X98642857Y-105092857D01*
X98142857Y-105092857D01*
X99642857Y-105878571D02*
X99642857Y-104878571D01*
X99642857Y-105164286D02*
X99714285Y-105021429D01*
X99785714Y-104950000D01*
X99928571Y-104878571D01*
X100071428Y-104878571D01*
X100571428Y-105878571D02*
X100571428Y-104878571D01*
X100571428Y-104378571D02*
X100499999Y-104450000D01*
X100571428Y-104521429D01*
X100642856Y-104450000D01*
X100571428Y-104378571D01*
X100571428Y-104521429D01*
X101928571Y-104878571D02*
X101928571Y-106092857D01*
X101857142Y-106235714D01*
X101785714Y-106307143D01*
X101642857Y-106378571D01*
X101428571Y-106378571D01*
X101285714Y-106307143D01*
X101928571Y-105807143D02*
X101785714Y-105878571D01*
X101500000Y-105878571D01*
X101357142Y-105807143D01*
X101285714Y-105735714D01*
X101214285Y-105592857D01*
X101214285Y-105164286D01*
X101285714Y-105021429D01*
X101357142Y-104950000D01*
X101500000Y-104878571D01*
X101785714Y-104878571D01*
X101928571Y-104950000D01*
X103285714Y-104878571D02*
X103285714Y-106092857D01*
X103214285Y-106235714D01*
X103142857Y-106307143D01*
X103000000Y-106378571D01*
X102785714Y-106378571D01*
X102642857Y-106307143D01*
X103285714Y-105807143D02*
X103142857Y-105878571D01*
X102857143Y-105878571D01*
X102714285Y-105807143D01*
X102642857Y-105735714D01*
X102571428Y-105592857D01*
X102571428Y-105164286D01*
X102642857Y-105021429D01*
X102714285Y-104950000D01*
X102857143Y-104878571D01*
X103142857Y-104878571D01*
X103285714Y-104950000D01*
X103928571Y-105807143D02*
X104071428Y-105878571D01*
X104357143Y-105878571D01*
X104500000Y-105807143D01*
X104571428Y-105664286D01*
X104571428Y-105592857D01*
X104500000Y-105450000D01*
X104357143Y-105378571D01*
X104142857Y-105378571D01*
X104000000Y-105307143D01*
X103928571Y-105164286D01*
X103928571Y-105092857D01*
X104000000Y-104950000D01*
X104142857Y-104878571D01*
X104357143Y-104878571D01*
X104500000Y-104950000D01*
X95821430Y-108428571D02*
X94964287Y-108428571D01*
X95392859Y-108428571D02*
X95392859Y-106928571D01*
X95250002Y-107142857D01*
X95107144Y-107285714D01*
X94964287Y-107357143D01*
X97250001Y-108428571D02*
X96392858Y-108428571D01*
X96821430Y-108428571D02*
X96821430Y-106928571D01*
X96678573Y-107142857D01*
X96535715Y-107285714D01*
X96392858Y-107357143D01*
X98964286Y-106857143D02*
X97678572Y-108785714D01*
X99392858Y-107071429D02*
X99464287Y-107000000D01*
X99607144Y-106928571D01*
X99964287Y-106928571D01*
X100107144Y-107000000D01*
X100178573Y-107071429D01*
X100250001Y-107214286D01*
X100250001Y-107357143D01*
X100178573Y-107571429D01*
X99321430Y-108428571D01*
X100250001Y-108428571D01*
X101178572Y-106928571D02*
X101321429Y-106928571D01*
X101464286Y-107000000D01*
X101535715Y-107071429D01*
X101607144Y-107214286D01*
X101678572Y-107500000D01*
X101678572Y-107857143D01*
X101607144Y-108142857D01*
X101535715Y-108285714D01*
X101464286Y-108357143D01*
X101321429Y-108428571D01*
X101178572Y-108428571D01*
X101035715Y-108357143D01*
X100964286Y-108285714D01*
X100892858Y-108142857D01*
X100821429Y-107857143D01*
X100821429Y-107500000D01*
X100892858Y-107214286D01*
X100964286Y-107071429D01*
X101035715Y-107000000D01*
X101178572Y-106928571D01*
X103107143Y-108428571D02*
X102250000Y-108428571D01*
X102678572Y-108428571D02*
X102678572Y-106928571D01*
X102535715Y-107142857D01*
X102392857Y-107285714D01*
X102250000Y-107357143D01*
X104392857Y-106928571D02*
X104107143Y-106928571D01*
X103964286Y-107000000D01*
X103892857Y-107071429D01*
X103750000Y-107285714D01*
X103678571Y-107571429D01*
X103678571Y-108142857D01*
X103750000Y-108285714D01*
X103821428Y-108357143D01*
X103964286Y-108428571D01*
X104250000Y-108428571D01*
X104392857Y-108357143D01*
X104464286Y-108285714D01*
X104535714Y-108142857D01*
X104535714Y-107785714D01*
X104464286Y-107642857D01*
X104392857Y-107571429D01*
X104250000Y-107500000D01*
X103964286Y-107500000D01*
X103821428Y-107571429D01*
X103750000Y-107642857D01*
X103678571Y-107785714D01*
X97464286Y-109478571D02*
X97964286Y-110978571D01*
X98464286Y-109478571D01*
X99750000Y-110978571D02*
X98892857Y-110978571D01*
X99321429Y-110978571D02*
X99321429Y-109478571D01*
X99178572Y-109692857D01*
X99035714Y-109835714D01*
X98892857Y-109907143D01*
X100392857Y-110835714D02*
X100464285Y-110907143D01*
X100392857Y-110978571D01*
X100321428Y-110907143D01*
X100392857Y-110835714D01*
X100392857Y-110978571D01*
X101892857Y-110978571D02*
X101035714Y-110978571D01*
X101464286Y-110978571D02*
X101464286Y-109478571D01*
X101321429Y-109692857D01*
X101178571Y-109835714D01*
X101035714Y-109907143D01*
D12*
X164135000Y-79455000D02*
X164135000Y-80725000D01*
X171485000Y-79455000D02*
X171485000Y-80725000D01*
X171485000Y-101825000D02*
X171485000Y-100555000D01*
X164135000Y-101825000D02*
X164135000Y-100555000D01*
X164135000Y-79455000D02*
X171485000Y-79455000D01*
X164135000Y-101825000D02*
X171485000Y-101825000D01*
X164135000Y-80725000D02*
X162850000Y-80725000D01*
X133455000Y-91865000D02*
X134725000Y-91865000D01*
X133455000Y-84515000D02*
X134725000Y-84515000D01*
X155825000Y-84515000D02*
X154555000Y-84515000D01*
X155825000Y-91865000D02*
X154555000Y-91865000D01*
X133455000Y-91865000D02*
X133455000Y-84515000D01*
X155825000Y-91865000D02*
X155825000Y-84515000D01*
X134725000Y-91865000D02*
X134725000Y-93150000D01*
X99205000Y-91865000D02*
X100475000Y-91865000D01*
X99205000Y-84515000D02*
X100475000Y-84515000D01*
X121575000Y-84515000D02*
X120305000Y-84515000D01*
X121575000Y-91865000D02*
X120305000Y-91865000D01*
X99205000Y-91865000D02*
X99205000Y-84515000D01*
X121575000Y-91865000D02*
X121575000Y-84515000D01*
X100475000Y-91865000D02*
X100475000Y-93150000D01*
X91115000Y-101795000D02*
X91115000Y-100525000D01*
X83765000Y-101795000D02*
X83765000Y-100525000D01*
X83765000Y-79425000D02*
X83765000Y-80695000D01*
X91115000Y-79425000D02*
X91115000Y-80695000D01*
X91115000Y-101795000D02*
X83765000Y-101795000D01*
X91115000Y-79425000D02*
X83765000Y-79425000D01*
X91115000Y-100525000D02*
X92400000Y-100525000D01*
X112790000Y-108810000D02*
X143270000Y-108810000D01*
X140730000Y-103730000D02*
X112790000Y-103730000D01*
X112790000Y-108810000D02*
X112790000Y-103730000D01*
X143270000Y-108810000D02*
X143270000Y-106270000D01*
X143550000Y-105000000D02*
X143550000Y-103450000D01*
X143270000Y-106270000D02*
X140730000Y-106270000D01*
X140730000Y-106270000D02*
X140730000Y-103730000D01*
X143550000Y-103450000D02*
X142000000Y-103450000D01*
X131480865Y-65250000D02*
G75*
G03X131480865Y-65250000I-3480865J0D01*
G01*
X131480865Y-71250000D02*
G75*
G03X131480865Y-71250000I-3480865J0D01*
G01*
X149000000Y-97650000D02*
X148000000Y-97650000D01*
X148000000Y-99350000D02*
X149000000Y-99350000D01*
X95600000Y-91250000D02*
X95600000Y-90250000D01*
X93900000Y-90250000D02*
X93900000Y-91250000D01*
X112350000Y-97750000D02*
X112350000Y-96750000D01*
X110650000Y-96750000D02*
X110650000Y-97750000D01*
X158750000Y-89600000D02*
X159750000Y-89600000D01*
X159750000Y-87900000D02*
X158750000Y-87900000D01*
X155000000Y-67750000D02*
G75*
G03X155000000Y-67750000I-10000000J0D01*
G01*
X176000000Y-67750000D02*
G75*
G03X176000000Y-67750000I-10000000J0D01*
G01*
X121000000Y-68000000D02*
G75*
G03X121000000Y-68000000I-10000000J0D01*
G01*
X100000000Y-68000000D02*
G75*
G03X100000000Y-68000000I-10000000J0D01*
G01*
X163238095Y-75982381D02*
X163238095Y-76791905D01*
X163285714Y-76887143D01*
X163333333Y-76934762D01*
X163428571Y-76982381D01*
X163619048Y-76982381D01*
X163714286Y-76934762D01*
X163761905Y-76887143D01*
X163809524Y-76791905D01*
X163809524Y-75982381D01*
X164714286Y-76315714D02*
X164714286Y-76982381D01*
X164476190Y-75934762D02*
X164238095Y-76649048D01*
X164857143Y-76649048D01*
X129982381Y-92761905D02*
X130791905Y-92761905D01*
X130887143Y-92714286D01*
X130934762Y-92666667D01*
X130982381Y-92571429D01*
X130982381Y-92380952D01*
X130934762Y-92285714D01*
X130887143Y-92238095D01*
X130791905Y-92190476D01*
X129982381Y-92190476D01*
X129982381Y-91809524D02*
X129982381Y-91190476D01*
X130363333Y-91523810D01*
X130363333Y-91380952D01*
X130410952Y-91285714D01*
X130458571Y-91238095D01*
X130553810Y-91190476D01*
X130791905Y-91190476D01*
X130887143Y-91238095D01*
X130934762Y-91285714D01*
X130982381Y-91380952D01*
X130982381Y-91666667D01*
X130934762Y-91761905D01*
X130887143Y-91809524D01*
X97452381Y-85261905D02*
X98261905Y-85261905D01*
X98357143Y-85214286D01*
X98404762Y-85166667D01*
X98452381Y-85071429D01*
X98452381Y-84880952D01*
X98404762Y-84785714D01*
X98357143Y-84738095D01*
X98261905Y-84690476D01*
X97452381Y-84690476D01*
X97547619Y-84261905D02*
X97500000Y-84214286D01*
X97452381Y-84119048D01*
X97452381Y-83880952D01*
X97500000Y-83785714D01*
X97547619Y-83738095D01*
X97642857Y-83690476D01*
X97738095Y-83690476D01*
X97880952Y-83738095D01*
X98452381Y-84309524D01*
X98452381Y-83690476D01*
X90238095Y-102702381D02*
X90238095Y-103511905D01*
X90285714Y-103607143D01*
X90333333Y-103654762D01*
X90428571Y-103702381D01*
X90619048Y-103702381D01*
X90714286Y-103654762D01*
X90761905Y-103607143D01*
X90809524Y-103511905D01*
X90809524Y-102702381D01*
X91809524Y-103702381D02*
X91238095Y-103702381D01*
X91523809Y-103702381D02*
X91523809Y-102702381D01*
X91428571Y-102845238D01*
X91333333Y-102940476D01*
X91238095Y-102988095D01*
X144261905Y-106702381D02*
X144261905Y-105702381D01*
X144642858Y-105702381D01*
X144738096Y-105750000D01*
X144785715Y-105797619D01*
X144833334Y-105892857D01*
X144833334Y-106035714D01*
X144785715Y-106130952D01*
X144738096Y-106178571D01*
X144642858Y-106226190D01*
X144261905Y-106226190D01*
X145785715Y-106702381D02*
X145214286Y-106702381D01*
X145500000Y-106702381D02*
X145500000Y-105702381D01*
X145404762Y-105845238D01*
X145309524Y-105940476D01*
X145214286Y-105988095D01*
X123880381Y-66011905D02*
X122880381Y-66011905D01*
X123880381Y-65440476D01*
X122880381Y-65440476D01*
X123880381Y-64440476D02*
X123880381Y-65011905D01*
X123880381Y-64726191D02*
X122880381Y-64726191D01*
X123023238Y-64821429D01*
X123118476Y-64916667D01*
X123166095Y-65011905D01*
X123880381Y-72011905D02*
X122880381Y-72011905D01*
X123880381Y-71440476D01*
X122880381Y-71440476D01*
X122975619Y-71011905D02*
X122928000Y-70964286D01*
X122880381Y-70869048D01*
X122880381Y-70630952D01*
X122928000Y-70535714D01*
X122975619Y-70488095D01*
X123070857Y-70440476D01*
X123166095Y-70440476D01*
X123308952Y-70488095D01*
X123880381Y-71059524D01*
X123880381Y-70440476D01*
X81261905Y-56702381D02*
X81261905Y-55702381D01*
X81642858Y-55702381D01*
X81738096Y-55750000D01*
X81785715Y-55797619D01*
X81833334Y-55892857D01*
X81833334Y-56035714D01*
X81785715Y-56130952D01*
X81738096Y-56178571D01*
X81642858Y-56226190D01*
X81261905Y-56226190D01*
X82214286Y-55797619D02*
X82261905Y-55750000D01*
X82357143Y-55702381D01*
X82595239Y-55702381D01*
X82690477Y-55750000D01*
X82738096Y-55797619D01*
X82785715Y-55892857D01*
X82785715Y-55988095D01*
X82738096Y-56130952D01*
X82166667Y-56702381D01*
X82785715Y-56702381D01*
X173261905Y-56952381D02*
X173261905Y-55952381D01*
X173642858Y-55952381D01*
X173738096Y-56000000D01*
X173785715Y-56047619D01*
X173833334Y-56142857D01*
X173833334Y-56285714D01*
X173785715Y-56380952D01*
X173738096Y-56428571D01*
X173642858Y-56476190D01*
X173261905Y-56476190D01*
X174166667Y-55952381D02*
X174785715Y-55952381D01*
X174452381Y-56333333D01*
X174595239Y-56333333D01*
X174690477Y-56380952D01*
X174738096Y-56428571D01*
X174785715Y-56523810D01*
X174785715Y-56761905D01*
X174738096Y-56857143D01*
X174690477Y-56904762D01*
X174595239Y-56952381D01*
X174309524Y-56952381D01*
X174214286Y-56904762D01*
X174166667Y-56857143D01*
X173011905Y-103452381D02*
X173011905Y-102452381D01*
X173392858Y-102452381D01*
X173488096Y-102500000D01*
X173535715Y-102547619D01*
X173583334Y-102642857D01*
X173583334Y-102785714D01*
X173535715Y-102880952D01*
X173488096Y-102928571D01*
X173392858Y-102976190D01*
X173011905Y-102976190D01*
X174440477Y-102785714D02*
X174440477Y-103452381D01*
X174202381Y-102404762D02*
X173964286Y-103119048D01*
X174583334Y-103119048D01*
X81261905Y-103452381D02*
X81261905Y-102452381D01*
X81642858Y-102452381D01*
X81738096Y-102500000D01*
X81785715Y-102547619D01*
X81833334Y-102642857D01*
X81833334Y-102785714D01*
X81785715Y-102880952D01*
X81738096Y-102928571D01*
X81642858Y-102976190D01*
X81261905Y-102976190D01*
X82738096Y-102452381D02*
X82261905Y-102452381D01*
X82214286Y-102928571D01*
X82261905Y-102880952D01*
X82357143Y-102833333D01*
X82595239Y-102833333D01*
X82690477Y-102880952D01*
X82738096Y-102928571D01*
X82785715Y-103023810D01*
X82785715Y-103261905D01*
X82738096Y-103357143D01*
X82690477Y-103404762D01*
X82595239Y-103452381D01*
X82357143Y-103452381D01*
X82261905Y-103404762D01*
X82214286Y-103357143D01*
X151833334Y-98857143D02*
X151785715Y-98904762D01*
X151642858Y-98952381D01*
X151547620Y-98952381D01*
X151404762Y-98904762D01*
X151309524Y-98809524D01*
X151261905Y-98714286D01*
X151214286Y-98523810D01*
X151214286Y-98380952D01*
X151261905Y-98190476D01*
X151309524Y-98095238D01*
X151404762Y-98000000D01*
X151547620Y-97952381D01*
X151642858Y-97952381D01*
X151785715Y-98000000D01*
X151833334Y-98047619D01*
X152785715Y-98952381D02*
X152214286Y-98952381D01*
X152500000Y-98952381D02*
X152500000Y-97952381D01*
X152404762Y-98095238D01*
X152309524Y-98190476D01*
X152214286Y-98238095D01*
X95107143Y-87416666D02*
X95154762Y-87464285D01*
X95202381Y-87607142D01*
X95202381Y-87702380D01*
X95154762Y-87845238D01*
X95059524Y-87940476D01*
X94964286Y-87988095D01*
X94773810Y-88035714D01*
X94630952Y-88035714D01*
X94440476Y-87988095D01*
X94345238Y-87940476D01*
X94250000Y-87845238D01*
X94202381Y-87702380D01*
X94202381Y-87607142D01*
X94250000Y-87464285D01*
X94297619Y-87416666D01*
X94297619Y-87035714D02*
X94250000Y-86988095D01*
X94202381Y-86892857D01*
X94202381Y-86654761D01*
X94250000Y-86559523D01*
X94297619Y-86511904D01*
X94392857Y-86464285D01*
X94488095Y-86464285D01*
X94630952Y-86511904D01*
X95202381Y-87083333D01*
X95202381Y-86464285D01*
X113957143Y-97416666D02*
X114004762Y-97464285D01*
X114052381Y-97607142D01*
X114052381Y-97702380D01*
X114004762Y-97845238D01*
X113909524Y-97940476D01*
X113814286Y-97988095D01*
X113623810Y-98035714D01*
X113480952Y-98035714D01*
X113290476Y-97988095D01*
X113195238Y-97940476D01*
X113100000Y-97845238D01*
X113052381Y-97702380D01*
X113052381Y-97607142D01*
X113100000Y-97464285D01*
X113147619Y-97416666D01*
X113052381Y-97083333D02*
X113052381Y-96464285D01*
X113433333Y-96797619D01*
X113433333Y-96654761D01*
X113480952Y-96559523D01*
X113528571Y-96511904D01*
X113623810Y-96464285D01*
X113861905Y-96464285D01*
X113957143Y-96511904D01*
X114004762Y-96559523D01*
X114052381Y-96654761D01*
X114052381Y-96940476D01*
X114004762Y-97035714D01*
X113957143Y-97083333D01*
X159083334Y-87107143D02*
X159035715Y-87154762D01*
X158892858Y-87202381D01*
X158797620Y-87202381D01*
X158654762Y-87154762D01*
X158559524Y-87059524D01*
X158511905Y-86964286D01*
X158464286Y-86773810D01*
X158464286Y-86630952D01*
X158511905Y-86440476D01*
X158559524Y-86345238D01*
X158654762Y-86250000D01*
X158797620Y-86202381D01*
X158892858Y-86202381D01*
X159035715Y-86250000D01*
X159083334Y-86297619D01*
X159940477Y-86535714D02*
X159940477Y-87202381D01*
X159702381Y-86154762D02*
X159464286Y-86869048D01*
X160083334Y-86869048D01*
X143761905Y-56010381D02*
X143761905Y-55010381D01*
X144333334Y-56010381D01*
X144333334Y-55010381D01*
X144714286Y-55010381D02*
X145380953Y-56010381D01*
X145380953Y-55010381D02*
X144714286Y-56010381D01*
X145666667Y-55010381D02*
X146285715Y-55010381D01*
X145952381Y-55391333D01*
X146095239Y-55391333D01*
X146190477Y-55438952D01*
X146238096Y-55486571D01*
X146285715Y-55581810D01*
X146285715Y-55819905D01*
X146238096Y-55915143D01*
X146190477Y-55962762D01*
X146095239Y-56010381D01*
X145809524Y-56010381D01*
X145714286Y-55962762D01*
X145666667Y-55915143D01*
X164761905Y-56010381D02*
X164761905Y-55010381D01*
X165333334Y-56010381D01*
X165333334Y-55010381D01*
X165714286Y-55010381D02*
X166380953Y-56010381D01*
X166380953Y-55010381D02*
X165714286Y-56010381D01*
X167190477Y-55343714D02*
X167190477Y-56010381D01*
X166952381Y-54962762D02*
X166714286Y-55677048D01*
X167333334Y-55677048D01*
X109761905Y-56260381D02*
X109761905Y-55260381D01*
X110333334Y-56260381D01*
X110333334Y-55260381D01*
X110714286Y-55260381D02*
X111380953Y-56260381D01*
X111380953Y-55260381D02*
X110714286Y-56260381D01*
X111714286Y-55355619D02*
X111761905Y-55308000D01*
X111857143Y-55260381D01*
X112095239Y-55260381D01*
X112190477Y-55308000D01*
X112238096Y-55355619D01*
X112285715Y-55450857D01*
X112285715Y-55546095D01*
X112238096Y-55688952D01*
X111666667Y-56260381D01*
X112285715Y-56260381D01*
X88761905Y-56260381D02*
X88761905Y-55260381D01*
X89333334Y-56260381D01*
X89333334Y-55260381D01*
X89714286Y-55260381D02*
X90380953Y-56260381D01*
X90380953Y-55260381D02*
X89714286Y-56260381D01*
X91285715Y-56260381D02*
X90714286Y-56260381D01*
X91000000Y-56260381D02*
X91000000Y-55260381D01*
X90904762Y-55403238D01*
X90809524Y-55498476D01*
X90714286Y-55546095D01*
M02*
