M48
;DRILL file {KiCad 4.0.4-stable} date 11/21/16 22:50:11
;FORMAT={3:3/ absolute / metric / suppress leading zeros}
FMAT,2
METRIC,TZ
T1C0.400
T2C0.650
T3C0.750
T4C0.800
T5C1.016
T6C1.250
T7C3.200
%
G90
G05
M71
T1
X79250Y-58250
X79750Y-62750
X116000Y-96750
X119250Y-75250
X120750Y-74000
X123500Y-76500
X124000Y-110000
X124250Y-95250
X126250Y-91500
X126750Y-96750
X144750Y-98000
X146250Y-109000
X148500Y-96750
X152500Y-76750
X153750Y-79000
X158250Y-81000
T2
X91500Y-54000
X152500Y-109000
T3
X128000Y-63750
X128000Y-66750
X128000Y-69750
X128000Y-72750
T4
X83630Y-81720
X83630Y-84260
X83630Y-86800
X83630Y-89340
X83630Y-91880
X83630Y-94420
X83630Y-96960
X83630Y-99500
X91250Y-81720
X91250Y-84260
X91250Y-86800
X91250Y-89340
X91250Y-91880
X91250Y-94420
X91250Y-96960
X91250Y-99500
X101500Y-84380
X101500Y-92000
X104040Y-84380
X104040Y-92000
X104250Y-100500
X106580Y-84380
X106580Y-92000
X109120Y-84380
X109120Y-92000
X111660Y-84380
X111660Y-92000
X114200Y-84380
X114200Y-92000
X116740Y-84380
X116740Y-92000
X118000Y-100500
X119280Y-84380
X119280Y-92000
X121750Y-87000
X132250Y-49750
X135750Y-84380
X135750Y-92000
X138290Y-84380
X138290Y-92000
X139250Y-100500
X140830Y-84380
X140830Y-92000
X143370Y-84380
X143370Y-92000
X145910Y-84380
X145910Y-92000
X146000Y-88750
X148450Y-84380
X148450Y-92000
X149750Y-100500
X150990Y-84380
X150990Y-92000
X153530Y-84380
X153530Y-92000
X160500Y-101000
X164000Y-81750
X164000Y-84290
X164000Y-86830
X164000Y-89370
X164000Y-91910
X164000Y-94450
X164000Y-96990
X164000Y-99530
X171620Y-81750
X171620Y-84290
X171620Y-86830
X171620Y-89370
X171620Y-91910
X171620Y-94450
X171620Y-96990
X171620Y-99530
T5
X114060Y-105000
X114060Y-107540
X116600Y-105000
X116600Y-107540
X119140Y-105000
X119140Y-107540
X121680Y-105000
X121680Y-107540
X124220Y-105000
X124220Y-107540
X126760Y-105000
X126760Y-107540
X129300Y-105000
X129300Y-107540
X131840Y-105000
X131840Y-107540
X134380Y-105000
X134380Y-107540
X136920Y-105000
X136920Y-107540
X142000Y-105000
X142000Y-107540
T7
X82000Y-51000
X82000Y-108000
X174000Y-51000
X174000Y-108000
T6
X85258Y-68438G85X83742Y-67563
G05
X85674Y-66008G85X84799Y-64492
G05
X86112Y-70750G85X84362Y-70750
G05
X87250Y-64112G85X87250Y-62362
G05
X88008Y-72326G85X86492Y-73201
G05
X89563Y-63258G85X90438Y-61742
G05
X90438Y-68242G85X89563Y-69758
G05
X91992Y-63674G85X93508Y-62799
G05
X92750Y-71888G85X92750Y-73638
G05
X93888Y-65250G85X95638Y-65250
G05
X94326Y-69992G85X95201Y-71508
G05
X94742Y-67563G85X96258Y-68438
G05
X106258Y-68438G85X104742Y-67563
G05
X106674Y-66008G85X105799Y-64492
G05
X107112Y-70750G85X105362Y-70750
G05
X108250Y-64112G85X108250Y-62362
G05
X109008Y-72326G85X107492Y-73201
G05
X110563Y-63258G85X111438Y-61742
G05
X111438Y-68242G85X110563Y-69758
G05
X112992Y-63674G85X114508Y-62799
G05
X113750Y-71888G85X113750Y-73638
G05
X114888Y-65250G85X116638Y-65250
G05
X115326Y-69992G85X116201Y-71508
G05
X115742Y-67563G85X117258Y-68438
G05
X140258Y-68188G85X138742Y-67313
G05
X140674Y-65758G85X139799Y-64242
G05
X141112Y-70500G85X139362Y-70500
G05
X142250Y-63862G85X142250Y-62112
G05
X143008Y-72076G85X141492Y-72951
G05
X144563Y-63008G85X145438Y-61492
G05
X145438Y-67992G85X144563Y-69508
G05
X146992Y-63424G85X148508Y-62549
G05
X147750Y-71638G85X147750Y-73388
G05
X148888Y-65000G85X150638Y-65000
G05
X149326Y-69742G85X150201Y-71258
G05
X149742Y-67313G85X151258Y-68188
G05
X161258Y-68188G85X159742Y-67313
G05
X161674Y-65758G85X160799Y-64242
G05
X162112Y-70500G85X160362Y-70500
G05
X163250Y-63862G85X163250Y-62112
G05
X164008Y-72076G85X162492Y-72951
G05
X165563Y-63008G85X166438Y-61492
G05
X166438Y-67992G85X165563Y-69508
G05
X167992Y-63424G85X169508Y-62549
G05
X168750Y-71638G85X168750Y-73388
G05
X169888Y-65000G85X171638Y-65000
G05
X170326Y-69742G85X171201Y-71258
G05
X170742Y-67313G85X172258Y-68188
G05
T0
M30
