G04 #@! TF.FileFunction,Legend,Bot*
%FSLAX46Y46*%
G04 Gerber Fmt 4.6, Leading zero omitted, Abs format (unit mm)*
G04 Created by KiCad (PCBNEW 4.0.4-stable) date 11/21/16 23:00:24*
%MOMM*%
%LPD*%
G01*
G04 APERTURE LIST*
%ADD10C,0.100000*%
%ADD11C,0.150000*%
G04 APERTURE END LIST*
D10*
D11*
X127125000Y-88600000D02*
X127125000Y-87400000D01*
X125375000Y-87400000D02*
X125375000Y-88600000D01*
X132375000Y-88600000D02*
X132375000Y-87400000D01*
X130625000Y-87400000D02*
X130625000Y-88600000D01*
X127749820Y-81550800D02*
X127749820Y-80849760D01*
X127749820Y-80849760D02*
X127500900Y-80849760D01*
X124950840Y-80849760D02*
X124750180Y-80849760D01*
X124750180Y-80849760D02*
X124750180Y-81550800D01*
X132749820Y-81550800D02*
X132749820Y-80849760D01*
X132749820Y-80849760D02*
X132500900Y-80849760D01*
X129950840Y-80849760D02*
X129750180Y-80849760D01*
X129750180Y-80849760D02*
X129750180Y-81550800D01*
X137575000Y-52750000D02*
X137575000Y-50750000D01*
X135425000Y-50750000D02*
X135425000Y-52750000D01*
X103325000Y-52750000D02*
X103325000Y-50750000D01*
X101175000Y-50750000D02*
X101175000Y-52750000D01*
X158075000Y-52750000D02*
X158075000Y-50750000D01*
X155925000Y-50750000D02*
X155925000Y-52750000D01*
X98325000Y-52750000D02*
X98325000Y-50750000D01*
X96175000Y-50750000D02*
X96175000Y-52750000D01*
X125425000Y-50750000D02*
X125425000Y-52750000D01*
X127575000Y-52750000D02*
X127575000Y-50750000D01*
X120175000Y-50750000D02*
X120175000Y-52750000D01*
X122325000Y-52750000D02*
X122325000Y-50750000D01*
X124602381Y-87357143D02*
X124126190Y-87023809D01*
X124602381Y-86785714D02*
X123602381Y-86785714D01*
X123602381Y-87166667D01*
X123650000Y-87261905D01*
X123697619Y-87309524D01*
X123792857Y-87357143D01*
X123935714Y-87357143D01*
X124030952Y-87309524D01*
X124078571Y-87261905D01*
X124126190Y-87166667D01*
X124126190Y-86785714D01*
X123602381Y-87690476D02*
X123602381Y-88309524D01*
X123983333Y-87976190D01*
X123983333Y-88119048D01*
X124030952Y-88214286D01*
X124078571Y-88261905D01*
X124173810Y-88309524D01*
X124411905Y-88309524D01*
X124507143Y-88261905D01*
X124554762Y-88214286D01*
X124602381Y-88119048D01*
X124602381Y-87833333D01*
X124554762Y-87738095D01*
X124507143Y-87690476D01*
X123697619Y-88690476D02*
X123650000Y-88738095D01*
X123602381Y-88833333D01*
X123602381Y-89071429D01*
X123650000Y-89166667D01*
X123697619Y-89214286D01*
X123792857Y-89261905D01*
X123888095Y-89261905D01*
X124030952Y-89214286D01*
X124602381Y-88642857D01*
X124602381Y-89261905D01*
X129852381Y-87357143D02*
X129376190Y-87023809D01*
X129852381Y-86785714D02*
X128852381Y-86785714D01*
X128852381Y-87166667D01*
X128900000Y-87261905D01*
X128947619Y-87309524D01*
X129042857Y-87357143D01*
X129185714Y-87357143D01*
X129280952Y-87309524D01*
X129328571Y-87261905D01*
X129376190Y-87166667D01*
X129376190Y-86785714D01*
X128852381Y-87690476D02*
X128852381Y-88309524D01*
X129233333Y-87976190D01*
X129233333Y-88119048D01*
X129280952Y-88214286D01*
X129328571Y-88261905D01*
X129423810Y-88309524D01*
X129661905Y-88309524D01*
X129757143Y-88261905D01*
X129804762Y-88214286D01*
X129852381Y-88119048D01*
X129852381Y-87833333D01*
X129804762Y-87738095D01*
X129757143Y-87690476D01*
X128852381Y-88642857D02*
X128852381Y-89261905D01*
X129233333Y-88928571D01*
X129233333Y-89071429D01*
X129280952Y-89166667D01*
X129328571Y-89214286D01*
X129423810Y-89261905D01*
X129661905Y-89261905D01*
X129757143Y-89214286D01*
X129804762Y-89166667D01*
X129852381Y-89071429D01*
X129852381Y-88785714D01*
X129804762Y-88690476D01*
X129757143Y-88642857D01*
X126345238Y-78237619D02*
X126440476Y-78190000D01*
X126535714Y-78094762D01*
X126678571Y-77951905D01*
X126773810Y-77904286D01*
X126869048Y-77904286D01*
X126821429Y-78142381D02*
X126916667Y-78094762D01*
X127011905Y-77999524D01*
X127059524Y-77809048D01*
X127059524Y-77475714D01*
X127011905Y-77285238D01*
X126916667Y-77190000D01*
X126821429Y-77142381D01*
X126630952Y-77142381D01*
X126535714Y-77190000D01*
X126440476Y-77285238D01*
X126392857Y-77475714D01*
X126392857Y-77809048D01*
X126440476Y-77999524D01*
X126535714Y-78094762D01*
X126630952Y-78142381D01*
X126821429Y-78142381D01*
X125440476Y-78142381D02*
X126011905Y-78142381D01*
X125726191Y-78142381D02*
X125726191Y-77142381D01*
X125821429Y-77285238D01*
X125916667Y-77380476D01*
X126011905Y-77428095D01*
X131345238Y-78237619D02*
X131440476Y-78190000D01*
X131535714Y-78094762D01*
X131678571Y-77951905D01*
X131773810Y-77904286D01*
X131869048Y-77904286D01*
X131821429Y-78142381D02*
X131916667Y-78094762D01*
X132011905Y-77999524D01*
X132059524Y-77809048D01*
X132059524Y-77475714D01*
X132011905Y-77285238D01*
X131916667Y-77190000D01*
X131821429Y-77142381D01*
X131630952Y-77142381D01*
X131535714Y-77190000D01*
X131440476Y-77285238D01*
X131392857Y-77475714D01*
X131392857Y-77809048D01*
X131440476Y-77999524D01*
X131535714Y-78094762D01*
X131630952Y-78142381D01*
X131821429Y-78142381D01*
X131011905Y-77237619D02*
X130964286Y-77190000D01*
X130869048Y-77142381D01*
X130630952Y-77142381D01*
X130535714Y-77190000D01*
X130488095Y-77237619D01*
X130440476Y-77332857D01*
X130440476Y-77428095D01*
X130488095Y-77570952D01*
X131059524Y-78142381D01*
X130440476Y-78142381D01*
X134652381Y-51583334D02*
X134176190Y-51250000D01*
X134652381Y-51011905D02*
X133652381Y-51011905D01*
X133652381Y-51392858D01*
X133700000Y-51488096D01*
X133747619Y-51535715D01*
X133842857Y-51583334D01*
X133985714Y-51583334D01*
X134080952Y-51535715D01*
X134128571Y-51488096D01*
X134176190Y-51392858D01*
X134176190Y-51011905D01*
X134652381Y-52535715D02*
X134652381Y-51964286D01*
X134652381Y-52250000D02*
X133652381Y-52250000D01*
X133795238Y-52154762D01*
X133890476Y-52059524D01*
X133938095Y-51964286D01*
X100402381Y-51583334D02*
X99926190Y-51250000D01*
X100402381Y-51011905D02*
X99402381Y-51011905D01*
X99402381Y-51392858D01*
X99450000Y-51488096D01*
X99497619Y-51535715D01*
X99592857Y-51583334D01*
X99735714Y-51583334D01*
X99830952Y-51535715D01*
X99878571Y-51488096D01*
X99926190Y-51392858D01*
X99926190Y-51011905D01*
X99497619Y-51964286D02*
X99450000Y-52011905D01*
X99402381Y-52107143D01*
X99402381Y-52345239D01*
X99450000Y-52440477D01*
X99497619Y-52488096D01*
X99592857Y-52535715D01*
X99688095Y-52535715D01*
X99830952Y-52488096D01*
X100402381Y-51916667D01*
X100402381Y-52535715D01*
X155152381Y-51583334D02*
X154676190Y-51250000D01*
X155152381Y-51011905D02*
X154152381Y-51011905D01*
X154152381Y-51392858D01*
X154200000Y-51488096D01*
X154247619Y-51535715D01*
X154342857Y-51583334D01*
X154485714Y-51583334D01*
X154580952Y-51535715D01*
X154628571Y-51488096D01*
X154676190Y-51392858D01*
X154676190Y-51011905D01*
X154152381Y-51916667D02*
X154152381Y-52535715D01*
X154533333Y-52202381D01*
X154533333Y-52345239D01*
X154580952Y-52440477D01*
X154628571Y-52488096D01*
X154723810Y-52535715D01*
X154961905Y-52535715D01*
X155057143Y-52488096D01*
X155104762Y-52440477D01*
X155152381Y-52345239D01*
X155152381Y-52059524D01*
X155104762Y-51964286D01*
X155057143Y-51916667D01*
X95402381Y-51107143D02*
X94926190Y-50773809D01*
X95402381Y-50535714D02*
X94402381Y-50535714D01*
X94402381Y-50916667D01*
X94450000Y-51011905D01*
X94497619Y-51059524D01*
X94592857Y-51107143D01*
X94735714Y-51107143D01*
X94830952Y-51059524D01*
X94878571Y-51011905D01*
X94926190Y-50916667D01*
X94926190Y-50535714D01*
X95402381Y-52059524D02*
X95402381Y-51488095D01*
X95402381Y-51773809D02*
X94402381Y-51773809D01*
X94545238Y-51678571D01*
X94640476Y-51583333D01*
X94688095Y-51488095D01*
X94402381Y-52678571D02*
X94402381Y-52773810D01*
X94450000Y-52869048D01*
X94497619Y-52916667D01*
X94592857Y-52964286D01*
X94783333Y-53011905D01*
X95021429Y-53011905D01*
X95211905Y-52964286D01*
X95307143Y-52916667D01*
X95354762Y-52869048D01*
X95402381Y-52773810D01*
X95402381Y-52678571D01*
X95354762Y-52583333D01*
X95307143Y-52535714D01*
X95211905Y-52488095D01*
X95021429Y-52440476D01*
X94783333Y-52440476D01*
X94592857Y-52488095D01*
X94497619Y-52535714D01*
X94450000Y-52583333D01*
X94402381Y-52678571D01*
X129452381Y-51107143D02*
X128976190Y-50773809D01*
X129452381Y-50535714D02*
X128452381Y-50535714D01*
X128452381Y-50916667D01*
X128500000Y-51011905D01*
X128547619Y-51059524D01*
X128642857Y-51107143D01*
X128785714Y-51107143D01*
X128880952Y-51059524D01*
X128928571Y-51011905D01*
X128976190Y-50916667D01*
X128976190Y-50535714D01*
X128452381Y-51440476D02*
X128452381Y-52059524D01*
X128833333Y-51726190D01*
X128833333Y-51869048D01*
X128880952Y-51964286D01*
X128928571Y-52011905D01*
X129023810Y-52059524D01*
X129261905Y-52059524D01*
X129357143Y-52011905D01*
X129404762Y-51964286D01*
X129452381Y-51869048D01*
X129452381Y-51583333D01*
X129404762Y-51488095D01*
X129357143Y-51440476D01*
X128452381Y-52678571D02*
X128452381Y-52773810D01*
X128500000Y-52869048D01*
X128547619Y-52916667D01*
X128642857Y-52964286D01*
X128833333Y-53011905D01*
X129071429Y-53011905D01*
X129261905Y-52964286D01*
X129357143Y-52916667D01*
X129404762Y-52869048D01*
X129452381Y-52773810D01*
X129452381Y-52678571D01*
X129404762Y-52583333D01*
X129357143Y-52535714D01*
X129261905Y-52488095D01*
X129071429Y-52440476D01*
X128833333Y-52440476D01*
X128642857Y-52488095D01*
X128547619Y-52535714D01*
X128500000Y-52583333D01*
X128452381Y-52678571D01*
X119452381Y-51107143D02*
X118976190Y-50773809D01*
X119452381Y-50535714D02*
X118452381Y-50535714D01*
X118452381Y-50916667D01*
X118500000Y-51011905D01*
X118547619Y-51059524D01*
X118642857Y-51107143D01*
X118785714Y-51107143D01*
X118880952Y-51059524D01*
X118928571Y-51011905D01*
X118976190Y-50916667D01*
X118976190Y-50535714D01*
X118452381Y-51440476D02*
X118452381Y-52059524D01*
X118833333Y-51726190D01*
X118833333Y-51869048D01*
X118880952Y-51964286D01*
X118928571Y-52011905D01*
X119023810Y-52059524D01*
X119261905Y-52059524D01*
X119357143Y-52011905D01*
X119404762Y-51964286D01*
X119452381Y-51869048D01*
X119452381Y-51583333D01*
X119404762Y-51488095D01*
X119357143Y-51440476D01*
X119452381Y-53011905D02*
X119452381Y-52440476D01*
X119452381Y-52726190D02*
X118452381Y-52726190D01*
X118595238Y-52630952D01*
X118690476Y-52535714D01*
X118738095Y-52440476D01*
M02*
