G04 #@! TF.FileFunction,Copper,L1,Top,Signal*
%FSLAX46Y46*%
G04 Gerber Fmt 4.6, Leading zero omitted, Abs format (unit mm)*
G04 Created by KiCad (PCBNEW 4.0.2-stable) date 9/20/2016 8:44:40 PM*
%MOMM*%
G01*
G04 APERTURE LIST*
%ADD10C,0.100000*%
%ADD11C,1.550000*%
%ADD12O,1.550000X2.800000*%
%ADD13O,2.800000X1.550000*%
%ADD14C,5.500000*%
%ADD15C,5.700000*%
%ADD16R,1.300000X1.500000*%
%ADD17R,0.800100X1.800860*%
%ADD18C,1.524000*%
%ADD19R,1.727200X1.727200*%
%ADD20O,1.727200X1.727200*%
%ADD21C,0.600000*%
%ADD22C,1.000000*%
%ADD23C,0.850000*%
%ADD24C,0.250000*%
%ADD25C,0.750000*%
%ADD26C,0.400000*%
%ADD27C,0.500000*%
G04 APERTURE END LIST*
D10*
D11*
X145312500Y-88541266D02*
X144687500Y-87458734D01*
D12*
X142500000Y-91330127D03*
D11*
X146958734Y-91017627D02*
X148041266Y-91642627D01*
D13*
X149330127Y-89500000D03*
D11*
X149458734Y-87312500D02*
X150541266Y-86687500D01*
X149017627Y-85041266D02*
X149642627Y-83958734D01*
D12*
X147500000Y-82669873D03*
D11*
X145312500Y-82541266D02*
X144687500Y-81458734D01*
X143041266Y-82982373D02*
X141958734Y-82357373D01*
D13*
X140669873Y-84500000D03*
D11*
X140541266Y-86687500D02*
X139458734Y-87312500D01*
X140982373Y-88958734D02*
X140357373Y-90041266D01*
X90312500Y-88541266D02*
X89687500Y-87458734D01*
D12*
X87500000Y-91330127D03*
D11*
X91958734Y-91017627D02*
X93041266Y-91642627D01*
D13*
X94330127Y-89500000D03*
D11*
X94458734Y-87312500D02*
X95541266Y-86687500D01*
X94017627Y-85041266D02*
X94642627Y-83958734D01*
D12*
X92500000Y-82669873D03*
D11*
X90312500Y-82541266D02*
X89687500Y-81458734D01*
X88041266Y-82982373D02*
X86958734Y-82357373D01*
D13*
X85669873Y-84500000D03*
D11*
X85541266Y-86687500D02*
X84458734Y-87312500D01*
X85982373Y-88958734D02*
X85357373Y-90041266D01*
X166312500Y-88541266D02*
X165687500Y-87458734D01*
D12*
X163500000Y-91330127D03*
D11*
X167958734Y-91017627D02*
X169041266Y-91642627D01*
D13*
X170330127Y-89500000D03*
D11*
X170458734Y-87312500D02*
X171541266Y-86687500D01*
X170017627Y-85041266D02*
X170642627Y-83958734D01*
D12*
X168500000Y-82669873D03*
D11*
X166312500Y-82541266D02*
X165687500Y-81458734D01*
X164041266Y-82982373D02*
X162958734Y-82357373D01*
D13*
X161669873Y-84500000D03*
D11*
X161541266Y-86687500D02*
X160458734Y-87312500D01*
X161982373Y-88958734D02*
X161357373Y-90041266D01*
D14*
X82000000Y-108000000D03*
X174000000Y-108000000D03*
X174000000Y-66000000D03*
D15*
X82000000Y-66000000D03*
D16*
X146000000Y-65150000D03*
X146000000Y-67850000D03*
X109250000Y-65150000D03*
X109250000Y-67850000D03*
X138750000Y-65150000D03*
X138750000Y-67850000D03*
X102250000Y-65150000D03*
X102250000Y-67850000D03*
X131500000Y-65150000D03*
X131500000Y-67850000D03*
X95000000Y-65150000D03*
X95000000Y-67850000D03*
X124000000Y-65150000D03*
X124000000Y-67850000D03*
X88000000Y-65150000D03*
X88000000Y-67850000D03*
X116750000Y-65150000D03*
X116750000Y-67850000D03*
X152750000Y-65150000D03*
X152750000Y-67850000D03*
X137000000Y-98600000D03*
X137000000Y-95900000D03*
X128500000Y-98600000D03*
X128500000Y-95900000D03*
X120500000Y-95650000D03*
X120500000Y-98350000D03*
X117000000Y-97150000D03*
X117000000Y-99850000D03*
X105500000Y-101350000D03*
X105500000Y-98650000D03*
X168000000Y-101350000D03*
X168000000Y-98650000D03*
X102500000Y-101350000D03*
X102500000Y-98650000D03*
X165000000Y-101350000D03*
X165000000Y-98650000D03*
X99500000Y-98650000D03*
X99500000Y-101350000D03*
X162000000Y-98650000D03*
X162000000Y-101350000D03*
X158000000Y-101350000D03*
X158000000Y-98650000D03*
X89250000Y-101600000D03*
X89250000Y-98900000D03*
X155000000Y-101350000D03*
X155000000Y-98650000D03*
X92250000Y-101600000D03*
X92250000Y-98900000D03*
X152000000Y-98650000D03*
X152000000Y-101350000D03*
X95500000Y-98650000D03*
X95500000Y-101350000D03*
D17*
X150200000Y-64998860D03*
X148300000Y-64998860D03*
X149250000Y-68001140D03*
X113700000Y-64998860D03*
X111800000Y-64998860D03*
X112750000Y-68001140D03*
X143200000Y-64998860D03*
X141300000Y-64998860D03*
X142250000Y-68001140D03*
X106700000Y-64998860D03*
X104800000Y-64998860D03*
X105750000Y-68001140D03*
X135950000Y-64998860D03*
X134050000Y-64998860D03*
X135000000Y-68001140D03*
X99450000Y-64998860D03*
X97550000Y-64998860D03*
X98500000Y-68001140D03*
X128450000Y-64998860D03*
X126550000Y-64998860D03*
X127500000Y-68001140D03*
X92450000Y-64998860D03*
X90550000Y-64998860D03*
X91500000Y-68001140D03*
X121200000Y-64998860D03*
X119300000Y-64998860D03*
X120250000Y-68001140D03*
X132050000Y-98751140D03*
X133950000Y-98751140D03*
X133000000Y-95748860D03*
X123550000Y-98751140D03*
X125450000Y-98751140D03*
X124500000Y-95748860D03*
X105450000Y-105498860D03*
X103550000Y-105498860D03*
X104500000Y-108501140D03*
X167950000Y-105498860D03*
X166050000Y-105498860D03*
X167000000Y-108501140D03*
X101450000Y-105498860D03*
X99550000Y-105498860D03*
X100500000Y-108501140D03*
X163950000Y-105498860D03*
X162050000Y-105498860D03*
X163000000Y-108501140D03*
X157950000Y-105498860D03*
X156050000Y-105498860D03*
X157000000Y-108501140D03*
X89550000Y-108501140D03*
X91450000Y-108501140D03*
X90500000Y-105498860D03*
X153450000Y-105498860D03*
X151550000Y-105498860D03*
X152500000Y-108501140D03*
X95450000Y-105498860D03*
X93550000Y-105498860D03*
X94500000Y-108501140D03*
D18*
X128000000Y-88500000D03*
X128000000Y-91500000D03*
X128000000Y-82500000D03*
X128000000Y-85500000D03*
D17*
X156950000Y-64998860D03*
X155050000Y-64998860D03*
X156000000Y-68001140D03*
D11*
X111312500Y-88541266D02*
X110687500Y-87458734D01*
D12*
X108500000Y-91330127D03*
D11*
X112958734Y-91017627D02*
X114041266Y-91642627D01*
D13*
X115330127Y-89500000D03*
D11*
X115458734Y-87312500D02*
X116541266Y-86687500D01*
X115017627Y-85041266D02*
X115642627Y-83958734D01*
D12*
X113500000Y-82669873D03*
D11*
X111312500Y-82541266D02*
X110687500Y-81458734D01*
X109041266Y-82982373D02*
X107958734Y-82357373D01*
D13*
X106669873Y-84500000D03*
D11*
X106541266Y-86687500D02*
X105458734Y-87312500D01*
X106982373Y-88958734D02*
X106357373Y-90041266D01*
D19*
X114000000Y-105000000D03*
D20*
X114000000Y-107540000D03*
X119080000Y-105000000D03*
X119080000Y-107540000D03*
X121620000Y-105000000D03*
X121620000Y-107540000D03*
X124160000Y-105000000D03*
X124160000Y-107540000D03*
X126700000Y-105000000D03*
X126700000Y-107540000D03*
X129240000Y-105000000D03*
X129240000Y-107540000D03*
X131780000Y-105000000D03*
X131780000Y-107540000D03*
X134320000Y-105000000D03*
X134320000Y-107540000D03*
X136860000Y-105000000D03*
X136860000Y-107540000D03*
X139400000Y-105000000D03*
X139400000Y-107540000D03*
X141940000Y-105000000D03*
X141940000Y-107540000D03*
D21*
X120500000Y-80000000D03*
X155000000Y-80000000D03*
X173500000Y-80000000D03*
X119000000Y-79000000D03*
X154000000Y-79000000D03*
X172500000Y-79000000D03*
X117000000Y-78000000D03*
X148500000Y-78000000D03*
X153000000Y-78000000D03*
X170250000Y-78000000D03*
X115000000Y-77000000D03*
X140250000Y-77000000D03*
X151500000Y-77000000D03*
X168500000Y-77000000D03*
X112500000Y-76000000D03*
X127500000Y-76000000D03*
X145000000Y-76000000D03*
X166000000Y-76000000D03*
X108500000Y-75000000D03*
X120250000Y-75000000D03*
X139000000Y-75000000D03*
X163500000Y-75000000D03*
X105750000Y-74000000D03*
X115250000Y-74000000D03*
X138000000Y-74000000D03*
X159000000Y-74000000D03*
X104500000Y-73000000D03*
X109000000Y-73000000D03*
X137000000Y-73000000D03*
X158000000Y-73000000D03*
X102500000Y-72000000D03*
X136000000Y-72000000D03*
X157000000Y-72000000D03*
X91500000Y-71000000D03*
X100000000Y-71000000D03*
X135000000Y-71000000D03*
X156000000Y-71000000D03*
X160500000Y-82000000D03*
X150000000Y-103000000D03*
X149000000Y-94500000D03*
X97500000Y-91250000D03*
X98500000Y-91250000D03*
X99500000Y-91250000D03*
X95750000Y-92000000D03*
X106750000Y-81000000D03*
X98500000Y-97000000D03*
X109500000Y-108000000D03*
X99500000Y-96250000D03*
X109500000Y-109000000D03*
X130250000Y-96500000D03*
X150000000Y-95500000D03*
X150000000Y-107000000D03*
X130750000Y-98250000D03*
X162000000Y-95000000D03*
X150000000Y-106000000D03*
X150000000Y-105000000D03*
X147000000Y-94000000D03*
X140250000Y-81250000D03*
D22*
X138750000Y-102250000D03*
X126750000Y-102250000D03*
X84875000Y-68625000D03*
X165000000Y-111000000D03*
X93000000Y-63000000D03*
X114500000Y-63000000D03*
X122000000Y-63000000D03*
X129250000Y-63000000D03*
X136750000Y-63000000D03*
X144000000Y-63000000D03*
X151000000Y-63000000D03*
X157750000Y-63000000D03*
X100250000Y-63000000D03*
X107500000Y-63000000D03*
D21*
X150000000Y-104000000D03*
X150000000Y-81500000D03*
X148000000Y-94000000D03*
X150000000Y-108000000D03*
X137000000Y-93500000D03*
X128500000Y-94250000D03*
X135500000Y-94500000D03*
X112500000Y-94000000D03*
X108500000Y-109000000D03*
X151250000Y-108500000D03*
X155000000Y-103250000D03*
X160750000Y-109750000D03*
X165000000Y-103000000D03*
X102500000Y-103000000D03*
X97500000Y-103500000D03*
D23*
X110000000Y-101250000D03*
X88000000Y-96500000D03*
X95750000Y-96500000D03*
X120500000Y-100500000D03*
X158750000Y-103500000D03*
X169000000Y-103500000D03*
X165000000Y-96500000D03*
X155000000Y-96500000D03*
X107000000Y-103500000D03*
D21*
X105500000Y-96000000D03*
D24*
X117000000Y-97150000D02*
X117000000Y-94250000D01*
X126250000Y-82500000D02*
X128000000Y-82500000D01*
X125000000Y-83750000D02*
X126250000Y-82500000D01*
X125000000Y-86250000D02*
X125000000Y-83750000D01*
X117000000Y-94250000D02*
X125000000Y-86250000D01*
X128000000Y-85500000D02*
X129500000Y-85500000D01*
X133000000Y-91750000D02*
X131250000Y-90000000D01*
X131250000Y-90000000D02*
X131250000Y-88750000D01*
X133000000Y-91750000D02*
X133000000Y-95748860D01*
X131250000Y-87250000D02*
X131250000Y-88750000D01*
X129500000Y-85500000D02*
X131250000Y-87250000D01*
X120500000Y-95650000D02*
X120500000Y-93500000D01*
X125500000Y-88500000D02*
X128000000Y-88500000D01*
X120500000Y-93500000D02*
X125500000Y-88500000D01*
X124500000Y-95748860D02*
X124500000Y-93000000D01*
X126000000Y-91500000D02*
X128000000Y-91500000D01*
X124500000Y-93000000D02*
X126000000Y-91500000D01*
X120500000Y-85000000D02*
X120500000Y-80000000D01*
X156000000Y-68001140D02*
X164251140Y-68001140D01*
X173500000Y-77250000D02*
X173500000Y-80000000D01*
X164251140Y-68001140D02*
X173500000Y-77250000D01*
X170330127Y-89500000D02*
X172750000Y-89500000D01*
X173500000Y-88750000D02*
X173500000Y-80000000D01*
X172750000Y-89500000D02*
X173500000Y-88750000D01*
X115330127Y-89500000D02*
X116000000Y-89500000D01*
X116000000Y-89500000D02*
X120500000Y-85000000D01*
X155000000Y-80000000D02*
X155000000Y-87000000D01*
X152625000Y-89375000D02*
X155000000Y-87000000D01*
X152625000Y-89375000D02*
X149113621Y-89375000D01*
X119000000Y-84500000D02*
X119000000Y-79000000D01*
X119000000Y-84500000D02*
X116500000Y-87000000D01*
X149250000Y-68001140D02*
X149250000Y-69500000D01*
X154000000Y-74250000D02*
X154000000Y-79000000D01*
X149250000Y-69500000D02*
X154000000Y-74250000D01*
X154000000Y-79000000D02*
X154000000Y-86500000D01*
X153500000Y-87000000D02*
X154000000Y-86500000D01*
X153500000Y-87000000D02*
X149750000Y-87000000D01*
X172500000Y-79000000D02*
X172500000Y-85750000D01*
X171000000Y-87000000D02*
X171250000Y-87000000D01*
X171250000Y-87000000D02*
X172500000Y-85750000D01*
X116000000Y-87000000D02*
X116500000Y-87000000D01*
X115750000Y-87000000D02*
X115750000Y-86750000D01*
X117000000Y-78000000D02*
X117000000Y-82500000D01*
X117000000Y-82500000D02*
X115330127Y-84169873D01*
X142250000Y-68001140D02*
X142250000Y-70000000D01*
X148500000Y-76250000D02*
X148500000Y-78000000D01*
X142250000Y-70000000D02*
X148500000Y-76250000D01*
X153000000Y-78000000D02*
X153000000Y-84000000D01*
X152500000Y-84500000D02*
X153000000Y-84000000D01*
X152500000Y-84500000D02*
X149330127Y-84500000D01*
X170330127Y-78080127D02*
X170330127Y-84500000D01*
X170250000Y-78000000D02*
X170330127Y-78080127D01*
X115330127Y-84500000D02*
X115330127Y-84169873D01*
X115000000Y-77000000D02*
X115000000Y-81000000D01*
X115000000Y-81000000D02*
X113375000Y-82625000D01*
X137000000Y-71000000D02*
X140250000Y-74250000D01*
X136251140Y-68001140D02*
X137000000Y-68750000D01*
X137000000Y-68750000D02*
X137000000Y-71000000D01*
X135000000Y-68001140D02*
X136251140Y-68001140D01*
X140250000Y-74250000D02*
X140250000Y-77000000D01*
X151500000Y-77000000D02*
X151500000Y-81500000D01*
X148830127Y-82669873D02*
X149250000Y-82250000D01*
X149250000Y-82250000D02*
X150750000Y-82250000D01*
X150750000Y-82250000D02*
X151500000Y-81500000D01*
X148830127Y-82669873D02*
X147500000Y-82669873D01*
X168500000Y-77000000D02*
X168500000Y-82669873D01*
X113375000Y-82886379D02*
X113375000Y-82625000D01*
X112500000Y-76000000D02*
X112500000Y-81000000D01*
X112500000Y-81000000D02*
X111250000Y-82250000D01*
X127500000Y-68001140D02*
X127500000Y-76000000D01*
X145000000Y-76000000D02*
X145000000Y-82250000D01*
X166000000Y-76000000D02*
X166000000Y-82000000D01*
X111000000Y-82250000D02*
X111250000Y-82250000D01*
X108500000Y-75000000D02*
X108500000Y-83000000D01*
X120250000Y-68001140D02*
X120250000Y-75000000D01*
X139000000Y-75000000D02*
X139000000Y-81500000D01*
X140169873Y-82669873D02*
X139000000Y-81500000D01*
X140169873Y-82669873D02*
X142500000Y-82669873D01*
X163500000Y-75000000D02*
X163500000Y-82669873D01*
X108625000Y-82886379D02*
X108386379Y-82886379D01*
X108386379Y-82886379D02*
X108500000Y-83000000D01*
X106669873Y-84500000D02*
X106669873Y-84169873D01*
X106669873Y-84169873D02*
X105750000Y-83250000D01*
X105750000Y-83250000D02*
X105750000Y-74000000D01*
X112750000Y-68001140D02*
X112750000Y-69500000D01*
X115250000Y-72000000D02*
X115250000Y-74000000D01*
X112750000Y-69500000D02*
X115250000Y-72000000D01*
X138000000Y-74000000D02*
X138000000Y-84000000D01*
X138625000Y-84625000D02*
X138000000Y-84000000D01*
X138625000Y-84625000D02*
X140886379Y-84625000D01*
X159000000Y-84000000D02*
X159000000Y-74000000D01*
X161669873Y-84500000D02*
X159500000Y-84500000D01*
X159500000Y-84500000D02*
X159000000Y-84000000D01*
X106625000Y-84625000D02*
X106500000Y-84500000D01*
X104500000Y-86000000D02*
X104500000Y-73000000D01*
X104500000Y-86000000D02*
X105500000Y-87000000D01*
X105750000Y-68001140D02*
X105750000Y-69750000D01*
X105750000Y-69750000D02*
X109000000Y-73000000D01*
X137000000Y-73000000D02*
X137000000Y-86000000D01*
X138000000Y-87000000D02*
X137000000Y-86000000D01*
X138000000Y-87000000D02*
X140250000Y-87000000D01*
X158000000Y-85000000D02*
X158000000Y-73000000D01*
X159500000Y-85750000D02*
X160750000Y-87000000D01*
X159500000Y-85750000D02*
X158750000Y-85750000D01*
X158750000Y-85750000D02*
X158000000Y-85000000D01*
X161000000Y-87000000D02*
X160750000Y-87000000D01*
X106000000Y-87000000D02*
X105500000Y-87000000D01*
X106250000Y-87000000D02*
X106250000Y-86750000D01*
X98500000Y-68001140D02*
X99751140Y-68001140D01*
X100250000Y-69750000D02*
X102500000Y-72000000D01*
X100250000Y-68500000D02*
X100250000Y-69750000D01*
X99751140Y-68001140D02*
X100250000Y-68500000D01*
X103500000Y-89500000D02*
X106669873Y-89500000D01*
X102500000Y-88500000D02*
X102500000Y-72000000D01*
X103500000Y-89500000D02*
X102500000Y-88500000D01*
X136000000Y-72000000D02*
X136000000Y-87000000D01*
X138375000Y-89375000D02*
X136000000Y-87000000D01*
X138375000Y-89375000D02*
X140886379Y-89375000D01*
X157000000Y-72000000D02*
X157000000Y-86000000D01*
X160375000Y-89375000D02*
X157000000Y-86000000D01*
X161886379Y-89375000D02*
X160375000Y-89375000D01*
X91500000Y-68001140D02*
X91500000Y-71000000D01*
X100000000Y-71000000D02*
X100000000Y-87000000D01*
X100000000Y-87000000D02*
X106000000Y-93000000D01*
X107000000Y-93000000D02*
X106000000Y-93000000D01*
X107000000Y-93000000D02*
X108500000Y-91500000D01*
X135000000Y-71000000D02*
X135000000Y-87500000D01*
X135000000Y-87500000D02*
X139750000Y-92250000D01*
X163500000Y-91330127D02*
X162169873Y-91330127D01*
X156000000Y-88000000D02*
X156000000Y-71000000D01*
X160250000Y-92250000D02*
X156000000Y-88000000D01*
X161250000Y-92250000D02*
X160250000Y-92250000D01*
X162169873Y-91330127D02*
X161250000Y-92250000D01*
X142500000Y-91330127D02*
X141669873Y-91330127D01*
X141669873Y-91330127D02*
X140750000Y-92250000D01*
X140750000Y-92250000D02*
X139750000Y-92250000D01*
X108500000Y-91330127D02*
X108500000Y-91500000D01*
X160500000Y-73500000D02*
X157000000Y-70000000D01*
X160500000Y-73500000D02*
X160500000Y-82000000D01*
X152750000Y-69500000D02*
X152750000Y-67850000D01*
X153250000Y-70000000D02*
X152750000Y-69500000D01*
X157000000Y-70000000D02*
X153250000Y-70000000D01*
X149000000Y-102000000D02*
X150000000Y-103000000D01*
X149000000Y-102000000D02*
X149000000Y-94500000D01*
X88000000Y-75000000D02*
X97500000Y-84500000D01*
X97500000Y-84500000D02*
X97500000Y-91250000D01*
X88000000Y-67850000D02*
X88000000Y-75000000D01*
X98500000Y-73000000D02*
X98500000Y-91250000D01*
X95000000Y-69500000D02*
X98500000Y-73000000D01*
X95000000Y-69500000D02*
X95000000Y-67850000D01*
X95750000Y-92000000D02*
X96250000Y-92500000D01*
X98250000Y-92500000D02*
X99500000Y-91250000D01*
X96250000Y-92500000D02*
X98250000Y-92500000D01*
X107250000Y-80500000D02*
X107250000Y-73000000D01*
X106750000Y-81000000D02*
X107250000Y-80500000D01*
X102250000Y-69750000D02*
X102250000Y-67850000D01*
X107250000Y-73000000D02*
X104750000Y-70500000D01*
X104750000Y-70500000D02*
X103000000Y-70500000D01*
X103000000Y-70500000D02*
X102250000Y-69750000D01*
X96850000Y-98650000D02*
X98500000Y-97000000D01*
X95500000Y-98650000D02*
X96850000Y-98650000D01*
X113500000Y-100750000D02*
X113500000Y-94000000D01*
X114750000Y-75250000D02*
X117250000Y-75250000D01*
X113500000Y-94000000D02*
X122000000Y-85500000D01*
X117250000Y-75250000D02*
X122000000Y-80000000D01*
X122000000Y-80000000D02*
X122000000Y-85500000D01*
X110500000Y-107000000D02*
X110500000Y-103750000D01*
X110500000Y-103750000D02*
X113500000Y-100750000D01*
X109500000Y-108000000D02*
X110500000Y-107000000D01*
X114750000Y-75250000D02*
X109250000Y-69750000D01*
X109250000Y-69750000D02*
X109250000Y-67850000D01*
X99500000Y-98650000D02*
X99500000Y-96250000D01*
X99650000Y-98500000D02*
X99500000Y-98650000D01*
X116750000Y-67850000D02*
X116750000Y-73750000D01*
X111000000Y-107500000D02*
X111000000Y-104250000D01*
X109500000Y-109000000D02*
X111000000Y-107500000D01*
X114250000Y-101000000D02*
X114250000Y-94750000D01*
X111000000Y-104250000D02*
X114250000Y-101000000D01*
X116750000Y-73750000D02*
X123000000Y-80000000D01*
X114250000Y-94750000D02*
X123000000Y-86000000D01*
X123000000Y-80000000D02*
X123000000Y-86000000D01*
X150000000Y-95500000D02*
X151500000Y-95500000D01*
X152000000Y-96000000D02*
X152000000Y-98650000D01*
X151500000Y-95500000D02*
X152000000Y-96000000D01*
X129240000Y-103010000D02*
X129240000Y-105000000D01*
X130000000Y-102250000D02*
X129240000Y-103010000D01*
X130000000Y-96750000D02*
X130000000Y-102250000D01*
X130250000Y-96500000D02*
X130000000Y-96750000D01*
X124000000Y-67850000D02*
X124000000Y-75500000D01*
X130750000Y-82250000D02*
X130750000Y-84250000D01*
X124000000Y-75500000D02*
X130750000Y-82250000D01*
X133000000Y-88500000D02*
X139250000Y-94750000D01*
X145000000Y-102000000D02*
X150000000Y-107000000D01*
X145000000Y-95750000D02*
X145000000Y-102000000D01*
X144000000Y-94750000D02*
X145000000Y-95750000D01*
X139250000Y-94750000D02*
X144000000Y-94750000D01*
X133000000Y-86500000D02*
X133000000Y-88500000D01*
X130750000Y-84250000D02*
X133000000Y-86500000D01*
X130750000Y-102250000D02*
X130750000Y-98250000D01*
X130750000Y-102250000D02*
X131780000Y-103280000D01*
X131780000Y-105000000D02*
X131780000Y-103280000D01*
X162000000Y-95000000D02*
X162000000Y-98650000D01*
X133000000Y-85000000D02*
X133000000Y-71750000D01*
X146000000Y-102000000D02*
X150000000Y-106000000D01*
X146000000Y-95500000D02*
X146000000Y-102000000D01*
X134000000Y-88000000D02*
X139750000Y-93750000D01*
X139750000Y-93750000D02*
X144250000Y-93750000D01*
X144250000Y-93750000D02*
X146000000Y-95500000D01*
X133000000Y-85000000D02*
X134000000Y-86000000D01*
X134000000Y-86000000D02*
X134000000Y-88000000D01*
X131500000Y-70250000D02*
X131500000Y-67850000D01*
X133000000Y-71750000D02*
X131500000Y-70250000D01*
X140250000Y-81250000D02*
X141500000Y-80000000D01*
X138750000Y-69750000D02*
X141500000Y-72500000D01*
X147000000Y-102000000D02*
X150000000Y-105000000D01*
X147000000Y-94000000D02*
X147000000Y-102000000D01*
X138750000Y-69750000D02*
X138750000Y-67850000D01*
X141500000Y-80000000D02*
X141500000Y-72500000D01*
D25*
X132050000Y-98751140D02*
X132050000Y-100300000D01*
X132750000Y-101000000D02*
X137500000Y-101000000D01*
X137500000Y-101000000D02*
X138750000Y-102250000D01*
X132050000Y-100300000D02*
X132750000Y-101000000D01*
X123550000Y-98751140D02*
X123550000Y-100700000D01*
X126750000Y-102250000D02*
X125100000Y-102250000D01*
X125100000Y-102250000D02*
X123550000Y-100700000D01*
X84875000Y-68625000D02*
X80250000Y-73250000D01*
X80250000Y-73250000D02*
X80250000Y-100500000D01*
X98750000Y-111000000D02*
X88000000Y-111000000D01*
X88000000Y-111000000D02*
X85750000Y-108750000D01*
X85750000Y-108750000D02*
X85750000Y-106000000D01*
X85750000Y-106000000D02*
X80250000Y-100500000D01*
X165000000Y-111000000D02*
X165000000Y-108000000D01*
X163950000Y-106950000D02*
X163950000Y-105498860D01*
X163950000Y-106950000D02*
X165000000Y-108000000D01*
X165000000Y-111000000D02*
X154500000Y-111000000D01*
D26*
X92450000Y-63550000D02*
X93000000Y-63000000D01*
X92450000Y-63550000D02*
X92450000Y-64998860D01*
X113700000Y-63800000D02*
X114500000Y-63000000D01*
X113700000Y-63800000D02*
X113700000Y-64998860D01*
X121200000Y-63800000D02*
X122000000Y-63000000D01*
X121200000Y-63800000D02*
X121200000Y-64998860D01*
X128450000Y-63800000D02*
X129250000Y-63000000D01*
X128450000Y-63800000D02*
X128450000Y-64998860D01*
X135950000Y-63800000D02*
X136750000Y-63000000D01*
X135950000Y-63800000D02*
X135950000Y-64998860D01*
X143200000Y-63800000D02*
X144000000Y-63000000D01*
X143200000Y-63800000D02*
X143200000Y-64998860D01*
X150200000Y-63800000D02*
X151000000Y-63000000D01*
X150200000Y-63800000D02*
X150200000Y-64998860D01*
X156950000Y-63800000D02*
X157750000Y-63000000D01*
X156950000Y-64998860D02*
X156950000Y-63800000D01*
X99450000Y-64998860D02*
X99450000Y-63800000D01*
X99450000Y-63800000D02*
X100250000Y-63000000D01*
X106700000Y-64998860D02*
X106700000Y-63800000D01*
X106700000Y-63800000D02*
X107500000Y-63000000D01*
X92450000Y-64998860D02*
X92450000Y-64550000D01*
D25*
X96000000Y-107500000D02*
X96000000Y-108500000D01*
X96000000Y-107500000D02*
X95500000Y-107000000D01*
X95500000Y-105548860D02*
X95500000Y-107000000D01*
X98500000Y-111000000D02*
X98750000Y-111000000D01*
X98750000Y-111000000D02*
X102500000Y-111000000D01*
X96000000Y-108500000D02*
X98500000Y-111000000D01*
X102500000Y-111000000D02*
X102500000Y-107500000D01*
X101450000Y-106450000D02*
X102500000Y-107500000D01*
X101450000Y-106450000D02*
X101450000Y-105498860D01*
X154500000Y-111000000D02*
X154500000Y-108000000D01*
X153450000Y-106950000D02*
X154500000Y-108000000D01*
X153450000Y-106950000D02*
X153450000Y-105498860D01*
X139400000Y-105000000D02*
X136860000Y-105000000D01*
X141940000Y-105000000D02*
X139400000Y-105000000D01*
X141940000Y-105000000D02*
X144000000Y-105000000D01*
X144000000Y-105000000D02*
X144500000Y-105500000D01*
X144500000Y-105500000D02*
X144500000Y-111000000D01*
X139500000Y-104900000D02*
X139400000Y-105000000D01*
X95500000Y-105548860D02*
X95450000Y-105498860D01*
X136860000Y-105000000D02*
X136860000Y-104860000D01*
X154500000Y-111000000D02*
X144500000Y-111000000D01*
X102500000Y-111000000D02*
X144500000Y-111000000D01*
X138750000Y-102250000D02*
X139500000Y-103000000D01*
X139500000Y-103000000D02*
X139500000Y-104900000D01*
D24*
X150000000Y-81500000D02*
X150000000Y-74250000D01*
X148000000Y-102000000D02*
X150000000Y-104000000D01*
X148000000Y-94000000D02*
X148000000Y-102000000D01*
X146000000Y-70250000D02*
X146000000Y-67850000D01*
X150000000Y-74250000D02*
X146000000Y-70250000D01*
X137750000Y-94250000D02*
X137000000Y-93500000D01*
X142650000Y-95650000D02*
X139150000Y-95650000D01*
X144000000Y-97000000D02*
X142650000Y-95650000D01*
X144000000Y-102000000D02*
X144000000Y-97000000D01*
X150000000Y-108000000D02*
X144000000Y-102000000D01*
X139150000Y-95650000D02*
X137750000Y-94250000D01*
X128500000Y-94250000D02*
X128500000Y-95900000D01*
X137000000Y-95900000D02*
X137000000Y-94750000D01*
X136750000Y-94500000D02*
X135500000Y-94500000D01*
X137000000Y-94750000D02*
X136750000Y-94500000D01*
X110000000Y-103613602D02*
X113000000Y-100613602D01*
X113000000Y-100613602D02*
X113000000Y-95250000D01*
X113000000Y-95250000D02*
X112500000Y-94750000D01*
X112500000Y-94750000D02*
X112500000Y-94000000D01*
X108500000Y-108000000D02*
X108500000Y-109000000D01*
X110000000Y-106500000D02*
X108500000Y-108000000D01*
X110000000Y-106500000D02*
X110000000Y-103613602D01*
X93550000Y-105498860D02*
X93550000Y-103950000D01*
X95500000Y-102750000D02*
X95500000Y-101350000D01*
X95000000Y-103250000D02*
X95500000Y-102750000D01*
X94250000Y-103250000D02*
X95000000Y-103250000D01*
X93550000Y-103950000D02*
X94250000Y-103250000D01*
X91450000Y-108501140D02*
X91450000Y-107300000D01*
X92250000Y-103500000D02*
X92250000Y-101600000D01*
X92000000Y-103750000D02*
X92250000Y-103500000D01*
X92000000Y-106750000D02*
X92000000Y-103750000D01*
X91450000Y-107300000D02*
X92000000Y-106750000D01*
X91450000Y-108501140D02*
X94500000Y-108501140D01*
X152000000Y-101350000D02*
X152000000Y-102500000D01*
X151550000Y-102950000D02*
X151550000Y-105498860D01*
X152000000Y-102500000D02*
X151550000Y-102950000D01*
X155000000Y-103250000D02*
X156000000Y-104250000D01*
X156000000Y-104250000D02*
X156000000Y-105448860D01*
X156000000Y-105448860D02*
X156050000Y-105498860D01*
X152500000Y-108501140D02*
X151251140Y-108501140D01*
X151251140Y-108501140D02*
X151250000Y-108500000D01*
X155000000Y-101350000D02*
X155000000Y-103250000D01*
X162000000Y-101350000D02*
X162000000Y-105448860D01*
X162000000Y-105448860D02*
X162050000Y-105498860D01*
X165000000Y-103000000D02*
X166000000Y-104000000D01*
X166000000Y-104000000D02*
X166000000Y-105448860D01*
X166000000Y-105448860D02*
X166050000Y-105498860D01*
X165000000Y-101350000D02*
X165000000Y-103000000D01*
X161998860Y-108501140D02*
X163000000Y-108501140D01*
X160750000Y-109750000D02*
X161998860Y-108501140D01*
X166000000Y-105548860D02*
X166050000Y-105498860D01*
X99500000Y-101350000D02*
X99500000Y-105448860D01*
X99500000Y-105448860D02*
X99550000Y-105498860D01*
X100500000Y-108501140D02*
X98751140Y-108501140D01*
X97500000Y-107250000D02*
X97500000Y-103500000D01*
X98751140Y-108501140D02*
X97500000Y-107250000D01*
X102500000Y-101350000D02*
X102500000Y-103000000D01*
X103500000Y-104000000D02*
X103500000Y-105448860D01*
X102500000Y-103000000D02*
X103500000Y-104000000D01*
X103500000Y-105448860D02*
X103550000Y-105498860D01*
X125450000Y-98751140D02*
X128348860Y-98751140D01*
X128348860Y-98751140D02*
X128500000Y-98600000D01*
X133950000Y-98751140D02*
X136848860Y-98751140D01*
X136848860Y-98751140D02*
X137000000Y-98600000D01*
D26*
X152750000Y-65150000D02*
X154898860Y-65150000D01*
X154898860Y-65150000D02*
X155050000Y-64998860D01*
X116750000Y-65150000D02*
X119148860Y-65150000D01*
X119148860Y-65150000D02*
X119300000Y-64998860D01*
X88000000Y-65150000D02*
X90398860Y-65150000D01*
X90398860Y-65150000D02*
X90550000Y-64998860D01*
X124000000Y-65150000D02*
X126398860Y-65150000D01*
X126398860Y-65150000D02*
X126550000Y-64998860D01*
X95000000Y-65150000D02*
X97398860Y-65150000D01*
X97398860Y-65150000D02*
X97550000Y-64998860D01*
X131500000Y-65150000D02*
X133898860Y-65150000D01*
X133898860Y-65150000D02*
X134050000Y-64998860D01*
X102250000Y-65150000D02*
X104648860Y-65150000D01*
X104648860Y-65150000D02*
X104800000Y-64998860D01*
X138750000Y-65150000D02*
X141148860Y-65150000D01*
X141148860Y-65150000D02*
X141300000Y-64998860D01*
X109250000Y-65150000D02*
X111648860Y-65150000D01*
X111648860Y-65150000D02*
X111800000Y-64998860D01*
X146000000Y-65150000D02*
X148148860Y-65150000D01*
X148148860Y-65150000D02*
X148300000Y-64998860D01*
D27*
X110000000Y-97000000D02*
X107250000Y-94250000D01*
X110000000Y-101250000D02*
X110000000Y-97000000D01*
X114000000Y-105000000D02*
X114000000Y-103500000D01*
X117000000Y-102000000D02*
X116540000Y-102460000D01*
X117000000Y-102000000D02*
X117000000Y-99850000D01*
X115040000Y-102460000D02*
X116540000Y-102460000D01*
X114000000Y-103500000D02*
X115040000Y-102460000D01*
X89550000Y-108501140D02*
X88751140Y-108501140D01*
X88000000Y-104000000D02*
X86500000Y-102500000D01*
X88000000Y-107750000D02*
X88000000Y-104000000D01*
X88751140Y-108501140D02*
X88000000Y-107750000D01*
X86500000Y-102500000D02*
X86500000Y-98000000D01*
X86500000Y-98000000D02*
X88000000Y-96500000D01*
X117000000Y-99850000D02*
X118350000Y-99850000D01*
X119000000Y-100500000D02*
X120500000Y-100500000D01*
X118350000Y-99850000D02*
X119000000Y-100500000D01*
X120500000Y-98350000D02*
X120500000Y-100500000D01*
X157950000Y-105498860D02*
X157950000Y-104300000D01*
X157950000Y-104300000D02*
X158750000Y-103500000D01*
X167950000Y-105498860D02*
X167950000Y-104550000D01*
X167950000Y-104550000D02*
X169000000Y-103500000D01*
X155000000Y-98650000D02*
X155000000Y-96500000D01*
X165000000Y-96500000D02*
X165000000Y-98650000D01*
X92250000Y-98900000D02*
X92250000Y-97500000D01*
X93250000Y-96500000D02*
X95750000Y-96500000D01*
X92250000Y-97500000D02*
X93250000Y-96500000D01*
X98000000Y-94250000D02*
X95750000Y-96500000D01*
X102500000Y-94250000D02*
X98000000Y-94250000D01*
X102500000Y-94250000D02*
X107250000Y-94250000D01*
X102500000Y-98650000D02*
X102500000Y-94250000D01*
X105450000Y-104300000D02*
X105450000Y-105498860D01*
X106250000Y-103500000D02*
X105450000Y-104300000D01*
X107000000Y-103500000D02*
X106250000Y-103500000D01*
D25*
X105500000Y-105448860D02*
X105450000Y-105498860D01*
D24*
X89250000Y-98900000D02*
X89250000Y-97750000D01*
X91000000Y-96000000D02*
X91000000Y-92830127D01*
X89250000Y-97750000D02*
X91000000Y-96000000D01*
X91000000Y-92830127D02*
X92500000Y-91330127D01*
X147500000Y-91330127D02*
X152580127Y-91330127D01*
X158000000Y-96750000D02*
X158000000Y-98650000D01*
X152580127Y-91330127D02*
X158000000Y-96750000D01*
X147375000Y-91113621D02*
X147375000Y-91375000D01*
X105500000Y-98650000D02*
X105500000Y-96000000D01*
X168500000Y-91330127D02*
X168500000Y-94750000D01*
X168000000Y-95250000D02*
X168000000Y-98650000D01*
X168500000Y-94750000D02*
X168000000Y-95250000D01*
X168613621Y-91113621D02*
X168375000Y-91113621D01*
X90500000Y-105498860D02*
X89748860Y-105498860D01*
X89250000Y-105000000D02*
X89250000Y-101600000D01*
X89748860Y-105498860D02*
X89250000Y-105000000D01*
X158000000Y-101350000D02*
X159100000Y-101350000D01*
X159748860Y-108501140D02*
X157000000Y-108501140D01*
X160750000Y-107500000D02*
X159748860Y-108501140D01*
X160750000Y-103000000D02*
X160750000Y-107500000D01*
X159100000Y-101350000D02*
X160750000Y-103000000D01*
X170500000Y-102000000D02*
X170500000Y-107250000D01*
X169248860Y-108501140D02*
X170500000Y-107250000D01*
X170500000Y-102000000D02*
X169750000Y-101250000D01*
X168100000Y-101250000D02*
X169750000Y-101250000D01*
X169248860Y-108501140D02*
X167000000Y-108501140D01*
X168100000Y-101250000D02*
X168000000Y-101350000D01*
X105998860Y-108501140D02*
X108500000Y-106000000D01*
X104500000Y-108501140D02*
X105998860Y-108501140D01*
X107350000Y-101350000D02*
X105500000Y-101350000D01*
X108500000Y-102500000D02*
X107350000Y-101350000D01*
X108500000Y-106000000D02*
X108500000Y-102500000D01*
X105650000Y-101500000D02*
X105500000Y-101350000D01*
M02*
