G04 #@! TF.FileFunction,Legend,Top*
%FSLAX46Y46*%
G04 Gerber Fmt 4.6, Leading zero omitted, Abs format (unit mm)*
G04 Created by KiCad (PCBNEW 4.0.2-stable) date 9/20/2016 8:44:40 PM*
%MOMM*%
G01*
G04 APERTURE LIST*
%ADD10C,0.100000*%
%ADD11C,0.300000*%
%ADD12C,0.150000*%
G04 APERTURE END LIST*
D10*
D11*
X79178571Y-72100000D02*
X79892857Y-72100000D01*
X79035714Y-72528571D02*
X79535714Y-71028571D01*
X80035714Y-72528571D01*
X80535714Y-72385714D02*
X80607142Y-72457143D01*
X80535714Y-72528571D01*
X80464285Y-72457143D01*
X80535714Y-72385714D01*
X80535714Y-72528571D01*
X82892857Y-71742857D02*
X83107143Y-71814286D01*
X83178571Y-71885714D01*
X83250000Y-72028571D01*
X83250000Y-72242857D01*
X83178571Y-72385714D01*
X83107143Y-72457143D01*
X82964285Y-72528571D01*
X82392857Y-72528571D01*
X82392857Y-71028571D01*
X82892857Y-71028571D01*
X83035714Y-71100000D01*
X83107143Y-71171429D01*
X83178571Y-71314286D01*
X83178571Y-71457143D01*
X83107143Y-71600000D01*
X83035714Y-71671429D01*
X82892857Y-71742857D01*
X82392857Y-71742857D01*
X83892857Y-72528571D02*
X83892857Y-71528571D01*
X83892857Y-71814286D02*
X83964285Y-71671429D01*
X84035714Y-71600000D01*
X84178571Y-71528571D01*
X84321428Y-71528571D01*
X84821428Y-72528571D02*
X84821428Y-71528571D01*
X84821428Y-71028571D02*
X84749999Y-71100000D01*
X84821428Y-71171429D01*
X84892856Y-71100000D01*
X84821428Y-71028571D01*
X84821428Y-71171429D01*
X86178571Y-71528571D02*
X86178571Y-72742857D01*
X86107142Y-72885714D01*
X86035714Y-72957143D01*
X85892857Y-73028571D01*
X85678571Y-73028571D01*
X85535714Y-72957143D01*
X86178571Y-72457143D02*
X86035714Y-72528571D01*
X85750000Y-72528571D01*
X85607142Y-72457143D01*
X85535714Y-72385714D01*
X85464285Y-72242857D01*
X85464285Y-71814286D01*
X85535714Y-71671429D01*
X85607142Y-71600000D01*
X85750000Y-71528571D01*
X86035714Y-71528571D01*
X86178571Y-71600000D01*
X87535714Y-71528571D02*
X87535714Y-72742857D01*
X87464285Y-72885714D01*
X87392857Y-72957143D01*
X87250000Y-73028571D01*
X87035714Y-73028571D01*
X86892857Y-72957143D01*
X87535714Y-72457143D02*
X87392857Y-72528571D01*
X87107143Y-72528571D01*
X86964285Y-72457143D01*
X86892857Y-72385714D01*
X86821428Y-72242857D01*
X86821428Y-71814286D01*
X86892857Y-71671429D01*
X86964285Y-71600000D01*
X87107143Y-71528571D01*
X87392857Y-71528571D01*
X87535714Y-71600000D01*
X88178571Y-72457143D02*
X88321428Y-72528571D01*
X88607143Y-72528571D01*
X88750000Y-72457143D01*
X88821428Y-72314286D01*
X88821428Y-72242857D01*
X88750000Y-72100000D01*
X88607143Y-72028571D01*
X88392857Y-72028571D01*
X88250000Y-71957143D01*
X88178571Y-71814286D01*
X88178571Y-71742857D01*
X88250000Y-71600000D01*
X88392857Y-71528571D01*
X88607143Y-71528571D01*
X88750000Y-71600000D01*
X80071429Y-74928571D02*
X80357144Y-74928571D01*
X80500001Y-74857143D01*
X80571429Y-74785714D01*
X80714287Y-74571429D01*
X80785715Y-74285714D01*
X80785715Y-73714286D01*
X80714287Y-73571429D01*
X80642858Y-73500000D01*
X80500001Y-73428571D01*
X80214287Y-73428571D01*
X80071429Y-73500000D01*
X80000001Y-73571429D01*
X79928572Y-73714286D01*
X79928572Y-74071429D01*
X80000001Y-74214286D01*
X80071429Y-74285714D01*
X80214287Y-74357143D01*
X80500001Y-74357143D01*
X80642858Y-74285714D01*
X80714287Y-74214286D01*
X80785715Y-74071429D01*
X82500000Y-73357143D02*
X81214286Y-75285714D01*
X82928572Y-73571429D02*
X83000001Y-73500000D01*
X83142858Y-73428571D01*
X83500001Y-73428571D01*
X83642858Y-73500000D01*
X83714287Y-73571429D01*
X83785715Y-73714286D01*
X83785715Y-73857143D01*
X83714287Y-74071429D01*
X82857144Y-74928571D01*
X83785715Y-74928571D01*
X84714286Y-73428571D02*
X84857143Y-73428571D01*
X85000000Y-73500000D01*
X85071429Y-73571429D01*
X85142858Y-73714286D01*
X85214286Y-74000000D01*
X85214286Y-74357143D01*
X85142858Y-74642857D01*
X85071429Y-74785714D01*
X85000000Y-74857143D01*
X84857143Y-74928571D01*
X84714286Y-74928571D01*
X84571429Y-74857143D01*
X84500000Y-74785714D01*
X84428572Y-74642857D01*
X84357143Y-74357143D01*
X84357143Y-74000000D01*
X84428572Y-73714286D01*
X84500000Y-73571429D01*
X84571429Y-73500000D01*
X84714286Y-73428571D01*
X86642857Y-74928571D02*
X85785714Y-74928571D01*
X86214286Y-74928571D02*
X86214286Y-73428571D01*
X86071429Y-73642857D01*
X85928571Y-73785714D01*
X85785714Y-73857143D01*
X87928571Y-73428571D02*
X87642857Y-73428571D01*
X87500000Y-73500000D01*
X87428571Y-73571429D01*
X87285714Y-73785714D01*
X87214285Y-74071429D01*
X87214285Y-74642857D01*
X87285714Y-74785714D01*
X87357142Y-74857143D01*
X87500000Y-74928571D01*
X87785714Y-74928571D01*
X87928571Y-74857143D01*
X88000000Y-74785714D01*
X88071428Y-74642857D01*
X88071428Y-74285714D01*
X88000000Y-74142857D01*
X87928571Y-74071429D01*
X87785714Y-74000000D01*
X87500000Y-74000000D01*
X87357142Y-74071429D01*
X87285714Y-74142857D01*
X87214285Y-74285714D01*
X81714286Y-75828571D02*
X82214286Y-77328571D01*
X82714286Y-75828571D01*
X84000000Y-77328571D02*
X83142857Y-77328571D01*
X83571429Y-77328571D02*
X83571429Y-75828571D01*
X83428572Y-76042857D01*
X83285714Y-76185714D01*
X83142857Y-76257143D01*
X84642857Y-77185714D02*
X84714285Y-77257143D01*
X84642857Y-77328571D01*
X84571428Y-77257143D01*
X84642857Y-77185714D01*
X84642857Y-77328571D01*
X85642857Y-75828571D02*
X85785714Y-75828571D01*
X85928571Y-75900000D01*
X86000000Y-75971429D01*
X86071429Y-76114286D01*
X86142857Y-76400000D01*
X86142857Y-76757143D01*
X86071429Y-77042857D01*
X86000000Y-77185714D01*
X85928571Y-77257143D01*
X85785714Y-77328571D01*
X85642857Y-77328571D01*
X85500000Y-77257143D01*
X85428571Y-77185714D01*
X85357143Y-77042857D01*
X85285714Y-76757143D01*
X85285714Y-76400000D01*
X85357143Y-76114286D01*
X85428571Y-75971429D01*
X85500000Y-75900000D01*
X85642857Y-75828571D01*
D12*
X155000000Y-87000000D02*
G75*
G03X155000000Y-87000000I-10000000J0D01*
G01*
X100000000Y-87000000D02*
G75*
G03X100000000Y-87000000I-10000000J0D01*
G01*
X176000000Y-87000000D02*
G75*
G03X176000000Y-87000000I-10000000J0D01*
G01*
X145125000Y-67100000D02*
X145125000Y-65900000D01*
X146875000Y-65900000D02*
X146875000Y-67100000D01*
X108375000Y-67100000D02*
X108375000Y-65900000D01*
X110125000Y-65900000D02*
X110125000Y-67100000D01*
X137875000Y-67100000D02*
X137875000Y-65900000D01*
X139625000Y-65900000D02*
X139625000Y-67100000D01*
X101375000Y-67100000D02*
X101375000Y-65900000D01*
X103125000Y-65900000D02*
X103125000Y-67100000D01*
X130625000Y-67100000D02*
X130625000Y-65900000D01*
X132375000Y-65900000D02*
X132375000Y-67100000D01*
X94125000Y-67100000D02*
X94125000Y-65900000D01*
X95875000Y-65900000D02*
X95875000Y-67100000D01*
X123125000Y-67100000D02*
X123125000Y-65900000D01*
X124875000Y-65900000D02*
X124875000Y-67100000D01*
X87125000Y-67100000D02*
X87125000Y-65900000D01*
X88875000Y-65900000D02*
X88875000Y-67100000D01*
X115875000Y-67100000D02*
X115875000Y-65900000D01*
X117625000Y-65900000D02*
X117625000Y-67100000D01*
X151875000Y-67100000D02*
X151875000Y-65900000D01*
X153625000Y-65900000D02*
X153625000Y-67100000D01*
X137875000Y-96650000D02*
X137875000Y-97850000D01*
X136125000Y-97850000D02*
X136125000Y-96650000D01*
X129375000Y-96650000D02*
X129375000Y-97850000D01*
X127625000Y-97850000D02*
X127625000Y-96650000D01*
X119625000Y-97600000D02*
X119625000Y-96400000D01*
X121375000Y-96400000D02*
X121375000Y-97600000D01*
X116125000Y-99100000D02*
X116125000Y-97900000D01*
X117875000Y-97900000D02*
X117875000Y-99100000D01*
X106375000Y-99400000D02*
X106375000Y-100600000D01*
X104625000Y-100600000D02*
X104625000Y-99400000D01*
X168875000Y-99400000D02*
X168875000Y-100600000D01*
X167125000Y-100600000D02*
X167125000Y-99400000D01*
X103375000Y-99400000D02*
X103375000Y-100600000D01*
X101625000Y-100600000D02*
X101625000Y-99400000D01*
X165875000Y-99400000D02*
X165875000Y-100600000D01*
X164125000Y-100600000D02*
X164125000Y-99400000D01*
X98625000Y-100600000D02*
X98625000Y-99400000D01*
X100375000Y-99400000D02*
X100375000Y-100600000D01*
X161125000Y-100600000D02*
X161125000Y-99400000D01*
X162875000Y-99400000D02*
X162875000Y-100600000D01*
X158875000Y-99400000D02*
X158875000Y-100600000D01*
X157125000Y-100600000D02*
X157125000Y-99400000D01*
X90125000Y-99650000D02*
X90125000Y-100850000D01*
X88375000Y-100850000D02*
X88375000Y-99650000D01*
X155875000Y-99400000D02*
X155875000Y-100600000D01*
X154125000Y-100600000D02*
X154125000Y-99400000D01*
X93125000Y-99650000D02*
X93125000Y-100850000D01*
X91375000Y-100850000D02*
X91375000Y-99650000D01*
X151125000Y-100600000D02*
X151125000Y-99400000D01*
X152875000Y-99400000D02*
X152875000Y-100600000D01*
X94625000Y-100600000D02*
X94625000Y-99400000D01*
X96375000Y-99400000D02*
X96375000Y-100600000D01*
X150749820Y-66449200D02*
X150749820Y-67150240D01*
X150749820Y-67150240D02*
X150500900Y-67150240D01*
X147950840Y-67150240D02*
X147750180Y-67150240D01*
X147750180Y-67150240D02*
X147750180Y-66449200D01*
X114249820Y-66449200D02*
X114249820Y-67150240D01*
X114249820Y-67150240D02*
X114000900Y-67150240D01*
X111450840Y-67150240D02*
X111250180Y-67150240D01*
X111250180Y-67150240D02*
X111250180Y-66449200D01*
X143749820Y-66449200D02*
X143749820Y-67150240D01*
X143749820Y-67150240D02*
X143500900Y-67150240D01*
X140950840Y-67150240D02*
X140750180Y-67150240D01*
X140750180Y-67150240D02*
X140750180Y-66449200D01*
X107249820Y-66449200D02*
X107249820Y-67150240D01*
X107249820Y-67150240D02*
X107000900Y-67150240D01*
X104450840Y-67150240D02*
X104250180Y-67150240D01*
X104250180Y-67150240D02*
X104250180Y-66449200D01*
X136499820Y-66449200D02*
X136499820Y-67150240D01*
X136499820Y-67150240D02*
X136250900Y-67150240D01*
X133700840Y-67150240D02*
X133500180Y-67150240D01*
X133500180Y-67150240D02*
X133500180Y-66449200D01*
X99999820Y-66449200D02*
X99999820Y-67150240D01*
X99999820Y-67150240D02*
X99750900Y-67150240D01*
X97200840Y-67150240D02*
X97000180Y-67150240D01*
X97000180Y-67150240D02*
X97000180Y-66449200D01*
X128999820Y-66449200D02*
X128999820Y-67150240D01*
X128999820Y-67150240D02*
X128750900Y-67150240D01*
X126200840Y-67150240D02*
X126000180Y-67150240D01*
X126000180Y-67150240D02*
X126000180Y-66449200D01*
X92999820Y-66449200D02*
X92999820Y-67150240D01*
X92999820Y-67150240D02*
X92750900Y-67150240D01*
X90200840Y-67150240D02*
X90000180Y-67150240D01*
X90000180Y-67150240D02*
X90000180Y-66449200D01*
X121749820Y-66449200D02*
X121749820Y-67150240D01*
X121749820Y-67150240D02*
X121500900Y-67150240D01*
X118950840Y-67150240D02*
X118750180Y-67150240D01*
X118750180Y-67150240D02*
X118750180Y-66449200D01*
X131500180Y-97300800D02*
X131500180Y-96599760D01*
X131500180Y-96599760D02*
X131749100Y-96599760D01*
X134299160Y-96599760D02*
X134499820Y-96599760D01*
X134499820Y-96599760D02*
X134499820Y-97300800D01*
X123000180Y-97300800D02*
X123000180Y-96599760D01*
X123000180Y-96599760D02*
X123249100Y-96599760D01*
X125799160Y-96599760D02*
X125999820Y-96599760D01*
X125999820Y-96599760D02*
X125999820Y-97300800D01*
X105999820Y-106949200D02*
X105999820Y-107650240D01*
X105999820Y-107650240D02*
X105750900Y-107650240D01*
X103200840Y-107650240D02*
X103000180Y-107650240D01*
X103000180Y-107650240D02*
X103000180Y-106949200D01*
X168499820Y-106949200D02*
X168499820Y-107650240D01*
X168499820Y-107650240D02*
X168250900Y-107650240D01*
X165700840Y-107650240D02*
X165500180Y-107650240D01*
X165500180Y-107650240D02*
X165500180Y-106949200D01*
X101999820Y-106949200D02*
X101999820Y-107650240D01*
X101999820Y-107650240D02*
X101750900Y-107650240D01*
X99200840Y-107650240D02*
X99000180Y-107650240D01*
X99000180Y-107650240D02*
X99000180Y-106949200D01*
X164499820Y-106949200D02*
X164499820Y-107650240D01*
X164499820Y-107650240D02*
X164250900Y-107650240D01*
X161700840Y-107650240D02*
X161500180Y-107650240D01*
X161500180Y-107650240D02*
X161500180Y-106949200D01*
X158499820Y-106949200D02*
X158499820Y-107650240D01*
X158499820Y-107650240D02*
X158250900Y-107650240D01*
X155700840Y-107650240D02*
X155500180Y-107650240D01*
X155500180Y-107650240D02*
X155500180Y-106949200D01*
X89000180Y-107050800D02*
X89000180Y-106349760D01*
X89000180Y-106349760D02*
X89249100Y-106349760D01*
X91799160Y-106349760D02*
X91999820Y-106349760D01*
X91999820Y-106349760D02*
X91999820Y-107050800D01*
X153999820Y-106949200D02*
X153999820Y-107650240D01*
X153999820Y-107650240D02*
X153750900Y-107650240D01*
X151200840Y-107650240D02*
X151000180Y-107650240D01*
X151000180Y-107650240D02*
X151000180Y-106949200D01*
X95999820Y-106949200D02*
X95999820Y-107650240D01*
X95999820Y-107650240D02*
X95750900Y-107650240D01*
X93200840Y-107650240D02*
X93000180Y-107650240D01*
X93000180Y-107650240D02*
X93000180Y-106949200D01*
X131480865Y-90000000D02*
G75*
G03X131480865Y-90000000I-3480865J0D01*
G01*
X131480865Y-84000000D02*
G75*
G03X131480865Y-84000000I-3480865J0D01*
G01*
X157499820Y-66449200D02*
X157499820Y-67150240D01*
X157499820Y-67150240D02*
X157250900Y-67150240D01*
X154700840Y-67150240D02*
X154500180Y-67150240D01*
X154500180Y-67150240D02*
X154500180Y-66449200D01*
X121000000Y-87000000D02*
G75*
G03X121000000Y-87000000I-10000000J0D01*
G01*
X143761905Y-74952381D02*
X143761905Y-73952381D01*
X144333334Y-74952381D01*
X144333334Y-73952381D01*
X144714286Y-73952381D02*
X145380953Y-74952381D01*
X145380953Y-73952381D02*
X144714286Y-74952381D01*
X145714286Y-74047619D02*
X145761905Y-74000000D01*
X145857143Y-73952381D01*
X146095239Y-73952381D01*
X146190477Y-74000000D01*
X146238096Y-74047619D01*
X146285715Y-74142857D01*
X146285715Y-74238095D01*
X146238096Y-74380952D01*
X145666667Y-74952381D01*
X146285715Y-74952381D01*
X95511905Y-77452381D02*
X95511905Y-76452381D01*
X96083334Y-77452381D01*
X96083334Y-76452381D01*
X96464286Y-76452381D02*
X97130953Y-77452381D01*
X97130953Y-76452381D02*
X96464286Y-77452381D01*
X98035715Y-77452381D02*
X97464286Y-77452381D01*
X97750000Y-77452381D02*
X97750000Y-76452381D01*
X97654762Y-76595238D01*
X97559524Y-76690476D01*
X97464286Y-76738095D01*
X164761905Y-75260381D02*
X164761905Y-74260381D01*
X165333334Y-75260381D01*
X165333334Y-74260381D01*
X165714286Y-74260381D02*
X166380953Y-75260381D01*
X166380953Y-74260381D02*
X165714286Y-75260381D01*
X167190477Y-74593714D02*
X167190477Y-75260381D01*
X166952381Y-74212762D02*
X166714286Y-74927048D01*
X167333334Y-74927048D01*
X81261905Y-104702381D02*
X81261905Y-103702381D01*
X81642858Y-103702381D01*
X81738096Y-103750000D01*
X81785715Y-103797619D01*
X81833334Y-103892857D01*
X81833334Y-104035714D01*
X81785715Y-104130952D01*
X81738096Y-104178571D01*
X81642858Y-104226190D01*
X81261905Y-104226190D01*
X82738096Y-103702381D02*
X82261905Y-103702381D01*
X82214286Y-104178571D01*
X82261905Y-104130952D01*
X82357143Y-104083333D01*
X82595239Y-104083333D01*
X82690477Y-104130952D01*
X82738096Y-104178571D01*
X82785715Y-104273810D01*
X82785715Y-104511905D01*
X82738096Y-104607143D01*
X82690477Y-104654762D01*
X82595239Y-104702381D01*
X82357143Y-104702381D01*
X82261905Y-104654762D01*
X82214286Y-104607143D01*
X173261905Y-104702381D02*
X173261905Y-103702381D01*
X173642858Y-103702381D01*
X173738096Y-103750000D01*
X173785715Y-103797619D01*
X173833334Y-103892857D01*
X173833334Y-104035714D01*
X173785715Y-104130952D01*
X173738096Y-104178571D01*
X173642858Y-104226190D01*
X173261905Y-104226190D01*
X174690477Y-104035714D02*
X174690477Y-104702381D01*
X174452381Y-103654762D02*
X174214286Y-104369048D01*
X174833334Y-104369048D01*
X173261905Y-70452381D02*
X173261905Y-69452381D01*
X173642858Y-69452381D01*
X173738096Y-69500000D01*
X173785715Y-69547619D01*
X173833334Y-69642857D01*
X173833334Y-69785714D01*
X173785715Y-69880952D01*
X173738096Y-69928571D01*
X173642858Y-69976190D01*
X173261905Y-69976190D01*
X174166667Y-69452381D02*
X174785715Y-69452381D01*
X174452381Y-69833333D01*
X174595239Y-69833333D01*
X174690477Y-69880952D01*
X174738096Y-69928571D01*
X174785715Y-70023810D01*
X174785715Y-70261905D01*
X174738096Y-70357143D01*
X174690477Y-70404762D01*
X174595239Y-70452381D01*
X174309524Y-70452381D01*
X174214286Y-70404762D01*
X174166667Y-70357143D01*
X84261905Y-63452381D02*
X84261905Y-62452381D01*
X84642858Y-62452381D01*
X84738096Y-62500000D01*
X84785715Y-62547619D01*
X84833334Y-62642857D01*
X84833334Y-62785714D01*
X84785715Y-62880952D01*
X84738096Y-62928571D01*
X84642858Y-62976190D01*
X84261905Y-62976190D01*
X85214286Y-62547619D02*
X85261905Y-62500000D01*
X85357143Y-62452381D01*
X85595239Y-62452381D01*
X85690477Y-62500000D01*
X85738096Y-62547619D01*
X85785715Y-62642857D01*
X85785715Y-62738095D01*
X85738096Y-62880952D01*
X85166667Y-63452381D01*
X85785715Y-63452381D01*
X145357143Y-70252381D02*
X145023809Y-69776190D01*
X144785714Y-70252381D02*
X144785714Y-69252381D01*
X145166667Y-69252381D01*
X145261905Y-69300000D01*
X145309524Y-69347619D01*
X145357143Y-69442857D01*
X145357143Y-69585714D01*
X145309524Y-69680952D01*
X145261905Y-69728571D01*
X145166667Y-69776190D01*
X144785714Y-69776190D01*
X146214286Y-69585714D02*
X146214286Y-70252381D01*
X145976190Y-69204762D02*
X145738095Y-69919048D01*
X146357143Y-69919048D01*
X146642857Y-69252381D02*
X147261905Y-69252381D01*
X146928571Y-69633333D01*
X147071429Y-69633333D01*
X147166667Y-69680952D01*
X147214286Y-69728571D01*
X147261905Y-69823810D01*
X147261905Y-70061905D01*
X147214286Y-70157143D01*
X147166667Y-70204762D01*
X147071429Y-70252381D01*
X146785714Y-70252381D01*
X146690476Y-70204762D01*
X146642857Y-70157143D01*
X108557143Y-70252381D02*
X108223809Y-69776190D01*
X107985714Y-70252381D02*
X107985714Y-69252381D01*
X108366667Y-69252381D01*
X108461905Y-69300000D01*
X108509524Y-69347619D01*
X108557143Y-69442857D01*
X108557143Y-69585714D01*
X108509524Y-69680952D01*
X108461905Y-69728571D01*
X108366667Y-69776190D01*
X107985714Y-69776190D01*
X109414286Y-69585714D02*
X109414286Y-70252381D01*
X109176190Y-69204762D02*
X108938095Y-69919048D01*
X109557143Y-69919048D01*
X109890476Y-69347619D02*
X109938095Y-69300000D01*
X110033333Y-69252381D01*
X110271429Y-69252381D01*
X110366667Y-69300000D01*
X110414286Y-69347619D01*
X110461905Y-69442857D01*
X110461905Y-69538095D01*
X110414286Y-69680952D01*
X109842857Y-70252381D01*
X110461905Y-70252381D01*
X138157143Y-70252381D02*
X137823809Y-69776190D01*
X137585714Y-70252381D02*
X137585714Y-69252381D01*
X137966667Y-69252381D01*
X138061905Y-69300000D01*
X138109524Y-69347619D01*
X138157143Y-69442857D01*
X138157143Y-69585714D01*
X138109524Y-69680952D01*
X138061905Y-69728571D01*
X137966667Y-69776190D01*
X137585714Y-69776190D01*
X139014286Y-69585714D02*
X139014286Y-70252381D01*
X138776190Y-69204762D02*
X138538095Y-69919048D01*
X139157143Y-69919048D01*
X140061905Y-70252381D02*
X139490476Y-70252381D01*
X139776190Y-70252381D02*
X139776190Y-69252381D01*
X139680952Y-69395238D01*
X139585714Y-69490476D01*
X139490476Y-69538095D01*
X101557143Y-70452381D02*
X101223809Y-69976190D01*
X100985714Y-70452381D02*
X100985714Y-69452381D01*
X101366667Y-69452381D01*
X101461905Y-69500000D01*
X101509524Y-69547619D01*
X101557143Y-69642857D01*
X101557143Y-69785714D01*
X101509524Y-69880952D01*
X101461905Y-69928571D01*
X101366667Y-69976190D01*
X100985714Y-69976190D01*
X102414286Y-69785714D02*
X102414286Y-70452381D01*
X102176190Y-69404762D02*
X101938095Y-70119048D01*
X102557143Y-70119048D01*
X103128571Y-69452381D02*
X103223810Y-69452381D01*
X103319048Y-69500000D01*
X103366667Y-69547619D01*
X103414286Y-69642857D01*
X103461905Y-69833333D01*
X103461905Y-70071429D01*
X103414286Y-70261905D01*
X103366667Y-70357143D01*
X103319048Y-70404762D01*
X103223810Y-70452381D01*
X103128571Y-70452381D01*
X103033333Y-70404762D01*
X102985714Y-70357143D01*
X102938095Y-70261905D01*
X102890476Y-70071429D01*
X102890476Y-69833333D01*
X102938095Y-69642857D01*
X102985714Y-69547619D01*
X103033333Y-69500000D01*
X103128571Y-69452381D01*
X130757143Y-70452381D02*
X130423809Y-69976190D01*
X130185714Y-70452381D02*
X130185714Y-69452381D01*
X130566667Y-69452381D01*
X130661905Y-69500000D01*
X130709524Y-69547619D01*
X130757143Y-69642857D01*
X130757143Y-69785714D01*
X130709524Y-69880952D01*
X130661905Y-69928571D01*
X130566667Y-69976190D01*
X130185714Y-69976190D01*
X131090476Y-69452381D02*
X131709524Y-69452381D01*
X131376190Y-69833333D01*
X131519048Y-69833333D01*
X131614286Y-69880952D01*
X131661905Y-69928571D01*
X131709524Y-70023810D01*
X131709524Y-70261905D01*
X131661905Y-70357143D01*
X131614286Y-70404762D01*
X131519048Y-70452381D01*
X131233333Y-70452381D01*
X131138095Y-70404762D01*
X131090476Y-70357143D01*
X132185714Y-70452381D02*
X132376190Y-70452381D01*
X132471429Y-70404762D01*
X132519048Y-70357143D01*
X132614286Y-70214286D01*
X132661905Y-70023810D01*
X132661905Y-69642857D01*
X132614286Y-69547619D01*
X132566667Y-69500000D01*
X132471429Y-69452381D01*
X132280952Y-69452381D01*
X132185714Y-69500000D01*
X132138095Y-69547619D01*
X132090476Y-69642857D01*
X132090476Y-69880952D01*
X132138095Y-69976190D01*
X132185714Y-70023810D01*
X132280952Y-70071429D01*
X132471429Y-70071429D01*
X132566667Y-70023810D01*
X132614286Y-69976190D01*
X132661905Y-69880952D01*
X94357143Y-70452381D02*
X94023809Y-69976190D01*
X93785714Y-70452381D02*
X93785714Y-69452381D01*
X94166667Y-69452381D01*
X94261905Y-69500000D01*
X94309524Y-69547619D01*
X94357143Y-69642857D01*
X94357143Y-69785714D01*
X94309524Y-69880952D01*
X94261905Y-69928571D01*
X94166667Y-69976190D01*
X93785714Y-69976190D01*
X94690476Y-69452381D02*
X95309524Y-69452381D01*
X94976190Y-69833333D01*
X95119048Y-69833333D01*
X95214286Y-69880952D01*
X95261905Y-69928571D01*
X95309524Y-70023810D01*
X95309524Y-70261905D01*
X95261905Y-70357143D01*
X95214286Y-70404762D01*
X95119048Y-70452381D01*
X94833333Y-70452381D01*
X94738095Y-70404762D01*
X94690476Y-70357143D01*
X95880952Y-69880952D02*
X95785714Y-69833333D01*
X95738095Y-69785714D01*
X95690476Y-69690476D01*
X95690476Y-69642857D01*
X95738095Y-69547619D01*
X95785714Y-69500000D01*
X95880952Y-69452381D01*
X96071429Y-69452381D01*
X96166667Y-69500000D01*
X96214286Y-69547619D01*
X96261905Y-69642857D01*
X96261905Y-69690476D01*
X96214286Y-69785714D01*
X96166667Y-69833333D01*
X96071429Y-69880952D01*
X95880952Y-69880952D01*
X95785714Y-69928571D01*
X95738095Y-69976190D01*
X95690476Y-70071429D01*
X95690476Y-70261905D01*
X95738095Y-70357143D01*
X95785714Y-70404762D01*
X95880952Y-70452381D01*
X96071429Y-70452381D01*
X96166667Y-70404762D01*
X96214286Y-70357143D01*
X96261905Y-70261905D01*
X96261905Y-70071429D01*
X96214286Y-69976190D01*
X96166667Y-69928571D01*
X96071429Y-69880952D01*
X123357143Y-70452381D02*
X123023809Y-69976190D01*
X122785714Y-70452381D02*
X122785714Y-69452381D01*
X123166667Y-69452381D01*
X123261905Y-69500000D01*
X123309524Y-69547619D01*
X123357143Y-69642857D01*
X123357143Y-69785714D01*
X123309524Y-69880952D01*
X123261905Y-69928571D01*
X123166667Y-69976190D01*
X122785714Y-69976190D01*
X123690476Y-69452381D02*
X124309524Y-69452381D01*
X123976190Y-69833333D01*
X124119048Y-69833333D01*
X124214286Y-69880952D01*
X124261905Y-69928571D01*
X124309524Y-70023810D01*
X124309524Y-70261905D01*
X124261905Y-70357143D01*
X124214286Y-70404762D01*
X124119048Y-70452381D01*
X123833333Y-70452381D01*
X123738095Y-70404762D01*
X123690476Y-70357143D01*
X124642857Y-69452381D02*
X125309524Y-69452381D01*
X124880952Y-70452381D01*
X87357143Y-70452381D02*
X87023809Y-69976190D01*
X86785714Y-70452381D02*
X86785714Y-69452381D01*
X87166667Y-69452381D01*
X87261905Y-69500000D01*
X87309524Y-69547619D01*
X87357143Y-69642857D01*
X87357143Y-69785714D01*
X87309524Y-69880952D01*
X87261905Y-69928571D01*
X87166667Y-69976190D01*
X86785714Y-69976190D01*
X87690476Y-69452381D02*
X88309524Y-69452381D01*
X87976190Y-69833333D01*
X88119048Y-69833333D01*
X88214286Y-69880952D01*
X88261905Y-69928571D01*
X88309524Y-70023810D01*
X88309524Y-70261905D01*
X88261905Y-70357143D01*
X88214286Y-70404762D01*
X88119048Y-70452381D01*
X87833333Y-70452381D01*
X87738095Y-70404762D01*
X87690476Y-70357143D01*
X89166667Y-69452381D02*
X88976190Y-69452381D01*
X88880952Y-69500000D01*
X88833333Y-69547619D01*
X88738095Y-69690476D01*
X88690476Y-69880952D01*
X88690476Y-70261905D01*
X88738095Y-70357143D01*
X88785714Y-70404762D01*
X88880952Y-70452381D01*
X89071429Y-70452381D01*
X89166667Y-70404762D01*
X89214286Y-70357143D01*
X89261905Y-70261905D01*
X89261905Y-70023810D01*
X89214286Y-69928571D01*
X89166667Y-69880952D01*
X89071429Y-69833333D01*
X88880952Y-69833333D01*
X88785714Y-69880952D01*
X88738095Y-69928571D01*
X88690476Y-70023810D01*
X116157143Y-70252381D02*
X115823809Y-69776190D01*
X115585714Y-70252381D02*
X115585714Y-69252381D01*
X115966667Y-69252381D01*
X116061905Y-69300000D01*
X116109524Y-69347619D01*
X116157143Y-69442857D01*
X116157143Y-69585714D01*
X116109524Y-69680952D01*
X116061905Y-69728571D01*
X115966667Y-69776190D01*
X115585714Y-69776190D01*
X116490476Y-69252381D02*
X117109524Y-69252381D01*
X116776190Y-69633333D01*
X116919048Y-69633333D01*
X117014286Y-69680952D01*
X117061905Y-69728571D01*
X117109524Y-69823810D01*
X117109524Y-70061905D01*
X117061905Y-70157143D01*
X117014286Y-70204762D01*
X116919048Y-70252381D01*
X116633333Y-70252381D01*
X116538095Y-70204762D01*
X116490476Y-70157143D01*
X118014286Y-69252381D02*
X117538095Y-69252381D01*
X117490476Y-69728571D01*
X117538095Y-69680952D01*
X117633333Y-69633333D01*
X117871429Y-69633333D01*
X117966667Y-69680952D01*
X118014286Y-69728571D01*
X118061905Y-69823810D01*
X118061905Y-70061905D01*
X118014286Y-70157143D01*
X117966667Y-70204762D01*
X117871429Y-70252381D01*
X117633333Y-70252381D01*
X117538095Y-70204762D01*
X117490476Y-70157143D01*
X152157143Y-70252381D02*
X151823809Y-69776190D01*
X151585714Y-70252381D02*
X151585714Y-69252381D01*
X151966667Y-69252381D01*
X152061905Y-69300000D01*
X152109524Y-69347619D01*
X152157143Y-69442857D01*
X152157143Y-69585714D01*
X152109524Y-69680952D01*
X152061905Y-69728571D01*
X151966667Y-69776190D01*
X151585714Y-69776190D01*
X152490476Y-69252381D02*
X153109524Y-69252381D01*
X152776190Y-69633333D01*
X152919048Y-69633333D01*
X153014286Y-69680952D01*
X153061905Y-69728571D01*
X153109524Y-69823810D01*
X153109524Y-70061905D01*
X153061905Y-70157143D01*
X153014286Y-70204762D01*
X152919048Y-70252381D01*
X152633333Y-70252381D01*
X152538095Y-70204762D01*
X152490476Y-70157143D01*
X153966667Y-69585714D02*
X153966667Y-70252381D01*
X153728571Y-69204762D02*
X153490476Y-69919048D01*
X154109524Y-69919048D01*
X136257143Y-101102381D02*
X135923809Y-100626190D01*
X135685714Y-101102381D02*
X135685714Y-100102381D01*
X136066667Y-100102381D01*
X136161905Y-100150000D01*
X136209524Y-100197619D01*
X136257143Y-100292857D01*
X136257143Y-100435714D01*
X136209524Y-100530952D01*
X136161905Y-100578571D01*
X136066667Y-100626190D01*
X135685714Y-100626190D01*
X136590476Y-100102381D02*
X137209524Y-100102381D01*
X136876190Y-100483333D01*
X137019048Y-100483333D01*
X137114286Y-100530952D01*
X137161905Y-100578571D01*
X137209524Y-100673810D01*
X137209524Y-100911905D01*
X137161905Y-101007143D01*
X137114286Y-101054762D01*
X137019048Y-101102381D01*
X136733333Y-101102381D01*
X136638095Y-101054762D01*
X136590476Y-101007143D01*
X137542857Y-100102381D02*
X138161905Y-100102381D01*
X137828571Y-100483333D01*
X137971429Y-100483333D01*
X138066667Y-100530952D01*
X138114286Y-100578571D01*
X138161905Y-100673810D01*
X138161905Y-100911905D01*
X138114286Y-101007143D01*
X138066667Y-101054762D01*
X137971429Y-101102381D01*
X137685714Y-101102381D01*
X137590476Y-101054762D01*
X137542857Y-101007143D01*
X127857143Y-101102381D02*
X127523809Y-100626190D01*
X127285714Y-101102381D02*
X127285714Y-100102381D01*
X127666667Y-100102381D01*
X127761905Y-100150000D01*
X127809524Y-100197619D01*
X127857143Y-100292857D01*
X127857143Y-100435714D01*
X127809524Y-100530952D01*
X127761905Y-100578571D01*
X127666667Y-100626190D01*
X127285714Y-100626190D01*
X128190476Y-100102381D02*
X128809524Y-100102381D01*
X128476190Y-100483333D01*
X128619048Y-100483333D01*
X128714286Y-100530952D01*
X128761905Y-100578571D01*
X128809524Y-100673810D01*
X128809524Y-100911905D01*
X128761905Y-101007143D01*
X128714286Y-101054762D01*
X128619048Y-101102381D01*
X128333333Y-101102381D01*
X128238095Y-101054762D01*
X128190476Y-101007143D01*
X129190476Y-100197619D02*
X129238095Y-100150000D01*
X129333333Y-100102381D01*
X129571429Y-100102381D01*
X129666667Y-100150000D01*
X129714286Y-100197619D01*
X129761905Y-100292857D01*
X129761905Y-100388095D01*
X129714286Y-100530952D01*
X129142857Y-101102381D01*
X129761905Y-101102381D01*
X119957143Y-102252381D02*
X119623809Y-101776190D01*
X119385714Y-102252381D02*
X119385714Y-101252381D01*
X119766667Y-101252381D01*
X119861905Y-101300000D01*
X119909524Y-101347619D01*
X119957143Y-101442857D01*
X119957143Y-101585714D01*
X119909524Y-101680952D01*
X119861905Y-101728571D01*
X119766667Y-101776190D01*
X119385714Y-101776190D01*
X120290476Y-101252381D02*
X120909524Y-101252381D01*
X120576190Y-101633333D01*
X120719048Y-101633333D01*
X120814286Y-101680952D01*
X120861905Y-101728571D01*
X120909524Y-101823810D01*
X120909524Y-102061905D01*
X120861905Y-102157143D01*
X120814286Y-102204762D01*
X120719048Y-102252381D01*
X120433333Y-102252381D01*
X120338095Y-102204762D01*
X120290476Y-102157143D01*
X121861905Y-102252381D02*
X121290476Y-102252381D01*
X121576190Y-102252381D02*
X121576190Y-101252381D01*
X121480952Y-101395238D01*
X121385714Y-101490476D01*
X121290476Y-101538095D01*
X116357143Y-102702381D02*
X116023809Y-102226190D01*
X115785714Y-102702381D02*
X115785714Y-101702381D01*
X116166667Y-101702381D01*
X116261905Y-101750000D01*
X116309524Y-101797619D01*
X116357143Y-101892857D01*
X116357143Y-102035714D01*
X116309524Y-102130952D01*
X116261905Y-102178571D01*
X116166667Y-102226190D01*
X115785714Y-102226190D01*
X116690476Y-101702381D02*
X117309524Y-101702381D01*
X116976190Y-102083333D01*
X117119048Y-102083333D01*
X117214286Y-102130952D01*
X117261905Y-102178571D01*
X117309524Y-102273810D01*
X117309524Y-102511905D01*
X117261905Y-102607143D01*
X117214286Y-102654762D01*
X117119048Y-102702381D01*
X116833333Y-102702381D01*
X116738095Y-102654762D01*
X116690476Y-102607143D01*
X117928571Y-101702381D02*
X118023810Y-101702381D01*
X118119048Y-101750000D01*
X118166667Y-101797619D01*
X118214286Y-101892857D01*
X118261905Y-102083333D01*
X118261905Y-102321429D01*
X118214286Y-102511905D01*
X118166667Y-102607143D01*
X118119048Y-102654762D01*
X118023810Y-102702381D01*
X117928571Y-102702381D01*
X117833333Y-102654762D01*
X117785714Y-102607143D01*
X117738095Y-102511905D01*
X117690476Y-102321429D01*
X117690476Y-102083333D01*
X117738095Y-101892857D01*
X117785714Y-101797619D01*
X117833333Y-101750000D01*
X117928571Y-101702381D01*
X109702381Y-100642857D02*
X109226190Y-100976191D01*
X109702381Y-101214286D02*
X108702381Y-101214286D01*
X108702381Y-100833333D01*
X108750000Y-100738095D01*
X108797619Y-100690476D01*
X108892857Y-100642857D01*
X109035714Y-100642857D01*
X109130952Y-100690476D01*
X109178571Y-100738095D01*
X109226190Y-100833333D01*
X109226190Y-101214286D01*
X109702381Y-99690476D02*
X109702381Y-100261905D01*
X109702381Y-99976191D02*
X108702381Y-99976191D01*
X108845238Y-100071429D01*
X108940476Y-100166667D01*
X108988095Y-100261905D01*
X108702381Y-99357143D02*
X108702381Y-98690476D01*
X109702381Y-99119048D01*
X172202381Y-100642857D02*
X171726190Y-100976191D01*
X172202381Y-101214286D02*
X171202381Y-101214286D01*
X171202381Y-100833333D01*
X171250000Y-100738095D01*
X171297619Y-100690476D01*
X171392857Y-100642857D01*
X171535714Y-100642857D01*
X171630952Y-100690476D01*
X171678571Y-100738095D01*
X171726190Y-100833333D01*
X171726190Y-101214286D01*
X172202381Y-99690476D02*
X172202381Y-100261905D01*
X172202381Y-99976191D02*
X171202381Y-99976191D01*
X171345238Y-100071429D01*
X171440476Y-100166667D01*
X171488095Y-100261905D01*
X171202381Y-98833333D02*
X171202381Y-99023810D01*
X171250000Y-99119048D01*
X171297619Y-99166667D01*
X171440476Y-99261905D01*
X171630952Y-99309524D01*
X172011905Y-99309524D01*
X172107143Y-99261905D01*
X172154762Y-99214286D01*
X172202381Y-99119048D01*
X172202381Y-98928571D01*
X172154762Y-98833333D01*
X172107143Y-98785714D01*
X172011905Y-98738095D01*
X171773810Y-98738095D01*
X171678571Y-98785714D01*
X171630952Y-98833333D01*
X171583333Y-98928571D01*
X171583333Y-99119048D01*
X171630952Y-99214286D01*
X171678571Y-99261905D01*
X171773810Y-99309524D01*
X98202381Y-100642857D02*
X97726190Y-100976191D01*
X98202381Y-101214286D02*
X97202381Y-101214286D01*
X97202381Y-100833333D01*
X97250000Y-100738095D01*
X97297619Y-100690476D01*
X97392857Y-100642857D01*
X97535714Y-100642857D01*
X97630952Y-100690476D01*
X97678571Y-100738095D01*
X97726190Y-100833333D01*
X97726190Y-101214286D01*
X98202381Y-99690476D02*
X98202381Y-100261905D01*
X98202381Y-99976191D02*
X97202381Y-99976191D01*
X97345238Y-100071429D01*
X97440476Y-100166667D01*
X97488095Y-100261905D01*
X97202381Y-98785714D02*
X97202381Y-99261905D01*
X97678571Y-99309524D01*
X97630952Y-99261905D01*
X97583333Y-99166667D01*
X97583333Y-98928571D01*
X97630952Y-98833333D01*
X97678571Y-98785714D01*
X97773810Y-98738095D01*
X98011905Y-98738095D01*
X98107143Y-98785714D01*
X98154762Y-98833333D01*
X98202381Y-98928571D01*
X98202381Y-99166667D01*
X98154762Y-99261905D01*
X98107143Y-99309524D01*
X160702381Y-100642857D02*
X160226190Y-100976191D01*
X160702381Y-101214286D02*
X159702381Y-101214286D01*
X159702381Y-100833333D01*
X159750000Y-100738095D01*
X159797619Y-100690476D01*
X159892857Y-100642857D01*
X160035714Y-100642857D01*
X160130952Y-100690476D01*
X160178571Y-100738095D01*
X160226190Y-100833333D01*
X160226190Y-101214286D01*
X160702381Y-99690476D02*
X160702381Y-100261905D01*
X160702381Y-99976191D02*
X159702381Y-99976191D01*
X159845238Y-100071429D01*
X159940476Y-100166667D01*
X159988095Y-100261905D01*
X160035714Y-98833333D02*
X160702381Y-98833333D01*
X159654762Y-99071429D02*
X160369048Y-99309524D01*
X160369048Y-98690476D01*
X107952381Y-100642857D02*
X107476190Y-100976191D01*
X107952381Y-101214286D02*
X106952381Y-101214286D01*
X106952381Y-100833333D01*
X107000000Y-100738095D01*
X107047619Y-100690476D01*
X107142857Y-100642857D01*
X107285714Y-100642857D01*
X107380952Y-100690476D01*
X107428571Y-100738095D01*
X107476190Y-100833333D01*
X107476190Y-101214286D01*
X107952381Y-99690476D02*
X107952381Y-100261905D01*
X107952381Y-99976191D02*
X106952381Y-99976191D01*
X107095238Y-100071429D01*
X107190476Y-100166667D01*
X107238095Y-100261905D01*
X106952381Y-99357143D02*
X106952381Y-98738095D01*
X107333333Y-99071429D01*
X107333333Y-98928571D01*
X107380952Y-98833333D01*
X107428571Y-98785714D01*
X107523810Y-98738095D01*
X107761905Y-98738095D01*
X107857143Y-98785714D01*
X107904762Y-98833333D01*
X107952381Y-98928571D01*
X107952381Y-99214286D01*
X107904762Y-99309524D01*
X107857143Y-99357143D01*
X170452381Y-100642857D02*
X169976190Y-100976191D01*
X170452381Y-101214286D02*
X169452381Y-101214286D01*
X169452381Y-100833333D01*
X169500000Y-100738095D01*
X169547619Y-100690476D01*
X169642857Y-100642857D01*
X169785714Y-100642857D01*
X169880952Y-100690476D01*
X169928571Y-100738095D01*
X169976190Y-100833333D01*
X169976190Y-101214286D01*
X170452381Y-99690476D02*
X170452381Y-100261905D01*
X170452381Y-99976191D02*
X169452381Y-99976191D01*
X169595238Y-100071429D01*
X169690476Y-100166667D01*
X169738095Y-100261905D01*
X169547619Y-99309524D02*
X169500000Y-99261905D01*
X169452381Y-99166667D01*
X169452381Y-98928571D01*
X169500000Y-98833333D01*
X169547619Y-98785714D01*
X169642857Y-98738095D01*
X169738095Y-98738095D01*
X169880952Y-98785714D01*
X170452381Y-99357143D01*
X170452381Y-98738095D01*
X158452381Y-96392857D02*
X157976190Y-96726191D01*
X158452381Y-96964286D02*
X157452381Y-96964286D01*
X157452381Y-96583333D01*
X157500000Y-96488095D01*
X157547619Y-96440476D01*
X157642857Y-96392857D01*
X157785714Y-96392857D01*
X157880952Y-96440476D01*
X157928571Y-96488095D01*
X157976190Y-96583333D01*
X157976190Y-96964286D01*
X158452381Y-95440476D02*
X158452381Y-96011905D01*
X158452381Y-95726191D02*
X157452381Y-95726191D01*
X157595238Y-95821429D01*
X157690476Y-95916667D01*
X157738095Y-96011905D01*
X158452381Y-94488095D02*
X158452381Y-95059524D01*
X158452381Y-94773810D02*
X157452381Y-94773810D01*
X157595238Y-94869048D01*
X157690476Y-94964286D01*
X157738095Y-95059524D01*
X84452381Y-100892857D02*
X83976190Y-101226191D01*
X84452381Y-101464286D02*
X83452381Y-101464286D01*
X83452381Y-101083333D01*
X83500000Y-100988095D01*
X83547619Y-100940476D01*
X83642857Y-100892857D01*
X83785714Y-100892857D01*
X83880952Y-100940476D01*
X83928571Y-100988095D01*
X83976190Y-101083333D01*
X83976190Y-101464286D01*
X84452381Y-99940476D02*
X84452381Y-100511905D01*
X84452381Y-100226191D02*
X83452381Y-100226191D01*
X83595238Y-100321429D01*
X83690476Y-100416667D01*
X83738095Y-100511905D01*
X83452381Y-99321429D02*
X83452381Y-99226190D01*
X83500000Y-99130952D01*
X83547619Y-99083333D01*
X83642857Y-99035714D01*
X83833333Y-98988095D01*
X84071429Y-98988095D01*
X84261905Y-99035714D01*
X84357143Y-99083333D01*
X84404762Y-99130952D01*
X84452381Y-99226190D01*
X84452381Y-99321429D01*
X84404762Y-99416667D01*
X84357143Y-99464286D01*
X84261905Y-99511905D01*
X84071429Y-99559524D01*
X83833333Y-99559524D01*
X83642857Y-99511905D01*
X83547619Y-99464286D01*
X83500000Y-99416667D01*
X83452381Y-99321429D01*
X152452381Y-96416666D02*
X151976190Y-96750000D01*
X152452381Y-96988095D02*
X151452381Y-96988095D01*
X151452381Y-96607142D01*
X151500000Y-96511904D01*
X151547619Y-96464285D01*
X151642857Y-96416666D01*
X151785714Y-96416666D01*
X151880952Y-96464285D01*
X151928571Y-96511904D01*
X151976190Y-96607142D01*
X151976190Y-96988095D01*
X152452381Y-95940476D02*
X152452381Y-95750000D01*
X152404762Y-95654761D01*
X152357143Y-95607142D01*
X152214286Y-95511904D01*
X152023810Y-95464285D01*
X151642857Y-95464285D01*
X151547619Y-95511904D01*
X151500000Y-95559523D01*
X151452381Y-95654761D01*
X151452381Y-95845238D01*
X151500000Y-95940476D01*
X151547619Y-95988095D01*
X151642857Y-96035714D01*
X151880952Y-96035714D01*
X151976190Y-95988095D01*
X152023810Y-95940476D01*
X152071429Y-95845238D01*
X152071429Y-95654761D01*
X152023810Y-95559523D01*
X151976190Y-95511904D01*
X151880952Y-95464285D01*
X86202381Y-100916666D02*
X85726190Y-101250000D01*
X86202381Y-101488095D02*
X85202381Y-101488095D01*
X85202381Y-101107142D01*
X85250000Y-101011904D01*
X85297619Y-100964285D01*
X85392857Y-100916666D01*
X85535714Y-100916666D01*
X85630952Y-100964285D01*
X85678571Y-101011904D01*
X85726190Y-101107142D01*
X85726190Y-101488095D01*
X85630952Y-100345238D02*
X85583333Y-100440476D01*
X85535714Y-100488095D01*
X85440476Y-100535714D01*
X85392857Y-100535714D01*
X85297619Y-100488095D01*
X85250000Y-100440476D01*
X85202381Y-100345238D01*
X85202381Y-100154761D01*
X85250000Y-100059523D01*
X85297619Y-100011904D01*
X85392857Y-99964285D01*
X85440476Y-99964285D01*
X85535714Y-100011904D01*
X85583333Y-100059523D01*
X85630952Y-100154761D01*
X85630952Y-100345238D01*
X85678571Y-100440476D01*
X85726190Y-100488095D01*
X85821429Y-100535714D01*
X86011905Y-100535714D01*
X86107143Y-100488095D01*
X86154762Y-100440476D01*
X86202381Y-100345238D01*
X86202381Y-100154761D01*
X86154762Y-100059523D01*
X86107143Y-100011904D01*
X86011905Y-99964285D01*
X85821429Y-99964285D01*
X85726190Y-100011904D01*
X85678571Y-100059523D01*
X85630952Y-100154761D01*
X155452381Y-94916666D02*
X154976190Y-95250000D01*
X155452381Y-95488095D02*
X154452381Y-95488095D01*
X154452381Y-95107142D01*
X154500000Y-95011904D01*
X154547619Y-94964285D01*
X154642857Y-94916666D01*
X154785714Y-94916666D01*
X154880952Y-94964285D01*
X154928571Y-95011904D01*
X154976190Y-95107142D01*
X154976190Y-95488095D01*
X154452381Y-94583333D02*
X154452381Y-93916666D01*
X155452381Y-94345238D01*
X87952381Y-100916666D02*
X87476190Y-101250000D01*
X87952381Y-101488095D02*
X86952381Y-101488095D01*
X86952381Y-101107142D01*
X87000000Y-101011904D01*
X87047619Y-100964285D01*
X87142857Y-100916666D01*
X87285714Y-100916666D01*
X87380952Y-100964285D01*
X87428571Y-101011904D01*
X87476190Y-101107142D01*
X87476190Y-101488095D01*
X86952381Y-100059523D02*
X86952381Y-100250000D01*
X87000000Y-100345238D01*
X87047619Y-100392857D01*
X87190476Y-100488095D01*
X87380952Y-100535714D01*
X87761905Y-100535714D01*
X87857143Y-100488095D01*
X87904762Y-100440476D01*
X87952381Y-100345238D01*
X87952381Y-100154761D01*
X87904762Y-100059523D01*
X87857143Y-100011904D01*
X87761905Y-99964285D01*
X87523810Y-99964285D01*
X87428571Y-100011904D01*
X87380952Y-100059523D01*
X87333333Y-100154761D01*
X87333333Y-100345238D01*
X87380952Y-100440476D01*
X87428571Y-100488095D01*
X87523810Y-100535714D01*
X148028572Y-63547619D02*
X147933334Y-63500000D01*
X147838096Y-63404762D01*
X147695239Y-63261905D01*
X147600000Y-63214286D01*
X147504762Y-63214286D01*
X147552381Y-63452381D02*
X147457143Y-63404762D01*
X147361905Y-63309524D01*
X147314286Y-63119048D01*
X147314286Y-62785714D01*
X147361905Y-62595238D01*
X147457143Y-62500000D01*
X147552381Y-62452381D01*
X147742858Y-62452381D01*
X147838096Y-62500000D01*
X147933334Y-62595238D01*
X147980953Y-62785714D01*
X147980953Y-63119048D01*
X147933334Y-63309524D01*
X147838096Y-63404762D01*
X147742858Y-63452381D01*
X147552381Y-63452381D01*
X148361905Y-62547619D02*
X148409524Y-62500000D01*
X148504762Y-62452381D01*
X148742858Y-62452381D01*
X148838096Y-62500000D01*
X148885715Y-62547619D01*
X148933334Y-62642857D01*
X148933334Y-62738095D01*
X148885715Y-62880952D01*
X148314286Y-63452381D01*
X148933334Y-63452381D01*
X149885715Y-63452381D02*
X149314286Y-63452381D01*
X149600000Y-63452381D02*
X149600000Y-62452381D01*
X149504762Y-62595238D01*
X149409524Y-62690476D01*
X149314286Y-62738095D01*
X111628572Y-63547619D02*
X111533334Y-63500000D01*
X111438096Y-63404762D01*
X111295239Y-63261905D01*
X111200000Y-63214286D01*
X111104762Y-63214286D01*
X111152381Y-63452381D02*
X111057143Y-63404762D01*
X110961905Y-63309524D01*
X110914286Y-63119048D01*
X110914286Y-62785714D01*
X110961905Y-62595238D01*
X111057143Y-62500000D01*
X111152381Y-62452381D01*
X111342858Y-62452381D01*
X111438096Y-62500000D01*
X111533334Y-62595238D01*
X111580953Y-62785714D01*
X111580953Y-63119048D01*
X111533334Y-63309524D01*
X111438096Y-63404762D01*
X111342858Y-63452381D01*
X111152381Y-63452381D01*
X111961905Y-62547619D02*
X112009524Y-62500000D01*
X112104762Y-62452381D01*
X112342858Y-62452381D01*
X112438096Y-62500000D01*
X112485715Y-62547619D01*
X112533334Y-62642857D01*
X112533334Y-62738095D01*
X112485715Y-62880952D01*
X111914286Y-63452381D01*
X112533334Y-63452381D01*
X113152381Y-62452381D02*
X113247620Y-62452381D01*
X113342858Y-62500000D01*
X113390477Y-62547619D01*
X113438096Y-62642857D01*
X113485715Y-62833333D01*
X113485715Y-63071429D01*
X113438096Y-63261905D01*
X113390477Y-63357143D01*
X113342858Y-63404762D01*
X113247620Y-63452381D01*
X113152381Y-63452381D01*
X113057143Y-63404762D01*
X113009524Y-63357143D01*
X112961905Y-63261905D01*
X112914286Y-63071429D01*
X112914286Y-62833333D01*
X112961905Y-62642857D01*
X113009524Y-62547619D01*
X113057143Y-62500000D01*
X113152381Y-62452381D01*
X141028572Y-63547619D02*
X140933334Y-63500000D01*
X140838096Y-63404762D01*
X140695239Y-63261905D01*
X140600000Y-63214286D01*
X140504762Y-63214286D01*
X140552381Y-63452381D02*
X140457143Y-63404762D01*
X140361905Y-63309524D01*
X140314286Y-63119048D01*
X140314286Y-62785714D01*
X140361905Y-62595238D01*
X140457143Y-62500000D01*
X140552381Y-62452381D01*
X140742858Y-62452381D01*
X140838096Y-62500000D01*
X140933334Y-62595238D01*
X140980953Y-62785714D01*
X140980953Y-63119048D01*
X140933334Y-63309524D01*
X140838096Y-63404762D01*
X140742858Y-63452381D01*
X140552381Y-63452381D01*
X141933334Y-63452381D02*
X141361905Y-63452381D01*
X141647619Y-63452381D02*
X141647619Y-62452381D01*
X141552381Y-62595238D01*
X141457143Y-62690476D01*
X141361905Y-62738095D01*
X142409524Y-63452381D02*
X142600000Y-63452381D01*
X142695239Y-63404762D01*
X142742858Y-63357143D01*
X142838096Y-63214286D01*
X142885715Y-63023810D01*
X142885715Y-62642857D01*
X142838096Y-62547619D01*
X142790477Y-62500000D01*
X142695239Y-62452381D01*
X142504762Y-62452381D01*
X142409524Y-62500000D01*
X142361905Y-62547619D01*
X142314286Y-62642857D01*
X142314286Y-62880952D01*
X142361905Y-62976190D01*
X142409524Y-63023810D01*
X142504762Y-63071429D01*
X142695239Y-63071429D01*
X142790477Y-63023810D01*
X142838096Y-62976190D01*
X142885715Y-62880952D01*
X104628572Y-63547619D02*
X104533334Y-63500000D01*
X104438096Y-63404762D01*
X104295239Y-63261905D01*
X104200000Y-63214286D01*
X104104762Y-63214286D01*
X104152381Y-63452381D02*
X104057143Y-63404762D01*
X103961905Y-63309524D01*
X103914286Y-63119048D01*
X103914286Y-62785714D01*
X103961905Y-62595238D01*
X104057143Y-62500000D01*
X104152381Y-62452381D01*
X104342858Y-62452381D01*
X104438096Y-62500000D01*
X104533334Y-62595238D01*
X104580953Y-62785714D01*
X104580953Y-63119048D01*
X104533334Y-63309524D01*
X104438096Y-63404762D01*
X104342858Y-63452381D01*
X104152381Y-63452381D01*
X105533334Y-63452381D02*
X104961905Y-63452381D01*
X105247619Y-63452381D02*
X105247619Y-62452381D01*
X105152381Y-62595238D01*
X105057143Y-62690476D01*
X104961905Y-62738095D01*
X106104762Y-62880952D02*
X106009524Y-62833333D01*
X105961905Y-62785714D01*
X105914286Y-62690476D01*
X105914286Y-62642857D01*
X105961905Y-62547619D01*
X106009524Y-62500000D01*
X106104762Y-62452381D01*
X106295239Y-62452381D01*
X106390477Y-62500000D01*
X106438096Y-62547619D01*
X106485715Y-62642857D01*
X106485715Y-62690476D01*
X106438096Y-62785714D01*
X106390477Y-62833333D01*
X106295239Y-62880952D01*
X106104762Y-62880952D01*
X106009524Y-62928571D01*
X105961905Y-62976190D01*
X105914286Y-63071429D01*
X105914286Y-63261905D01*
X105961905Y-63357143D01*
X106009524Y-63404762D01*
X106104762Y-63452381D01*
X106295239Y-63452381D01*
X106390477Y-63404762D01*
X106438096Y-63357143D01*
X106485715Y-63261905D01*
X106485715Y-63071429D01*
X106438096Y-62976190D01*
X106390477Y-62928571D01*
X106295239Y-62880952D01*
X133828572Y-63547619D02*
X133733334Y-63500000D01*
X133638096Y-63404762D01*
X133495239Y-63261905D01*
X133400000Y-63214286D01*
X133304762Y-63214286D01*
X133352381Y-63452381D02*
X133257143Y-63404762D01*
X133161905Y-63309524D01*
X133114286Y-63119048D01*
X133114286Y-62785714D01*
X133161905Y-62595238D01*
X133257143Y-62500000D01*
X133352381Y-62452381D01*
X133542858Y-62452381D01*
X133638096Y-62500000D01*
X133733334Y-62595238D01*
X133780953Y-62785714D01*
X133780953Y-63119048D01*
X133733334Y-63309524D01*
X133638096Y-63404762D01*
X133542858Y-63452381D01*
X133352381Y-63452381D01*
X134733334Y-63452381D02*
X134161905Y-63452381D01*
X134447619Y-63452381D02*
X134447619Y-62452381D01*
X134352381Y-62595238D01*
X134257143Y-62690476D01*
X134161905Y-62738095D01*
X135066667Y-62452381D02*
X135733334Y-62452381D01*
X135304762Y-63452381D01*
X96928572Y-63547619D02*
X96833334Y-63500000D01*
X96738096Y-63404762D01*
X96595239Y-63261905D01*
X96500000Y-63214286D01*
X96404762Y-63214286D01*
X96452381Y-63452381D02*
X96357143Y-63404762D01*
X96261905Y-63309524D01*
X96214286Y-63119048D01*
X96214286Y-62785714D01*
X96261905Y-62595238D01*
X96357143Y-62500000D01*
X96452381Y-62452381D01*
X96642858Y-62452381D01*
X96738096Y-62500000D01*
X96833334Y-62595238D01*
X96880953Y-62785714D01*
X96880953Y-63119048D01*
X96833334Y-63309524D01*
X96738096Y-63404762D01*
X96642858Y-63452381D01*
X96452381Y-63452381D01*
X97833334Y-63452381D02*
X97261905Y-63452381D01*
X97547619Y-63452381D02*
X97547619Y-62452381D01*
X97452381Y-62595238D01*
X97357143Y-62690476D01*
X97261905Y-62738095D01*
X98690477Y-62452381D02*
X98500000Y-62452381D01*
X98404762Y-62500000D01*
X98357143Y-62547619D01*
X98261905Y-62690476D01*
X98214286Y-62880952D01*
X98214286Y-63261905D01*
X98261905Y-63357143D01*
X98309524Y-63404762D01*
X98404762Y-63452381D01*
X98595239Y-63452381D01*
X98690477Y-63404762D01*
X98738096Y-63357143D01*
X98785715Y-63261905D01*
X98785715Y-63023810D01*
X98738096Y-62928571D01*
X98690477Y-62880952D01*
X98595239Y-62833333D01*
X98404762Y-62833333D01*
X98309524Y-62880952D01*
X98261905Y-62928571D01*
X98214286Y-63023810D01*
X126428572Y-63547619D02*
X126333334Y-63500000D01*
X126238096Y-63404762D01*
X126095239Y-63261905D01*
X126000000Y-63214286D01*
X125904762Y-63214286D01*
X125952381Y-63452381D02*
X125857143Y-63404762D01*
X125761905Y-63309524D01*
X125714286Y-63119048D01*
X125714286Y-62785714D01*
X125761905Y-62595238D01*
X125857143Y-62500000D01*
X125952381Y-62452381D01*
X126142858Y-62452381D01*
X126238096Y-62500000D01*
X126333334Y-62595238D01*
X126380953Y-62785714D01*
X126380953Y-63119048D01*
X126333334Y-63309524D01*
X126238096Y-63404762D01*
X126142858Y-63452381D01*
X125952381Y-63452381D01*
X127333334Y-63452381D02*
X126761905Y-63452381D01*
X127047619Y-63452381D02*
X127047619Y-62452381D01*
X126952381Y-62595238D01*
X126857143Y-62690476D01*
X126761905Y-62738095D01*
X128238096Y-62452381D02*
X127761905Y-62452381D01*
X127714286Y-62928571D01*
X127761905Y-62880952D01*
X127857143Y-62833333D01*
X128095239Y-62833333D01*
X128190477Y-62880952D01*
X128238096Y-62928571D01*
X128285715Y-63023810D01*
X128285715Y-63261905D01*
X128238096Y-63357143D01*
X128190477Y-63404762D01*
X128095239Y-63452381D01*
X127857143Y-63452381D01*
X127761905Y-63404762D01*
X127714286Y-63357143D01*
X90178572Y-63547619D02*
X90083334Y-63500000D01*
X89988096Y-63404762D01*
X89845239Y-63261905D01*
X89750000Y-63214286D01*
X89654762Y-63214286D01*
X89702381Y-63452381D02*
X89607143Y-63404762D01*
X89511905Y-63309524D01*
X89464286Y-63119048D01*
X89464286Y-62785714D01*
X89511905Y-62595238D01*
X89607143Y-62500000D01*
X89702381Y-62452381D01*
X89892858Y-62452381D01*
X89988096Y-62500000D01*
X90083334Y-62595238D01*
X90130953Y-62785714D01*
X90130953Y-63119048D01*
X90083334Y-63309524D01*
X89988096Y-63404762D01*
X89892858Y-63452381D01*
X89702381Y-63452381D01*
X91083334Y-63452381D02*
X90511905Y-63452381D01*
X90797619Y-63452381D02*
X90797619Y-62452381D01*
X90702381Y-62595238D01*
X90607143Y-62690476D01*
X90511905Y-62738095D01*
X91940477Y-62785714D02*
X91940477Y-63452381D01*
X91702381Y-62404762D02*
X91464286Y-63119048D01*
X92083334Y-63119048D01*
X119028572Y-63547619D02*
X118933334Y-63500000D01*
X118838096Y-63404762D01*
X118695239Y-63261905D01*
X118600000Y-63214286D01*
X118504762Y-63214286D01*
X118552381Y-63452381D02*
X118457143Y-63404762D01*
X118361905Y-63309524D01*
X118314286Y-63119048D01*
X118314286Y-62785714D01*
X118361905Y-62595238D01*
X118457143Y-62500000D01*
X118552381Y-62452381D01*
X118742858Y-62452381D01*
X118838096Y-62500000D01*
X118933334Y-62595238D01*
X118980953Y-62785714D01*
X118980953Y-63119048D01*
X118933334Y-63309524D01*
X118838096Y-63404762D01*
X118742858Y-63452381D01*
X118552381Y-63452381D01*
X119933334Y-63452381D02*
X119361905Y-63452381D01*
X119647619Y-63452381D02*
X119647619Y-62452381D01*
X119552381Y-62595238D01*
X119457143Y-62690476D01*
X119361905Y-62738095D01*
X120266667Y-62452381D02*
X120885715Y-62452381D01*
X120552381Y-62833333D01*
X120695239Y-62833333D01*
X120790477Y-62880952D01*
X120838096Y-62928571D01*
X120885715Y-63023810D01*
X120885715Y-63261905D01*
X120838096Y-63357143D01*
X120790477Y-63404762D01*
X120695239Y-63452381D01*
X120409524Y-63452381D01*
X120314286Y-63404762D01*
X120266667Y-63357143D01*
X132328572Y-101397619D02*
X132233334Y-101350000D01*
X132138096Y-101254762D01*
X131995239Y-101111905D01*
X131900000Y-101064286D01*
X131804762Y-101064286D01*
X131852381Y-101302381D02*
X131757143Y-101254762D01*
X131661905Y-101159524D01*
X131614286Y-100969048D01*
X131614286Y-100635714D01*
X131661905Y-100445238D01*
X131757143Y-100350000D01*
X131852381Y-100302381D01*
X132042858Y-100302381D01*
X132138096Y-100350000D01*
X132233334Y-100445238D01*
X132280953Y-100635714D01*
X132280953Y-100969048D01*
X132233334Y-101159524D01*
X132138096Y-101254762D01*
X132042858Y-101302381D01*
X131852381Y-101302381D01*
X133233334Y-101302381D02*
X132661905Y-101302381D01*
X132947619Y-101302381D02*
X132947619Y-100302381D01*
X132852381Y-100445238D01*
X132757143Y-100540476D01*
X132661905Y-100588095D01*
X134185715Y-101302381D02*
X133614286Y-101302381D01*
X133900000Y-101302381D02*
X133900000Y-100302381D01*
X133804762Y-100445238D01*
X133709524Y-100540476D01*
X133614286Y-100588095D01*
X123728572Y-101397619D02*
X123633334Y-101350000D01*
X123538096Y-101254762D01*
X123395239Y-101111905D01*
X123300000Y-101064286D01*
X123204762Y-101064286D01*
X123252381Y-101302381D02*
X123157143Y-101254762D01*
X123061905Y-101159524D01*
X123014286Y-100969048D01*
X123014286Y-100635714D01*
X123061905Y-100445238D01*
X123157143Y-100350000D01*
X123252381Y-100302381D01*
X123442858Y-100302381D01*
X123538096Y-100350000D01*
X123633334Y-100445238D01*
X123680953Y-100635714D01*
X123680953Y-100969048D01*
X123633334Y-101159524D01*
X123538096Y-101254762D01*
X123442858Y-101302381D01*
X123252381Y-101302381D01*
X124633334Y-101302381D02*
X124061905Y-101302381D01*
X124347619Y-101302381D02*
X124347619Y-100302381D01*
X124252381Y-100445238D01*
X124157143Y-100540476D01*
X124061905Y-100588095D01*
X125252381Y-100302381D02*
X125347620Y-100302381D01*
X125442858Y-100350000D01*
X125490477Y-100397619D01*
X125538096Y-100492857D01*
X125585715Y-100683333D01*
X125585715Y-100921429D01*
X125538096Y-101111905D01*
X125490477Y-101207143D01*
X125442858Y-101254762D01*
X125347620Y-101302381D01*
X125252381Y-101302381D01*
X125157143Y-101254762D01*
X125109524Y-101207143D01*
X125061905Y-101111905D01*
X125014286Y-100921429D01*
X125014286Y-100683333D01*
X125061905Y-100492857D01*
X125109524Y-100397619D01*
X125157143Y-100350000D01*
X125252381Y-100302381D01*
X104404762Y-111357619D02*
X104309524Y-111310000D01*
X104214286Y-111214762D01*
X104071429Y-111071905D01*
X103976190Y-111024286D01*
X103880952Y-111024286D01*
X103928571Y-111262381D02*
X103833333Y-111214762D01*
X103738095Y-111119524D01*
X103690476Y-110929048D01*
X103690476Y-110595714D01*
X103738095Y-110405238D01*
X103833333Y-110310000D01*
X103928571Y-110262381D01*
X104119048Y-110262381D01*
X104214286Y-110310000D01*
X104309524Y-110405238D01*
X104357143Y-110595714D01*
X104357143Y-110929048D01*
X104309524Y-111119524D01*
X104214286Y-111214762D01*
X104119048Y-111262381D01*
X103928571Y-111262381D01*
X104833333Y-111262381D02*
X105023809Y-111262381D01*
X105119048Y-111214762D01*
X105166667Y-111167143D01*
X105261905Y-111024286D01*
X105309524Y-110833810D01*
X105309524Y-110452857D01*
X105261905Y-110357619D01*
X105214286Y-110310000D01*
X105119048Y-110262381D01*
X104928571Y-110262381D01*
X104833333Y-110310000D01*
X104785714Y-110357619D01*
X104738095Y-110452857D01*
X104738095Y-110690952D01*
X104785714Y-110786190D01*
X104833333Y-110833810D01*
X104928571Y-110881429D01*
X105119048Y-110881429D01*
X105214286Y-110833810D01*
X105261905Y-110786190D01*
X105309524Y-110690952D01*
X166904762Y-111357619D02*
X166809524Y-111310000D01*
X166714286Y-111214762D01*
X166571429Y-111071905D01*
X166476190Y-111024286D01*
X166380952Y-111024286D01*
X166428571Y-111262381D02*
X166333333Y-111214762D01*
X166238095Y-111119524D01*
X166190476Y-110929048D01*
X166190476Y-110595714D01*
X166238095Y-110405238D01*
X166333333Y-110310000D01*
X166428571Y-110262381D01*
X166619048Y-110262381D01*
X166714286Y-110310000D01*
X166809524Y-110405238D01*
X166857143Y-110595714D01*
X166857143Y-110929048D01*
X166809524Y-111119524D01*
X166714286Y-111214762D01*
X166619048Y-111262381D01*
X166428571Y-111262381D01*
X167428571Y-110690952D02*
X167333333Y-110643333D01*
X167285714Y-110595714D01*
X167238095Y-110500476D01*
X167238095Y-110452857D01*
X167285714Y-110357619D01*
X167333333Y-110310000D01*
X167428571Y-110262381D01*
X167619048Y-110262381D01*
X167714286Y-110310000D01*
X167761905Y-110357619D01*
X167809524Y-110452857D01*
X167809524Y-110500476D01*
X167761905Y-110595714D01*
X167714286Y-110643333D01*
X167619048Y-110690952D01*
X167428571Y-110690952D01*
X167333333Y-110738571D01*
X167285714Y-110786190D01*
X167238095Y-110881429D01*
X167238095Y-111071905D01*
X167285714Y-111167143D01*
X167333333Y-111214762D01*
X167428571Y-111262381D01*
X167619048Y-111262381D01*
X167714286Y-111214762D01*
X167761905Y-111167143D01*
X167809524Y-111071905D01*
X167809524Y-110881429D01*
X167761905Y-110786190D01*
X167714286Y-110738571D01*
X167619048Y-110690952D01*
X100404762Y-111357619D02*
X100309524Y-111310000D01*
X100214286Y-111214762D01*
X100071429Y-111071905D01*
X99976190Y-111024286D01*
X99880952Y-111024286D01*
X99928571Y-111262381D02*
X99833333Y-111214762D01*
X99738095Y-111119524D01*
X99690476Y-110929048D01*
X99690476Y-110595714D01*
X99738095Y-110405238D01*
X99833333Y-110310000D01*
X99928571Y-110262381D01*
X100119048Y-110262381D01*
X100214286Y-110310000D01*
X100309524Y-110405238D01*
X100357143Y-110595714D01*
X100357143Y-110929048D01*
X100309524Y-111119524D01*
X100214286Y-111214762D01*
X100119048Y-111262381D01*
X99928571Y-111262381D01*
X100690476Y-110262381D02*
X101357143Y-110262381D01*
X100928571Y-111262381D01*
X162904762Y-111357619D02*
X162809524Y-111310000D01*
X162714286Y-111214762D01*
X162571429Y-111071905D01*
X162476190Y-111024286D01*
X162380952Y-111024286D01*
X162428571Y-111262381D02*
X162333333Y-111214762D01*
X162238095Y-111119524D01*
X162190476Y-110929048D01*
X162190476Y-110595714D01*
X162238095Y-110405238D01*
X162333333Y-110310000D01*
X162428571Y-110262381D01*
X162619048Y-110262381D01*
X162714286Y-110310000D01*
X162809524Y-110405238D01*
X162857143Y-110595714D01*
X162857143Y-110929048D01*
X162809524Y-111119524D01*
X162714286Y-111214762D01*
X162619048Y-111262381D01*
X162428571Y-111262381D01*
X163714286Y-110262381D02*
X163523809Y-110262381D01*
X163428571Y-110310000D01*
X163380952Y-110357619D01*
X163285714Y-110500476D01*
X163238095Y-110690952D01*
X163238095Y-111071905D01*
X163285714Y-111167143D01*
X163333333Y-111214762D01*
X163428571Y-111262381D01*
X163619048Y-111262381D01*
X163714286Y-111214762D01*
X163761905Y-111167143D01*
X163809524Y-111071905D01*
X163809524Y-110833810D01*
X163761905Y-110738571D01*
X163714286Y-110690952D01*
X163619048Y-110643333D01*
X163428571Y-110643333D01*
X163333333Y-110690952D01*
X163285714Y-110738571D01*
X163238095Y-110833810D01*
X156904762Y-111357619D02*
X156809524Y-111310000D01*
X156714286Y-111214762D01*
X156571429Y-111071905D01*
X156476190Y-111024286D01*
X156380952Y-111024286D01*
X156428571Y-111262381D02*
X156333333Y-111214762D01*
X156238095Y-111119524D01*
X156190476Y-110929048D01*
X156190476Y-110595714D01*
X156238095Y-110405238D01*
X156333333Y-110310000D01*
X156428571Y-110262381D01*
X156619048Y-110262381D01*
X156714286Y-110310000D01*
X156809524Y-110405238D01*
X156857143Y-110595714D01*
X156857143Y-110929048D01*
X156809524Y-111119524D01*
X156714286Y-111214762D01*
X156619048Y-111262381D01*
X156428571Y-111262381D01*
X157761905Y-110262381D02*
X157285714Y-110262381D01*
X157238095Y-110738571D01*
X157285714Y-110690952D01*
X157380952Y-110643333D01*
X157619048Y-110643333D01*
X157714286Y-110690952D01*
X157761905Y-110738571D01*
X157809524Y-110833810D01*
X157809524Y-111071905D01*
X157761905Y-111167143D01*
X157714286Y-111214762D01*
X157619048Y-111262381D01*
X157380952Y-111262381D01*
X157285714Y-111214762D01*
X157238095Y-111167143D01*
X90154762Y-111297619D02*
X90059524Y-111250000D01*
X89964286Y-111154762D01*
X89821429Y-111011905D01*
X89726190Y-110964286D01*
X89630952Y-110964286D01*
X89678571Y-111202381D02*
X89583333Y-111154762D01*
X89488095Y-111059524D01*
X89440476Y-110869048D01*
X89440476Y-110535714D01*
X89488095Y-110345238D01*
X89583333Y-110250000D01*
X89678571Y-110202381D01*
X89869048Y-110202381D01*
X89964286Y-110250000D01*
X90059524Y-110345238D01*
X90107143Y-110535714D01*
X90107143Y-110869048D01*
X90059524Y-111059524D01*
X89964286Y-111154762D01*
X89869048Y-111202381D01*
X89678571Y-111202381D01*
X90964286Y-110535714D02*
X90964286Y-111202381D01*
X90726190Y-110154762D02*
X90488095Y-110869048D01*
X91107143Y-110869048D01*
X152404762Y-111357619D02*
X152309524Y-111310000D01*
X152214286Y-111214762D01*
X152071429Y-111071905D01*
X151976190Y-111024286D01*
X151880952Y-111024286D01*
X151928571Y-111262381D02*
X151833333Y-111214762D01*
X151738095Y-111119524D01*
X151690476Y-110929048D01*
X151690476Y-110595714D01*
X151738095Y-110405238D01*
X151833333Y-110310000D01*
X151928571Y-110262381D01*
X152119048Y-110262381D01*
X152214286Y-110310000D01*
X152309524Y-110405238D01*
X152357143Y-110595714D01*
X152357143Y-110929048D01*
X152309524Y-111119524D01*
X152214286Y-111214762D01*
X152119048Y-111262381D01*
X151928571Y-111262381D01*
X152690476Y-110262381D02*
X153309524Y-110262381D01*
X152976190Y-110643333D01*
X153119048Y-110643333D01*
X153214286Y-110690952D01*
X153261905Y-110738571D01*
X153309524Y-110833810D01*
X153309524Y-111071905D01*
X153261905Y-111167143D01*
X153214286Y-111214762D01*
X153119048Y-111262381D01*
X152833333Y-111262381D01*
X152738095Y-111214762D01*
X152690476Y-111167143D01*
X94404762Y-111357619D02*
X94309524Y-111310000D01*
X94214286Y-111214762D01*
X94071429Y-111071905D01*
X93976190Y-111024286D01*
X93880952Y-111024286D01*
X93928571Y-111262381D02*
X93833333Y-111214762D01*
X93738095Y-111119524D01*
X93690476Y-110929048D01*
X93690476Y-110595714D01*
X93738095Y-110405238D01*
X93833333Y-110310000D01*
X93928571Y-110262381D01*
X94119048Y-110262381D01*
X94214286Y-110310000D01*
X94309524Y-110405238D01*
X94357143Y-110595714D01*
X94357143Y-110929048D01*
X94309524Y-111119524D01*
X94214286Y-111214762D01*
X94119048Y-111262381D01*
X93928571Y-111262381D01*
X94738095Y-110357619D02*
X94785714Y-110310000D01*
X94880952Y-110262381D01*
X95119048Y-110262381D01*
X95214286Y-110310000D01*
X95261905Y-110357619D01*
X95309524Y-110452857D01*
X95309524Y-110548095D01*
X95261905Y-110690952D01*
X94690476Y-111262381D01*
X95309524Y-111262381D01*
X133024381Y-90761905D02*
X132024381Y-90761905D01*
X133024381Y-90190476D01*
X132024381Y-90190476D01*
X132119619Y-89761905D02*
X132072000Y-89714286D01*
X132024381Y-89619048D01*
X132024381Y-89380952D01*
X132072000Y-89285714D01*
X132119619Y-89238095D01*
X132214857Y-89190476D01*
X132310095Y-89190476D01*
X132452952Y-89238095D01*
X133024381Y-89809524D01*
X133024381Y-89190476D01*
X133024381Y-84761905D02*
X132024381Y-84761905D01*
X133024381Y-84190476D01*
X132024381Y-84190476D01*
X133024381Y-83190476D02*
X133024381Y-83761905D01*
X133024381Y-83476191D02*
X132024381Y-83476191D01*
X132167238Y-83571429D01*
X132262476Y-83666667D01*
X132310095Y-83761905D01*
X154628572Y-63547619D02*
X154533334Y-63500000D01*
X154438096Y-63404762D01*
X154295239Y-63261905D01*
X154200000Y-63214286D01*
X154104762Y-63214286D01*
X154152381Y-63452381D02*
X154057143Y-63404762D01*
X153961905Y-63309524D01*
X153914286Y-63119048D01*
X153914286Y-62785714D01*
X153961905Y-62595238D01*
X154057143Y-62500000D01*
X154152381Y-62452381D01*
X154342858Y-62452381D01*
X154438096Y-62500000D01*
X154533334Y-62595238D01*
X154580953Y-62785714D01*
X154580953Y-63119048D01*
X154533334Y-63309524D01*
X154438096Y-63404762D01*
X154342858Y-63452381D01*
X154152381Y-63452381D01*
X155533334Y-63452381D02*
X154961905Y-63452381D01*
X155247619Y-63452381D02*
X155247619Y-62452381D01*
X155152381Y-62595238D01*
X155057143Y-62690476D01*
X154961905Y-62738095D01*
X155914286Y-62547619D02*
X155961905Y-62500000D01*
X156057143Y-62452381D01*
X156295239Y-62452381D01*
X156390477Y-62500000D01*
X156438096Y-62547619D01*
X156485715Y-62642857D01*
X156485715Y-62738095D01*
X156438096Y-62880952D01*
X155866667Y-63452381D01*
X156485715Y-63452381D01*
X110011905Y-75202381D02*
X110011905Y-74202381D01*
X110583334Y-75202381D01*
X110583334Y-74202381D01*
X110964286Y-74202381D02*
X111630953Y-75202381D01*
X111630953Y-74202381D02*
X110964286Y-75202381D01*
X111916667Y-74202381D02*
X112535715Y-74202381D01*
X112202381Y-74583333D01*
X112345239Y-74583333D01*
X112440477Y-74630952D01*
X112488096Y-74678571D01*
X112535715Y-74773810D01*
X112535715Y-75011905D01*
X112488096Y-75107143D01*
X112440477Y-75154762D01*
X112345239Y-75202381D01*
X112059524Y-75202381D01*
X111964286Y-75154762D01*
X111916667Y-75107143D01*
M02*
