G04 #@! TF.FileFunction,Copper,L2,Bot,Signal*
%FSLAX46Y46*%
G04 Gerber Fmt 4.6, Leading zero omitted, Abs format (unit mm)*
G04 Created by KiCad (PCBNEW 4.0.2-stable) date 9/20/2016 8:44:40 PM*
%MOMM*%
G01*
G04 APERTURE LIST*
%ADD10C,0.100000*%
%ADD11C,1.550000*%
%ADD12O,1.550000X2.800000*%
%ADD13O,2.800000X1.550000*%
%ADD14C,5.500000*%
%ADD15C,5.700000*%
%ADD16C,1.524000*%
%ADD17R,1.727200X1.727200*%
%ADD18O,1.727200X1.727200*%
%ADD19C,0.600000*%
%ADD20C,1.000000*%
%ADD21C,0.850000*%
%ADD22C,0.250000*%
%ADD23C,0.750000*%
%ADD24C,0.500000*%
G04 APERTURE END LIST*
D10*
D11*
X145312500Y-88541266D02*
X144687500Y-87458734D01*
D12*
X142500000Y-91330127D03*
D11*
X146958734Y-91017627D02*
X148041266Y-91642627D01*
D13*
X149330127Y-89500000D03*
D11*
X149458734Y-87312500D02*
X150541266Y-86687500D01*
X149017627Y-85041266D02*
X149642627Y-83958734D01*
D12*
X147500000Y-82669873D03*
D11*
X145312500Y-82541266D02*
X144687500Y-81458734D01*
X143041266Y-82982373D02*
X141958734Y-82357373D01*
D13*
X140669873Y-84500000D03*
D11*
X140541266Y-86687500D02*
X139458734Y-87312500D01*
X140982373Y-88958734D02*
X140357373Y-90041266D01*
X90312500Y-88541266D02*
X89687500Y-87458734D01*
D12*
X87500000Y-91330127D03*
D11*
X91958734Y-91017627D02*
X93041266Y-91642627D01*
D13*
X94330127Y-89500000D03*
D11*
X94458734Y-87312500D02*
X95541266Y-86687500D01*
X94017627Y-85041266D02*
X94642627Y-83958734D01*
D12*
X92500000Y-82669873D03*
D11*
X90312500Y-82541266D02*
X89687500Y-81458734D01*
X88041266Y-82982373D02*
X86958734Y-82357373D01*
D13*
X85669873Y-84500000D03*
D11*
X85541266Y-86687500D02*
X84458734Y-87312500D01*
X85982373Y-88958734D02*
X85357373Y-90041266D01*
X166312500Y-88541266D02*
X165687500Y-87458734D01*
D12*
X163500000Y-91330127D03*
D11*
X167958734Y-91017627D02*
X169041266Y-91642627D01*
D13*
X170330127Y-89500000D03*
D11*
X170458734Y-87312500D02*
X171541266Y-86687500D01*
X170017627Y-85041266D02*
X170642627Y-83958734D01*
D12*
X168500000Y-82669873D03*
D11*
X166312500Y-82541266D02*
X165687500Y-81458734D01*
X164041266Y-82982373D02*
X162958734Y-82357373D01*
D13*
X161669873Y-84500000D03*
D11*
X161541266Y-86687500D02*
X160458734Y-87312500D01*
X161982373Y-88958734D02*
X161357373Y-90041266D01*
D14*
X82000000Y-108000000D03*
X174000000Y-108000000D03*
X174000000Y-66000000D03*
D15*
X82000000Y-66000000D03*
D16*
X128000000Y-88500000D03*
X128000000Y-91500000D03*
X128000000Y-82500000D03*
X128000000Y-85500000D03*
D11*
X111312500Y-88541266D02*
X110687500Y-87458734D01*
D12*
X108500000Y-91330127D03*
D11*
X112958734Y-91017627D02*
X114041266Y-91642627D01*
D13*
X115330127Y-89500000D03*
D11*
X115458734Y-87312500D02*
X116541266Y-86687500D01*
X115017627Y-85041266D02*
X115642627Y-83958734D01*
D12*
X113500000Y-82669873D03*
D11*
X111312500Y-82541266D02*
X110687500Y-81458734D01*
X109041266Y-82982373D02*
X107958734Y-82357373D01*
D13*
X106669873Y-84500000D03*
D11*
X106541266Y-86687500D02*
X105458734Y-87312500D01*
X106982373Y-88958734D02*
X106357373Y-90041266D01*
D17*
X114000000Y-105000000D03*
D18*
X114000000Y-107540000D03*
X119080000Y-105000000D03*
X119080000Y-107540000D03*
X121620000Y-105000000D03*
X121620000Y-107540000D03*
X124160000Y-105000000D03*
X124160000Y-107540000D03*
X126700000Y-105000000D03*
X126700000Y-107540000D03*
X129240000Y-105000000D03*
X129240000Y-107540000D03*
X131780000Y-105000000D03*
X131780000Y-107540000D03*
X134320000Y-105000000D03*
X134320000Y-107540000D03*
X136860000Y-105000000D03*
X136860000Y-107540000D03*
X139400000Y-105000000D03*
X139400000Y-107540000D03*
X141940000Y-105000000D03*
X141940000Y-107540000D03*
D19*
X120500000Y-80000000D03*
X155000000Y-80000000D03*
X173500000Y-80000000D03*
X119000000Y-79000000D03*
X154000000Y-79000000D03*
X172500000Y-79000000D03*
X117000000Y-78000000D03*
X148500000Y-78000000D03*
X153000000Y-78000000D03*
X170250000Y-78000000D03*
X115000000Y-77000000D03*
X140250000Y-77000000D03*
X151500000Y-77000000D03*
X168500000Y-77000000D03*
X112500000Y-76000000D03*
X127500000Y-76000000D03*
X145000000Y-76000000D03*
X166000000Y-76000000D03*
X108500000Y-75000000D03*
X120250000Y-75000000D03*
X139000000Y-75000000D03*
X163500000Y-75000000D03*
X105750000Y-74000000D03*
X115250000Y-74000000D03*
X138000000Y-74000000D03*
X159000000Y-74000000D03*
X104500000Y-73000000D03*
X109000000Y-73000000D03*
X137000000Y-73000000D03*
X158000000Y-73000000D03*
X102500000Y-72000000D03*
X136000000Y-72000000D03*
X157000000Y-72000000D03*
X91500000Y-71000000D03*
X100000000Y-71000000D03*
X135000000Y-71000000D03*
X156000000Y-71000000D03*
X160500000Y-82000000D03*
X150000000Y-103000000D03*
X149000000Y-94500000D03*
X97500000Y-91250000D03*
X98500000Y-91250000D03*
X99500000Y-91250000D03*
X95750000Y-92000000D03*
X106750000Y-81000000D03*
X98500000Y-97000000D03*
X109500000Y-108000000D03*
X99500000Y-96250000D03*
X109500000Y-109000000D03*
X130250000Y-96500000D03*
X150000000Y-95500000D03*
X150000000Y-107000000D03*
X130750000Y-98250000D03*
X162000000Y-95000000D03*
X150000000Y-106000000D03*
X150000000Y-105000000D03*
X147000000Y-94000000D03*
X140250000Y-81250000D03*
D20*
X138750000Y-102250000D03*
X126750000Y-102250000D03*
X84875000Y-68625000D03*
X165000000Y-111000000D03*
X93000000Y-63000000D03*
X114500000Y-63000000D03*
X122000000Y-63000000D03*
X129250000Y-63000000D03*
X136750000Y-63000000D03*
X144000000Y-63000000D03*
X151000000Y-63000000D03*
X157750000Y-63000000D03*
X100250000Y-63000000D03*
X107500000Y-63000000D03*
D19*
X150000000Y-104000000D03*
X150000000Y-81500000D03*
X148000000Y-94000000D03*
X150000000Y-108000000D03*
X137000000Y-93500000D03*
X128500000Y-94250000D03*
X135500000Y-94500000D03*
X112500000Y-94000000D03*
X108500000Y-109000000D03*
X151250000Y-108500000D03*
X155000000Y-103250000D03*
X160750000Y-109750000D03*
X165000000Y-103000000D03*
X102500000Y-103000000D03*
X97500000Y-103500000D03*
D21*
X110000000Y-101250000D03*
X88000000Y-96500000D03*
X95750000Y-96500000D03*
X120500000Y-100500000D03*
X158750000Y-103500000D03*
X169000000Y-103500000D03*
X165000000Y-96500000D03*
X155000000Y-96500000D03*
X107000000Y-103500000D03*
D19*
X105500000Y-96000000D03*
D22*
X155000000Y-80000000D02*
X173500000Y-80000000D01*
X100250000Y-80000000D02*
X120500000Y-80000000D01*
X98500000Y-81750000D02*
X100250000Y-80000000D01*
X97000000Y-89500000D02*
X98500000Y-88000000D01*
X98500000Y-88000000D02*
X98500000Y-81750000D01*
X97000000Y-89500000D02*
X94330127Y-89500000D01*
X120500000Y-80000000D02*
X155000000Y-80000000D01*
X99000000Y-79000000D02*
X119000000Y-79000000D01*
X119000000Y-79000000D02*
X154000000Y-79000000D01*
X154000000Y-79000000D02*
X172500000Y-79000000D01*
X99000000Y-79000000D02*
X97500000Y-80500000D01*
X97500000Y-85000000D02*
X97500000Y-80500000D01*
X94750000Y-87000000D02*
X94750000Y-86750000D01*
X95000000Y-87000000D02*
X95500000Y-87000000D01*
X95500000Y-87000000D02*
X97500000Y-85000000D01*
X98000000Y-78000000D02*
X117000000Y-78000000D01*
X117000000Y-78000000D02*
X148500000Y-78000000D01*
X148500000Y-78000000D02*
X153000000Y-78000000D01*
X153000000Y-78000000D02*
X170250000Y-78000000D01*
X94330127Y-84169873D02*
X96000000Y-82500000D01*
X96000000Y-82500000D02*
X96000000Y-80000000D01*
X96000000Y-80000000D02*
X98000000Y-78000000D01*
X94330127Y-84500000D02*
X94330127Y-84169873D01*
X94000000Y-77000000D02*
X115000000Y-77000000D01*
X115000000Y-77000000D02*
X140250000Y-77000000D01*
X140250000Y-77000000D02*
X151500000Y-77000000D01*
X151500000Y-77000000D02*
X168500000Y-77000000D01*
X92500000Y-78500000D02*
X94000000Y-77000000D01*
X92500000Y-82500000D02*
X92500000Y-78500000D01*
X92375000Y-82886379D02*
X92375000Y-82625000D01*
X92375000Y-82625000D02*
X92500000Y-82500000D01*
X90000000Y-77500000D02*
X91500000Y-76000000D01*
X91500000Y-76000000D02*
X112500000Y-76000000D01*
X112500000Y-76000000D02*
X127500000Y-76000000D01*
X127500000Y-76000000D02*
X145000000Y-76000000D01*
X145000000Y-76000000D02*
X166000000Y-76000000D01*
X90000000Y-82500000D02*
X90000000Y-77500000D01*
X90000000Y-82250000D02*
X90250000Y-82250000D01*
X90250000Y-82250000D02*
X90000000Y-82500000D01*
X88500000Y-75000000D02*
X87500000Y-76000000D01*
X87500000Y-82500000D02*
X87500000Y-76000000D01*
X88500000Y-75000000D02*
X108500000Y-75000000D01*
X108500000Y-75000000D02*
X120250000Y-75000000D01*
X120250000Y-75000000D02*
X139000000Y-75000000D01*
X139000000Y-75000000D02*
X163500000Y-75000000D01*
X87625000Y-82886379D02*
X87625000Y-82625000D01*
X87625000Y-82625000D02*
X87500000Y-82500000D01*
X87500000Y-74000000D02*
X105750000Y-74000000D01*
X105750000Y-74000000D02*
X115250000Y-74000000D01*
X115250000Y-74000000D02*
X138000000Y-74000000D01*
X138000000Y-74000000D02*
X159000000Y-74000000D01*
X87500000Y-74000000D02*
X85500000Y-76000000D01*
X85500000Y-84500000D02*
X85500000Y-76000000D01*
X85886379Y-84625000D02*
X85625000Y-84625000D01*
X85625000Y-84625000D02*
X85500000Y-84500000D01*
X158000000Y-73000000D02*
X137000000Y-73000000D01*
X137000000Y-73000000D02*
X109000000Y-73000000D01*
X109000000Y-73000000D02*
X104500000Y-73000000D01*
X104500000Y-73000000D02*
X86500000Y-73000000D01*
X86500000Y-73000000D02*
X83500000Y-76000000D01*
X85000000Y-87000000D02*
X83500000Y-85500000D01*
X83500000Y-85500000D02*
X83500000Y-76000000D01*
X85250000Y-87000000D02*
X85000000Y-87000000D01*
X81500000Y-76000000D02*
X85500000Y-72000000D01*
X85500000Y-72000000D02*
X102500000Y-72000000D01*
X84000000Y-91500000D02*
X85669873Y-89830127D01*
X84000000Y-91500000D02*
X83000000Y-91500000D01*
X83000000Y-91500000D02*
X81500000Y-90000000D01*
X81500000Y-90000000D02*
X81500000Y-76000000D01*
X102500000Y-72000000D02*
X136000000Y-72000000D01*
X136000000Y-72000000D02*
X157000000Y-72000000D01*
X85669873Y-89500000D02*
X85669873Y-89830127D01*
X84500000Y-71000000D02*
X91500000Y-71000000D01*
X91500000Y-71000000D02*
X100000000Y-71000000D01*
X100000000Y-71000000D02*
X135000000Y-71000000D01*
X135000000Y-71000000D02*
X156000000Y-71000000D01*
X86000000Y-92250000D02*
X86919873Y-91330127D01*
X84750000Y-92250000D02*
X84000000Y-93000000D01*
X86000000Y-92250000D02*
X84750000Y-92250000D01*
X84000000Y-93000000D02*
X82500000Y-93000000D01*
X82500000Y-93000000D02*
X79500000Y-90000000D01*
X79500000Y-90000000D02*
X79500000Y-76000000D01*
X84500000Y-71000000D02*
X79500000Y-76000000D01*
X87500000Y-91330127D02*
X86919873Y-91330127D01*
X87500000Y-91330127D02*
X87169873Y-91330127D01*
X149000000Y-94500000D02*
X153500000Y-90000000D01*
X153500000Y-89000000D02*
X153500000Y-90000000D01*
X160500000Y-82000000D02*
X153500000Y-89000000D01*
X141940000Y-107540000D02*
X145460000Y-107540000D01*
X145460000Y-107540000D02*
X150000000Y-103000000D01*
X86250000Y-94250000D02*
X94500000Y-94250000D01*
X97500000Y-91250000D02*
X94500000Y-94250000D01*
X88500000Y-106250000D02*
X85000000Y-102750000D01*
X85000000Y-102750000D02*
X85000000Y-95500000D01*
X85000000Y-95500000D02*
X86250000Y-94250000D01*
X116000000Y-99750000D02*
X116000000Y-102000000D01*
X105000000Y-103500000D02*
X102250000Y-106250000D01*
X105000000Y-100250000D02*
X105000000Y-103500000D01*
X105500000Y-99750000D02*
X105000000Y-100250000D01*
X107250000Y-99750000D02*
X105500000Y-99750000D01*
X108250000Y-98750000D02*
X107250000Y-99750000D01*
X115000000Y-98750000D02*
X108250000Y-98750000D01*
X116000000Y-99750000D02*
X115000000Y-98750000D01*
X102250000Y-106250000D02*
X88500000Y-106250000D01*
X116000000Y-102000000D02*
X119000000Y-105000000D01*
X119000000Y-105000000D02*
X119080000Y-105000000D01*
X105250000Y-99000000D02*
X107000000Y-99000000D01*
X115750000Y-98000000D02*
X108000000Y-98000000D01*
X117000000Y-99250000D02*
X115750000Y-98000000D01*
X117000000Y-101500000D02*
X117000000Y-99250000D01*
X119000000Y-103500000D02*
X117000000Y-101500000D01*
X120000000Y-103500000D02*
X119000000Y-103500000D01*
X121500000Y-105000000D02*
X120000000Y-103500000D01*
X86750000Y-95000000D02*
X85750000Y-96000000D01*
X85750000Y-96000000D02*
X85750000Y-102000000D01*
X85750000Y-102000000D02*
X89250000Y-105500000D01*
X89250000Y-105500000D02*
X102000000Y-105500000D01*
X102000000Y-105500000D02*
X104250000Y-103250000D01*
X104250000Y-103250000D02*
X104250000Y-100000000D01*
X104250000Y-100000000D02*
X105250000Y-99000000D01*
X94750000Y-95000000D02*
X86750000Y-95000000D01*
X98500000Y-91250000D02*
X94750000Y-95000000D01*
X107000000Y-99000000D02*
X108000000Y-98000000D01*
X121620000Y-105000000D02*
X121500000Y-105000000D01*
X119080000Y-107920000D02*
X117500000Y-109500000D01*
X101500000Y-81000000D02*
X99500000Y-83000000D01*
X99500000Y-91250000D02*
X99500000Y-83000000D01*
X94250000Y-93500000D02*
X95750000Y-92000000D01*
X94250000Y-93500000D02*
X85750000Y-93500000D01*
X84250000Y-103250000D02*
X84250000Y-95000000D01*
X84250000Y-95000000D02*
X85750000Y-93500000D01*
X88000000Y-107000000D02*
X84250000Y-103250000D01*
X109500000Y-107000000D02*
X88000000Y-107000000D01*
X117500000Y-109500000D02*
X112000000Y-109500000D01*
X109500000Y-107000000D02*
X112000000Y-109500000D01*
X101500000Y-81000000D02*
X106750000Y-81000000D01*
X119080000Y-107540000D02*
X119080000Y-107920000D01*
X116500000Y-97250000D02*
X107750000Y-97250000D01*
X122250000Y-103000000D02*
X119500000Y-103000000D01*
X124160000Y-104910000D02*
X122250000Y-103000000D01*
X117750000Y-98500000D02*
X116500000Y-97250000D01*
X117750000Y-101250000D02*
X117750000Y-98500000D01*
X119500000Y-103000000D02*
X117750000Y-101250000D01*
X107750000Y-97250000D02*
X106750000Y-98250000D01*
X99750000Y-98250000D02*
X106750000Y-98250000D01*
X98500000Y-97000000D02*
X99750000Y-98250000D01*
X124160000Y-104910000D02*
X124160000Y-105000000D01*
X111500000Y-110000000D02*
X109500000Y-108000000D01*
X119500000Y-110000000D02*
X111500000Y-110000000D01*
X119500000Y-110000000D02*
X121620000Y-107880000D01*
X121620000Y-107540000D02*
X121620000Y-107880000D01*
X124000000Y-102250000D02*
X119750000Y-102250000D01*
X126700000Y-104950000D02*
X124000000Y-102250000D01*
X117000000Y-96500000D02*
X107500000Y-96500000D01*
X118500000Y-98000000D02*
X117000000Y-96500000D01*
X118500000Y-101000000D02*
X118500000Y-98000000D01*
X119750000Y-102250000D02*
X118500000Y-101000000D01*
X106500000Y-97500000D02*
X107500000Y-96500000D01*
X99500000Y-96250000D02*
X100750000Y-97500000D01*
X100750000Y-97500000D02*
X106500000Y-97500000D01*
X126700000Y-105000000D02*
X126700000Y-104950000D01*
X124160000Y-108340000D02*
X122000000Y-110500000D01*
X122000000Y-110500000D02*
X111000000Y-110500000D01*
X111000000Y-110500000D02*
X109500000Y-109000000D01*
X124160000Y-107540000D02*
X124160000Y-108340000D01*
X150000000Y-95500000D02*
X131250000Y-95500000D01*
X131250000Y-95500000D02*
X130250000Y-96500000D01*
X134740000Y-110500000D02*
X131780000Y-107540000D01*
X146500000Y-110500000D02*
X134740000Y-110500000D01*
X150000000Y-107000000D02*
X146500000Y-110500000D01*
X132500000Y-96500000D02*
X130750000Y-98250000D01*
X152000000Y-96500000D02*
X132500000Y-96500000D01*
X153500000Y-95000000D02*
X162000000Y-95000000D01*
X152000000Y-96500000D02*
X153500000Y-95000000D01*
X146000000Y-110000000D02*
X150000000Y-106000000D01*
X134320000Y-107540000D02*
X136780000Y-110000000D01*
X146000000Y-110000000D02*
X136780000Y-110000000D01*
X140250000Y-81250000D02*
X137000000Y-84500000D01*
X140500000Y-94000000D02*
X137000000Y-90500000D01*
X145500000Y-109500000D02*
X150000000Y-105000000D01*
X138820000Y-109500000D02*
X145500000Y-109500000D01*
X136860000Y-107540000D02*
X138820000Y-109500000D01*
X140500000Y-94000000D02*
X147000000Y-94000000D01*
X137000000Y-84500000D02*
X137000000Y-90500000D01*
D23*
X126750000Y-102250000D02*
X138750000Y-102250000D01*
X84875000Y-68625000D02*
X86000000Y-67500000D01*
X93000000Y-63000000D02*
X87000000Y-63000000D01*
X87000000Y-63000000D02*
X86000000Y-64000000D01*
X86000000Y-64000000D02*
X86000000Y-67500000D01*
X164500000Y-63000000D02*
X176500000Y-75000000D01*
X176500000Y-75000000D02*
X176500000Y-99500000D01*
X176500000Y-99500000D02*
X165000000Y-111000000D01*
X164500000Y-63000000D02*
X157750000Y-63000000D01*
X100250000Y-63000000D02*
X93000000Y-63000000D01*
X107500000Y-63000000D02*
X100250000Y-63000000D01*
X114500000Y-63000000D02*
X107500000Y-63000000D01*
X122000000Y-63000000D02*
X114500000Y-63000000D01*
X129250000Y-63000000D02*
X122000000Y-63000000D01*
X136750000Y-63000000D02*
X129250000Y-63000000D01*
X144000000Y-63000000D02*
X136750000Y-63000000D01*
X151000000Y-63000000D02*
X144000000Y-63000000D01*
X157750000Y-63000000D02*
X151000000Y-63000000D01*
D22*
X145000000Y-109000000D02*
X140860000Y-109000000D01*
X152250000Y-89750000D02*
X148000000Y-94000000D01*
X150000000Y-81500000D02*
X152250000Y-83750000D01*
X152250000Y-83750000D02*
X152250000Y-89750000D01*
X139400000Y-107540000D02*
X140860000Y-109000000D01*
X150000000Y-104000000D02*
X145000000Y-109000000D01*
X147000000Y-111000000D02*
X150000000Y-108000000D01*
X132500000Y-111000000D02*
X147000000Y-111000000D01*
X129240000Y-107740000D02*
X132500000Y-111000000D01*
X137000000Y-93500000D02*
X129250000Y-93500000D01*
X129250000Y-93500000D02*
X128500000Y-94250000D01*
X129240000Y-107540000D02*
X129240000Y-107740000D01*
X129000000Y-95750000D02*
X115750000Y-95750000D01*
X130250000Y-94500000D02*
X129000000Y-95750000D01*
X131250000Y-94500000D02*
X130250000Y-94500000D01*
X135500000Y-94500000D02*
X131250000Y-94500000D01*
X112500000Y-94000000D02*
X114000000Y-94000000D01*
X126700000Y-107800000D02*
X123500000Y-111000000D01*
X123500000Y-111000000D02*
X110500000Y-111000000D01*
X108500000Y-109000000D02*
X110500000Y-111000000D01*
X114000000Y-94000000D02*
X115750000Y-95750000D01*
X126700000Y-107540000D02*
X126700000Y-107800000D01*
X151250000Y-108500000D02*
X153750000Y-106000000D01*
X155000000Y-103250000D02*
X153750000Y-104500000D01*
X153750000Y-104500000D02*
X153750000Y-106000000D01*
X160750000Y-107250000D02*
X160750000Y-109750000D01*
X165000000Y-103000000D02*
X160750000Y-107250000D01*
X98000000Y-103000000D02*
X102500000Y-103000000D01*
X97500000Y-103500000D02*
X98000000Y-103000000D01*
D24*
X109250000Y-103500000D02*
X109250000Y-102000000D01*
X109250000Y-102000000D02*
X110000000Y-101250000D01*
X114000000Y-105000000D02*
X114000000Y-107540000D01*
X88000000Y-96500000D02*
X95750000Y-96500000D01*
X159750000Y-100500000D02*
X120500000Y-100500000D01*
X159750000Y-102500000D02*
X159750000Y-100500000D01*
X159750000Y-100500000D02*
X159750000Y-96500000D01*
X158750000Y-103500000D02*
X159750000Y-102500000D01*
X165000000Y-99500000D02*
X165000000Y-96500000D01*
X169000000Y-103500000D02*
X165000000Y-99500000D01*
X155000000Y-96500000D02*
X159750000Y-96500000D01*
X159750000Y-96500000D02*
X165000000Y-96500000D01*
X114000000Y-105000000D02*
X112000000Y-105000000D01*
X110500000Y-103500000D02*
X109250000Y-103500000D01*
X109250000Y-103500000D02*
X107000000Y-103500000D01*
X112000000Y-105000000D02*
X110500000Y-103500000D01*
D22*
X105500000Y-96000000D02*
X107250000Y-94250000D01*
X107250000Y-94250000D02*
X109500000Y-94250000D01*
X112330127Y-92500000D02*
X113500000Y-91330127D01*
X111250000Y-92500000D02*
X112330127Y-92500000D01*
X109500000Y-94250000D02*
X111250000Y-92500000D01*
M02*
