M48
;DRILL file {KiCad 4.0.2-stable} date 9/20/2016 8:44:42 PM
;FORMAT={3:3/ absolute / metric / suppress leading zeros}
FMAT,2
METRIC,TZ
T1C0.400
T2C0.650
T3C0.750
T4C0.800
T5C1.016
T6C1.250
T7C3.200
%
G90
G05
M71
T1
X91500Y-71000
X95750Y-92000
X97500Y-91250
X97500Y-103500
X98500Y-91250
X98500Y-97000
X99500Y-91250
X99500Y-96250
X100000Y-71000
X102500Y-72000
X102500Y-103000
X104500Y-73000
X105500Y-96000
X105750Y-74000
X106750Y-81000
X108500Y-75000
X108500Y-109000
X109000Y-73000
X109500Y-108000
X109500Y-109000
X112500Y-76000
X112500Y-94000
X115000Y-77000
X115250Y-74000
X117000Y-78000
X119000Y-79000
X120250Y-75000
X120500Y-80000
X127500Y-76000
X128500Y-94250
X130250Y-96500
X130750Y-98250
X135000Y-71000
X135500Y-94500
X136000Y-72000
X137000Y-73000
X137000Y-93500
X138000Y-74000
X139000Y-75000
X140250Y-77000
X140250Y-81250
X145000Y-76000
X147000Y-94000
X148000Y-94000
X148500Y-78000
X149000Y-94500
X150000Y-81500
X150000Y-95500
X150000Y-103000
X150000Y-104000
X150000Y-105000
X150000Y-106000
X150000Y-107000
X150000Y-108000
X151250Y-108500
X151500Y-77000
X153000Y-78000
X154000Y-79000
X155000Y-80000
X155000Y-103250
X156000Y-71000
X157000Y-72000
X158000Y-73000
X159000Y-74000
X160500Y-82000
X160750Y-109750
X162000Y-95000
X163500Y-75000
X165000Y-103000
X166000Y-76000
X168500Y-77000
X170250Y-78000
X172500Y-79000
X173500Y-80000
T2
X88000Y-96500
X95750Y-96500
X107000Y-103500
X110000Y-101250
X120500Y-100500
X155000Y-96500
X158750Y-103500
X165000Y-96500
X169000Y-103500
T3
X128000Y-82500
X128000Y-85500
X128000Y-88500
X128000Y-91500
T4
X84875Y-68625
X93000Y-63000
X100250Y-63000
X107500Y-63000
X114500Y-63000
X122000Y-63000
X126750Y-102250
X129250Y-63000
X136750Y-63000
X138750Y-102250
X144000Y-63000
X151000Y-63000
X157750Y-63000
X165000Y-111000
T5
X114000Y-105000
X114000Y-107540
X119080Y-105000
X119080Y-107540
X121620Y-105000
X121620Y-107540
X124160Y-105000
X124160Y-107540
X126700Y-105000
X126700Y-107540
X129240Y-105000
X129240Y-107540
X131780Y-105000
X131780Y-107540
X134320Y-105000
X134320Y-107540
X136860Y-105000
X136860Y-107540
X139400Y-105000
X139400Y-107540
X141940Y-105000
X141940Y-107540
T7
X82000Y-66000
X82000Y-108000
X174000Y-66000
X174000Y-108000
T6
X85541Y-86688G85X84459Y-87313
G05
X86295Y-84500G85X85045Y-84500
G05
X85982Y-88959G85X85357Y-90041
G05
X88041Y-82982G85X86959Y-82357
G05
X87500Y-90705G85X87500Y-91955
G05
X90313Y-82541G85X89688Y-81459
G05
X90313Y-88541G85X89688Y-87459
G05
X92500Y-83295G85X92500Y-82045
G05
X91959Y-91018G85X93041Y-91643
G05
X94018Y-85041G85X94643Y-83959
G05
X93705Y-89500G85X94955Y-89500
G05
X94459Y-87313G85X95541Y-86688
G05
X106541Y-86688G85X105459Y-87313
G05
X107295Y-84500G85X106045Y-84500
G05
X106982Y-88959G85X106357Y-90041
G05
X109041Y-82982G85X107959Y-82357
G05
X108500Y-90705G85X108500Y-91955
G05
X111313Y-82541G85X110688Y-81459
G05
X111313Y-88541G85X110688Y-87459
G05
X113500Y-83295G85X113500Y-82045
G05
X112959Y-91018G85X114041Y-91643
G05
X115018Y-85041G85X115643Y-83959
G05
X114705Y-89500G85X115955Y-89500
G05
X115459Y-87313G85X116541Y-86688
G05
X140541Y-86688G85X139459Y-87313
G05
X141295Y-84500G85X140045Y-84500
G05
X140982Y-88959G85X140357Y-90041
G05
X143041Y-82982G85X141959Y-82357
G05
X142500Y-90705G85X142500Y-91955
G05
X145313Y-82541G85X144688Y-81459
G05
X145313Y-88541G85X144688Y-87459
G05
X147500Y-83295G85X147500Y-82045
G05
X146959Y-91018G85X148041Y-91643
G05
X149018Y-85041G85X149643Y-83959
G05
X148705Y-89500G85X149955Y-89500
G05
X149459Y-87313G85X150541Y-86688
G05
X161541Y-86688G85X160459Y-87313
G05
X162295Y-84500G85X161045Y-84500
G05
X161982Y-88959G85X161357Y-90041
G05
X164041Y-82982G85X162959Y-82357
G05
X163500Y-90705G85X163500Y-91955
G05
X166313Y-82541G85X165688Y-81459
G05
X166313Y-88541G85X165688Y-87459
G05
X168500Y-83295G85X168500Y-82045
G05
X167959Y-91018G85X169041Y-91643
G05
X170018Y-85041G85X170643Y-83959
G05
X169705Y-89500G85X170955Y-89500
G05
X170459Y-87313G85X171541Y-86688
G05
T0
M30
