G04 #@! TF.FileFunction,Soldermask,Top*
%FSLAX46Y46*%
G04 Gerber Fmt 4.6, Leading zero omitted, Abs format (unit mm)*
G04 Created by KiCad (PCBNEW 4.0.2-stable) date 9/19/2016 8:58:53 PM*
%MOMM*%
G01*
G04 APERTURE LIST*
%ADD10C,0.100000*%
%ADD11R,1.727200X1.727200*%
%ADD12O,1.727200X1.727200*%
%ADD13R,1.300000X1.900000*%
%ADD14R,0.750000X1.200000*%
%ADD15R,1.300000X1.500000*%
%ADD16R,0.797560X0.797560*%
%ADD17C,1.750000*%
%ADD18C,2.000000*%
%ADD19C,5.700000*%
%ADD20R,1.550000X0.600000*%
%ADD21R,1.500000X0.600000*%
%ADD22C,1.905000*%
%ADD23R,1.500000X1.300000*%
%ADD24R,1.000000X2.000000*%
%ADD25R,0.550000X1.600000*%
%ADD26R,1.600000X0.550000*%
%ADD27R,1.250000X1.500000*%
%ADD28C,1.300000*%
%ADD29R,1.300000X1.300000*%
%ADD30C,1.700000*%
%ADD31R,1.700000X1.700000*%
%ADD32R,3.600000X2.000000*%
%ADD33C,1.524000*%
%ADD34C,3.000000*%
%ADD35C,4.000000*%
%ADD36C,4.500000*%
%ADD37C,3.500000*%
%ADD38C,1.727200*%
G04 APERTURE END LIST*
D10*
D11*
X210250000Y-96000000D03*
D12*
X207710000Y-96000000D03*
X210250000Y-93460000D03*
X207710000Y-93460000D03*
X210250000Y-90920000D03*
X207710000Y-90920000D03*
X210250000Y-88380000D03*
X207710000Y-88380000D03*
X210250000Y-85840000D03*
X207710000Y-85840000D03*
D13*
X121750000Y-101950000D03*
X116250000Y-101950000D03*
X116250000Y-98750000D03*
X121750000Y-98750000D03*
D14*
X124250000Y-103700000D03*
X124250000Y-101800000D03*
X124250000Y-97300000D03*
X124250000Y-99200000D03*
D15*
X205000000Y-74850000D03*
X205000000Y-72150000D03*
D16*
X116000000Y-111749300D03*
X116000000Y-110250700D03*
X116000000Y-106750700D03*
X116000000Y-108249300D03*
X202500000Y-73749300D03*
X202500000Y-72250700D03*
D17*
X126250000Y-115010000D03*
X130750000Y-115010000D03*
D18*
X124995000Y-117500000D03*
X132005000Y-117500000D03*
D17*
X136000000Y-115010000D03*
X140500000Y-115010000D03*
D18*
X134745000Y-117500000D03*
X141755000Y-117500000D03*
D17*
X186750000Y-115010000D03*
X191250000Y-115010000D03*
D18*
X185495000Y-117500000D03*
X192505000Y-117500000D03*
D17*
X209510000Y-109250000D03*
X209510000Y-104750000D03*
D18*
X212000000Y-110505000D03*
X212000000Y-103495000D03*
D19*
X210500000Y-116000000D03*
X210500000Y-74000000D03*
X118500000Y-74000000D03*
X118500000Y-116000000D03*
D20*
X162500000Y-92095000D03*
X162500000Y-93365000D03*
X162500000Y-94635000D03*
X162500000Y-95905000D03*
X167900000Y-95905000D03*
X167900000Y-94635000D03*
X167900000Y-93365000D03*
X167900000Y-92095000D03*
D21*
X163300000Y-100555000D03*
X163300000Y-101825000D03*
X163300000Y-103095000D03*
X163300000Y-104365000D03*
X163300000Y-105635000D03*
X163300000Y-106905000D03*
X163300000Y-108175000D03*
X163300000Y-109445000D03*
X168700000Y-109445000D03*
X168700000Y-108175000D03*
X168700000Y-106905000D03*
X168700000Y-105635000D03*
X168700000Y-104365000D03*
X168700000Y-103095000D03*
X168700000Y-101825000D03*
X168700000Y-100555000D03*
X149300000Y-100555000D03*
X149300000Y-101825000D03*
X149300000Y-103095000D03*
X149300000Y-104365000D03*
X149300000Y-105635000D03*
X149300000Y-106905000D03*
X149300000Y-108175000D03*
X149300000Y-109445000D03*
X154700000Y-109445000D03*
X154700000Y-108175000D03*
X154700000Y-106905000D03*
X154700000Y-105635000D03*
X154700000Y-104365000D03*
X154700000Y-103095000D03*
X154700000Y-101825000D03*
X154700000Y-100555000D03*
D22*
X183190000Y-85690000D03*
X183190000Y-88230000D03*
X183190000Y-90770000D03*
X183190000Y-93310000D03*
X190810000Y-93310000D03*
X190810000Y-90770000D03*
X190810000Y-88230000D03*
X190810000Y-85690000D03*
D15*
X130500000Y-93650000D03*
X130500000Y-96350000D03*
X133000000Y-93650000D03*
X133000000Y-96350000D03*
X128000000Y-93650000D03*
X128000000Y-96350000D03*
X127000000Y-85650000D03*
X127000000Y-88350000D03*
D23*
X151150000Y-97000000D03*
X153850000Y-97000000D03*
X151150000Y-94500000D03*
X153850000Y-94500000D03*
X121350000Y-109500000D03*
X118650000Y-109500000D03*
X121350000Y-107000000D03*
X118650000Y-107000000D03*
D15*
X186750000Y-99600000D03*
X186750000Y-96900000D03*
X183000000Y-101850000D03*
X183000000Y-99150000D03*
D11*
X139500000Y-75500000D03*
D12*
X139500000Y-72960000D03*
X136960000Y-75500000D03*
X136960000Y-72960000D03*
X134420000Y-75500000D03*
X134420000Y-72960000D03*
X131880000Y-75500000D03*
X131880000Y-72960000D03*
X129340000Y-75500000D03*
X129340000Y-72960000D03*
X126800000Y-75500000D03*
X126800000Y-72960000D03*
D24*
X166250000Y-87800000D03*
X164150000Y-87800000D03*
D25*
X135700000Y-89750000D03*
X136500000Y-89750000D03*
X137300000Y-89750000D03*
X138100000Y-89750000D03*
X138900000Y-89750000D03*
X139700000Y-89750000D03*
X140500000Y-89750000D03*
X141300000Y-89750000D03*
D26*
X142750000Y-88300000D03*
X142750000Y-87500000D03*
X142750000Y-86700000D03*
X142750000Y-85900000D03*
X142750000Y-85100000D03*
X142750000Y-84300000D03*
X142750000Y-83500000D03*
X142750000Y-82700000D03*
D25*
X141300000Y-81250000D03*
X140500000Y-81250000D03*
X139700000Y-81250000D03*
X138900000Y-81250000D03*
X138100000Y-81250000D03*
X137300000Y-81250000D03*
X136500000Y-81250000D03*
X135700000Y-81250000D03*
D26*
X134250000Y-82700000D03*
X134250000Y-83500000D03*
X134250000Y-84300000D03*
X134250000Y-85100000D03*
X134250000Y-85900000D03*
X134250000Y-86700000D03*
X134250000Y-87500000D03*
X134250000Y-88300000D03*
D27*
X159000000Y-94750000D03*
X159000000Y-97250000D03*
D28*
X173500000Y-86250000D03*
D29*
X171000000Y-86250000D03*
D28*
X159250000Y-86250000D03*
D29*
X156750000Y-86250000D03*
D27*
X135000000Y-102250000D03*
X135000000Y-99750000D03*
X129500000Y-85750000D03*
X129500000Y-88250000D03*
D30*
X196750000Y-77250000D03*
D31*
X191750000Y-77250000D03*
D30*
X182000000Y-77500000D03*
D31*
X177000000Y-77500000D03*
D30*
X153250000Y-77500000D03*
D31*
X148250000Y-77500000D03*
D30*
X167500000Y-77500000D03*
D31*
X162500000Y-77500000D03*
D27*
X195500000Y-91750000D03*
X195500000Y-89250000D03*
D20*
X127050000Y-99845000D03*
X127050000Y-101115000D03*
X127050000Y-102385000D03*
X127050000Y-103655000D03*
X132450000Y-103655000D03*
X132450000Y-102385000D03*
X132450000Y-101115000D03*
X132450000Y-99845000D03*
D32*
X176250000Y-91250000D03*
X176250000Y-100250000D03*
D33*
X195670000Y-98000000D03*
X200750000Y-98000000D03*
D34*
X200650000Y-116000000D03*
D35*
X200650000Y-111500000D03*
D36*
X200650000Y-105500000D03*
D37*
X195750000Y-108450000D03*
D11*
X150500000Y-113000000D03*
D12*
X150500000Y-115540000D03*
D38*
X153040000Y-113000000D03*
X153040000Y-115540000D03*
D12*
X155580000Y-113000000D03*
X155580000Y-115540000D03*
X158120000Y-113000000D03*
X158120000Y-115540000D03*
X160660000Y-113000000D03*
X160660000Y-115540000D03*
X163200000Y-113000000D03*
X163200000Y-115540000D03*
X165740000Y-113000000D03*
X165740000Y-115540000D03*
X168280000Y-113000000D03*
X168280000Y-115540000D03*
X170820000Y-113000000D03*
X170820000Y-115540000D03*
X173360000Y-113000000D03*
X173360000Y-115540000D03*
X175900000Y-113000000D03*
X175900000Y-115540000D03*
X178440000Y-113000000D03*
X178440000Y-115540000D03*
M02*
