G04 #@! TF.FileFunction,Soldermask,Bot*
%FSLAX46Y46*%
G04 Gerber Fmt 4.6, Leading zero omitted, Abs format (unit mm)*
G04 Created by KiCad (PCBNEW 4.0.2-stable) date 9/19/2016 8:58:53 PM*
%MOMM*%
G01*
G04 APERTURE LIST*
%ADD10C,0.100000*%
%ADD11R,4.700000X1.300000*%
%ADD12R,9.500000X10.900000*%
%ADD13R,3.500000X2.600000*%
%ADD14R,1.727200X1.727200*%
%ADD15O,1.727200X1.727200*%
%ADD16C,1.750000*%
%ADD17C,2.000000*%
%ADD18C,5.700000*%
%ADD19C,1.905000*%
%ADD20R,1.500000X1.300000*%
%ADD21R,1.300000X1.500000*%
%ADD22R,2.000000X1.700000*%
%ADD23R,2.300000X2.500000*%
%ADD24R,1.500000X1.250000*%
%ADD25R,1.250000X1.500000*%
%ADD26C,1.300000*%
%ADD27R,1.300000X1.300000*%
%ADD28C,1.700000*%
%ADD29R,1.700000X1.700000*%
%ADD30R,2.700020X4.000500*%
%ADD31R,0.599440X1.000760*%
%ADD32C,1.524000*%
%ADD33R,0.600000X0.800000*%
%ADD34C,3.000000*%
%ADD35C,4.000000*%
%ADD36C,4.500000*%
%ADD37C,3.500000*%
%ADD38C,1.727200*%
G04 APERTURE END LIST*
D10*
D11*
X188300000Y-101865000D03*
X188300000Y-107135000D03*
D12*
X179150000Y-104500000D03*
D13*
X127500000Y-109700000D03*
X127500000Y-80300000D03*
D14*
X210250000Y-96000000D03*
D15*
X207710000Y-96000000D03*
X210250000Y-93460000D03*
X207710000Y-93460000D03*
X210250000Y-90920000D03*
X207710000Y-90920000D03*
X210250000Y-88380000D03*
X207710000Y-88380000D03*
X210250000Y-85840000D03*
X207710000Y-85840000D03*
D16*
X126250000Y-115010000D03*
X130750000Y-115010000D03*
D17*
X124995000Y-117500000D03*
X132005000Y-117500000D03*
D16*
X136000000Y-115010000D03*
X140500000Y-115010000D03*
D17*
X134745000Y-117500000D03*
X141755000Y-117500000D03*
D16*
X186750000Y-115010000D03*
X191250000Y-115010000D03*
D17*
X185495000Y-117500000D03*
X192505000Y-117500000D03*
D16*
X209510000Y-109250000D03*
X209510000Y-104750000D03*
D17*
X212000000Y-110505000D03*
X212000000Y-103495000D03*
D18*
X210500000Y-116000000D03*
X210500000Y-74000000D03*
X118500000Y-74000000D03*
X118500000Y-116000000D03*
D19*
X183190000Y-85690000D03*
X183190000Y-88230000D03*
X183190000Y-90770000D03*
X183190000Y-93310000D03*
X190810000Y-93310000D03*
X190810000Y-90770000D03*
X190810000Y-88230000D03*
X190810000Y-85690000D03*
D20*
X166750000Y-86400000D03*
X164050000Y-86400000D03*
D21*
X167400000Y-97350000D03*
X167400000Y-94650000D03*
D20*
X166750000Y-88800000D03*
X164050000Y-88800000D03*
X138850000Y-108000000D03*
X136150000Y-108000000D03*
D22*
X191500000Y-82250000D03*
X195500000Y-82250000D03*
D21*
X185500000Y-82350000D03*
X185500000Y-79650000D03*
D14*
X139500000Y-75500000D03*
D15*
X139500000Y-72960000D03*
X136960000Y-75500000D03*
X136960000Y-72960000D03*
X134420000Y-75500000D03*
X134420000Y-72960000D03*
X131880000Y-75500000D03*
X131880000Y-72960000D03*
X129340000Y-75500000D03*
X129340000Y-72960000D03*
X126800000Y-75500000D03*
X126800000Y-72960000D03*
D23*
X178500000Y-92800000D03*
X178500000Y-88500000D03*
D24*
X166650000Y-91800000D03*
X164150000Y-91800000D03*
D25*
X164800000Y-94750000D03*
X164800000Y-97250000D03*
X162000000Y-94750000D03*
X162000000Y-97250000D03*
D26*
X173500000Y-86250000D03*
D27*
X171000000Y-86250000D03*
D26*
X159250000Y-86250000D03*
D27*
X156750000Y-86250000D03*
D24*
X155750000Y-100500000D03*
X153250000Y-100500000D03*
X169750000Y-100500000D03*
X167250000Y-100500000D03*
X136250000Y-111000000D03*
X138750000Y-111000000D03*
D25*
X138250000Y-81000000D03*
X138250000Y-83500000D03*
X140500000Y-90750000D03*
X140500000Y-88250000D03*
X143000000Y-90750000D03*
X143000000Y-88250000D03*
X140500000Y-81000000D03*
X140500000Y-83500000D03*
D28*
X196750000Y-77250000D03*
D29*
X191750000Y-77250000D03*
D28*
X182000000Y-77500000D03*
D29*
X177000000Y-77500000D03*
D28*
X153250000Y-77500000D03*
D29*
X148250000Y-77500000D03*
D28*
X167500000Y-77500000D03*
D29*
X162500000Y-77500000D03*
D25*
X188500000Y-82250000D03*
X188500000Y-79750000D03*
X202750000Y-88000000D03*
X202750000Y-85500000D03*
D30*
X199250000Y-85611260D03*
X199250000Y-93388740D03*
D31*
X131849760Y-108699960D03*
X133150240Y-108699960D03*
X132500000Y-106800040D03*
D21*
X206500000Y-109100000D03*
X206500000Y-106400000D03*
D32*
X195670000Y-98000000D03*
X200750000Y-98000000D03*
D33*
X208350000Y-99000000D03*
X206650000Y-99000000D03*
D34*
X200650000Y-116000000D03*
D35*
X200650000Y-111500000D03*
D36*
X200650000Y-105500000D03*
D37*
X195750000Y-108450000D03*
D14*
X150500000Y-113000000D03*
D15*
X150500000Y-115540000D03*
D38*
X153040000Y-113000000D03*
X153040000Y-115540000D03*
D15*
X155580000Y-113000000D03*
X155580000Y-115540000D03*
X158120000Y-113000000D03*
X158120000Y-115540000D03*
X160660000Y-113000000D03*
X160660000Y-115540000D03*
X163200000Y-113000000D03*
X163200000Y-115540000D03*
X165740000Y-113000000D03*
X165740000Y-115540000D03*
X168280000Y-113000000D03*
X168280000Y-115540000D03*
X170820000Y-113000000D03*
X170820000Y-115540000D03*
X173360000Y-113000000D03*
X173360000Y-115540000D03*
X175900000Y-113000000D03*
X175900000Y-115540000D03*
X178440000Y-113000000D03*
X178440000Y-115540000D03*
M02*
