M48
;DRILL file {KiCad 4.0.2-stable} date 9/19/2016 8:58:56 PM
;FORMAT={3:3/ absolute / metric / suppress leading zeros}
FMAT,2
METRIC,TZ
T1C0.635
T2C0.700
T3C0.762
T4C0.800
T5C0.990
T6C1.000
T7C1.016
T8C1.200
T9C1.300
T10C2.600
T11C3.100
T12C3.200
T13C3.600
%
G90
G05
M71
T1
X117000Y-109250
X118000Y-96750
X118000Y-104500
X119250Y-82250
X121500Y-78000
X122750Y-78750
X123000Y-74250
X123250Y-90000
X123500Y-91500
X123750Y-84500
X124250Y-88750
X124750Y-85500
X126250Y-91000
X127000Y-92000
X128750Y-101750
X130500Y-92000
X130750Y-102000
X130750Y-113000
X131000Y-82250
X131750Y-92000
X132500Y-91000
X133750Y-91750
X134000Y-111500
X134500Y-97750
X135250Y-78000
X136000Y-83000
X136000Y-86750
X136000Y-88000
X136000Y-96250
X136750Y-84250
X136750Y-101500
X137750Y-102250
X138000Y-86750
X138250Y-78500
X138250Y-92500
X138250Y-93750
X139250Y-86750
X140250Y-78000
X140500Y-93000
X140500Y-97750
X141500Y-78250
X141500Y-99000
X142000Y-75500
X143000Y-81250
X143500Y-71500
X144750Y-82500
X145750Y-83250
X145750Y-95750
X146250Y-80250
X146250Y-117750
X146500Y-71250
X146750Y-100500
X146750Y-112750
X147750Y-101750
X148750Y-98000
X149750Y-98750
X152000Y-108250
X153000Y-104500
X153000Y-105750
X155500Y-99000
X156750Y-104250
X156750Y-105500
X156750Y-106750
X156750Y-108000
X157250Y-88250
X158000Y-100500
X158000Y-109250
X158000Y-118500
X158750Y-90000
X159250Y-118250
X160200Y-93000
X160500Y-94750
X160500Y-97250
X161000Y-99250
X163250Y-118500
X165000Y-109250
X165250Y-90250
X165250Y-101750
X165750Y-118250
X166750Y-103000
X166750Y-104500
X166750Y-105750
X166750Y-107000
X166750Y-108250
X169750Y-97000
X170000Y-91750
X170500Y-110000
X171250Y-95000
X171250Y-102000
X172750Y-98000
X172750Y-105000
X173500Y-91250
X174750Y-117250
X177750Y-118250
X178500Y-97750
X179500Y-111250
X181000Y-117250
X182250Y-112000
X182250Y-113250
X183750Y-118500
X187500Y-84750
X191500Y-99500
X193000Y-98250
X194750Y-101750
X209250Y-102250
T2
X195670Y-98000
X200750Y-98000
T3
X183190Y-85690
X183190Y-88230
X183190Y-90770
X183190Y-93310
X190810Y-85690
X190810Y-88230
X190810Y-90770
X190810Y-93310
T4
X156750Y-86250
X159250Y-86250
X171000Y-86250
X173500Y-86250
T5
X126250Y-115010
X130750Y-115010
X136000Y-115010
X140500Y-115010
X186750Y-115010
X191250Y-115010
X209510Y-104750
X209510Y-109250
T6
X154250Y-91750
X178500Y-83250
X182000Y-80000
X195500Y-85500
X202250Y-80500
X204750Y-100000
T7
X126800Y-72960
X126800Y-75500
X129340Y-72960
X129340Y-75500
X131880Y-72960
X131880Y-75500
X134420Y-72960
X134420Y-75500
X136960Y-72960
X136960Y-75500
X139500Y-72960
X139500Y-75500
X150500Y-113000
X150500Y-115540
X155580Y-113000
X155580Y-115540
X158120Y-113000
X158120Y-115540
X160660Y-113000
X160660Y-115540
X163200Y-113000
X163200Y-115540
X165740Y-113000
X165740Y-115540
X168280Y-113000
X168280Y-115540
X170820Y-113000
X170820Y-115540
X173360Y-113000
X173360Y-115540
X175900Y-113000
X175900Y-115540
X178440Y-113000
X178440Y-115540
X207710Y-85840
X207710Y-88380
X207710Y-90920
X207710Y-93460
X207710Y-96000
X210250Y-85840
X210250Y-88380
X210250Y-90920
X210250Y-93460
X210250Y-96000
T8
X148250Y-77500
X153250Y-77500
X162500Y-77500
X167500Y-77500
X177000Y-77500
X182000Y-77500
X191750Y-77250
X196750Y-77250
T9
X124995Y-117500
X132005Y-117500
X134745Y-117500
X141755Y-117500
X185495Y-117500
X192505Y-117500
X212000Y-103495
X212000Y-110505
T10
X195750Y-108450
T11
X200650Y-111500
T12
X118500Y-74000
X118500Y-116000
X210500Y-74000
X210500Y-116000
T13
X200650Y-105500
T0
M30
