M48
;DRILL file {KiCad 4.0.4-stable} date 11/22/16 21:10:49
;FORMAT={3:3/ absolute / metric / suppress leading zeros}
FMAT,2
METRIC,TZ
T1C0.600
T2C0.635
T3C0.700
T4C1.000
T5C1.001
T6C1.016
T7C1.100
T8C1.150
T9C1.200
T10C1.400
T11C1.500
T12C3.200
%
G90
G05
M71
T1
X190960Y-68250
X193500Y-65710
X193500Y-70790
T2
X117000Y-109250
X118000Y-96750
X118000Y-104500
X121750Y-63500
X122750Y-113000
X123500Y-91500
X125000Y-77500
X126250Y-91000
X127000Y-92000
X127500Y-75500
X128500Y-62500
X128750Y-101750
X130500Y-92000
X130750Y-102000
X131750Y-92000
X132250Y-67750
X132500Y-82250
X132500Y-91000
X133750Y-91750
X134750Y-96250
X136000Y-97750
X136250Y-86750
X136250Y-88000
X136500Y-83500
X136750Y-101750
X137750Y-75000
X137750Y-92500
X137750Y-100750
X138000Y-61750
X138000Y-86750
X138750Y-78500
X139000Y-95000
X139250Y-86750
X140500Y-93000
X140500Y-97750
X141250Y-71250
X141500Y-78250
X143000Y-76000
X144000Y-115000
X144000Y-116750
X144000Y-118000
X144500Y-79000
X144750Y-81000
X146000Y-77750
X146250Y-96250
X147500Y-77500
X147500Y-99750
X147500Y-101250
X147500Y-103000
X147750Y-115500
X148250Y-83500
X149750Y-97750
X150750Y-98750
X152000Y-94250
X152000Y-108250
X153000Y-104500
X153000Y-105750
X153750Y-96500
X154250Y-95250
X155500Y-99000
X156750Y-104250
X156750Y-105500
X156750Y-106750
X156750Y-108000
X157750Y-100000
X158000Y-109000
X160250Y-109000
X162750Y-97000
X169250Y-100750
X169750Y-81750
X169750Y-83000
X169750Y-84500
X170750Y-82500
X170750Y-84000
X170750Y-101750
X170750Y-103250
X170750Y-104500
X170750Y-105750
X170750Y-107000
X172000Y-83250
X173250Y-110250
X181750Y-69250
X181750Y-70500
X181750Y-71750
X183000Y-69250
X183000Y-70500
X183000Y-71750
X184250Y-69250
X184250Y-70500
X184250Y-71750
X184750Y-114750
X184750Y-116000
X184750Y-117250
X184750Y-118500
X196500Y-73000
X198250Y-75750
X199750Y-75750
X204500Y-75500
X204500Y-77750
X205750Y-75500
X205750Y-77750
T3
X210000Y-99170
X210000Y-104250
T4
X118000Y-83750
X127500Y-83750
X134000Y-111500
X141750Y-99250
X153250Y-85000
X154250Y-91750
X156000Y-87750
X156250Y-66250
X161000Y-56750
X169250Y-99250
X175250Y-108750
T5
X188085Y-83125
X190625Y-83125
X193165Y-83125
T6
X118250Y-67250
X118250Y-69790
X118250Y-72330
X118250Y-74870
X118250Y-77410
X120790Y-67250
X120790Y-69790
X120790Y-72330
X120790Y-74870
X120790Y-77410
X141590Y-59000
X141590Y-61540
X144130Y-59000
X144130Y-61540
X146670Y-59000
X146670Y-61540
X149210Y-59000
X149210Y-61540
X150500Y-113000
X150500Y-115540
X151750Y-59000
X151750Y-61540
X155580Y-113000
X155580Y-115540
X158120Y-113000
X158120Y-115540
X160660Y-113000
X160660Y-115540
X163200Y-113000
X163200Y-115540
X165740Y-113000
X165740Y-115540
X168280Y-113000
X168280Y-115540
X170820Y-113000
X170820Y-115540
X173360Y-113000
X173360Y-115540
X175900Y-113000
X175900Y-115540
X178440Y-113000
X178440Y-115540
T7
X126000Y-117240
X127000Y-59240
X130500Y-117240
X131500Y-59240
X136500Y-117240
X141000Y-117240
X188000Y-117240
X192500Y-117240
T8
X151960Y-76250
X154500Y-76250
X157040Y-76250
T9
X171000Y-75500
X172000Y-90250
X176000Y-75500
X177000Y-90250
T10
X124745Y-114750
X125745Y-56750
X131755Y-114750
X132755Y-56750
X135245Y-114750
X142255Y-114750
X186745Y-114750
X193755Y-114750
T11
X146500Y-72000
X171250Y-65000
T12
X118500Y-59000
X118500Y-116000
X210500Y-59000
X210500Y-116000
T10
X199425Y-105500G85X201775Y-105500
G05
X199675Y-111500G85X201525Y-111500
G05
X205500Y-109125G85X205500Y-107775
G05
T0
M30
