G04 #@! TF.FileFunction,Legend,Bot*
%FSLAX46Y46*%
G04 Gerber Fmt 4.6, Leading zero omitted, Abs format (unit mm)*
G04 Created by KiCad (PCBNEW 4.0.4-stable) date 11/22/16 21:10:50*
%MOMM*%
%LPD*%
G01*
G04 APERTURE LIST*
%ADD10C,0.100000*%
%ADD11C,0.300000*%
%ADD12C,0.150000*%
G04 APERTURE END LIST*
D10*
D11*
X115892858Y-111678571D02*
X115892858Y-110178571D01*
X116464286Y-110178571D01*
X116607144Y-110250000D01*
X116678572Y-110321429D01*
X116750001Y-110464286D01*
X116750001Y-110678571D01*
X116678572Y-110821429D01*
X116607144Y-110892857D01*
X116464286Y-110964286D01*
X115892858Y-110964286D01*
X117392858Y-111678571D02*
X117392858Y-110178571D01*
X117750001Y-110178571D01*
X117964286Y-110250000D01*
X118107144Y-110392857D01*
X118178572Y-110535714D01*
X118250001Y-110821429D01*
X118250001Y-111035714D01*
X118178572Y-111321429D01*
X118107144Y-111464286D01*
X117964286Y-111607143D01*
X117750001Y-111678571D01*
X117392858Y-111678571D01*
X118750001Y-110178571D02*
X119750001Y-110178571D01*
X119107144Y-111678571D01*
X115892858Y-107928571D02*
X115892858Y-106428571D01*
X116464286Y-106428571D01*
X116607144Y-106500000D01*
X116678572Y-106571429D01*
X116750001Y-106714286D01*
X116750001Y-106928571D01*
X116678572Y-107071429D01*
X116607144Y-107142857D01*
X116464286Y-107214286D01*
X115892858Y-107214286D01*
X117392858Y-107928571D02*
X117392858Y-106428571D01*
X117750001Y-106428571D01*
X117964286Y-106500000D01*
X118107144Y-106642857D01*
X118178572Y-106785714D01*
X118250001Y-107071429D01*
X118250001Y-107285714D01*
X118178572Y-107571429D01*
X118107144Y-107714286D01*
X117964286Y-107857143D01*
X117750001Y-107928571D01*
X117392858Y-107928571D01*
X119535715Y-106428571D02*
X119250001Y-106428571D01*
X119107144Y-106500000D01*
X119035715Y-106571429D01*
X118892858Y-106785714D01*
X118821429Y-107071429D01*
X118821429Y-107642857D01*
X118892858Y-107785714D01*
X118964286Y-107857143D01*
X119107144Y-107928571D01*
X119392858Y-107928571D01*
X119535715Y-107857143D01*
X119607144Y-107785714D01*
X119678572Y-107642857D01*
X119678572Y-107285714D01*
X119607144Y-107142857D01*
X119535715Y-107071429D01*
X119392858Y-107000000D01*
X119107144Y-107000000D01*
X118964286Y-107071429D01*
X118892858Y-107142857D01*
X118821429Y-107285714D01*
D12*
X150150000Y-82625000D02*
X151350000Y-82625000D01*
X151350000Y-80875000D02*
X150150000Y-80875000D01*
X179710000Y-116810000D02*
X149230000Y-116810000D01*
X151770000Y-111730000D02*
X179710000Y-111730000D01*
X179710000Y-116810000D02*
X179710000Y-111730000D01*
X149230000Y-116810000D02*
X149230000Y-114270000D01*
X148950000Y-113000000D02*
X148950000Y-111450000D01*
X149230000Y-114270000D02*
X151770000Y-114270000D01*
X151770000Y-114270000D02*
X151770000Y-111730000D01*
X148950000Y-111450000D02*
X150500000Y-111450000D01*
X152635000Y-70607000D02*
X152635000Y-72893000D01*
X151365000Y-70607000D02*
X151365000Y-72893000D01*
X151428500Y-70607000D02*
X152571500Y-70607000D01*
X151428500Y-72956500D02*
X152571500Y-72956500D01*
X152571500Y-72194500D02*
X151428500Y-72194500D01*
X133754000Y-106492000D02*
X134389000Y-106492000D01*
X134389000Y-106492000D02*
X134389000Y-107508000D01*
X132611000Y-107508000D02*
X132611000Y-106492000D01*
X132611000Y-106492000D02*
X133246000Y-106492000D01*
X133754000Y-106365000D02*
X133754000Y-106492000D01*
X133246000Y-106492000D02*
X133246000Y-106365000D01*
X134389000Y-107508000D02*
X132611000Y-107508000D01*
X133246000Y-106365000D02*
X133754000Y-106365000D01*
X139650000Y-82750000D02*
X139650000Y-81750000D01*
X141350000Y-81750000D02*
X141350000Y-82750000D01*
X143850000Y-89000000D02*
X143850000Y-90000000D01*
X142150000Y-90000000D02*
X142150000Y-89000000D01*
X141350000Y-89000000D02*
X141350000Y-90000000D01*
X139650000Y-90000000D02*
X139650000Y-89000000D01*
X137400000Y-82750000D02*
X137400000Y-81750000D01*
X139100000Y-81750000D02*
X139100000Y-82750000D01*
X138000000Y-111850000D02*
X137000000Y-111850000D01*
X137000000Y-110150000D02*
X138000000Y-110150000D01*
X173250000Y-100100000D02*
X172250000Y-100100000D01*
X172250000Y-98400000D02*
X173250000Y-98400000D01*
X154000000Y-99650000D02*
X155000000Y-99650000D01*
X155000000Y-101350000D02*
X154000000Y-101350000D01*
X150250000Y-78650000D02*
X151250000Y-78650000D01*
X151250000Y-80350000D02*
X150250000Y-80350000D01*
X158750000Y-82350000D02*
X157750000Y-82350000D01*
X157750000Y-80650000D02*
X158750000Y-80650000D01*
X158750000Y-80100000D02*
X157750000Y-80100000D01*
X157750000Y-78400000D02*
X158750000Y-78400000D01*
X161375000Y-96100000D02*
X161375000Y-94900000D01*
X159625000Y-94900000D02*
X159625000Y-96100000D01*
X159125000Y-96100000D02*
X159125000Y-94900000D01*
X157375000Y-94900000D02*
X157375000Y-96100000D01*
X136900000Y-108875000D02*
X138100000Y-108875000D01*
X138100000Y-107125000D02*
X136900000Y-107125000D01*
X131056000Y-109224000D02*
X123944000Y-109224000D01*
X135628000Y-100842000D02*
X135628000Y-102620000D01*
X119372000Y-100842000D02*
X119372000Y-102620000D01*
X119320164Y-102576894D02*
G75*
G03X135611596Y-102647559I8179836J7830894D01*
G01*
X131056000Y-109250000D02*
X131056000Y-105541000D01*
X123944000Y-109250000D02*
X123944000Y-105541000D01*
X123944000Y-81000000D02*
X123944000Y-84205000D01*
X131056000Y-81000000D02*
X131056000Y-84205000D01*
X119320164Y-87169106D02*
G75*
G02X135611596Y-87098441I8179836J-7830894D01*
G01*
X119372000Y-89031000D02*
X119372000Y-87253000D01*
X135628000Y-89031000D02*
X135628000Y-87253000D01*
X131056000Y-80903000D02*
X123944000Y-80903000D01*
X137500000Y-95000000D02*
G75*
G03X137500000Y-95000000I-10000000J0D01*
G01*
X155142857Y-82202381D02*
X155476191Y-81726190D01*
X155714286Y-82202381D02*
X155714286Y-81202381D01*
X155333333Y-81202381D01*
X155238095Y-81250000D01*
X155190476Y-81297619D01*
X155142857Y-81392857D01*
X155142857Y-81535714D01*
X155190476Y-81630952D01*
X155238095Y-81678571D01*
X155333333Y-81726190D01*
X155714286Y-81726190D01*
X154190476Y-82202381D02*
X154761905Y-82202381D01*
X154476191Y-82202381D02*
X154476191Y-81202381D01*
X154571429Y-81345238D01*
X154666667Y-81440476D01*
X154761905Y-81488095D01*
X153714286Y-82202381D02*
X153523810Y-82202381D01*
X153428571Y-82154762D01*
X153380952Y-82107143D01*
X153285714Y-81964286D01*
X153238095Y-81773810D01*
X153238095Y-81392857D01*
X153285714Y-81297619D01*
X153333333Y-81250000D01*
X153428571Y-81202381D01*
X153619048Y-81202381D01*
X153714286Y-81250000D01*
X153761905Y-81297619D01*
X153809524Y-81392857D01*
X153809524Y-81630952D01*
X153761905Y-81726190D01*
X153714286Y-81773810D01*
X153619048Y-81821429D01*
X153428571Y-81821429D01*
X153333333Y-81773810D01*
X153285714Y-81726190D01*
X153238095Y-81630952D01*
X148988095Y-118702381D02*
X148988095Y-117702381D01*
X148607142Y-117702381D01*
X148511904Y-117750000D01*
X148464285Y-117797619D01*
X148416666Y-117892857D01*
X148416666Y-118035714D01*
X148464285Y-118130952D01*
X148511904Y-118178571D01*
X148607142Y-118226190D01*
X148988095Y-118226190D01*
X147464285Y-118702381D02*
X148035714Y-118702381D01*
X147750000Y-118702381D02*
X147750000Y-117702381D01*
X147845238Y-117845238D01*
X147940476Y-117940476D01*
X148035714Y-117988095D01*
X152702381Y-68511905D02*
X151702381Y-68511905D01*
X151702381Y-68750000D01*
X151750000Y-68892858D01*
X151845238Y-68988096D01*
X151940476Y-69035715D01*
X152130952Y-69083334D01*
X152273810Y-69083334D01*
X152464286Y-69035715D01*
X152559524Y-68988096D01*
X152654762Y-68892858D01*
X152702381Y-68750000D01*
X152702381Y-68511905D01*
X152035714Y-69940477D02*
X152702381Y-69940477D01*
X151654762Y-69702381D02*
X152369048Y-69464286D01*
X152369048Y-70083334D01*
X134238095Y-110202381D02*
X134238095Y-109202381D01*
X134000000Y-109202381D01*
X133857142Y-109250000D01*
X133761904Y-109345238D01*
X133714285Y-109440476D01*
X133666666Y-109630952D01*
X133666666Y-109773810D01*
X133714285Y-109964286D01*
X133761904Y-110059524D01*
X133857142Y-110154762D01*
X134000000Y-110202381D01*
X134238095Y-110202381D01*
X132809523Y-109202381D02*
X133000000Y-109202381D01*
X133095238Y-109250000D01*
X133142857Y-109297619D01*
X133238095Y-109440476D01*
X133285714Y-109630952D01*
X133285714Y-110011905D01*
X133238095Y-110107143D01*
X133190476Y-110154762D01*
X133095238Y-110202381D01*
X132904761Y-110202381D01*
X132809523Y-110154762D01*
X132761904Y-110107143D01*
X132714285Y-110011905D01*
X132714285Y-109773810D01*
X132761904Y-109678571D01*
X132809523Y-109630952D01*
X132904761Y-109583333D01*
X133095238Y-109583333D01*
X133190476Y-109630952D01*
X133238095Y-109678571D01*
X133285714Y-109773810D01*
X142857143Y-82083334D02*
X142904762Y-82035715D01*
X142952381Y-81892858D01*
X142952381Y-81797620D01*
X142904762Y-81654762D01*
X142809524Y-81559524D01*
X142714286Y-81511905D01*
X142523810Y-81464286D01*
X142380952Y-81464286D01*
X142190476Y-81511905D01*
X142095238Y-81559524D01*
X142000000Y-81654762D01*
X141952381Y-81797620D01*
X141952381Y-81892858D01*
X142000000Y-82035715D01*
X142047619Y-82083334D01*
X142952381Y-82559524D02*
X142952381Y-82750000D01*
X142904762Y-82845239D01*
X142857143Y-82892858D01*
X142714286Y-82988096D01*
X142523810Y-83035715D01*
X142142857Y-83035715D01*
X142047619Y-82988096D01*
X142000000Y-82940477D01*
X141952381Y-82845239D01*
X141952381Y-82654762D01*
X142000000Y-82559524D01*
X142047619Y-82511905D01*
X142142857Y-82464286D01*
X142380952Y-82464286D01*
X142476190Y-82511905D01*
X142523810Y-82559524D01*
X142571429Y-82654762D01*
X142571429Y-82845239D01*
X142523810Y-82940477D01*
X142476190Y-82988096D01*
X142380952Y-83035715D01*
X145457143Y-88857143D02*
X145504762Y-88809524D01*
X145552381Y-88666667D01*
X145552381Y-88571429D01*
X145504762Y-88428571D01*
X145409524Y-88333333D01*
X145314286Y-88285714D01*
X145123810Y-88238095D01*
X144980952Y-88238095D01*
X144790476Y-88285714D01*
X144695238Y-88333333D01*
X144600000Y-88428571D01*
X144552381Y-88571429D01*
X144552381Y-88666667D01*
X144600000Y-88809524D01*
X144647619Y-88857143D01*
X145552381Y-89809524D02*
X145552381Y-89238095D01*
X145552381Y-89523809D02*
X144552381Y-89523809D01*
X144695238Y-89428571D01*
X144790476Y-89333333D01*
X144838095Y-89238095D01*
X144552381Y-90428571D02*
X144552381Y-90523810D01*
X144600000Y-90619048D01*
X144647619Y-90666667D01*
X144742857Y-90714286D01*
X144933333Y-90761905D01*
X145171429Y-90761905D01*
X145361905Y-90714286D01*
X145457143Y-90666667D01*
X145504762Y-90619048D01*
X145552381Y-90523810D01*
X145552381Y-90428571D01*
X145504762Y-90333333D01*
X145457143Y-90285714D01*
X145361905Y-90238095D01*
X145171429Y-90190476D01*
X144933333Y-90190476D01*
X144742857Y-90238095D01*
X144647619Y-90285714D01*
X144600000Y-90333333D01*
X144552381Y-90428571D01*
X139107143Y-88857143D02*
X139154762Y-88809524D01*
X139202381Y-88666667D01*
X139202381Y-88571429D01*
X139154762Y-88428571D01*
X139059524Y-88333333D01*
X138964286Y-88285714D01*
X138773810Y-88238095D01*
X138630952Y-88238095D01*
X138440476Y-88285714D01*
X138345238Y-88333333D01*
X138250000Y-88428571D01*
X138202381Y-88571429D01*
X138202381Y-88666667D01*
X138250000Y-88809524D01*
X138297619Y-88857143D01*
X139202381Y-89809524D02*
X139202381Y-89238095D01*
X139202381Y-89523809D02*
X138202381Y-89523809D01*
X138345238Y-89428571D01*
X138440476Y-89333333D01*
X138488095Y-89238095D01*
X139202381Y-90761905D02*
X139202381Y-90190476D01*
X139202381Y-90476190D02*
X138202381Y-90476190D01*
X138345238Y-90380952D01*
X138440476Y-90285714D01*
X138488095Y-90190476D01*
X136507143Y-81607143D02*
X136554762Y-81559524D01*
X136602381Y-81416667D01*
X136602381Y-81321429D01*
X136554762Y-81178571D01*
X136459524Y-81083333D01*
X136364286Y-81035714D01*
X136173810Y-80988095D01*
X136030952Y-80988095D01*
X135840476Y-81035714D01*
X135745238Y-81083333D01*
X135650000Y-81178571D01*
X135602381Y-81321429D01*
X135602381Y-81416667D01*
X135650000Y-81559524D01*
X135697619Y-81607143D01*
X136602381Y-82559524D02*
X136602381Y-81988095D01*
X136602381Y-82273809D02*
X135602381Y-82273809D01*
X135745238Y-82178571D01*
X135840476Y-82083333D01*
X135888095Y-81988095D01*
X135697619Y-82940476D02*
X135650000Y-82988095D01*
X135602381Y-83083333D01*
X135602381Y-83321429D01*
X135650000Y-83416667D01*
X135697619Y-83464286D01*
X135792857Y-83511905D01*
X135888095Y-83511905D01*
X136030952Y-83464286D01*
X136602381Y-82892857D01*
X136602381Y-83511905D01*
X142142857Y-111357143D02*
X142190476Y-111404762D01*
X142333333Y-111452381D01*
X142428571Y-111452381D01*
X142571429Y-111404762D01*
X142666667Y-111309524D01*
X142714286Y-111214286D01*
X142761905Y-111023810D01*
X142761905Y-110880952D01*
X142714286Y-110690476D01*
X142666667Y-110595238D01*
X142571429Y-110500000D01*
X142428571Y-110452381D01*
X142333333Y-110452381D01*
X142190476Y-110500000D01*
X142142857Y-110547619D01*
X141190476Y-111452381D02*
X141761905Y-111452381D01*
X141476191Y-111452381D02*
X141476191Y-110452381D01*
X141571429Y-110595238D01*
X141666667Y-110690476D01*
X141761905Y-110738095D01*
X140333333Y-110452381D02*
X140523810Y-110452381D01*
X140619048Y-110500000D01*
X140666667Y-110547619D01*
X140761905Y-110690476D01*
X140809524Y-110880952D01*
X140809524Y-111261905D01*
X140761905Y-111357143D01*
X140714286Y-111404762D01*
X140619048Y-111452381D01*
X140428571Y-111452381D01*
X140333333Y-111404762D01*
X140285714Y-111357143D01*
X140238095Y-111261905D01*
X140238095Y-111023810D01*
X140285714Y-110928571D01*
X140333333Y-110880952D01*
X140428571Y-110833333D01*
X140619048Y-110833333D01*
X140714286Y-110880952D01*
X140761905Y-110928571D01*
X140809524Y-111023810D01*
X177392857Y-99607143D02*
X177440476Y-99654762D01*
X177583333Y-99702381D01*
X177678571Y-99702381D01*
X177821429Y-99654762D01*
X177916667Y-99559524D01*
X177964286Y-99464286D01*
X178011905Y-99273810D01*
X178011905Y-99130952D01*
X177964286Y-98940476D01*
X177916667Y-98845238D01*
X177821429Y-98750000D01*
X177678571Y-98702381D01*
X177583333Y-98702381D01*
X177440476Y-98750000D01*
X177392857Y-98797619D01*
X176440476Y-99702381D02*
X177011905Y-99702381D01*
X176726191Y-99702381D02*
X176726191Y-98702381D01*
X176821429Y-98845238D01*
X176916667Y-98940476D01*
X177011905Y-98988095D01*
X175869048Y-99130952D02*
X175964286Y-99083333D01*
X176011905Y-99035714D01*
X176059524Y-98940476D01*
X176059524Y-98892857D01*
X176011905Y-98797619D01*
X175964286Y-98750000D01*
X175869048Y-98702381D01*
X175678571Y-98702381D01*
X175583333Y-98750000D01*
X175535714Y-98797619D01*
X175488095Y-98892857D01*
X175488095Y-98940476D01*
X175535714Y-99035714D01*
X175583333Y-99083333D01*
X175678571Y-99130952D01*
X175869048Y-99130952D01*
X175964286Y-99178571D01*
X176011905Y-99226190D01*
X176059524Y-99321429D01*
X176059524Y-99511905D01*
X176011905Y-99607143D01*
X175964286Y-99654762D01*
X175869048Y-99702381D01*
X175678571Y-99702381D01*
X175583333Y-99654762D01*
X175535714Y-99607143D01*
X175488095Y-99511905D01*
X175488095Y-99321429D01*
X175535714Y-99226190D01*
X175583333Y-99178571D01*
X175678571Y-99130952D01*
X151392857Y-100857143D02*
X151440476Y-100904762D01*
X151583333Y-100952381D01*
X151678571Y-100952381D01*
X151821429Y-100904762D01*
X151916667Y-100809524D01*
X151964286Y-100714286D01*
X152011905Y-100523810D01*
X152011905Y-100380952D01*
X151964286Y-100190476D01*
X151916667Y-100095238D01*
X151821429Y-100000000D01*
X151678571Y-99952381D01*
X151583333Y-99952381D01*
X151440476Y-100000000D01*
X151392857Y-100047619D01*
X150440476Y-100952381D02*
X151011905Y-100952381D01*
X150726191Y-100952381D02*
X150726191Y-99952381D01*
X150821429Y-100095238D01*
X150916667Y-100190476D01*
X151011905Y-100238095D01*
X149964286Y-100952381D02*
X149773810Y-100952381D01*
X149678571Y-100904762D01*
X149630952Y-100857143D01*
X149535714Y-100714286D01*
X149488095Y-100523810D01*
X149488095Y-100142857D01*
X149535714Y-100047619D01*
X149583333Y-100000000D01*
X149678571Y-99952381D01*
X149869048Y-99952381D01*
X149964286Y-100000000D01*
X150011905Y-100047619D01*
X150059524Y-100142857D01*
X150059524Y-100380952D01*
X150011905Y-100476190D01*
X149964286Y-100523810D01*
X149869048Y-100571429D01*
X149678571Y-100571429D01*
X149583333Y-100523810D01*
X149535714Y-100476190D01*
X149488095Y-100380952D01*
X155142857Y-79857143D02*
X155190476Y-79904762D01*
X155333333Y-79952381D01*
X155428571Y-79952381D01*
X155571429Y-79904762D01*
X155666667Y-79809524D01*
X155714286Y-79714286D01*
X155761905Y-79523810D01*
X155761905Y-79380952D01*
X155714286Y-79190476D01*
X155666667Y-79095238D01*
X155571429Y-79000000D01*
X155428571Y-78952381D01*
X155333333Y-78952381D01*
X155190476Y-79000000D01*
X155142857Y-79047619D01*
X154761905Y-79047619D02*
X154714286Y-79000000D01*
X154619048Y-78952381D01*
X154380952Y-78952381D01*
X154285714Y-79000000D01*
X154238095Y-79047619D01*
X154190476Y-79142857D01*
X154190476Y-79238095D01*
X154238095Y-79380952D01*
X154809524Y-79952381D01*
X154190476Y-79952381D01*
X153809524Y-79047619D02*
X153761905Y-79000000D01*
X153666667Y-78952381D01*
X153428571Y-78952381D01*
X153333333Y-79000000D01*
X153285714Y-79047619D01*
X153238095Y-79142857D01*
X153238095Y-79238095D01*
X153285714Y-79380952D01*
X153857143Y-79952381D01*
X153238095Y-79952381D01*
X163392857Y-81857143D02*
X163440476Y-81904762D01*
X163583333Y-81952381D01*
X163678571Y-81952381D01*
X163821429Y-81904762D01*
X163916667Y-81809524D01*
X163964286Y-81714286D01*
X164011905Y-81523810D01*
X164011905Y-81380952D01*
X163964286Y-81190476D01*
X163916667Y-81095238D01*
X163821429Y-81000000D01*
X163678571Y-80952381D01*
X163583333Y-80952381D01*
X163440476Y-81000000D01*
X163392857Y-81047619D01*
X163011905Y-81047619D02*
X162964286Y-81000000D01*
X162869048Y-80952381D01*
X162630952Y-80952381D01*
X162535714Y-81000000D01*
X162488095Y-81047619D01*
X162440476Y-81142857D01*
X162440476Y-81238095D01*
X162488095Y-81380952D01*
X163059524Y-81952381D01*
X162440476Y-81952381D01*
X162107143Y-80952381D02*
X161488095Y-80952381D01*
X161821429Y-81333333D01*
X161678571Y-81333333D01*
X161583333Y-81380952D01*
X161535714Y-81428571D01*
X161488095Y-81523810D01*
X161488095Y-81761905D01*
X161535714Y-81857143D01*
X161583333Y-81904762D01*
X161678571Y-81952381D01*
X161964286Y-81952381D01*
X162059524Y-81904762D01*
X162107143Y-81857143D01*
X163392857Y-79607143D02*
X163440476Y-79654762D01*
X163583333Y-79702381D01*
X163678571Y-79702381D01*
X163821429Y-79654762D01*
X163916667Y-79559524D01*
X163964286Y-79464286D01*
X164011905Y-79273810D01*
X164011905Y-79130952D01*
X163964286Y-78940476D01*
X163916667Y-78845238D01*
X163821429Y-78750000D01*
X163678571Y-78702381D01*
X163583333Y-78702381D01*
X163440476Y-78750000D01*
X163392857Y-78797619D01*
X163011905Y-78797619D02*
X162964286Y-78750000D01*
X162869048Y-78702381D01*
X162630952Y-78702381D01*
X162535714Y-78750000D01*
X162488095Y-78797619D01*
X162440476Y-78892857D01*
X162440476Y-78988095D01*
X162488095Y-79130952D01*
X163059524Y-79702381D01*
X162440476Y-79702381D01*
X161583333Y-79035714D02*
X161583333Y-79702381D01*
X161821429Y-78654762D02*
X162059524Y-79369048D01*
X161440476Y-79369048D01*
X160952381Y-91083334D02*
X160476190Y-90750000D01*
X160952381Y-90511905D02*
X159952381Y-90511905D01*
X159952381Y-90892858D01*
X160000000Y-90988096D01*
X160047619Y-91035715D01*
X160142857Y-91083334D01*
X160285714Y-91083334D01*
X160380952Y-91035715D01*
X160428571Y-90988096D01*
X160476190Y-90892858D01*
X160476190Y-90511905D01*
X160380952Y-91654762D02*
X160333333Y-91559524D01*
X160285714Y-91511905D01*
X160190476Y-91464286D01*
X160142857Y-91464286D01*
X160047619Y-91511905D01*
X160000000Y-91559524D01*
X159952381Y-91654762D01*
X159952381Y-91845239D01*
X160000000Y-91940477D01*
X160047619Y-91988096D01*
X160142857Y-92035715D01*
X160190476Y-92035715D01*
X160285714Y-91988096D01*
X160333333Y-91940477D01*
X160380952Y-91845239D01*
X160380952Y-91654762D01*
X160428571Y-91559524D01*
X160476190Y-91511905D01*
X160571429Y-91464286D01*
X160761905Y-91464286D01*
X160857143Y-91511905D01*
X160904762Y-91559524D01*
X160952381Y-91654762D01*
X160952381Y-91845239D01*
X160904762Y-91940477D01*
X160857143Y-91988096D01*
X160761905Y-92035715D01*
X160571429Y-92035715D01*
X160476190Y-91988096D01*
X160428571Y-91940477D01*
X160380952Y-91845239D01*
X158702381Y-91083334D02*
X158226190Y-90750000D01*
X158702381Y-90511905D02*
X157702381Y-90511905D01*
X157702381Y-90892858D01*
X157750000Y-90988096D01*
X157797619Y-91035715D01*
X157892857Y-91083334D01*
X158035714Y-91083334D01*
X158130952Y-91035715D01*
X158178571Y-90988096D01*
X158226190Y-90892858D01*
X158226190Y-90511905D01*
X158702381Y-91559524D02*
X158702381Y-91750000D01*
X158654762Y-91845239D01*
X158607143Y-91892858D01*
X158464286Y-91988096D01*
X158273810Y-92035715D01*
X157892857Y-92035715D01*
X157797619Y-91988096D01*
X157750000Y-91940477D01*
X157702381Y-91845239D01*
X157702381Y-91654762D01*
X157750000Y-91559524D01*
X157797619Y-91511905D01*
X157892857Y-91464286D01*
X158130952Y-91464286D01*
X158226190Y-91511905D01*
X158273810Y-91559524D01*
X158321429Y-91654762D01*
X158321429Y-91845239D01*
X158273810Y-91940477D01*
X158226190Y-91988096D01*
X158130952Y-92035715D01*
X142392857Y-108452381D02*
X142726191Y-107976190D01*
X142964286Y-108452381D02*
X142964286Y-107452381D01*
X142583333Y-107452381D01*
X142488095Y-107500000D01*
X142440476Y-107547619D01*
X142392857Y-107642857D01*
X142392857Y-107785714D01*
X142440476Y-107880952D01*
X142488095Y-107928571D01*
X142583333Y-107976190D01*
X142964286Y-107976190D01*
X141440476Y-108452381D02*
X142011905Y-108452381D01*
X141726191Y-108452381D02*
X141726191Y-107452381D01*
X141821429Y-107595238D01*
X141916667Y-107690476D01*
X142011905Y-107738095D01*
X140583333Y-107785714D02*
X140583333Y-108452381D01*
X140821429Y-107404762D02*
X141059524Y-108119048D01*
X140440476Y-108119048D01*
X122285714Y-83428571D02*
X122142857Y-83476190D01*
X122095238Y-83523810D01*
X122047619Y-83619048D01*
X122047619Y-83761905D01*
X122095238Y-83857143D01*
X122142857Y-83904762D01*
X122238095Y-83952381D01*
X122619048Y-83952381D01*
X122619048Y-82952381D01*
X122285714Y-82952381D01*
X122190476Y-83000000D01*
X122142857Y-83047619D01*
X122095238Y-83142857D01*
X122095238Y-83238095D01*
X122142857Y-83333333D01*
X122190476Y-83380952D01*
X122285714Y-83428571D01*
X122619048Y-83428571D01*
X121761905Y-82952381D02*
X121190476Y-82952381D01*
X121476191Y-83952381D02*
X121476191Y-82952381D01*
X120333333Y-83952381D02*
X120904762Y-83952381D01*
X120619048Y-83952381D02*
X120619048Y-82952381D01*
X120714286Y-83095238D01*
X120809524Y-83190476D01*
X120904762Y-83238095D01*
M02*
