G04 #@! TF.FileFunction,Soldermask,Bot*
%FSLAX46Y46*%
G04 Gerber Fmt 4.6, Leading zero omitted, Abs format (unit mm)*
G04 Created by KiCad (PCBNEW 4.0.4-stable) date 11/22/16 21:10:50*
%MOMM*%
%LPD*%
G01*
G04 APERTURE LIST*
%ADD10C,0.100000*%
%ADD11C,3.000000*%
%ADD12R,1.727200X1.727200*%
%ADD13O,1.727200X1.727200*%
%ADD14R,1.500000X1.300000*%
%ADD15C,1.727200*%
%ADD16R,0.800000X0.600000*%
%ADD17C,1.524000*%
%ADD18R,0.599440X1.000760*%
%ADD19C,1.700000*%
%ADD20R,1.700000X1.700000*%
%ADD21R,1.250000X1.500000*%
%ADD22R,1.500000X1.250000*%
%ADD23R,1.300000X1.500000*%
%ADD24C,5.700000*%
%ADD25O,1.501140X2.499360*%
%ADD26R,3.500000X3.500000*%
%ADD27C,2.500000*%
%ADD28O,4.000000X2.000000*%
%ADD29O,4.500000X2.000000*%
%ADD30O,2.000000X3.500000*%
%ADD31C,1.750000*%
%ADD32C,2.000000*%
%ADD33C,1.100000*%
G04 APERTURE END LIST*
D10*
D11*
X146500000Y-72000000D03*
X171250000Y-65000000D03*
D12*
X118250000Y-67250000D03*
D13*
X120790000Y-67250000D03*
X118250000Y-69790000D03*
X120790000Y-69790000D03*
X118250000Y-72330000D03*
X120790000Y-72330000D03*
X118250000Y-74870000D03*
X120790000Y-74870000D03*
X118250000Y-77410000D03*
X120790000Y-77410000D03*
D14*
X152100000Y-81750000D03*
X149400000Y-81750000D03*
D12*
X150500000Y-113000000D03*
D13*
X150500000Y-115540000D03*
D15*
X153040000Y-113000000D03*
X153040000Y-115540000D03*
D13*
X155580000Y-113000000D03*
X155580000Y-115540000D03*
X158120000Y-113000000D03*
X158120000Y-115540000D03*
X160660000Y-113000000D03*
X160660000Y-115540000D03*
X163200000Y-113000000D03*
X163200000Y-115540000D03*
X165740000Y-113000000D03*
X165740000Y-115540000D03*
X168280000Y-113000000D03*
X168280000Y-115540000D03*
X170820000Y-113000000D03*
X170820000Y-115540000D03*
X173360000Y-113000000D03*
X173360000Y-115540000D03*
X175900000Y-113000000D03*
X175900000Y-115540000D03*
X178440000Y-113000000D03*
X178440000Y-115540000D03*
D16*
X152000000Y-70900000D03*
X152000000Y-72600000D03*
D17*
X210000000Y-99170000D03*
X210000000Y-104250000D03*
D18*
X132849760Y-107949960D03*
X134150240Y-107949960D03*
X133500000Y-106050040D03*
D19*
X171000000Y-75500000D03*
D20*
X176000000Y-75500000D03*
D19*
X172000000Y-90250000D03*
D20*
X177000000Y-90250000D03*
D21*
X140500000Y-81000000D03*
X140500000Y-83500000D03*
X143000000Y-90750000D03*
X143000000Y-88250000D03*
X140500000Y-90750000D03*
X140500000Y-88250000D03*
X138250000Y-81000000D03*
X138250000Y-83500000D03*
D22*
X136250000Y-111000000D03*
X138750000Y-111000000D03*
X171500000Y-99250000D03*
X174000000Y-99250000D03*
X155750000Y-100500000D03*
X153250000Y-100500000D03*
X152000000Y-79500000D03*
X149500000Y-79500000D03*
X157000000Y-81500000D03*
X159500000Y-81500000D03*
X157000000Y-79250000D03*
X159500000Y-79250000D03*
D23*
X160500000Y-94150000D03*
X160500000Y-96850000D03*
X158250000Y-94150000D03*
X158250000Y-96850000D03*
D14*
X138850000Y-108000000D03*
X136150000Y-108000000D03*
D24*
X118500000Y-116000000D03*
X118500000Y-59000000D03*
X210500000Y-59000000D03*
X210500000Y-116000000D03*
D12*
X151750000Y-59000000D03*
D13*
X151750000Y-61540000D03*
X149210000Y-59000000D03*
X149210000Y-61540000D03*
X146670000Y-59000000D03*
X146670000Y-61540000D03*
X144130000Y-59000000D03*
X144130000Y-61540000D03*
X141590000Y-59000000D03*
X141590000Y-61540000D03*
D25*
X190625000Y-83125000D03*
X193165000Y-83125000D03*
X188085000Y-83125000D03*
D26*
X127500000Y-109700000D03*
X127500000Y-80300000D03*
D27*
X200600000Y-116000000D03*
D28*
X200600000Y-111500000D03*
D29*
X200600000Y-105500000D03*
D30*
X205500000Y-108450000D03*
D31*
X130500000Y-117240000D03*
X126000000Y-117240000D03*
D32*
X131755000Y-114750000D03*
X124745000Y-114750000D03*
D31*
X141000000Y-117240000D03*
X136500000Y-117240000D03*
D32*
X142255000Y-114750000D03*
X135245000Y-114750000D03*
D31*
X192500000Y-117240000D03*
X188000000Y-117240000D03*
D32*
X193755000Y-114750000D03*
X186745000Y-114750000D03*
D31*
X131500000Y-59240000D03*
X127000000Y-59240000D03*
D32*
X132755000Y-56750000D03*
X125745000Y-56750000D03*
X151960000Y-76250000D03*
X154500000Y-76250000D03*
X157040000Y-76250000D03*
D33*
X190960000Y-68250000D03*
X193500000Y-65710000D03*
X193500000Y-70790000D03*
M02*
